<svg xmlns="http://www.w3.org/2000/svg" viewBox="0 0 353.64 344.82"><defs><style>.d{fill:#f9c}.e{fill:#1d1d1d}.f{fill:#653d52}</style></defs><g id="b"><g id="c"><path class="f" d="M353.39 215.82v4.11l-2.1.58v-4.16l2.1-.53zM353.39 211.7v4.12l-2.1.53v-4.16l2.1-.49z"/><path class="f" d="M353.39 207.6v4.1l-2.1.49v-4.16l2.1-.43z"/><path class="f" d="M353.39 203.49v4.11l-2.1.43v-4.16l2.1-.38zM353.39 199.38v4.11l-2.1.38v-4.16l2.1-.33z"/><path class="f" d="M353.39 195.27v4.11l-2.1.33v-4.16l2.1-.28zM353.39 191.16v4.11l-2.1.28v-4.16l2.1-.23z"/><path class="f" d="M353.39 187.05v4.11l-2.1.23v-4.16l2.1-.18z"/><path class="f" d="M353.39 182.94v4.11l-2.1.18v-4.17l2.1-.12z"/><path class="f" d="M353.39 178.83v4.11l-2.1.12v-4.16l2.1-.07zM353.39 174.72v4.11l-2.1.07v-4.16l2.1-.02z"/><path class="f" d="M353.39 170.61v4.11l-2.1.02v-4.16l2.1.03zM353.39 166.5v4.11l-2.1-.03v-4.16l2.1.08zM353.39 162.39v4.11l-2.1-.08v-4.16l2.1.13z"/><path class="f" d="M353.39 158.28v4.11l-2.1-.13v-4.16l2.1.18zM353.39 154.17v4.11l-2.1-.18v-4.16l2.1.23z"/><path class="f" d="M353.39 150.06v4.11l-2.1-.23v-4.16l2.1.28zM353.39 145.95v4.11l-2.1-.28v-4.17l2.1.34z"/><path class="f" d="M353.39 141.84v4.11l-2.1-.34v-4.16l2.1.39z"/><path class="f" d="M353.39 137.73v4.11l-2.1-.39v-4.16l2.1.44z"/><path class="f" d="M353.39 133.62v4.11l-2.1-.44v-4.16l2.1.49zM353.39 129.51v4.11l-2.1-.49v-4.16l2.1.54z"/><path class="f" d="M353.39 125.4v4.11l-2.1-.54v-4.16l2.1.59zM351.29 220.51v4.16l-2.14.66v-4.21l2.14-.61z"/><path class="f" d="M351.29 216.35v4.16l-2.14.61v-4.22l2.14-.55z"/><path class="e" d="M351.29 212.19v4.16l-2.14.55v-4.21l2.14-.5z"/><path class="e" d="M351.29 208.03v4.16l-2.14.5v-4.22l2.14-.44z"/><path class="e" d="M351.29 203.87v4.16l-2.14.44v-4.21l2.14-.39z"/><path class="e" d="M351.29 199.71v4.16l-2.14.39v-4.21l2.14-.34z"/><path class="e" d="M351.29 195.55v4.16l-2.14.34v-4.21l2.14-.29zM351.29 191.39v4.16l-2.14.29v-4.22l2.14-.23z"/><path class="e" d="M351.29 187.23v4.16l-2.14.23v-4.21l2.14-.18z"/><path class="e" d="M351.29 183.06v4.17l-2.14.18v-4.22l2.14-.13z"/><path class="e" d="M351.29 178.9v4.16l-2.14.13v-4.21l2.14-.08z"/><path class="e" d="M351.29 174.74v4.16l-2.14.08v-4.21l2.14-.03z"/><path class="e" d="M351.29 170.58v4.16l-2.14.03v-4.22l2.14.03zM351.29 166.42v4.16l-2.14-.03v-4.21l2.14.08z"/><path class="e" d="M351.29 162.26v4.16l-2.14-.08v-4.21l2.14.13z"/><path class="e" d="M351.29 158.1v4.16l-2.14-.13v-4.22l2.14.19z"/><path class="e" d="M351.29 153.94v4.16l-2.14-.19v-4.21l2.14.24z"/><path class="e" d="M351.29 149.78v4.16l-2.14-.24v-4.21l2.14.29z"/><path class="e" d="M351.29 145.61v4.17l-2.14-.29v-4.22l2.14.34zM351.29 141.45v4.16l-2.14-.34v-4.21l2.14.39z"/><path class="e" d="M351.29 137.29v4.16l-2.14-.39v-4.22l2.14.45z"/><path class="e" d="M351.29 133.13v4.16l-2.14-.45v-4.21l2.14.5z"/><path class="e" d="M351.29 128.97v4.16l-2.14-.5v-4.21l2.14.55z"/><path class="f" d="M351.29 124.81v4.16l-2.14-.55v-4.22l2.14.61z"/><path class="f" d="M351.29 120.65v4.16l-2.14-.61v-4.21l2.14.66zM349.15 225.33v4.21l-2.21.73V226l2.21-.67z"/><path class="f" d="M349.15 221.12v4.21l-2.21.67v-4.27l2.21-.61z"/><path class="e" d="M349.15 216.9v4.22l-2.21.61v-4.26l2.21-.57zM349.15 212.69v4.21l-2.21.57v-4.27l2.21-.51z"/><path class="f" d="M349.15 208.47v4.22l-2.21.51v-4.27l2.21-.46z"/><path class="f" d="M349.15 204.26v4.21l-2.21.46v-4.27l2.21-.4z"/><path class="f" d="M349.15 200.05v4.21l-2.21.4v-4.26l2.21-.35zM349.15 195.84v4.21l-2.21.35v-4.27l2.21-.29z"/><path class="f" d="M349.15 191.62v4.22l-2.21.29v-4.27l2.21-.24z"/><path class="f" d="M349.15 187.41v4.21l-2.21.24v-4.27l2.21-.18z"/><path class="f" d="M349.15 183.19v4.22l-2.21.18v-4.26l2.21-.14zM349.15 178.98v4.21l-2.21.14v-4.27l2.21-.08z"/><path class="f" d="M349.15 174.77v4.21l-2.21.08v-4.27l2.21-.02z"/><path class="f" d="M349.15 170.55v4.22l-2.21.02v-4.27l2.21.03z"/><path class="f" d="M349.15 166.34v4.21l-2.21-.03v-4.26l2.21.08zM349.15 162.13v4.21l-2.21-.08v-4.27l2.21.14z"/><path class="f" d="M349.15 157.91v4.22l-2.21-.14v-4.27l2.21.19z"/><path class="f" d="M349.15 153.7v4.21l-2.21-.19v-4.26l2.21.24z"/><path class="f" d="M349.15 149.49v4.21l-2.21-.24v-4.27l2.21.3z"/><path class="f" d="M349.15 145.27v4.22l-2.21-.3v-4.27l2.21.35z"/><path class="f" d="M349.15 141.06v4.21l-2.21-.35v-4.27l2.21.41z"/><path class="f" d="M349.15 136.84v4.22l-2.21-.41v-4.26l2.21.45z"/><path class="f" d="M349.15 132.63v4.21l-2.21-.45v-4.27l2.21.51z"/><path class="e" d="M349.15 128.42v4.21l-2.21-.51v-4.27l2.21.57z"/><path class="e" d="M349.15 124.2v4.22l-2.21-.57v-4.27l2.21.62z"/><path class="f" d="M349.15 119.99v4.21l-2.21-.62v-4.27l2.21.68z"/><path class="f" d="M349.15 115.78v4.21l-2.21-.68v-4.26l2.21.73zM346.94 226v4.27l-2.26.74v-4.32l2.26-.69z"/><path class="e" d="M346.94 221.73V226l-2.26.69v-4.32l2.26-.64zM346.94 217.47v4.26l-2.26.64v-4.32l2.26-.58z"/><path class="f" d="M346.94 213.2v4.27l-2.26.58v-4.33l2.26-.52z"/><path class="f" d="M346.94 208.93v4.27l-2.26.52v-4.32l2.26-.47zM346.94 204.66v4.27l-2.26.47v-4.32l2.26-.42zM346.94 200.4v4.26l-2.26.42v-4.32l2.26-.36z"/><path class="f" d="M346.94 196.13v4.27l-2.26.36v-4.33l2.26-.3z"/><path class="f" d="M346.94 191.86v4.27l-2.26.3v-4.32l2.26-.25zM346.94 187.59v4.27l-2.26.25v-4.32l2.26-.2zM346.94 183.33v4.26l-2.26.2v-4.33l2.26-.13z"/><path class="f" d="M346.94 179.06v4.27l-2.26.13v-4.32l2.26-.08z"/><path class="f" d="M346.94 174.79v4.27l-2.26.08v-4.32l2.26-.03z"/><path class="f" d="M346.94 170.52v4.27l-2.26.03v-4.32l2.26.02zM346.94 166.26v4.26l-2.26-.02v-4.33l2.26.09z"/><path class="f" d="M346.94 161.99v4.27l-2.26-.09v-4.32l2.26.14z"/><path class="f" d="M346.94 157.72v4.27l-2.26-.14v-4.32l2.26.19zM346.94 153.46v4.26l-2.26-.19v-4.33l2.26.26z"/><path class="f" d="M346.94 149.19v4.27l-2.26-.26v-4.32l2.26.31zM346.94 144.92v4.27l-2.26-.31v-4.32l2.26.36z"/><path class="f" d="M346.94 140.65v4.27l-2.26-.36v-4.32l2.26.41zM346.94 136.39v4.26l-2.26-.41v-4.33l2.26.48z"/><path class="f" d="M346.94 132.12v4.27l-2.26-.48v-4.32l2.26.53zM346.94 127.85v4.27l-2.26-.53v-4.32l2.26.58z"/><path class="e" d="M346.94 123.58v4.27l-2.26-.58v-4.33l2.26.64z"/><path class="e" d="M346.94 119.31v4.27l-2.26-.64v-4.32l2.26.69z"/><path class="f" d="M346.94 115.05v4.26l-2.26-.69v-4.32l2.26.75zM344.68 226.69v4.32l-2.32.77v-4.38l2.32-.71z"/><path class="e" d="M344.68 222.37v4.32l-2.32.71v-4.38l2.32-.65z"/><path class="f" d="M344.68 218.05v4.32l-2.32.65v-4.38l2.32-.59z"/><path class="f" d="M344.68 213.72v4.33l-2.32.59v-4.38l2.32-.54zM344.68 209.4v4.32l-2.32.54v-4.38l2.32-.48z"/><path class="f" d="M344.68 205.08v4.32l-2.32.48v-4.38l2.32-.42zM344.68 200.76v4.32l-2.32.42v-4.38l2.32-.36z"/><path class="f" d="M344.68 196.43v4.33l-2.32.36v-4.38l2.32-.31zM344.68 192.11v4.32l-2.32.31v-4.38l2.32-.25zM344.68 187.79v4.32l-2.32.25v-4.38l2.32-.19z"/><path class="f" d="M344.68 183.46v4.33l-2.32.19v-4.38l2.32-.14zM344.68 179.14v4.32l-2.32.14v-4.38l2.32-.08z"/><path class="f" d="M344.68 174.82v4.32l-2.32.08v-4.38l2.32-.02z"/><path class="f" d="M344.68 170.5v4.32l-2.32.02v-4.37l2.32.03z"/><path class="f" d="M344.68 166.17v4.33l-2.32-.03v-4.38l2.32.08zM344.68 161.85v4.32l-2.32-.08v-4.38l2.32.14z"/><path class="f" d="M344.68 157.53v4.32l-2.32-.14v-4.38l2.32.2z"/><path class="f" d="M344.68 153.2v4.33l-2.32-.2v-4.38l2.32.25zM344.68 148.88v4.32l-2.32-.25v-4.38l2.32.31z"/><path class="f" d="M344.68 144.56v4.32l-2.32-.31v-4.38l2.32.37z"/><path class="f" d="M344.68 140.24v4.32l-2.32-.37v-4.38l2.32.43z"/><path class="f" d="M344.68 135.91v4.33l-2.32-.43v-4.38l2.32.48z"/><path class="f" d="M344.68 131.59v4.32l-2.32-.48v-4.38l2.32.54z"/><path class="f" d="M344.68 127.27v4.32l-2.32-.54v-4.38l2.32.6zM344.68 122.94v4.33l-2.32-.6v-4.38l2.32.65z"/><path class="e" d="M344.68 118.62v4.32l-2.32-.65v-4.38l2.32.71z"/><path class="f" d="M344.68 114.3v4.32l-2.32-.71v-4.38l2.32.77zM342.36 227.4v4.38l-2.38.78v-4.43l2.38-.73z"/><path class="e" d="M342.36 223.02v4.38l-2.38.73v-4.44l2.38-.67z"/><path class="f" d="M342.36 218.64v4.38l-2.38.67v-4.44l2.38-.61z"/><path class="f" d="M342.36 214.26v4.38l-2.38.61v-4.44l2.38-.55z"/><path class="f" d="M342.36 209.88v4.38l-2.38.55v-4.43l2.38-.5z"/><path class="f" d="M342.36 205.5v4.38l-2.38.5v-4.44l2.38-.44z"/><path class="f" d="M342.36 201.12v4.38l-2.38.44v-4.44l2.38-.38z"/><path class="f" d="M342.36 196.74v4.38l-2.38.38v-4.44l2.38-.32z"/><path class="f" d="M342.36 192.36v4.38l-2.38.32v-4.44l2.38-.26zM342.36 187.98v4.38l-2.38.26v-4.43l2.38-.21z"/><path class="f" d="M342.36 183.6v4.38l-2.38.21v-4.44l2.38-.15z"/><path class="d" d="M342.36 179.22v4.38l-2.38.15v-4.44l2.38-.09z"/><path class="d" d="M342.36 174.84v4.38l-2.38.09v-4.44l2.38-.03z"/><path class="d" d="M342.36 170.47v4.37l-2.38.03v-4.44l2.38.04z"/><path class="f" d="M342.36 166.09v4.38l-2.38-.04V166l2.38.09z"/><path class="f" d="M342.36 161.71v4.38l-2.38-.09v-4.44l2.38.15z"/><path class="d" d="M342.36 157.33v4.38l-2.38-.15v-4.44l2.38.21z"/><path class="f" d="M342.36 152.95v4.38l-2.38-.21v-4.44l2.38.27z"/><path class="f" d="M342.36 148.57v4.38l-2.38-.27v-4.43l2.38.32z"/><path class="f" d="M342.36 144.19v4.38l-2.38-.32v-4.44l2.38.38z"/><path class="f" d="M342.36 139.81v4.38l-2.38-.38v-4.44l2.38.44z"/><path class="f" d="M342.36 135.43v4.38l-2.38-.44v-4.44l2.38.5z"/><path class="f" d="M342.36 131.05v4.38l-2.38-.5v-4.44l2.38.56z"/><path class="f" d="M342.36 126.67v4.38l-2.38-.56v-4.43l2.38.61z"/><path class="f" d="M342.36 122.29v4.38l-2.38-.61v-4.44l2.38.67z"/><path class="e" d="M342.36 117.91v4.38l-2.38-.67v-4.44l2.38.73z"/><path class="f" d="M342.36 113.53v4.38l-2.38-.73v-4.44l2.38.79zM339.98 228.13v4.43l-2.44.81v-4.5l2.44-.74z"/><path class="e" d="M339.98 223.69v4.44l-2.44.74v-4.49l2.44-.69z"/><path class="f" d="M339.98 219.25v4.44l-2.44.69v-4.5l2.44-.63z"/><path class="f" d="M339.98 214.81v4.44l-2.44.63v-4.5l2.44-.57z"/><path class="f" d="M339.98 210.38v4.43l-2.44.57v-4.5l2.44-.5z"/><path class="f" d="M339.98 205.94v4.44l-2.44.5v-4.5l2.44-.44z"/><path class="f" d="M339.98 201.5v4.44l-2.44.44v-4.49l2.44-.39z"/><path class="f" d="M339.98 197.06v4.44l-2.44.39v-4.5l2.44-.33z"/><path class="f" d="M339.98 192.62v4.44l-2.44.33v-4.5l2.44-.27z"/><path class="f" d="M339.98 188.19v4.43l-2.44.27v-4.5l2.44-.2z"/><path class="d" d="M339.98 183.75v4.44l-2.44.2v-4.49l2.44-.15z"/><path class="f" d="M339.98 179.31v4.44l-2.44.15v-4.5l2.44-.09z"/><path class="f" d="M339.98 174.87v4.44l-2.44.09v-4.5l2.44-.03z"/><path class="d" d="M339.98 170.43v4.44l-2.44.03v-4.5l2.44.03z"/><path class="f" d="M339.98 166v4.43l-2.44-.03v-4.5l2.44.1z"/><path class="f" d="M339.98 161.56V166l-2.44-.1v-4.49l2.44.15z"/><path class="d" d="M339.98 157.12v4.44l-2.44-.15v-4.5l2.44.21z"/><path class="f" d="M339.98 152.68v4.44l-2.44-.21v-4.5l2.44.27z"/><path class="f" d="M339.98 148.25v4.43l-2.44-.27v-4.49l2.44.33z"/><path class="f" d="M339.98 143.81v4.44l-2.44-.33v-4.5l2.44.39z"/><path class="f" d="M339.98 139.37v4.44l-2.44-.39v-4.5l2.44.45z"/><path class="f" d="M339.98 134.93v4.44l-2.44-.45v-4.5l2.44.51z"/><path class="f" d="M339.98 130.49v4.44l-2.44-.51v-4.5l2.44.57z"/><path class="f" d="M339.98 126.06v4.43l-2.44-.57v-4.49l2.44.63zM339.98 121.62v4.44l-2.44-.63v-4.5l2.44.69z"/><path class="e" d="M339.98 117.18v4.44l-2.44-.69v-4.5l2.44.75z"/><path class="f" d="M339.98 112.74v4.44l-2.44-.75v-4.5l2.44.81zM337.54 228.87v4.5l-2.52.83v-4.56l2.52-.77z"/><path class="e" d="M337.54 224.38v4.49l-2.52.77v-4.56l2.52-.7z"/><path class="f" d="M337.54 219.88v4.5l-2.52.7v-4.56l2.52-.64z"/><path class="f" d="M337.54 215.38v4.5l-2.52.64v-4.56l2.52-.58z"/><path class="f" d="M337.54 210.88v4.5l-2.52.58v-4.56l2.52-.52z"/><path class="f" d="M337.54 206.38v4.5l-2.52.52v-4.56l2.52-.46z"/><path class="f" d="M337.54 201.89v4.49l-2.52.46v-4.56l2.52-.39zM337.54 197.39v4.5l-2.52.39v-4.56l2.52-.33z"/><path class="f" d="M337.54 192.89v4.5l-2.52.33v-4.55l2.52-.28z"/><path class="f" d="M337.54 188.39v4.5l-2.52.28v-4.56l2.52-.22z"/><path class="d" d="M337.54 183.9v4.49l-2.52.22v-4.56l2.52-.15z"/><path class="f" d="M337.54 179.4v4.5l-2.52.15v-4.56l2.52-.09z"/><path class="f" d="M337.54 174.9v4.5l-2.52.09v-4.56l2.52-.03z"/><path class="d" d="M337.54 170.4v4.5l-2.52.03v-4.56l2.52.03z"/><path class="f" d="M337.54 165.9v4.5l-2.52-.03v-4.56l2.52.09z"/><path class="f" d="M337.54 161.41v4.49l-2.52-.09v-4.56l2.52.16z"/><path class="d" d="M337.54 156.91v4.5l-2.52-.16v-4.56l2.52.22z"/><path class="f" d="M337.54 152.41v4.5l-2.52-.22v-4.56l2.52.28z"/><path class="f" d="M337.54 147.92v4.49l-2.52-.28v-4.56l2.52.35z"/><path class="f" d="M337.54 143.42v4.5l-2.52-.35v-4.56l2.52.41z"/><path class="f" d="M337.54 138.92v4.5l-2.52-.41v-4.55l2.52.46z"/><path class="f" d="M337.54 134.42v4.5l-2.52-.46v-4.56l2.52.52z"/><path class="f" d="M337.54 129.92v4.5l-2.52-.52v-4.56l2.52.58z"/><path class="f" d="M337.54 125.43v4.49l-2.52-.58v-4.56l2.52.65z"/><path class="f" d="M337.54 120.93v4.5l-2.52-.65v-4.56l2.52.71z"/><path class="e" d="M337.54 116.43v4.5l-2.52-.71v-4.56l2.52.77z"/><path class="f" d="M337.54 111.93v4.5l-2.52-.77v-4.56l2.52.83zM335.02 229.64v4.56l-2.58.85v-4.62l2.58-.79z"/><path class="e" d="M335.02 225.08v4.56l-2.58.79v-4.63l2.58-.72z"/><path class="f" d="M335.02 220.52v4.56l-2.58.72v-4.62l2.58-.66z"/><path class="f" d="M335.02 215.96v4.56l-2.58.66v-4.62l2.58-.6z"/><path class="f" d="M335.02 211.4v4.56l-2.58.6v-4.62l2.58-.54z"/><path class="f" d="M335.02 206.84v4.56l-2.58.54v-4.62l2.58-.48z"/><path class="f" d="M335.02 202.28v4.56l-2.58.48v-4.63l2.58-.41z"/><path class="f" d="M335.02 197.72v4.56l-2.58.41v-4.62l2.58-.35z"/><path class="f" d="M335.02 193.17v4.55l-2.58.35v-4.62l2.58-.28z"/><path class="f" d="M335.02 188.61v4.56l-2.58.28v-4.62l2.58-.22z"/><path class="d" d="M335.02 184.05v4.56l-2.58.22v-4.63l2.58-.15z"/><path class="f" d="M335.02 179.49v4.56l-2.58.15v-4.62l2.58-.09z"/><path class="f" d="M335.02 174.93v4.56l-2.58.09v-4.62l2.58-.03z"/><path class="f" d="M335.02 170.37v4.56l-2.58.03v-4.62l2.58.03z"/><path class="d" d="M335.02 165.81v4.56l-2.58-.03v-4.63l2.58.1z"/><path class="d" d="M335.02 161.25v4.56l-2.58-.1v-4.62l2.58.16z"/><path class="f" d="M335.02 156.69v4.56l-2.58-.16v-4.62l2.58.22z"/><path class="f" d="M335.02 152.13v4.56l-2.58-.22v-4.62l2.58.28z"/><path class="f" d="M335.02 147.57v4.56l-2.58-.28v-4.62l2.58.34z"/><path class="f" d="M335.02 143.01v4.56l-2.58-.34v-4.63l2.58.41z"/><path class="f" d="M335.02 138.46v4.55l-2.58-.41v-4.62l2.58.48z"/><path class="f" d="M335.02 133.9v4.56l-2.58-.48v-4.62l2.58.54z"/><path class="f" d="M335.02 129.34v4.56l-2.58-.54v-4.62l2.58.6z"/><path class="f" d="M335.02 124.78v4.56l-2.58-.6v-4.63l2.58.67zM335.02 120.22v4.56l-2.58-.67v-4.62l2.58.73z"/><path class="e" d="M335.02 115.66v4.56l-2.58-.73v-4.62l2.58.79z"/><path class="f" d="M335.02 111.1v4.56l-2.58-.79v-4.62l2.58.85zM332.44 230.43v4.62l-2.65.88v-4.69l2.65-.81z"/><path class="e" d="M332.44 225.8v4.63l-2.65.81v-4.69l2.65-.75z"/><path class="f" d="M332.44 221.18v4.62l-2.65.75v-4.69l2.65-.68z"/><path class="f" d="M332.44 216.56v4.62l-2.65.68v-4.68l2.65-.62z"/><path class="f" d="M332.44 211.94v4.62l-2.65.62v-4.69l2.65-.55z"/><path class="f" d="M332.44 207.32v4.62l-2.65.55v-4.69l2.65-.48zM332.44 202.69v4.63l-2.65.48v-4.69l2.65-.42z"/><path class="f" d="M332.44 198.07v4.62l-2.65.42v-4.68l2.65-.36z"/><path class="f" d="M332.44 193.45v4.62l-2.65.36v-4.69l2.65-.29z"/><path class="f" d="M332.44 188.83v4.62l-2.65.29v-4.69l2.65-.22zM332.44 184.2v4.63l-2.65.22v-4.69l2.65-.16z"/><path class="f" d="M332.44 179.58v4.62l-2.65.16v-4.68l2.65-.1z"/><path class="f" d="M332.44 174.96v4.62l-2.65.1v-4.69l2.65-.03z"/><path class="f" d="M332.44 170.34v4.62l-2.65.03v-4.69l2.65.04z"/><path class="f" d="M332.44 165.71v4.63l-2.65-.04v-4.68l2.65.09z"/><path class="f" d="M332.44 161.09v4.62l-2.65-.09v-4.69l2.65.16z"/><path class="f" d="M332.44 156.47v4.62l-2.65-.16v-4.69l2.65.23z"/><path class="f" d="M332.44 151.85v4.62l-2.65-.23v-4.69l2.65.3zM332.44 147.23v4.62l-2.65-.3v-4.68l2.65.36z"/><path class="f" d="M332.44 142.6v4.63l-2.65-.36v-4.69l2.65.42z"/><path class="f" d="M332.44 137.98v4.62l-2.65-.42v-4.69l2.65.49z"/><path class="f" d="M332.44 133.36v4.62l-2.65-.49v-4.69l2.65.56z"/><path class="f" d="M332.44 128.74v4.62l-2.65-.56v-4.68l2.65.62z"/><path class="f" d="M332.44 124.11v4.63l-2.65-.62v-4.69l2.65.68zM332.44 119.49v4.62l-2.65-.68v-4.69l2.65.75z"/><path class="e" d="M332.44 114.87v4.62l-2.65-.75v-4.69l2.65.82z"/><path class="f" d="M332.44 110.25v4.62l-2.65-.82v-4.68l2.65.88zM329.79 231.24v4.69l-2.73.9v-4.76l2.73-.83z"/><path class="e" d="M329.79 226.55v4.69l-2.73.83v-4.75l2.73-.77z"/><path class="f" d="M329.79 221.86v4.69l-2.73.77v-4.76l2.73-.7zM329.79 217.18v4.68l-2.73.7v-4.75l2.73-.63z"/><path class="f" d="M329.79 212.49v4.69l-2.73.63v-4.76l2.73-.56z"/><path class="f" d="M329.79 207.8v4.69l-2.73.56v-4.75l2.73-.5z"/><path class="f" d="M329.79 203.11v4.69l-2.73.5v-4.75l2.73-.44z"/><path class="f" d="M329.79 198.43v4.68l-2.73.44v-4.76l2.73-.36z"/><path class="f" d="M329.79 193.74v4.69l-2.73.36v-4.75l2.73-.3z"/><path class="f" d="M329.79 189.05v4.69l-2.73.3v-4.76l2.73-.23zM329.79 184.36v4.69l-2.73.23v-4.75l2.73-.17z"/><path class="d" d="M329.79 179.68v4.68l-2.73.17v-4.75l2.73-.1z"/><path class="d" d="M329.79 174.99v4.69l-2.73.1v-4.76l2.73-.03z"/><path class="d" d="M329.79 170.3v4.69l-2.73.03v-4.75l2.73.03z"/><path class="f" d="M329.79 165.62v4.68l-2.73-.03v-4.76l2.73.11zM329.79 160.93v4.69l-2.73-.11v-4.75l2.73.17z"/><path class="d" d="M329.79 156.24v4.69l-2.73-.17V156l2.73.24z"/><path class="f" d="M329.79 151.55v4.69l-2.73-.24v-4.75l2.73.3z"/><path class="f" d="M329.79 146.87v4.68l-2.73-.3v-4.75l2.73.37z"/><path class="f" d="M329.79 142.18v4.69l-2.73-.37v-4.76l2.73.44z"/><path class="f" d="M329.79 137.49v4.69l-2.73-.44v-4.75l2.73.5z"/><path class="f" d="M329.79 132.8v4.69l-2.73-.5v-4.76l2.73.57z"/><path class="f" d="M329.79 128.12v4.68l-2.73-.57v-4.75l2.73.64zM329.79 123.43v4.69l-2.73-.64v-4.75l2.73.7zM329.79 118.74v4.69l-2.73-.7v-4.76l2.73.77z"/><path class="e" d="M329.79 114.05v4.69l-2.73-.77v-4.75l2.73.83z"/><path class="f" d="M329.79 109.37v4.68l-2.73-.83v-4.76l2.73.91zM327.06 232.07v4.76l-2.81.92v-4.82l2.81-.86z"/><path class="e" d="M327.06 227.32v4.75l-2.81.86v-4.82l2.81-.79z"/><path class="f" d="M327.06 222.56v4.76l-2.81.79v-4.83l2.81-.72z"/><path class="f" d="M327.06 217.81v4.75l-2.81.72v-4.82l2.81-.65z"/><path class="f" d="M327.06 213.05v4.76l-2.81.65v-4.82l2.81-.59z"/><path class="f" d="M327.06 208.3v4.75l-2.81.59v-4.83l2.81-.51z"/><path class="f" d="M327.06 203.55v4.75l-2.81.51v-4.82l2.81-.44zM327.06 198.79v4.76l-2.81.44v-4.82l2.81-.38z"/><path class="f" d="M327.06 194.04v4.75l-2.81.38v-4.82l2.81-.31z"/><path class="f" d="M327.06 189.28v4.76l-2.81.31v-4.83l2.81-.24z"/><path class="d" d="M327.06 184.53v4.75l-2.81.24v-4.82l2.81-.17z"/><path class="f" d="M327.06 179.78v4.75l-2.81.17v-4.82l2.81-.1z"/><path class="f" d="M327.06 175.02v4.76l-2.81.1v-4.83l2.81-.03z"/><path class="d" d="M327.06 170.27v4.75l-2.81.03v-4.82l2.81.04z"/><path class="f" d="M327.06 165.51v4.76l-2.81-.04v-4.82l2.81.1z"/><path class="f" d="M327.06 160.76v4.75l-2.81-.1v-4.83l2.81.18z"/><path class="d" d="M327.06 156v4.76l-2.81-.18v-4.82l2.81.24z"/><path class="f" d="M327.06 151.25V156l-2.81-.24v-4.82l2.81.31z"/><path class="f" d="M327.06 146.5v4.75l-2.81-.31v-4.82l2.81.38z"/><path class="f" d="M327.06 141.74v4.76l-2.81-.38v-4.83l2.81.45z"/><path class="f" d="M327.06 136.99v4.75l-2.81-.45v-4.82l2.81.52zM327.06 132.23v4.76l-2.81-.52v-4.82l2.81.58z"/><path class="f" d="M327.06 127.48v4.75l-2.81-.58v-4.83l2.81.66z"/><path class="f" d="M327.06 122.73v4.75l-2.81-.66V122l2.81.73z"/><path class="f" d="M327.06 117.97v4.76l-2.81-.73v-4.82l2.81.79z"/><path class="e" d="M327.06 113.22v4.75l-2.81-.79v-4.82l2.81.86z"/><path class="f" d="M327.06 108.46v4.76l-2.81-.86v-4.83l2.81.93zM324.25 232.93v4.82l-2.89.95v-4.89l2.89-.88z"/><path class="e" d="M324.25 228.11v4.82l-2.89.88v-4.89l2.89-.81z"/><path class="f" d="M324.25 223.28v4.83l-2.89.81v-4.9l2.89-.74z"/><path class="f" d="M324.25 218.46v4.82l-2.89.74v-4.89l2.89-.67zM324.25 213.64v4.82l-2.89.67v-4.89l2.89-.6z"/><path class="f" d="M324.25 208.81v4.83l-2.89.6v-4.9l2.89-.53z"/><path class="f" d="M324.25 203.99v4.82l-2.89.53v-4.89l2.89-.46zM324.25 199.17v4.82l-2.89.46v-4.89l2.89-.39zM324.25 194.35v4.82l-2.89.39v-4.9l2.89-.31z"/><path class="f" d="M324.25 189.52v4.83l-2.89.31v-4.89l2.89-.25z"/><path class="d" d="M324.25 184.7v4.82l-2.89.25v-4.89l2.89-.18z"/><path class="f" d="M324.25 179.88v4.82l-2.89.18v-4.9l2.89-.1z"/><path class="f" d="M324.25 175.05v4.83l-2.89.1v-4.89l2.89-.04z"/><path class="d" d="M324.25 170.23v4.82l-2.89.04v-4.9l2.89.04z"/><path class="f" d="M324.25 165.41v4.82l-2.89-.04v-4.89l2.89.11z"/><path class="f" d="M324.25 160.58v4.83l-2.89-.11v-4.89l2.89.17z"/><path class="d" d="M324.25 155.76v4.82l-2.89-.17v-4.9l2.89.25z"/><path class="f" d="M324.25 150.94v4.82l-2.89-.25v-4.89l2.89.32z"/><path class="f" d="M324.25 146.12v4.82l-2.89-.32v-4.9l2.89.4z"/><path class="f" d="M324.25 141.29v4.83l-2.89-.4v-4.89l2.89.46zM324.25 136.47v4.82l-2.89-.46v-4.89l2.89.53z"/><path class="f" d="M324.25 131.65v4.82l-2.89-.53v-4.9l2.89.61z"/><path class="f" d="M324.25 126.82v4.83l-2.89-.61v-4.89l2.89.67z"/><path class="f" d="M324.25 122v4.82l-2.89-.67v-4.89l2.89.74z"/><path class="f" d="M324.25 117.18V122l-2.89-.74v-4.9l2.89.82z"/><path class="e" d="M324.25 112.36v4.82l-2.89-.82v-4.89l2.89.89z"/><path class="f" d="M324.25 107.53v4.83l-2.89-.89v-4.9l2.89.96zM321.36 233.81v4.89l-2.98.99v-4.97l2.98-.91z"/><path class="e" d="M321.36 228.92v4.89l-2.98.91v-4.97l2.98-.83z"/><path class="f" d="M321.36 224.02v4.9l-2.98.83v-4.96l2.98-.77zM321.36 219.13v4.89l-2.98.77v-4.97l2.98-.69z"/><path class="f" d="M321.36 214.24v4.89l-2.98.69v-4.97l2.98-.61z"/><path class="f" d="M321.36 209.34v4.9l-2.98.61v-4.96l2.98-.55zM321.36 204.45v4.89l-2.98.55v-4.97l2.98-.47z"/><path class="f" d="M321.36 199.56v4.89l-2.98.47v-4.97l2.98-.39z"/><path class="f" d="M321.36 194.66v4.9l-2.98.39v-4.96l2.98-.33z"/><path class="f" d="M321.36 189.77v4.89l-2.98.33v-4.97l2.98-.25z"/><path class="d" d="M321.36 184.88v4.89l-2.98.25v-4.97l2.98-.17z"/><path class="f" d="M321.36 179.98v4.9l-2.98.17v-4.96l2.98-.11z"/><path class="f" d="M321.36 175.09v4.89l-2.98.11v-4.97l2.98-.03z"/><path class="d" d="M321.36 170.19v4.9l-2.98.03v-4.97l2.98.04z"/><path class="d" d="M321.36 165.3v4.89l-2.98-.04v-4.96l2.98.11zM321.36 160.41v4.89l-2.98-.11v-4.97l2.98.19z"/><path class="f" d="M321.36 155.51v4.9l-2.98-.19v-4.97l2.98.26z"/><path class="f" d="M321.36 150.62v4.89l-2.98-.26v-4.96l2.98.33z"/><path class="f" d="M321.36 145.72v4.9l-2.98-.33v-4.97l2.98.4z"/><path class="f" d="M321.36 140.83v4.89l-2.98-.4v-4.97l2.98.48z"/><path class="f" d="M321.36 135.94v4.89l-2.98-.48v-4.96l2.98.55z"/><path class="f" d="M321.36 131.04v4.9l-2.98-.55v-4.97l2.98.62z"/><path class="f" d="M321.36 126.15v4.89l-2.98-.62v-4.96l2.98.69z"/><path class="f" d="M321.36 121.26v4.89l-2.98-.69v-4.97l2.98.77z"/><path class="f" d="M321.36 116.36v4.9l-2.98-.77v-4.97l2.98.84z"/><path class="e" d="M321.36 111.47v4.89l-2.98-.84v-4.96l2.98.91z"/><path class="f" d="M321.36 106.57v4.9l-2.98-.91v-4.97l2.98.98zM318.38 234.72v4.97l-3.07 1.01v-5.04l3.07-.94z"/><path class="e" d="M318.38 229.75v4.97l-3.07.94v-5.05l3.07-.86z"/><path class="f" d="M318.38 224.79v4.96l-3.07.86v-5.04l3.07-.78zM318.38 219.82v4.97l-3.07.78v-5.04l3.07-.71z"/><path class="f" d="M318.38 214.85v4.97l-3.07.71v-5.04l3.07-.64zM318.38 209.89v4.96l-3.07.64v-5.04l3.07-.56z"/><path class="f" d="M318.38 204.92v4.97l-3.07.56v-5.04l3.07-.49z"/><path class="f" d="M318.38 199.95v4.97l-3.07.49v-5.05l3.07-.41z"/><path class="f" d="M318.38 194.99v4.96l-3.07.41v-5.04l3.07-.33z"/><path class="f" d="M318.38 190.02v4.97l-3.07.33v-5.04l3.07-.26zM318.38 185.05v4.97l-3.07.26v-5.04l3.07-.19z"/><path class="f" d="M318.38 180.09v4.96l-3.07.19v-5.04l3.07-.11z"/><path class="f" d="M318.38 175.12v4.97l-3.07.11v-5.04l3.07-.04zM318.38 170.15v4.97l-3.07.04v-5.04l3.07.03z"/><path class="f" d="M318.38 165.19v4.96l-3.07-.03v-5.05l3.07.12z"/><path class="f" d="M318.38 160.22v4.97l-3.07-.12v-5.04l3.07.19z"/><path class="f" d="M318.38 155.25v4.97l-3.07-.19v-5.04l3.07.26z"/><path class="f" d="M318.38 150.29v4.96l-3.07-.26v-5.04l3.07.34zM318.38 145.32v4.97l-3.07-.34v-5.04l3.07.41z"/><path class="f" d="M318.38 140.35v4.97l-3.07-.41v-5.04l3.07.48z"/><path class="f" d="M318.38 135.39v4.96l-3.07-.48v-5.05l3.07.57z"/><path class="f" d="M318.38 130.42v4.97l-3.07-.57v-5.04l3.07.64z"/><path class="f" d="M318.38 125.46v4.96l-3.07-.64v-5.04l3.07.72z"/><path class="f" d="M318.38 120.49v4.97l-3.07-.72v-5.04l3.07.79z"/><path class="f" d="M318.38 115.52v4.97l-3.07-.79v-5.04l3.07.86z"/><path class="e" d="M318.38 110.56v4.96l-3.07-.86v-5.05l3.07.95z"/><path class="f" d="M318.38 105.59v4.97l-3.07-.95v-5.04l3.07 1.02zM315.31 235.66v5.04l-3.16 1.04v-5.12l3.16-.96z"/><path class="e" d="M315.31 230.61v5.05l-3.16.96v-5.12l3.16-.89z"/><path class="f" d="M315.31 225.57v5.04l-3.16.89v-5.12l3.16-.81z"/><path class="f" d="M315.31 220.53v5.04l-3.16.81v-5.12l3.16-.73z"/><path class="f" d="M315.31 215.49v5.04l-3.16.73v-5.11l3.16-.66z"/><path class="f" d="M315.31 210.45v5.04l-3.16.66v-5.12l3.16-.58z"/><path class="f" d="M315.31 205.41v5.04l-3.16.58v-5.12l3.16-.5z"/><path class="f" d="M315.31 200.36v5.05l-3.16.5v-5.12l3.16-.43zM315.31 195.32v5.04l-3.16.43v-5.12l3.16-.35z"/><path class="f" d="M315.31 190.28v5.04l-3.16.35v-5.12l3.16-.27z"/><path class="d" d="M315.31 185.24v5.04l-3.16.27v-5.12l3.16-.19z"/><path class="f" d="M315.31 180.2v5.04l-3.16.19v-5.12l3.16-.11z"/><path class="f" d="M315.31 175.16v5.04l-3.16.11v-5.12l3.16-.03z"/><path class="f" d="M315.31 170.12v5.04l-3.16.03v-5.12l3.16.05z"/><path class="f" d="M315.31 165.07v5.05l-3.16-.05v-5.11l3.16.11z"/><path class="f" d="M315.31 160.03v5.04l-3.16-.11v-5.12l3.16.19z"/><path class="d" d="M315.31 154.99v5.04l-3.16-.19v-5.12l3.16.27z"/><path class="f" d="M315.31 149.95v5.04l-3.16-.27v-5.12l3.16.35z"/><path class="f" d="M315.31 144.91v5.04l-3.16-.35v-5.12l3.16.43z"/><path class="f" d="M315.31 139.87v5.04l-3.16-.43v-5.12l3.16.51z"/><path class="f" d="M315.31 134.82v5.05l-3.16-.51v-5.12l3.16.58zM315.31 129.78v5.04l-3.16-.58v-5.12l3.16.66z"/><path class="f" d="M315.31 124.74v5.04l-3.16-.66V124l3.16.74z"/><path class="f" d="M315.31 119.7v5.04l-3.16-.74v-5.12l3.16.82z"/><path class="f" d="M315.31 114.66v5.04l-3.16-.82v-5.12l3.16.9z"/><path class="e" d="M315.31 109.61v5.05l-3.16-.9v-5.11l3.16.96z"/><path class="f" d="M315.31 104.57v5.04l-3.16-.96v-5.12l3.16 1.04zM312.15 236.62v5.12l-3.26 1.08v-5.2l3.26-1z"/><path class="e" d="M312.15 231.5v5.12l-3.26 1v-5.2l3.26-.92z"/><path class="f" d="M312.15 226.38v5.12l-3.26.92v-5.2l3.26-.84z"/><path class="f" d="M312.15 221.26v5.12l-3.26.84v-5.2l3.26-.76z"/><path class="f" d="M312.15 216.15v5.11l-3.26.76v-5.2l3.26-.67zM312.15 211.03v5.12l-3.26.67v-5.2l3.26-.59z"/><path class="f" d="M312.15 205.91v5.12l-3.26.59v-5.2l3.26-.51zM312.15 200.79v5.12l-3.26.51v-5.2l3.26-.43z"/><path class="f" d="M312.15 195.67v5.12l-3.26.43v-5.19l3.26-.36z"/><path class="f" d="M312.15 190.55v5.12l-3.26.36v-5.2l3.26-.28z"/><path class="d" d="M312.15 185.43v5.12l-3.26.28v-5.2l3.26-.2z"/><path class="f" d="M312.15 180.31v5.12l-3.26.2v-5.2l3.26-.12z"/><path class="f" d="M312.15 175.19v5.12l-3.26.12v-5.2l3.26-.04z"/><path class="d" d="M312.15 170.07v5.12l-3.26.04v-5.2l3.26.04z"/><path class="f" d="M312.15 164.96v5.11l-3.26-.04v-5.2l3.26.13zM312.15 159.84v5.12l-3.26-.13v-5.2l3.26.21z"/><path class="d" d="M312.15 154.72v5.12l-3.26-.21v-5.19l3.26.28z"/><path class="f" d="M312.15 149.6v5.12l-3.26-.28v-5.2l3.26.36zM312.15 144.48v5.12l-3.26-.36v-5.2l3.26.44z"/><path class="f" d="M312.15 139.36v5.12l-3.26-.44v-5.2l3.26.52zM312.15 134.24v5.12l-3.26-.52v-5.2l3.26.6z"/><path class="f" d="M312.15 129.12v5.12l-3.26-.6v-5.2l3.26.68zM312.15 124v5.12l-3.26-.68v-5.2l3.26.76z"/><path class="f" d="M312.15 118.88V124l-3.26-.76v-5.2l3.26.84z"/><path class="f" d="M312.15 113.76v5.12l-3.26-.84v-5.2l3.26.92z"/><path class="e" d="M312.15 108.65v5.11l-3.26-.92v-5.19l3.26 1z"/><path class="f" d="M312.15 103.53v5.12l-3.26-1v-5.2l3.26 1.08zM308.89 237.62v5.2l-3.36 1.1v-5.28l3.36-1.02z"/><path class="e" d="M308.89 232.42v5.2l-3.36 1.02v-5.28l3.36-.94z"/><path class="f" d="M308.89 227.22v5.2l-3.36.94v-5.28l3.36-.86z"/><path class="f" d="M308.89 222.02v5.2l-3.36.86v-5.28l3.36-.78zM308.89 216.82v5.2l-3.36.78v-5.28l3.36-.7z"/><path class="f" d="M308.89 211.62v5.2l-3.36.7v-5.28l3.36-.62z"/><path class="f" d="M308.89 206.42v5.2l-3.36.62v-5.28l3.36-.54z"/><path class="f" d="M308.89 201.22v5.2l-3.36.54v-5.28l3.36-.46z"/><path class="f" d="M308.89 196.03v5.19l-3.36.46v-5.29l3.36-.36z"/><path class="f" d="M308.89 190.83v5.2l-3.36.36v-5.28l3.36-.28z"/><path class="d" d="M308.89 185.63v5.2l-3.36.28v-5.28l3.36-.2z"/><path class="f" d="M308.89 180.43v5.2l-3.36.2v-5.28l3.36-.12z"/><path class="f" d="M308.89 175.23v5.2l-3.36.12v-5.28l3.36-.04z"/><path class="d" d="M308.89 170.03v5.2l-3.36.04v-5.28l3.36.04z"/><path class="f" d="M308.89 164.83v5.2l-3.36-.04v-5.28l3.36.12zM308.89 159.63v5.2l-3.36-.12v-5.28l3.36.2z"/><path class="d" d="M308.89 154.44v5.19l-3.36-.2v-5.29l3.36.3z"/><path class="f" d="M308.89 149.24v5.2l-3.36-.3v-5.28l3.36.38z"/><path class="f" d="M308.89 144.04v5.2l-3.36-.38v-5.28l3.36.46z"/><path class="f" d="M308.89 138.84v5.2l-3.36-.46v-5.28l3.36.54z"/><path class="f" d="M308.89 133.64v5.2l-3.36-.54v-5.28l3.36.62z"/><path class="f" d="M308.89 128.44v5.2l-3.36-.62v-5.28l3.36.7z"/><path class="f" d="M308.89 123.24v5.2l-3.36-.7v-5.28l3.36.78z"/><path class="f" d="M308.89 118.04v5.2l-3.36-.78v-5.28l3.36.86z"/><path class="f" d="M308.89 112.84v5.2l-3.36-.86v-5.28l3.36.94z"/><path class="e" d="M308.89 107.65v5.19l-3.36-.94v-5.28l3.36 1.03z"/><path class="f" d="M308.89 102.45v5.2l-3.36-1.03v-5.29l3.36 1.12zM305.53 238.64v5.28l-3.48 1.15v-5.37l3.48-1.06z"/><path class="e" d="M305.53 233.36v5.28l-3.48 1.06v-5.36l3.48-.98z"/><path class="f" d="M305.53 228.08v5.28l-3.48.98v-5.37l3.48-.89z"/><path class="f" d="M305.53 222.8v5.28l-3.48.89v-5.37l3.48-.8z"/><path class="f" d="M305.53 217.52v5.28l-3.48.8v-5.36l3.48-.72z"/><path class="f" d="M305.53 212.24v5.28l-3.48.72v-5.37l3.48-.63z"/><path class="f" d="M305.53 206.96v5.28l-3.48.63v-5.36l3.48-.55z"/><path class="f" d="M305.53 201.68v5.28l-3.48.55v-5.37l3.48-.46zM305.53 196.39v5.29l-3.48.46v-5.37l3.48-.38z"/><path class="f" d="M305.53 191.11v5.28l-3.48.38v-5.36l3.48-.3z"/><path class="d" d="M305.53 185.83v5.28l-3.48.3v-5.37l3.48-.21z"/><path class="d" d="M305.53 180.55v5.28l-3.48.21v-5.36l3.48-.13z"/><path class="d" d="M305.53 175.27v5.28l-3.48.13v-5.37l3.48-.04z"/><path class="d" d="M305.53 169.99v5.28l-3.48.04v-5.37l3.48.05z"/><path class="d" d="M305.53 164.71v5.28l-3.48-.05v-5.36l3.48.13z"/><path class="d" d="M305.53 159.43v5.28l-3.48-.13v-5.37l3.48.22zM305.53 154.14v5.29l-3.48-.22v-5.36l3.48.29z"/><path class="f" d="M305.53 148.86v5.28l-3.48-.29v-5.37l3.48.38z"/><path class="f" d="M305.53 143.58v5.28l-3.48-.38v-5.37l3.48.47z"/><path class="f" d="M305.53 138.3v5.28l-3.48-.47v-5.36l3.48.55z"/><path class="f" d="M305.53 133.02v5.28l-3.48-.55v-5.37l3.48.64z"/><path class="f" d="M305.53 127.74v5.28l-3.48-.64v-5.37l3.48.73z"/><path class="f" d="M305.53 122.46v5.28l-3.48-.73v-5.36l3.48.81z"/><path class="f" d="M305.53 117.18v5.28l-3.48-.81v-5.37l3.48.9z"/><path class="f" d="M305.53 111.9v5.28l-3.48-.9v-5.36l3.48.98z"/><path class="e" d="M305.53 106.62v5.28l-3.48-.98v-5.37l3.48 1.07z"/><path class="f" d="M305.53 101.33v5.29l-3.48-1.07v-5.37l3.48 1.15zM302.05 239.7v5.37l-3.58 1.18v-5.45l3.58-1.1z"/><path class="e" d="M302.05 234.34v5.36l-3.58 1.1v-5.46l3.58-1z"/><path class="f" d="M302.05 228.97v5.37l-3.58 1v-5.45l3.58-.92zM302.05 223.6v5.37l-3.58.92v-5.46l3.58-.83z"/><path class="f" d="M302.05 218.24v5.36l-3.58.83v-5.45l3.58-.74zM302.05 212.87v5.37l-3.58.74v-5.45l3.58-.66zM302.05 207.51v5.36l-3.58.66v-5.46l3.58-.56z"/><path class="f" d="M302.05 202.14v5.37l-3.58.56v-5.45l3.58-.48z"/><path class="f" d="M302.05 196.77v5.37l-3.58.48v-5.45l3.58-.4z"/><path class="f" d="M302.05 191.41v5.36l-3.58.4v-5.46l3.58-.3z"/><path class="f" d="M302.05 186.04v5.37l-3.58.3v-5.45l3.58-.22z"/><path class="f" d="M302.05 180.68v5.36l-3.58.22v-5.46l3.58-.12z"/><path class="f" d="M302.05 175.31v5.37l-3.58.12v-5.45l3.58-.04zM302.05 169.94v5.37l-3.58.04v-5.45l3.58.04z"/><path class="f" d="M302.05 164.58v5.36l-3.58-.04v-5.46l3.58.14z"/><path class="f" d="M302.05 159.21v5.37l-3.58-.14v-5.45l3.58.22zM302.05 153.85v5.36l-3.58-.22v-5.45l3.58.31zM302.05 148.48v5.37l-3.58-.31v-5.46l3.58.4z"/><path class="f" d="M302.05 143.11v5.37l-3.58-.4v-5.45l3.58.48z"/><path class="f" d="M302.05 137.75v5.36l-3.58-.48v-5.46l3.58.58zM302.05 132.38v5.37l-3.58-.58v-5.45l3.58.66z"/><path class="f" d="M302.05 127.01v5.37l-3.58-.66v-5.45l3.58.74z"/><path class="f" d="M302.05 121.65v5.36l-3.58-.74v-5.46l3.58.84zM302.05 116.28v5.37l-3.58-.84v-5.45l3.58.92z"/><path class="f" d="M302.05 110.92v5.36l-3.58-.92v-5.46l3.58 1.02z"/><path class="e" d="M302.05 105.55v5.37l-3.58-1.02v-5.45l3.58 1.1z"/><path class="f" d="M302.05 100.18v5.37l-3.58-1.1V99l3.58 1.18zM298.47 240.8v5.45l-3.7 1.22v-5.54l3.7-1.13z"/><path class="e" d="M298.47 235.34v5.46l-3.7 1.13v-5.55l3.7-1.04z"/><path class="f" d="M298.47 229.89v5.45l-3.7 1.04v-5.54l3.7-.95z"/><path class="f" d="M298.47 224.43v5.46l-3.7.95v-5.55l3.7-.86z"/><path class="f" d="M298.47 218.98v5.45l-3.7.86v-5.54l3.7-.77z"/><path class="f" d="M298.47 213.53v5.45l-3.7.77v-5.55l3.7-.67z"/><path class="f" d="M298.47 208.07v5.46l-3.7.67v-5.54l3.7-.59z"/><path class="f" d="M298.47 202.62v5.45l-3.7.59v-5.54l3.7-.5zM298.47 197.17v5.45l-3.7.5v-5.55l3.7-.4z"/><path class="f" d="M298.47 191.71v5.46l-3.7.4v-5.54l3.7-.32zM298.47 186.26v5.45l-3.7.32v-5.55l3.7-.22z"/><path class="f" d="M298.47 180.8v5.46l-3.7.22v-5.54l3.7-.14zM298.47 175.35v5.45l-3.7.14v-5.55l3.7-.04z"/><path class="f" d="M298.47 169.9v5.45l-3.7.04v-5.54l3.7.05z"/><path class="d" d="M298.47 164.44v5.46l-3.7-.05v-5.55l3.7.14z"/><path class="d" d="M298.47 158.99v5.45l-3.7-.14v-5.54l3.7.23z"/><path class="f" d="M298.47 153.54v5.45l-3.7-.23v-5.54l3.7.32z"/><path class="f" d="M298.47 148.08v5.46l-3.7-.32v-5.55l3.7.41zM298.47 142.63v5.45l-3.7-.41v-5.54l3.7.5z"/><path class="f" d="M298.47 137.17v5.46l-3.7-.5v-5.55l3.7.59z"/><path class="f" d="M298.47 131.72v5.45l-3.7-.59v-5.54l3.7.68z"/><path class="f" d="M298.47 126.27v5.45l-3.7-.68v-5.55l3.7.78z"/><path class="f" d="M298.47 120.81v5.46l-3.7-.78v-5.54l3.7.86z"/><path class="f" d="M298.47 115.36v5.45l-3.7-.86v-5.55l3.7.96z"/><path class="f" d="M298.47 109.9v5.46l-3.7-.96v-5.54l3.7 1.04z"/><path class="e" d="M298.47 104.45v5.45l-3.7-1.04v-5.54l3.7 1.13z"/><path class="f" d="M298.47 99v5.45l-3.7-1.13v-5.55l3.7 1.23zM294.77 241.93v5.54l-3.83 1.26v-5.63l3.83-1.17z"/><path class="e" d="M294.77 236.38v5.55l-3.83 1.17v-5.64l3.83-1.08z"/><path class="f" d="M294.77 230.84v5.54l-3.83 1.08v-5.64l3.83-.98zM294.77 225.29v5.55l-3.83.98v-5.64l3.83-.89zM294.77 219.75v5.54l-3.83.89v-5.64l3.83-.79z"/><path class="f" d="M294.77 214.2v5.55l-3.83.79v-5.63l3.83-.71z"/><path class="f" d="M294.77 208.66v5.54l-3.83.71v-5.64l3.83-.61z"/><path class="f" d="M294.77 203.12v5.54l-3.83.61v-5.64l3.83-.51zM294.77 197.57v5.55l-3.83.51v-5.64l3.83-.42zM294.77 192.03v5.54l-3.83.42v-5.64l3.83-.32z"/><path class="f" d="M294.77 186.48v5.55l-3.83.32v-5.64l3.83-.23zM294.77 180.94v5.54l-3.83.23v-5.63l3.83-.14z"/><path class="f" d="M294.77 175.39v5.55l-3.83.14v-5.64l3.83-.05z"/><path class="d" d="M294.77 169.85v5.54l-3.83.05v-5.64l3.83.05z"/><path class="f" d="M294.77 164.3v5.55l-3.83-.05v-5.64l3.83.14zM294.77 158.76v5.54l-3.83-.14v-5.64l3.83.24z"/><path class="d" d="M294.77 153.22v5.54l-3.83-.24v-5.63l3.83.33z"/><path class="f" d="M294.77 147.67v5.55l-3.83-.33v-5.64l3.83.42z"/><path class="f" d="M294.77 142.13v5.54l-3.83-.42v-5.64l3.83.52z"/><path class="f" d="M294.77 136.58v5.55l-3.83-.52v-5.64l3.83.61zM294.77 131.04v5.54l-3.83-.61v-5.64l3.83.71z"/><path class="f" d="M294.77 125.49v5.55l-3.83-.71v-5.64l3.83.8z"/><path class="f" d="M294.77 119.95v5.54l-3.83-.8v-5.63l3.83.89zM294.77 114.4v5.55l-3.83-.89v-5.64l3.83.98z"/><path class="f" d="M294.77 108.86v5.54l-3.83-.98v-5.64l3.83 1.08z"/><path class="e" d="M294.77 103.32v5.54l-3.83-1.08v-5.64l3.83 1.18z"/><path class="f" d="M294.77 97.77v5.55l-3.83-1.18V96.5l3.83 1.27zM290.94 243.1v5.63l-3.97 1.31v-5.74l3.97-1.2z"/><path class="e" d="M290.94 237.46v5.64l-3.97 1.2v-5.73l3.97-1.11z"/><path class="f" d="M290.94 231.82v5.64l-3.97 1.11v-5.73l3.97-1.02z"/><path class="f" d="M290.94 226.18v5.64l-3.97 1.02v-5.74l3.97-.92zM290.94 220.54v5.64l-3.97.92v-5.73l3.97-.83z"/><path class="f" d="M290.94 214.91v5.63l-3.97.83v-5.74l3.97-.72z"/><path class="f" d="M290.94 209.27v5.64l-3.97.72v-5.74l3.97-.62z"/><path class="f" d="M290.94 203.63v5.64l-3.97.62v-5.73l3.97-.53z"/><path class="f" d="M290.94 197.99v5.64l-3.97.53v-5.74l3.97-.43z"/><path class="f" d="M290.94 192.35v5.64l-3.97.43v-5.73l3.97-.34z"/><path class="f" d="M290.94 186.71v5.64l-3.97.34v-5.74l3.97-.24z"/><path class="f" d="M290.94 181.08v5.63l-3.97.24v-5.73l3.97-.14zM290.94 175.44v5.64l-3.97.14v-5.74l3.97-.04z"/><path class="d" d="M290.94 169.8v5.64l-3.97.04v-5.73l3.97.05z"/><path class="f" d="M290.94 164.16v5.64l-3.97-.05v-5.74l3.97.15z"/><path class="f" d="M290.94 158.52v5.64l-3.97-.15v-5.73l3.97.24z"/><path class="d" d="M290.94 152.89v5.63l-3.97-.24v-5.74l3.97.35z"/><path class="f" d="M290.94 147.25v5.64l-3.97-.35v-5.73l3.97.44z"/><path class="f" d="M290.94 141.61v5.64l-3.97-.44v-5.74l3.97.54z"/><path class="f" d="M290.94 135.97v5.64l-3.97-.54v-5.73l3.97.63z"/><path class="f" d="M290.94 130.33v5.64l-3.97-.63v-5.74l3.97.73z"/><path class="f" d="M290.94 124.69v5.64l-3.97-.73v-5.73l3.97.82z"/><path class="f" d="M290.94 119.06v5.63l-3.97-.82v-5.74l3.97.93zM290.94 113.42v5.64l-3.97-.93v-5.73l3.97 1.02z"/><path class="f" d="M290.94 107.78v5.64l-3.97-1.02v-5.74l3.97 1.12z"/><path class="e" d="M290.94 102.14v5.64l-3.97-1.12v-5.73l3.97 1.21z"/><path class="f" d="M290.94 96.5v5.64l-3.97-1.21v-5.74l3.97 1.31zM286.97 244.3v5.74l-4.1 1.35v-5.83l4.1-1.26z"/><path class="e" d="M286.97 238.57v5.73l-4.1 1.26v-5.84l4.1-1.15z"/><path class="f" d="M286.97 232.84v5.73l-4.1 1.15v-5.84l4.1-1.04z"/><path class="f" d="M286.97 227.1v5.74l-4.1 1.04v-5.83l4.1-.95z"/><path class="f" d="M286.97 221.37v5.73l-4.1.95v-5.83l4.1-.85z"/><path class="f" d="M286.97 215.63v5.74l-4.1.85v-5.84l4.1-.75z"/><path class="f" d="M286.97 209.89v5.74l-4.1.75v-5.84l4.1-.65z"/><path class="f" d="M286.97 204.16v5.73l-4.1.65v-5.83l4.1-.55z"/><path class="f" d="M286.97 198.42v5.74l-4.1.55v-5.84l4.1-.45zM286.97 192.69v5.73l-4.1.45v-5.83l4.1-.35z"/><path class="d" d="M286.97 186.95v5.74l-4.1.35v-5.84l4.1-.25z"/><path class="d" d="M286.97 181.22v5.73l-4.1.25v-5.83l4.1-.15z"/><path class="d" d="M286.97 175.48v5.74l-4.1.15v-5.84l4.1-.05z"/><path class="d" d="M286.97 169.75v5.73l-4.1.05v-5.83l4.1.05z"/><path class="d" d="M286.97 164.01v5.74l-4.1-.05v-5.84l4.1.15z"/><path class="d" d="M286.97 158.28v5.73l-4.1-.15v-5.84l4.1.26z"/><path class="d" d="M286.97 152.54v5.74l-4.1-.26v-5.83l4.1.35z"/><path class="f" d="M286.97 146.81v5.73l-4.1-.35v-5.84l4.1.46z"/><path class="f" d="M286.97 141.07v5.74l-4.1-.46v-5.83l4.1.55z"/><path class="f" d="M286.97 135.34v5.73l-4.1-.55v-5.84l4.1.66z"/><path class="f" d="M286.97 129.6v5.74l-4.1-.66v-5.83l4.1.75z"/><path class="f" d="M286.97 123.87v5.73l-4.1-.75v-5.84l4.1.86z"/><path class="f" d="M286.97 118.13v5.74l-4.1-.86v-5.83l4.1.95z"/><path class="f" d="M286.97 112.4v5.73l-4.1-.95v-5.84l4.1 1.06zM286.97 106.66v5.74l-4.1-1.06v-5.84l4.1 1.16z"/><path class="e" d="M286.97 100.93v5.73l-4.1-1.16v-5.83l4.1 1.26z"/><path class="f" d="M286.97 95.19v5.74l-4.1-1.26v-5.84l4.1 1.36zM282.87 245.56v5.83l-4.24 1.4v-5.94l4.24-1.29z"/><path class="e" d="M282.87 239.72v5.84l-4.24 1.29v-5.94l4.24-1.19z"/><path class="f" d="M282.87 233.88v5.84l-4.24 1.19v-5.94l4.24-1.09z"/><path class="f" d="M282.87 228.05v5.83l-4.24 1.09v-5.94l4.24-.98zM282.87 222.22v5.83l-4.24.98v-5.94l4.24-.87z"/><path class="f" d="M282.87 216.38v5.84l-4.24.87v-5.93l4.24-.78z"/><path class="f" d="M282.87 210.54v5.84l-4.24.78v-5.94l4.24-.68z"/><path class="f" d="M282.87 204.71v5.83l-4.24.68v-5.94l4.24-.57zM282.87 198.87v5.84l-4.24.57v-5.94l4.24-.47z"/><path class="f" d="M282.87 193.04v5.83l-4.24.47v-5.94l4.24-.36z"/><path class="f" d="M282.87 187.2v5.84l-4.24.36v-5.94l4.24-.26z"/><path class="f" d="M282.87 181.37v5.83l-4.24.26v-5.94l4.24-.15z"/><path class="f" d="M282.87 175.53v5.84l-4.24.15v-5.94l4.24-.05z"/><path class="f" d="M282.87 169.7v5.83l-4.24.05v-5.94l4.24.06z"/><path class="f" d="M282.87 163.86v5.84l-4.24-.06v-5.94l4.24.16z"/><path class="f" d="M282.87 158.02v5.84l-4.24-.16v-5.94l4.24.26z"/><path class="f" d="M282.87 152.19v5.83l-4.24-.26v-5.94l4.24.37zM282.87 146.35v5.84l-4.24-.37v-5.94l4.24.47z"/><path class="f" d="M282.87 140.52v5.83l-4.24-.47v-5.94l4.24.58zM282.87 134.68v5.84l-4.24-.58V134l4.24.68z"/><path class="f" d="M282.87 128.85v5.83l-4.24-.68v-5.94l4.24.79z"/><path class="f" d="M282.87 123.01v5.84l-4.24-.79v-5.94l4.24.89z"/><path class="f" d="M282.87 117.18v5.83l-4.24-.89v-5.93l4.24.99z"/><path class="f" d="M282.87 111.34v5.84l-4.24-.99v-5.94l4.24 1.09zM282.87 105.5v5.84l-4.24-1.09v-5.94l4.24 1.19z"/><path class="e" d="M282.87 99.67v5.83l-4.24-1.19v-5.94l4.24 1.3z"/><path class="f" d="M282.87 93.83v5.84l-4.24-1.3v-5.94l4.24 1.4zM278.63 246.85v5.94l-4.4 1.45v-6.04l4.4-1.35z"/><path class="e" d="M278.63 240.91v5.94l-4.4 1.35v-6.05l4.4-1.24z"/><path class="f" d="M278.63 234.97v5.94l-4.4 1.24v-6.05l4.4-1.13z"/><path class="f" d="M278.63 229.03v5.94l-4.4 1.13v-6.05l4.4-1.02z"/><path class="f" d="M278.63 223.09v5.94l-4.4 1.02v-6.04l4.4-.92zM278.63 217.16v5.93l-4.4.92v-6.05l4.4-.8z"/><path class="f" d="M278.63 211.22v5.94l-4.4.8v-6.05l4.4-.69z"/><path class="f" d="M278.63 205.28v5.94l-4.4.69v-6.04l4.4-.59z"/><path class="f" d="M278.63 199.34v5.94l-4.4.59v-6.05l4.4-.48z"/><path class="f" d="M278.63 193.4v5.94l-4.4.48v-6.05l4.4-.37z"/><path class="f" d="M278.63 187.46v5.94l-4.4.37v-6.05l4.4-.26z"/><path class="f" d="M278.63 181.52v5.94l-4.4.26v-6.04l4.4-.16z"/><path class="f" d="M278.63 175.58v5.94l-4.4.16v-6.05l4.4-.05z"/><path class="f" d="M278.63 169.64v5.94l-4.4.05v-6.05l4.4.06z"/><path class="d" d="M278.63 163.7v5.94l-4.4-.06v-6.04l4.4.16z"/><path class="d" d="M278.63 157.76v5.94l-4.4-.16v-6.05l4.4.27z"/><path class="f" d="M278.63 151.82v5.94l-4.4-.27v-6.05l4.4.38z"/><path class="f" d="M278.63 145.88v5.94l-4.4-.38v-6.05l4.4.49z"/><path class="f" d="M278.63 139.94v5.94l-4.4-.49v-6.04l4.4.59z"/><path class="f" d="M278.63 134v5.94l-4.4-.59v-6.05l4.4.7z"/><path class="f" d="M278.63 128.06V134l-4.4-.7v-6.05l4.4.81zM278.63 122.12v5.94l-4.4-.81v-6.04l4.4.91z"/><path class="f" d="M278.63 116.19v5.93l-4.4-.91v-6.05l4.4 1.03zM278.63 110.25v5.94l-4.4-1.03v-6.05l4.4 1.14z"/><path class="f" d="M278.63 104.31v5.94l-4.4-1.14v-6.05l4.4 1.25z"/><path class="e" d="M278.63 98.37v5.94l-4.4-1.25v-6.04l4.4 1.35z"/><path class="f" d="M278.63 92.43v5.94l-4.4-1.35v-6.05l4.4 1.46zM274.23 248.2v6.04l-4.57 1.51v-6.16l4.57-1.39z"/><path class="e" d="M274.23 242.15v6.05l-4.57 1.39v-6.16l4.57-1.28z"/><path class="f" d="M274.23 236.1v6.05l-4.57 1.28v-6.16l4.57-1.17z"/><path class="f" d="M274.23 230.05v6.05l-4.57 1.17v-6.16l4.57-1.06zM274.23 224.01v6.04l-4.57 1.06v-6.16l4.57-.94z"/><path class="f" d="M274.23 217.96v6.05l-4.57.94v-6.15l4.57-.84z"/><path class="f" d="M274.23 211.91v6.05l-4.57.84v-6.16l4.57-.73zM274.23 205.87v6.04l-4.57.73v-6.16l4.57-.61z"/><path class="f" d="M274.23 199.82v6.05l-4.57.61v-6.16l4.57-.5z"/><path class="f" d="M274.23 193.77v6.05l-4.57.5v-6.16l4.57-.39zM274.23 187.72v6.05l-4.57.39V188l4.57-.28z"/><path class="f" d="M274.23 181.68v6.04l-4.57.28v-6.16l4.57-.16z"/><path class="f" d="M274.23 175.63v6.05l-4.57.16v-6.16l4.57-.05z"/><path class="d" d="M274.23 169.58v6.05l-4.57.05v-6.16l4.57.06z"/><path class="f" d="M274.23 163.54v6.04l-4.57-.06v-6.16l4.57.18z"/><path class="f" d="M274.23 157.49v6.05l-4.57-.18v-6.15l4.57.28z"/><path class="d" d="M274.23 151.44v6.05l-4.57-.28v-6.16l4.57.39z"/><path class="f" d="M274.23 145.39v6.05l-4.57-.39v-6.16l4.57.5zM274.23 139.35v6.04l-4.57-.5v-6.16l4.57.62z"/><path class="f" d="M274.23 133.3v6.05l-4.57-.62v-6.16l4.57.73z"/><path class="f" d="M274.23 127.25v6.05l-4.57-.73v-6.16l4.57.84zM274.23 121.21v6.04l-4.57-.84v-6.16l4.57.96z"/><path class="f" d="M274.23 115.16v6.05l-4.57-.96v-6.16l4.57 1.07z"/><path class="f" d="M274.23 109.11v6.05l-4.57-1.07v-6.15l4.57 1.17z"/><path class="f" d="M274.23 103.06v6.05l-4.57-1.17v-6.16l4.57 1.28z"/><path class="e" d="M274.23 97.02v6.04l-4.57-1.28v-6.16l4.57 1.4z"/><path class="f" d="M274.23 90.97v6.05l-4.57-1.4v-6.16l4.57 1.51zM269.66 249.59v6.16l-4.73 1.56v-6.28l4.73-1.44z"/><path class="e" d="M269.66 243.43v6.16l-4.73 1.44v-6.27l4.73-1.33z"/><path class="f" d="M269.66 237.27v6.16l-4.73 1.33v-6.28l4.73-1.21z"/><path class="f" d="M269.66 231.11v6.16l-4.73 1.21v-6.27l4.73-1.1zM269.66 224.95v6.16l-4.73 1.1v-6.27l4.73-.99z"/><path class="f" d="M269.66 218.8v6.15l-4.73.99v-6.28l4.73-.86zM269.66 212.64v6.16l-4.73.86v-6.27l4.73-.75z"/><path class="f" d="M269.66 206.48v6.16l-4.73.75v-6.28l4.73-.63z"/><path class="f" d="M269.66 200.32v6.16l-4.73.63v-6.27l4.73-.52z"/><path class="f" d="M269.66 194.16v6.16l-4.73.52v-6.28l4.73-.4z"/><path class="f" d="M269.66 188v6.16l-4.73.4v-6.27l4.73-.29z"/><path class="f" d="M269.66 181.84V188l-4.73.29v-6.28l4.73-.17z"/><path class="f" d="M269.66 175.68v6.16l-4.73.17v-6.27l4.73-.06z"/><path class="d" d="M269.66 169.52v6.16l-4.73.06v-6.28l4.73.06z"/><path class="f" d="M269.66 163.36v6.16l-4.73-.06v-6.27l4.73.17z"/><path class="f" d="M269.66 157.21v6.15l-4.73-.17v-6.28l4.73.3z"/><path class="d" d="M269.66 151.05v6.16l-4.73-.3v-6.27l4.73.41z"/><path class="f" d="M269.66 144.89v6.16l-4.73-.41v-6.28l4.73.53z"/><path class="f" d="M269.66 138.73v6.16l-4.73-.53v-6.27l4.73.64z"/><path class="f" d="M269.66 132.57v6.16l-4.73-.64v-6.27l4.73.75z"/><path class="f" d="M269.66 126.41v6.16l-4.73-.75v-6.28l4.73.87z"/><path class="f" d="M269.66 120.25v6.16l-4.73-.87v-6.28l4.73.99z"/><path class="f" d="M269.66 114.09v6.16l-4.73-.99v-6.27l4.73 1.1z"/><path class="f" d="M269.66 107.94v6.15l-4.73-1.1v-6.28l4.73 1.23zM269.66 101.78v6.16l-4.73-1.23v-6.27l4.73 1.34z"/><path class="e" d="M269.66 95.62v6.16l-4.73-1.34v-6.27l4.73 1.45z"/><path class="f" d="M269.66 89.46v6.16l-4.73-1.45v-6.28l4.73 1.57zM264.93 251.03v6.28l-4.91 1.62v-6.4l4.91-1.5z"/><path class="e" d="M264.93 244.76v6.27l-4.91 1.5v-6.39l4.91-1.38z"/><path class="f" d="M264.93 238.48v6.28l-4.91 1.38v-6.4l4.91-1.26z"/><path class="f" d="M264.93 232.21v6.27l-4.91 1.26v-6.39l4.91-1.14zM264.93 225.94v6.27l-4.91 1.14v-6.4l4.91-1.01z"/><path class="f" d="M264.93 219.66v6.28l-4.91 1.01v-6.39l4.91-.9z"/><path class="f" d="M264.93 213.39v6.27l-4.91.9v-6.4l4.91-.77z"/><path class="f" d="M264.93 207.11v6.28l-4.91.77v-6.39l4.91-.66zM264.93 200.84v6.27l-4.91.66v-6.4l4.91-.53z"/><path class="f" d="M264.93 194.56v6.28l-4.91.53v-6.39l4.91-.42z"/><path class="d" d="M264.93 188.29v6.27l-4.91.42v-6.4l4.91-.29z"/><path class="d" d="M264.93 182.01v6.28l-4.91.29v-6.39l4.91-.18z"/><path class="d" d="M264.93 175.74v6.27l-4.91.18v-6.4l4.91-.05z"/><path class="d" d="M264.93 169.46v6.28l-4.91.05v-6.39l4.91.06zM264.93 163.19v6.27l-4.91-.06V163l4.91.19z"/><path class="d" d="M264.93 156.91v6.28l-4.91-.19v-6.39l4.91.3zM264.93 150.64v6.27l-4.91-.3v-6.4l4.91.43z"/><path class="f" d="M264.93 144.36v6.28l-4.91-.43v-6.39l4.91.54z"/><path class="f" d="M264.93 138.09v6.27l-4.91-.54v-6.4l4.91.67z"/><path class="f" d="M264.93 131.82v6.27l-4.91-.67v-6.39l4.91.79zM264.93 125.54v6.28l-4.91-.79v-6.4l4.91.91z"/><path class="f" d="M264.93 119.26v6.28l-4.91-.91v-6.39l4.91 1.02zM264.93 112.99v6.27l-4.91-1.02v-6.4l4.91 1.15z"/><path class="f" d="M264.93 106.71v6.28l-4.91-1.15v-6.39l4.91 1.26z"/><path class="f" d="M264.93 100.44v6.27l-4.91-1.26v-6.4l4.91 1.39z"/><path class="e" d="M264.93 94.17v6.27l-4.91-1.39v-6.39l4.91 1.51z"/><path class="f" d="M264.93 87.89v6.28l-4.91-1.51v-6.4l4.91 1.63zM260.02 252.53v6.4l-5.11 1.68v-6.52l5.11-1.56z"/><path class="e" d="M260.02 246.14v6.39l-5.11 1.56v-6.52l5.11-1.43z"/><path class="f" d="M260.02 239.74v6.4l-5.11 1.43v-6.52l5.11-1.31zM260.02 233.35v6.39l-5.11 1.31v-6.52l5.11-1.18z"/><path class="f" d="M260.02 226.95v6.4l-5.11 1.18v-6.52l5.11-1.06z"/><path class="f" d="M260.02 220.56v6.39l-5.11 1.06v-6.52l5.11-.93z"/><path class="f" d="M260.02 214.16v6.4l-5.11.93v-6.52l5.11-.81z"/><path class="f" d="M260.02 207.77v6.39l-5.11.81v-6.52l5.11-.68z"/><path class="f" d="M260.02 201.37v6.4l-5.11.68v-6.52l5.11-.56zM260.02 194.98v6.39l-5.11.56v-6.52l5.11-.43z"/><path class="f" d="M260.02 188.58v6.4l-5.11.43v-6.52l5.11-.31zM260.02 182.19v6.39l-5.11.31v-6.52l5.11-.18z"/><path class="f" d="M260.02 175.79v6.4l-5.11.18v-6.52l5.11-.06z"/><path class="f" d="M260.02 169.4v6.39l-5.11.06v-6.52l5.11.07z"/><path class="f" d="M260.02 163v6.4l-5.11-.07v-6.52l5.11.19z"/><path class="f" d="M260.02 156.61V163l-5.11-.19v-6.52l5.11.32z"/><path class="f" d="M260.02 150.21v6.4l-5.11-.32v-6.52l5.11.44zM260.02 143.82v6.39l-5.11-.44v-6.52l5.11.57z"/><path class="f" d="M260.02 137.42v6.4l-5.11-.57v-6.52l5.11.69z"/><path class="f" d="M260.02 131.03v6.39l-5.11-.69v-6.52l5.11.82z"/><path class="f" d="M260.02 124.63v6.4l-5.11-.82v-6.52l5.11.94zM260.02 118.24v6.39l-5.11-.94v-6.52l5.11 1.07z"/><path class="f" d="M260.02 111.84v6.4l-5.11-1.07v-6.52l5.11 1.19zM260.02 105.45v6.39l-5.11-1.19v-6.52l5.11 1.32z"/><path class="f" d="M260.02 99.05v6.4l-5.11-1.32v-6.52l5.11 1.44z"/><path class="e" d="M260.02 92.66v6.39l-5.11-1.44v-6.52l5.11 1.57z"/><path class="f" d="M260.02 86.26v6.4l-5.11-1.57v-6.52l5.11 1.69zM254.91 254.09v6.52l-5.31 1.75v-6.65l5.31-1.62z"/><path class="e" d="M254.91 247.57v6.52l-5.31 1.62v-6.65l5.31-1.49z"/><path class="f" d="M254.91 241.05v6.52l-5.31 1.49v-6.65l5.31-1.36z"/><path class="f" d="M254.91 234.53v6.52l-5.31 1.36v-6.65l5.31-1.23zM254.91 228.01v6.52l-5.31 1.23v-6.65l5.31-1.1z"/><path class="f" d="M254.91 221.49v6.52l-5.31 1.1v-6.65l5.31-.97z"/><path class="f" d="M254.91 214.97v6.52l-5.31.97v-6.65l5.31-.84z"/><path class="f" d="M254.91 208.45v6.52l-5.31.84v-6.65l5.31-.71z"/><path class="f" d="M254.91 201.93v6.52l-5.31.71v-6.65l5.31-.58z"/><path class="f" d="M254.91 195.41v6.52l-5.31.58v-6.65l5.31-.45zM254.91 188.89v6.52l-5.31.45v-6.65l5.31-.32z"/><path class="d" d="M254.91 182.37v6.52l-5.31.32v-6.65l5.31-.19z"/><path class="d" d="M254.91 175.85v6.52l-5.31.19v-6.65l5.31-.06z"/><path class="d" d="M254.91 169.33v6.52l-5.31.06v-6.65l5.31.07z"/><path class="d" d="M254.91 162.81v6.52l-5.31-.07v-6.65l5.31.2z"/><path class="d" d="M254.91 156.29v6.52l-5.31-.2v-6.65l5.31.33z"/><path class="f" d="M254.91 149.77v6.52l-5.31-.33v-6.65l5.31.46z"/><path class="f" d="M254.91 143.25v6.52l-5.31-.46v-6.65l5.31.59z"/><path class="f" d="M254.91 136.73v6.52l-5.31-.59v-6.65l5.31.72z"/><path class="f" d="M254.91 130.21v6.52l-5.31-.72v-6.65l5.31.85z"/><path class="f" d="M254.91 123.69v6.52l-5.31-.85v-6.65l5.31.98zM254.91 117.17v6.52l-5.31-.98v-6.65l5.31 1.11z"/><path class="f" d="M254.91 110.65v6.52l-5.31-1.11v-6.65l5.31 1.24z"/><path class="f" d="M254.91 104.13v6.52l-5.31-1.24v-6.65l5.31 1.37z"/><path class="f" d="M254.91 97.61v6.52l-5.31-1.37v-6.65l5.31 1.5z"/><path class="e" d="M254.91 91.09v6.52l-5.31-1.5v-6.65l5.31 1.63z"/><path class="f" d="M254.91 84.57v6.52l-5.31-1.63v-6.65l5.31 1.76zM249.6 255.71v6.65l-5.53 1.83v-6.79l5.53-1.69z"/><path class="e" d="M249.6 249.06v6.65l-5.53 1.69v-6.78l5.53-1.56z"/><path class="f" d="M249.6 242.41v6.65l-5.53 1.56v-6.79l5.53-1.42zM249.6 235.76v6.65l-5.53 1.42v-6.79l5.53-1.28z"/><path class="f" d="M249.6 229.11v6.65l-5.53 1.28v-6.78l5.53-1.15z"/><path class="f" d="M249.6 222.46v6.65l-5.53 1.15v-6.79l5.53-1.01zM249.6 215.81v6.65l-5.53 1.01v-6.78l5.53-.88z"/><path class="f" d="M249.6 209.16v6.65l-5.53.88v-6.79l5.53-.74z"/><path class="f" d="M249.6 202.51v6.65l-5.53.74v-6.78l5.53-.61z"/><path class="f" d="M249.6 195.86v6.65l-5.53.61v-6.79l5.53-.47z"/><path class="d" d="M249.6 189.21v6.65l-5.53.47v-6.78l5.53-.34z"/><path class="f" d="M249.6 182.56v6.65l-5.53.34v-6.79l5.53-.2zM249.6 175.91v6.65l-5.53.2v-6.78l5.53-.07z"/><path class="f" d="M249.6 169.26v6.65l-5.53.07v-6.79l5.53.07z"/><path class="f" d="M249.6 162.61v6.65l-5.53-.07v-6.78l5.53.2z"/><path class="f" d="M249.6 155.96v6.65l-5.53-.2v-6.79l5.53.34z"/><path class="d" d="M249.6 149.31v6.65l-5.53-.34v-6.78l5.53.47z"/><path class="f" d="M249.6 142.66v6.65l-5.53-.47v-6.79l5.53.61zM249.6 136.01v6.65l-5.53-.61v-6.78l5.53.74z"/><path class="f" d="M249.6 129.36v6.65l-5.53-.74v-6.79l5.53.88zM249.6 122.71v6.65l-5.53-.88v-6.78l5.53 1.01z"/><path class="f" d="M249.6 116.06v6.65l-5.53-1.01v-6.79l5.53 1.15z"/><path class="f" d="M249.6 109.41v6.65l-5.53-1.15v-6.78l5.53 1.28z"/><path class="f" d="M249.6 102.76v6.65l-5.53-1.28v-6.79l5.53 1.42z"/><path class="f" d="M249.6 96.11v6.65l-5.53-1.42v-6.79l5.53 1.56z"/><path class="e" d="M249.6 89.46v6.65l-5.53-1.56v-6.78l5.53 1.69z"/><path class="f" d="M249.6 82.81v6.65l-5.53-1.69v-6.79l5.53 1.83zM244.07 257.4v6.79l-5.76 1.89v-6.92l5.76-1.76z"/><path class="e" d="M244.07 250.62v6.78l-5.76 1.76v-6.93l5.76-1.61z"/><path class="f" d="M244.07 243.83v6.79l-5.76 1.61v-6.92l5.76-1.48zM244.07 237.04v6.79l-5.76 1.48v-6.93l5.76-1.34z"/><path class="f" d="M244.07 230.26v6.78l-5.76 1.34v-6.93l5.76-1.19z"/><path class="f" d="M244.07 223.47v6.79l-5.76 1.19v-6.92l5.76-1.06z"/><path class="f" d="M244.07 216.69v6.78l-5.76 1.06v-6.93l5.76-.91z"/><path class="f" d="M244.07 209.9v6.79l-5.76.91v-6.93l5.76-.77z"/><path class="f" d="M244.07 203.12v6.78l-5.76.77v-6.92l5.76-.63zM244.07 196.33v6.79l-5.76.63v-6.93l5.76-.49z"/><path class="d" d="M244.07 189.55v6.78l-5.76.49v-6.92l5.76-.35z"/><path class="f" d="M244.07 182.76v6.79l-5.76.35v-6.93l5.76-.21z"/><path class="f" d="M244.07 175.98v6.78l-5.76.21v-6.93l5.76-.06z"/><path class="f" d="M244.07 169.19v6.79l-5.76.06v-6.92l5.76.07z"/><path class="f" d="M244.07 162.41v6.78l-5.76-.07v-6.93l5.76.22z"/><path class="f" d="M244.07 155.62v6.79l-5.76-.22v-6.92l5.76.35z"/><path class="d" d="M244.07 148.84v6.78l-5.76-.35v-6.93l5.76.5z"/><path class="f" d="M244.07 142.05v6.79l-5.76-.5v-6.93l5.76.64z"/><path class="f" d="M244.07 135.27v6.78l-5.76-.64v-6.92l5.76.78zM244.07 128.48v6.79l-5.76-.78v-6.93l5.76.92z"/><path class="f" d="M244.07 121.7v6.78l-5.76-.92v-6.93l5.76 1.07z"/><path class="f" d="M244.07 114.91v6.79l-5.76-1.07v-6.92l5.76 1.2zM244.07 108.13v6.78l-5.76-1.2v-6.93l5.76 1.35z"/><path class="f" d="M244.07 101.34v6.79l-5.76-1.35v-6.93l5.76 1.49zM244.07 94.55v6.79l-5.76-1.49v-6.92l5.76 1.62z"/><path class="e" d="M244.07 87.77v6.78l-5.76-1.62V86l5.76 1.77z"/><path class="f" d="M244.07 80.98v6.79L238.31 86v-6.92l5.76 1.9zM238.31 259.16v6.92l-6 1.98v-7.07l6-1.83z"/><path class="e" d="M238.31 252.23v6.93l-6 1.83v-7.07l6-1.69z"/><path class="f" d="M238.31 245.31v6.92l-6 1.69v-7.08l6-1.53z"/><path class="f" d="M238.31 238.38v6.93l-6 1.53v-7.07l6-1.39zM238.31 231.45v6.93l-6 1.39v-7.07l6-1.25z"/><path class="f" d="M238.31 224.53v6.92l-6 1.25v-7.07l6-1.1z"/><path class="f" d="M238.31 217.6v6.93l-6 1.1v-7.08l6-.95z"/><path class="f" d="M238.31 210.67v6.93l-6 .95v-7.07l6-.81z"/><path class="f" d="M238.31 203.75v6.92l-6 .81v-7.07l6-.66z"/><path class="f" d="M238.31 196.82v6.93l-6 .66v-7.08l6-.51z"/><path class="d" d="M238.31 189.9v6.92l-6 .51v-7.07l6-.36z"/><path class="d" d="M238.31 182.97v6.93l-6 .36v-7.07l6-.22zM238.31 176.04v6.93l-6 .22v-7.08l6-.07z"/><path class="d" d="M238.31 169.12v6.92l-6 .07v-7.07l6 .08z"/><path class="d" d="M238.31 162.19v6.93l-6-.08v-7.07l6 .22z"/><path class="d" d="M238.31 155.27v6.92l-6-.22v-7.08l6 .38z"/><path class="d" d="M238.31 148.34v6.93l-6-.38v-7.07l6 .52z"/><path class="f" d="M238.31 141.41v6.93l-6-.52v-7.07l6 .66z"/><path class="f" d="M238.31 134.49v6.92l-6-.66v-7.08l6 .82z"/><path class="f" d="M238.31 127.56v6.93l-6-.82v-7.07l6 .96zM238.31 120.63v6.93l-6-.96v-7.07l6 1.1z"/><path class="f" d="M238.31 113.71v6.92l-6-1.1v-7.07l6 1.25z"/><path class="f" d="M238.31 106.78v6.93l-6-1.25v-7.08l6 1.4zM238.31 99.85v6.93l-6-1.4v-7.07l6 1.54z"/><path class="f" d="M238.31 92.93v6.92l-6-1.54v-7.07l6 1.69z"/><path class="e" d="M238.31 86v6.93l-6-1.69v-7.08l6 1.84z"/><path class="f" d="M238.31 79.08V86l-6-1.84v-7.07l6 1.99zM232.31 260.99v7.07l-6.26 2.07v-7.23l6.26-1.91z"/><path class="e" d="M232.31 253.92v7.07l-6.26 1.91v-7.22l6.26-1.76z"/><path class="f" d="M232.31 246.84v7.08l-6.26 1.76v-7.23l6.26-1.61z"/><path class="f" d="M232.31 239.77v7.07l-6.26 1.61v-7.23l6.26-1.45zM232.31 232.7v7.07l-6.26 1.45V234l6.26-1.3z"/><path class="f" d="M232.31 225.63v7.07l-6.26 1.3v-7.23l6.26-1.14z"/><path class="f" d="M232.31 218.55v7.08l-6.26 1.14v-7.23l6.26-.99zM232.31 211.48v7.07l-6.26.99v-7.22l6.26-.84z"/><path class="f" d="M232.31 204.41v7.07l-6.26.84v-7.23l6.26-.68z"/><path class="f" d="M232.31 197.33v7.08l-6.26.68v-7.22l6.26-.54zM232.31 190.26v7.07l-6.26.54v-7.23l6.26-.38z"/><path class="f" d="M232.31 183.19v7.07l-6.26.38v-7.23l6.26-.22z"/><path class="f" d="M232.31 176.11v7.08l-6.26.22v-7.23l6.26-.07zM232.31 169.04v7.07l-6.26.07v-7.22l6.26.08z"/><path class="f" d="M232.31 161.97v7.07l-6.26-.08v-7.23l6.26.24z"/><path class="f" d="M232.31 154.89v7.08l-6.26-.24v-7.22l6.26.38z"/><path class="f" d="M232.31 147.82v7.07l-6.26-.38v-7.23l6.26.54z"/><path class="f" d="M232.31 140.75v7.07l-6.26-.54v-7.23l6.26.7z"/><path class="f" d="M232.31 133.67v7.08l-6.26-.7v-7.22l6.26.84zM232.31 126.6v7.07l-6.26-.84v-7.23l6.26 1z"/><path class="f" d="M232.31 119.53v7.07l-6.26-1v-7.23l6.26 1.16z"/><path class="f" d="M232.31 112.46v7.07l-6.26-1.16v-7.22l6.26 1.31zM232.31 105.38v7.08l-6.26-1.31v-7.23l6.26 1.46z"/><path class="f" d="M232.31 98.31v7.07l-6.26-1.46v-7.23l6.26 1.62z"/><path class="f" d="M232.31 91.24v7.07l-6.26-1.62v-7.22l6.26 1.77z"/><path class="e" d="M232.31 84.16v7.08l-6.26-1.77v-7.23l6.26 1.92z"/><path class="f" d="M232.31 77.09v7.07l-6.26-1.92v-7.22l6.26 2.07zM226.05 262.9v7.23l-6.54 2.15v-7.38l6.54-2z"/><path class="e" d="M226.05 255.68v7.22l-6.54 2v-7.39l6.54-1.83z"/><path class="f" d="M226.05 248.45v7.23l-6.54 1.83v-7.38l6.54-1.68z"/><path class="f" d="M226.05 241.22v7.23l-6.54 1.68v-7.39l6.54-1.52z"/><path class="f" d="M226.05 234v7.22l-6.54 1.52v-7.39l6.54-1.35zM226.05 226.77V234l-6.54 1.35v-7.38l6.54-1.2zM226.05 219.54v7.23l-6.54 1.2v-7.39l6.54-1.04z"/><path class="f" d="M226.05 212.32v7.22l-6.54 1.04v-7.39l6.54-.87z"/><path class="f" d="M226.05 205.09v7.23l-6.54.87v-7.38l6.54-.72z"/><path class="f" d="M226.05 197.87v7.22l-6.54.72v-7.39l6.54-.55z"/><path class="d" d="M226.05 190.64v7.23l-6.54.55v-7.39l6.54-.39zM226.05 183.41v7.23l-6.54.39v-7.38l6.54-.24z"/><path class="d" d="M226.05 176.18v7.23l-6.54.24v-7.39l6.54-.08z"/><path class="f" d="M226.05 168.96v7.22l-6.54.08v-7.39l6.54.09z"/><path class="d" d="M226.05 161.73v7.23l-6.54-.09v-7.38l6.54.24z"/><path class="d" d="M226.05 154.51v7.22l-6.54-.24v-7.39l6.54.41z"/><path class="f" d="M226.05 147.28v7.23l-6.54-.41v-7.39l6.54.57z"/><path class="f" d="M226.05 140.05v7.23l-6.54-.57v-7.38l6.54.72z"/><path class="f" d="M226.05 132.83v7.22l-6.54-.72v-7.39l6.54.89zM226.05 125.6v7.23l-6.54-.89v-7.38l6.54 1.04z"/><path class="f" d="M226.05 118.37v7.23l-6.54-1.04v-7.39l6.54 1.2z"/><path class="f" d="M226.05 111.15v7.22l-6.54-1.2v-7.39l6.54 1.37z"/><path class="f" d="M226.05 103.92v7.23l-6.54-1.37v-7.38l6.54 1.52z"/><path class="f" d="M226.05 96.69v7.23l-6.54-1.52v-7.39l6.54 1.68zM226.05 89.47v7.22l-6.54-1.68v-7.39l6.54 1.85z"/><path class="e" d="M226.05 82.24v7.23l-6.54-1.85v-7.38l6.54 2z"/><path class="f" d="M226.05 75.02v7.22l-6.54-2v-7.39l6.54 2.17zM219.51 264.9v7.38l-6.84 2.26v-7.56l6.84-2.08z"/><path class="e" d="M219.51 257.51v7.39l-6.84 2.08v-7.55l6.84-1.92z"/><path class="f" d="M219.51 250.13v7.38l-6.84 1.92v-7.55l6.84-1.75z"/><path class="f" d="M219.51 242.74v7.39l-6.84 1.75v-7.56l6.84-1.58z"/><path class="f" d="M219.51 235.35v7.39l-6.84 1.58v-7.55l6.84-1.42z"/><path class="f" d="M219.51 227.97v7.38l-6.84 1.42v-7.55l6.84-1.25z"/><path class="f" d="M219.51 220.58v7.39l-6.84 1.25v-7.56l6.84-1.08z"/><path class="f" d="M219.51 213.19v7.39l-6.84 1.08v-7.55l6.84-.92z"/><path class="f" d="M219.51 205.81v7.38l-6.84.92v-7.56l6.84-.74z"/><path class="f" d="M219.51 198.42v7.39l-6.84.74V199l6.84-.58z"/><path class="f" d="M219.51 191.03v7.39l-6.84.58v-7.55l6.84-.42z"/><path class="f" d="M219.51 183.65v7.38l-6.84.42v-7.56l6.84-.24z"/><path class="f" d="M219.51 176.26v7.39l-6.84.24v-7.55l6.84-.08z"/><path class="d" d="M219.51 168.87v7.39l-6.84.08v-7.55l6.84.08z"/><path class="f" d="M219.51 161.49v7.38l-6.84-.08v-7.56l6.84.26z"/><path class="f" d="M219.51 154.1v7.39l-6.84-.26v-7.55l6.84.42z"/><path class="d" d="M219.51 146.71v7.39l-6.84-.42v-7.56l6.84.59z"/><path class="f" d="M219.51 139.33v7.38l-6.84-.59v-7.55l6.84.76z"/><path class="f" d="M219.51 131.94v7.39l-6.84-.76v-7.55l6.84.92z"/><path class="f" d="M219.51 124.56v7.38l-6.84-.92v-7.56l6.84 1.1z"/><path class="f" d="M219.51 117.17v7.39l-6.84-1.1v-7.55l6.84 1.26zM219.51 109.78v7.39l-6.84-1.26v-7.55l6.84 1.42z"/><path class="f" d="M219.51 102.4v7.38l-6.84-1.42v-7.56l6.84 1.6z"/><path class="f" d="M219.51 95.01v7.39l-6.84-1.6v-7.55l6.84 1.76zM219.51 87.62v7.39l-6.84-1.76v-7.56l6.84 1.93z"/><path class="e" d="M219.51 80.24v7.38l-6.84-1.93v-7.55l6.84 2.1z"/><path class="f" d="M219.51 72.85v7.39l-6.84-2.1v-7.55l6.84 2.26zM212.67 266.98v7.56l-7.15 2.36v-7.73l7.15-2.19z"/><path class="e" d="M212.67 259.43v7.55l-7.15 2.19v-7.73l7.15-2.01z"/><path class="f" d="M212.67 251.88v7.55l-7.15 2.01v-7.73l7.15-1.83z"/><path class="f" d="M212.67 244.32v7.56l-7.15 1.83v-7.73l7.15-1.66z"/><path class="f" d="M212.67 236.77v7.55l-7.15 1.66v-7.73l7.15-1.48zM212.67 229.22v7.55l-7.15 1.48v-7.73l7.15-1.3z"/><path class="f" d="M212.67 221.66v7.56l-7.15 1.3v-7.73l7.15-1.13z"/><path class="f" d="M212.67 214.11v7.55l-7.15 1.13v-7.72l7.15-.96z"/><path class="f" d="M212.67 206.55v7.56l-7.15.96v-7.73l7.15-.79zM212.67 199v7.55l-7.15.79v-7.73l7.15-.61z"/><path class="f" d="M212.67 191.45V199l-7.15.61v-7.73l7.15-.43zM212.67 183.89v7.56l-7.15.43v-7.73l7.15-.26z"/><path class="f" d="M212.67 176.34v7.55l-7.15.26v-7.73l7.15-.08z"/><path class="d" d="M212.67 168.79v7.55l-7.15.08v-7.73l7.15.1z"/><path class="f" d="M212.67 161.23v7.56l-7.15-.1v-7.73l7.15.27z"/><path class="f" d="M212.67 153.68v7.55l-7.15-.27v-7.72l7.15.44z"/><path class="d" d="M212.67 146.12v7.56l-7.15-.44v-7.73l7.15.61z"/><path class="f" d="M212.67 138.57v7.55l-7.15-.61v-7.73l7.15.79z"/><path class="f" d="M212.67 131.02v7.55l-7.15-.79v-7.73l7.15.97zM212.67 123.46v7.56l-7.15-.97v-7.73l7.15 1.14z"/><path class="f" d="M212.67 115.91v7.55l-7.15-1.14v-7.73l7.15 1.32z"/><path class="f" d="M212.67 108.36v7.55l-7.15-1.32v-7.73l7.15 1.5z"/><path class="f" d="M212.67 100.8v7.56l-7.15-1.5v-7.73l7.15 1.67z"/><path class="f" d="M212.67 93.25v7.55l-7.15-1.67v-7.72l7.15 1.84z"/><path class="f" d="M212.67 85.69v7.56l-7.15-1.84v-7.73l7.15 2.01z"/><path class="e" d="M212.67 78.14v7.55l-7.15-2.01v-7.73l7.15 2.19z"/><path class="f" d="M212.67 70.59v7.55l-7.15-2.19v-7.73l7.15 2.37zM205.52 269.17v7.73l-7.49 2.47v-7.92l7.49-2.28z"/><path class="e" d="M205.52 261.44v7.73l-7.49 2.28v-7.91l7.49-2.1z"/><path class="f" d="M205.52 253.71v7.73l-7.49 2.1v-7.91l7.49-1.92zM205.52 245.98v7.73l-7.49 1.92v-7.91l7.49-1.74z"/><path class="f" d="M205.52 238.25v7.73l-7.49 1.74v-7.92l7.49-1.55z"/><path class="f" d="M205.52 230.52v7.73l-7.49 1.55v-7.91l7.49-1.37zM205.52 222.79v7.73l-7.49 1.37v-7.91l7.49-1.19z"/><path class="f" d="M205.52 215.07v7.72l-7.49 1.19v-7.91l7.49-1z"/><path class="f" d="M205.52 207.34v7.73l-7.49 1v-7.91l7.49-.82z"/><path class="f" d="M205.52 199.61v7.73l-7.49.82v-7.91l7.49-.64z"/><path class="d" d="M205.52 191.88v7.73l-7.49.64v-7.92l7.49-.45z"/><path class="d" d="M205.52 184.15v7.73l-7.49.45v-7.91l7.49-.27z"/><path class="d" d="M205.52 176.42v7.73l-7.49.27v-7.91l7.49-.09z"/><path class="d" d="M205.52 168.69v7.73l-7.49.09v-7.91l7.49.09z"/><path class="d" d="M205.52 160.96v7.73l-7.49-.09v-7.92l7.49.28z"/><path class="d" d="M205.52 153.24v7.72l-7.49-.28v-7.91l7.49.47zM205.52 145.51v7.73l-7.49-.47v-7.91l7.49.65z"/><path class="f" d="M205.52 137.78v7.73l-7.49-.65v-7.91l7.49.83z"/><path class="f" d="M205.52 130.05v7.73l-7.49-.83v-7.92l7.49 1.02zM205.52 122.32v7.73l-7.49-1.02v-7.91l7.49 1.2z"/><path class="f" d="M205.52 114.59v7.73l-7.49-1.2v-7.91l7.49 1.38z"/><path class="f" d="M205.52 106.86v7.73l-7.49-1.38v-7.91l7.49 1.56zM205.52 99.13v7.73l-7.49-1.56v-7.91l7.49 1.74z"/><path class="f" d="M205.52 91.41v7.72l-7.49-1.74v-7.91l7.49 1.93z"/><path class="f" d="M205.52 83.68v7.73l-7.49-1.93v-7.92l7.49 2.12z"/><path class="e" d="M205.52 75.95v7.73l-7.49-2.12v-7.91l7.49 2.3z"/><path class="f" d="M205.52 68.22v7.73l-7.49-2.3v-7.91l7.49 2.48zM198.03 271.45v7.92l-7.86 2.58v-8.1l7.86-2.4z"/><path class="e" d="M198.03 263.54v7.91l-7.86 2.4v-8.1l7.86-2.21z"/><path class="f" d="M198.03 255.63v7.91l-7.86 2.21v-8.11l7.86-2.01z"/><path class="f" d="M198.03 247.72v7.91l-7.86 2.01v-8.1l7.86-1.82z"/><path class="f" d="M198.03 239.8v7.92l-7.86 1.82v-8.11l7.86-1.63zM198.03 231.89v7.91l-7.86 1.63v-8.1l7.86-1.44z"/><path class="f" d="M198.03 223.98v7.91l-7.86 1.44v-8.11l7.86-1.24z"/><path class="f" d="M198.03 216.07v7.91l-7.86 1.24v-8.1l7.86-1.05z"/><path class="f" d="M198.03 208.16v7.91l-7.86 1.05v-8.1l7.86-.86z"/><path class="f" d="M198.03 200.25v7.91l-7.86.86v-8.11l7.86-.66zM198.03 192.33v7.92l-7.86.66v-8.1l7.86-.48zM198.03 184.42v7.91l-7.86.48v-8.11l7.86-.28z"/><path class="f" d="M198.03 176.51v7.91l-7.86.28v-8.1l7.86-.09z"/><path class="f" d="M198.03 168.6v7.91l-7.86.09v-8.11l7.86.11zM198.03 160.68v7.92l-7.86-.11v-8.1l7.86.29z"/><path class="f" d="M198.03 152.77v7.91l-7.86-.29v-8.1l7.86.48z"/><path class="f" d="M198.03 144.86v7.91l-7.86-.48v-8.11l7.86.68zM198.03 136.95v7.91l-7.86-.68v-8.1l7.86.87z"/><path class="f" d="M198.03 129.03v7.92l-7.86-.87v-8.11l7.86 1.06z"/><path class="f" d="M198.03 121.12v7.91l-7.86-1.06v-8.1l7.86 1.25zM198.03 113.21v7.91l-7.86-1.25v-8.11l7.86 1.45z"/><path class="f" d="M198.03 105.3v7.91l-7.86-1.45v-8.1l7.86 1.64z"/><path class="f" d="M198.03 97.39v7.91l-7.86-1.64v-8.1l7.86 1.83z"/><path class="f" d="M198.03 89.48v7.91l-7.86-1.83v-8.11l7.86 2.03z"/><path class="f" d="M198.03 81.56v7.92l-7.86-2.03v-8.1l7.86 2.21z"/><path class="e" d="M198.03 73.65v7.91l-7.86-2.21v-8.11l7.86 2.41z"/><path class="f" d="M198.03 65.74v7.91l-7.86-2.41v-8.1l7.86 2.6zM190.17 273.85v8.1l-8.24 2.72v-8.3l8.24-2.52z"/><path class="e" d="M190.17 265.75v8.1l-8.24 2.52v-8.31l8.24-2.31z"/><path class="f" d="M190.17 257.64v8.11l-8.24 2.31v-8.3l8.24-2.12z"/><path class="f" d="M190.17 249.54v8.1l-8.24 2.12v-8.31l8.24-1.91z"/><path class="f" d="M190.17 241.43v8.11l-8.24 1.91v-8.31l8.24-1.71z"/><path class="f" d="M190.17 233.33v8.1l-8.24 1.71v-8.3l8.24-1.51zM190.17 225.22v8.11l-8.24 1.51v-8.31l8.24-1.31z"/><path class="f" d="M190.17 217.12v8.1l-8.24 1.31v-8.31l8.24-1.1z"/><path class="f" d="M190.17 209.02v8.1l-8.24 1.1v-8.3l8.24-.9z"/><path class="f" d="M190.17 200.91v8.11l-8.24.9v-8.31l8.24-.7z"/><path class="f" d="M190.17 192.81v8.1l-8.24.7v-8.3l8.24-.5z"/><path class="d" d="M190.17 184.7v8.11l-8.24.5V185l8.24-.3z"/><path class="d" d="M190.17 176.6v8.1l-8.24.3v-8.31l8.24-.09z"/><path class="d" d="M190.17 168.49v8.11l-8.24.09v-8.3l8.24.1zM190.17 160.39v8.1l-8.24-.1v-8.31l8.24.31z"/><path class="d" d="M190.17 152.29v8.1l-8.24-.31v-8.3l8.24.51z"/><path class="f" d="M190.17 144.18v8.11l-8.24-.51v-8.31l8.24.71zM190.17 136.08v8.1l-8.24-.71v-8.31l8.24.92z"/><path class="f" d="M190.17 127.97v8.11l-8.24-.92v-8.3l8.24 1.11z"/><path class="f" d="M190.17 119.87v8.1l-8.24-1.11v-8.31l8.24 1.32z"/><path class="f" d="M190.17 111.76v8.11l-8.24-1.32v-8.31l8.24 1.52zM190.17 103.66v8.1l-8.24-1.52v-8.3l8.24 1.72z"/><path class="f" d="M190.17 95.56v8.1l-8.24-1.72v-8.31l8.24 1.93z"/><path class="f" d="M190.17 87.45v8.11l-8.24-1.93v-8.3l8.24 2.12zM190.17 79.35v8.1l-8.24-2.12v-8.31l8.24 2.33z"/><path class="e" d="M190.17 71.24v8.11l-8.24-2.33v-8.31l8.24 2.53z"/><path class="f" d="M190.17 63.14v8.1l-8.24-2.53v-8.3l8.24 2.73zM181.93 276.37v8.3l-8.67 2.86v-8.52l8.67-2.64z"/><path class="e" d="M181.93 268.06v8.31l-8.67 2.64v-8.52l8.67-2.43z"/><path class="f" d="M181.93 259.76v8.3l-8.67 2.43v-8.51l8.67-2.22z"/><path class="f" d="M181.93 251.45v8.31l-8.67 2.22v-8.52l8.67-2.01zM181.93 243.14v8.31l-8.67 2.01v-8.52l8.67-1.8z"/><path class="f" d="M181.93 234.84v8.3l-8.67 1.8v-8.52l8.67-1.58z"/><path class="f" d="M181.93 226.53v8.31l-8.67 1.58v-8.52l8.67-1.37z"/><path class="f" d="M181.93 218.22v8.31l-8.67 1.37v-8.51l8.67-1.17zM181.93 209.92v8.3l-8.67 1.17v-8.52l8.67-.95z"/><path class="f" d="M181.93 201.61v8.31l-8.67.95v-8.52l8.67-.74z"/><path class="d" d="M181.93 193.31v8.3l-8.67.74v-8.52l8.67-.52z"/><path class="f" d="M181.93 185v8.31l-8.67.52v-8.52l8.67-.31z"/><path class="f" d="M181.93 176.69V185l-8.67.31v-8.52l8.67-.1z"/><path class="f" d="M181.93 168.39v8.3l-8.67.1v-8.51l8.67.11z"/><path class="f" d="M181.93 160.08v8.31l-8.67-.11v-8.52l8.67.32z"/><path class="f" d="M181.93 151.78v8.3l-8.67-.32v-8.52l8.67.54z"/><path class="d" d="M181.93 143.47v8.31l-8.67-.54v-8.52l8.67.75z"/><path class="f" d="M181.93 135.16v8.31l-8.67-.75v-8.52l8.67.96z"/><path class="f" d="M181.93 126.86v8.3l-8.67-.96v-8.52l8.67 1.18z"/><path class="f" d="M181.93 118.55v8.31l-8.67-1.18v-8.52l8.67 1.39z"/><path class="f" d="M181.93 110.24v8.31l-8.67-1.39v-8.51l8.67 1.59z"/><path class="f" d="M181.93 101.94v8.3l-8.67-1.59v-8.52l8.67 1.81z"/><path class="f" d="M181.93 93.63v8.31l-8.67-1.81v-8.52l8.67 2.02z"/><path class="f" d="M181.93 85.33v8.3l-8.67-2.02v-8.52l8.67 2.24z"/><path class="f" d="M181.93 77.02v8.31l-8.67-2.24v-8.52l8.67 2.45z"/><path class="e" d="M181.93 68.71v8.31l-8.67-2.45v-8.52l8.67 2.66z"/><path class="f" d="M181.93 60.41v8.3l-8.67-2.66v-8.51l8.67 2.87zM173.26 279.01v8.52l-9.13 3.01v-8.74l9.13-2.79z"/><path class="e" d="M173.26 270.49v8.52l-9.13 2.79v-8.74l9.13-2.57z"/><path class="f" d="M173.26 261.98v8.51l-9.13 2.57v-8.74l9.13-2.34z"/><path class="f" d="M173.26 253.46v8.52l-9.13 2.34v-8.75l9.13-2.11z"/><path class="f" d="M173.26 244.94v8.52l-9.13 2.11v-8.74l9.13-1.89zM173.26 236.42v8.52l-9.13 1.89v-8.74l9.13-1.67z"/><path class="f" d="M173.26 227.9v8.52l-9.13 1.67v-8.74l9.13-1.45zM173.26 219.39v8.51l-9.13 1.45v-8.74l9.13-1.22z"/><path class="f" d="M173.26 210.87v8.52l-9.13 1.22v-8.74l9.13-1z"/><path class="f" d="M173.26 202.35v8.52l-9.13 1v-8.75l9.13-.77z"/><path class="d" d="M173.26 193.83v8.52l-9.13.77v-8.74l9.13-.55z"/><path class="f" d="M173.26 185.31v8.52l-9.13.55v-8.74l9.13-.33z"/><path class="f" d="M173.26 176.79v8.52l-9.13.33v-8.74l9.13-.11z"/><path class="f" d="M173.26 168.28v8.51l-9.13.11v-8.74l9.13.12z"/><path class="f" d="M173.26 159.76v8.52l-9.13-.12v-8.74l9.13.34z"/><path class="f" d="M173.26 151.24v8.52l-9.13-.34v-8.75l9.13.57z"/><path class="d" d="M173.26 142.72v8.52l-9.13-.57v-8.74l9.13.79z"/><path class="f" d="M173.26 134.2v8.52l-9.13-.79v-8.74l9.13 1.01z"/><path class="f" d="M173.26 125.68v8.52l-9.13-1.01v-8.74l9.13 1.23zM173.26 117.16v8.52l-9.13-1.23v-8.74l9.13 1.45z"/><path class="f" d="M173.26 108.65v8.51l-9.13-1.45v-8.74l9.13 1.68zM173.26 100.13v8.52l-9.13-1.68v-8.75l9.13 1.91z"/><path class="f" d="M173.26 91.61v8.52l-9.13-1.91v-8.74l9.13 2.13z"/><path class="f" d="M173.26 83.09v8.52l-9.13-2.13v-8.74l9.13 2.35zM173.26 74.57v8.52l-9.13-2.35V72l9.13 2.57z"/><path class="e" d="M173.26 66.05v8.52L164.13 72v-8.74l9.13 2.79z"/><path class="f" d="M173.26 57.54v8.51l-9.13-2.79v-8.74l9.13 3.02zM164.13 281.8v8.74l-9.61 3.17v-8.98l9.61-2.93z"/><path class="e" d="M164.13 273.06v8.74l-9.61 2.93v-8.98l9.61-2.69z"/><path class="f" d="M164.13 264.32v8.74l-9.61 2.69v-8.97l9.61-2.46z"/><path class="f" d="M164.13 255.57v8.75l-9.61 2.46v-8.98l9.61-2.23z"/><path class="f" d="M164.13 246.83v8.74l-9.61 2.23v-8.97l9.61-2z"/><path class="f" d="M164.13 238.09v8.74l-9.61 2v-8.98l9.61-1.76zM164.13 229.35v8.74l-9.61 1.76v-8.98l9.61-1.52z"/><path class="f" d="M164.13 220.61v8.74l-9.61 1.52v-8.98l9.61-1.28zM164.13 211.87v8.74l-9.61 1.28v-8.97l9.61-1.05z"/><path class="f" d="M164.13 203.12v8.75l-9.61 1.05v-8.98l9.61-.82zM164.13 194.38v8.74l-9.61.82v-8.98l9.61-.58z"/><path class="d" d="M164.13 185.64v8.74l-9.61.58v-8.97l9.61-.35z"/><path class="d" d="M164.13 176.9v8.74l-9.61.35v-8.98l9.61-.11z"/><path class="d" d="M164.13 168.16v8.74l-9.61.11v-8.98l9.61.13zM164.13 159.42v8.74l-9.61-.13v-8.97l9.61.36zM164.13 150.67v8.75l-9.61-.36v-8.98l9.61.59z"/><path class="f" d="M164.13 141.93v8.74l-9.61-.59v-8.98l9.61.83zM164.13 133.19v8.74l-9.61-.83v-8.98l9.61 1.07z"/><path class="f" d="M164.13 124.45v8.74l-9.61-1.07v-8.97l9.61 1.3zM164.13 115.71v8.74l-9.61-1.3v-8.98l9.61 1.54z"/><path class="f" d="M164.13 106.97v8.74l-9.61-1.54v-8.98l9.61 1.78z"/><path class="f" d="M164.13 98.22v8.75l-9.61-1.78v-8.97l9.61 2z"/><path class="f" d="M164.13 89.48v8.74l-9.61-2v-8.98l9.61 2.24z"/><path class="f" d="M164.13 80.74v8.74l-9.61-2.24v-8.98l9.61 2.48z"/><path class="f" d="M164.13 72v8.74l-9.61-2.48v-8.97l9.61 2.71z"/><path class="e" d="M164.13 63.26V72l-9.61-2.71v-8.98l9.61 2.95z"/><path class="f" d="M164.13 54.52v8.74l-9.61-2.95v-8.98l9.61 3.19zM154.52 284.73v8.98l-10.14 3.34v-9.22l10.14-3.1z"/><path class="e" d="M154.52 275.75v8.98l-10.14 3.1v-9.23l10.14-2.85z"/><path class="f" d="M154.52 266.78v8.97l-10.14 2.85v-9.22l10.14-2.6z"/><path class="f" d="M154.52 257.8v8.98l-10.14 2.6v-9.23l10.14-2.35z"/><path class="f" d="M154.52 248.83v8.97l-10.14 2.35v-9.22l10.14-2.1zM154.52 239.85v8.98l-10.14 2.1v-9.23l10.14-1.85z"/><path class="f" d="M154.52 230.87v8.98l-10.14 1.85v-9.22l10.14-1.61z"/><path class="f" d="M154.52 221.89v8.98l-10.14 1.61v-9.23l10.14-1.36z"/><path class="f" d="M154.52 212.92v8.97l-10.14 1.36v-9.22l10.14-1.11z"/><path class="f" d="M154.52 203.94v8.98l-10.14 1.11v-9.23l10.14-.86z"/><path class="f" d="M154.52 194.96v8.98l-10.14.86v-9.22l10.14-.62z"/><path class="f" d="M154.52 185.99v8.97l-10.14.62v-9.23l10.14-.36zM154.52 177.01v8.98l-10.14.36v-9.22l10.14-.12z"/><path class="f" d="M154.52 168.03v8.98l-10.14.12v-9.23l10.14.13z"/><path class="f" d="M154.52 159.06v8.97l-10.14-.13v-9.22l10.14.38z"/><path class="f" d="M154.52 150.08v8.98l-10.14-.38v-9.23l10.14.63zM154.52 141.1v8.98l-10.14-.63v-9.22l10.14.87z"/><path class="f" d="M154.52 132.12v8.98l-10.14-.87V131l10.14 1.12z"/><path class="f" d="M154.52 123.15v8.97L144.38 131v-9.23l10.14 1.38z"/><path class="f" d="M154.52 114.17v8.98l-10.14-1.38v-9.22l10.14 1.62zM154.52 105.19v8.98l-10.14-1.62v-9.23l10.14 1.87z"/><path class="f" d="M154.52 96.22v8.97l-10.14-1.87V94.1l10.14 2.12z"/><path class="f" d="M154.52 87.24v8.98l-10.14-2.12v-9.23l10.14 2.37z"/><path class="f" d="M154.52 78.26v8.98l-10.14-2.37v-9.22l10.14 2.61z"/><path class="f" d="M154.52 69.29v8.97l-10.14-2.61v-9.23l10.14 2.87z"/><path class="e" d="M154.52 60.31v8.98l-10.14-2.87V57.2l10.14 3.11z"/><path class="f" d="M154.52 51.33v8.98l-10.14-3.11v-9.23l10.14 3.36zM144.38 287.83v9.22l-10.73 3.54v-9.49l10.73-3.27z"/><path class="e" d="M144.38 278.6v9.23l-10.73 3.27v-9.49l10.73-3.01z"/><path class="f" d="M144.38 269.38v9.22l-10.73 3.01v-9.48l10.73-2.75z"/><path class="f" d="M144.38 260.15v9.23l-10.73 2.75v-9.49l10.73-2.49z"/><path class="f" d="M144.38 250.93v9.22l-10.73 2.49v-9.49l10.73-2.22zM144.38 241.7v9.23l-10.73 2.22v-9.49l10.73-1.96z"/><path class="f" d="M144.38 232.48v9.22l-10.73 1.96v-9.48l10.73-1.7zM144.38 223.25v9.23l-10.73 1.7v-9.49l10.73-1.44z"/><path class="f" d="M144.38 214.03v9.22l-10.73 1.44v-9.49l10.73-1.17z"/><path class="f" d="M144.38 204.8v9.23l-10.73 1.17v-9.49l10.73-.91z"/><path class="f" d="M144.38 195.58v9.22l-10.73.91v-9.49l10.73-.64zM144.38 186.35v9.23l-10.73.64v-9.48l10.73-.39z"/><path class="f" d="M144.38 177.13v9.22l-10.73.39v-9.49l10.73-.12z"/><path class="d" d="M144.38 167.9v9.23l-10.73.12v-9.49l10.73.14z"/><path class="d" d="M144.38 158.68v9.22l-10.73-.14v-9.49l10.73.41zM144.38 149.45v9.23l-10.73-.41v-9.48l10.73.66z"/><path class="d" d="M144.38 140.23v9.22l-10.73-.66v-9.49l10.73.93z"/><path class="f" d="M144.38 131v9.23l-10.73-.93v-9.49l10.73 1.19z"/><path class="f" d="M144.38 121.77V131l-10.73-1.19v-9.49l10.73 1.45zM144.38 112.55v9.22l-10.73-1.45v-9.48l10.73 1.71z"/><path class="f" d="M144.38 103.32v9.23l-10.73-1.71v-9.49l10.73 1.97zM144.38 94.1v9.22l-10.73-1.97v-9.49l10.73 2.24z"/><path class="f" d="M144.38 84.87v9.23l-10.73-2.24v-9.49l10.73 2.5zM144.38 75.65v9.22l-10.73-2.5v-9.48l10.73 2.76z"/><path class="f" d="M144.38 66.42v9.23l-10.73-2.76V63.4l10.73 3.02z"/><path class="e" d="M144.38 57.2v9.22l-10.73-3.02v-9.49l10.73 3.29z"/><path class="f" d="M144.38 47.97v9.23l-10.73-3.29v-9.49l10.73 3.55zM133.65 291.1v9.49l-11.35 3.74v-9.76l11.35-3.47z"/><path class="e" d="M133.65 281.61v9.49l-11.35 3.47v-9.77l11.35-3.19z"/><path class="f" d="M133.65 272.13v9.48l-11.35 3.19v-9.76l11.35-2.91z"/><path class="f" d="M133.65 262.64v9.49l-11.35 2.91v-9.77l11.35-2.63zM133.65 253.15v9.49l-11.35 2.63v-9.77l11.35-2.35z"/><path class="f" d="M133.65 243.66v9.49l-11.35 2.35v-9.76l11.35-2.08z"/><path class="f" d="M133.65 234.18v9.48l-11.35 2.08v-9.77l11.35-1.79z"/><path class="f" d="M133.65 224.69v9.49l-11.35 1.79v-9.76l11.35-1.52z"/><path class="f" d="M133.65 215.2v9.49l-11.35 1.52v-9.77l11.35-1.24z"/><path class="f" d="M133.65 205.71v9.49l-11.35 1.24v-9.76l11.35-.97z"/><path class="d" d="M133.65 196.22v9.49l-11.35.97v-9.77l11.35-.69z"/><path class="d" d="M133.65 186.74v9.48l-11.35.69v-9.76l11.35-.41z"/><path class="d" d="M133.65 177.25v9.49l-11.35.41v-9.77l11.35-.13z"/><path class="f" d="M133.65 167.76v9.49l-11.35.13v-9.76l11.35.14z"/><path class="f" d="M133.65 158.27v9.49l-11.35-.14v-9.77l11.35.42zM133.65 148.79v9.48l-11.35-.42v-9.77l11.35.71z"/><path class="f" d="M133.65 139.3v9.49l-11.35-.71v-9.76l11.35.98z"/><path class="f" d="M133.65 129.81v9.49l-11.35-.98v-9.77l11.35 1.26z"/><path class="f" d="M133.65 120.32v9.49l-11.35-1.26v-9.76l11.35 1.53z"/><path class="f" d="M133.65 110.84v9.48l-11.35-1.53v-9.77l11.35 1.82zM133.65 101.35v9.49l-11.35-1.82v-9.76l11.35 2.09z"/><path class="f" d="M133.65 91.86v9.49l-11.35-2.09v-9.77l11.35 2.37z"/><path class="f" d="M133.65 82.37v9.49l-11.35-2.37v-9.76l11.35 2.64z"/><path class="f" d="M133.65 72.89v9.48l-11.35-2.64v-9.77l11.35 2.93zM133.65 63.4v9.49l-11.35-2.93V60.2l11.35 3.2z"/><path class="e" d="M133.65 53.91v9.49l-11.35-3.2v-9.77l11.35 3.48z"/><path class="f" d="M133.65 44.42v9.49l-11.35-3.48v-9.77l11.35 3.76zM122.3 294.57v9.76l-12.03 3.97v-10.06l12.03-3.67z"/><path class="e" d="M122.3 284.8v9.77l-12.03 3.67v-10.06l12.03-3.38z"/><path class="f" d="M122.3 275.04v9.76l-12.03 3.38v-10.06l12.03-3.08zM122.3 265.27v9.77l-12.03 3.08v-10.06l12.03-2.79z"/><path class="f" d="M122.3 255.5v9.77l-12.03 2.79V258l12.03-2.5z"/><path class="f" d="M122.3 245.74v9.76l-12.03 2.5v-10.06l12.03-2.2z"/><path class="f" d="M122.3 235.97v9.77l-12.03 2.2v-10.06l12.03-1.91z"/><path class="f" d="M122.3 226.21v9.76l-12.03 1.91v-10.06l12.03-1.61z"/><path class="f" d="M122.3 216.44v9.77l-12.03 1.61v-10.06l12.03-1.32zM122.3 206.68v9.76l-12.03 1.32V207.7l12.03-1.02z"/><path class="f" d="M122.3 196.91v9.77l-12.03 1.02v-10.06l12.03-.73zM122.3 187.15v9.76l-12.03.73v-10.06l12.03-.43z"/><path class="f" d="M122.3 177.38v9.77l-12.03.43v-10.06l12.03-.14z"/><path class="d" d="M122.3 167.62v9.76l-12.03.14v-10.06l12.03.16z"/><path class="d" d="M122.3 157.85v9.77l-12.03-.16V157.4l12.03.45z"/><path class="d" d="M122.3 148.08v9.77l-12.03-.45v-10.06l12.03.74zM122.3 138.32v9.76l-12.03-.74v-10.06l12.03 1.04z"/><path class="f" d="M122.3 128.55v9.77l-12.03-1.04v-10.06l12.03 1.33zM122.3 118.79v9.76l-12.03-1.33v-10.06l12.03 1.63zM122.3 109.02v9.77l-12.03-1.63V107.1l12.03 1.92z"/><path class="f" d="M122.3 99.26v9.76l-12.03-1.92V97.04l12.03 2.22zM122.3 89.49v9.77l-12.03-2.22V86.98l12.03 2.51z"/><path class="f" d="M122.3 79.73v9.76l-12.03-2.51V76.92l12.03 2.81zM122.3 69.96v9.77l-12.03-2.81V66.86l12.03 3.1z"/><path class="f" d="M122.3 60.2v9.76l-12.03-3.1V56.8l12.03 3.4z"/><path class="e" d="M122.3 50.43v9.77l-12.03-3.4V46.74l12.03 3.69z"/><path class="f" d="M122.3 40.66v9.77l-12.03-3.69V36.68l12.03 3.98zM110.27 298.24v10.06l-12.79 4.21v-10.37l12.79-3.9z"/><path class="e" d="M110.27 288.18v10.06l-12.79 3.9v-10.37l12.79-3.59z"/><path class="f" d="M110.27 278.12v10.06l-12.79 3.59V281.4l12.79-3.28z"/><path class="f" d="M110.27 268.06v10.06l-12.79 3.28v-10.38l12.79-2.96z"/><path class="f" d="M110.27 258v10.06l-12.79 2.96v-10.37l12.79-2.65z"/><path class="f" d="M110.27 247.94V258l-12.79 2.65v-10.37l12.79-2.34z"/><path class="f" d="M110.27 237.88v10.06l-12.79 2.34V239.9l12.79-2.02z"/><path class="f" d="M110.27 227.82v10.06l-12.79 2.02v-10.37l12.79-1.71z"/><path class="f" d="M110.27 217.76v10.06l-12.79 1.71v-10.37l12.79-1.4z"/><path class="f" d="M110.27 207.7v10.06l-12.79 1.4v-10.38l12.79-1.08z"/><path class="d" d="M110.27 197.64v10.06l-12.79 1.08v-10.37l12.79-.77z"/><path class="d" d="M110.27 187.58v10.06l-12.79.77v-10.37l12.79-.46z"/><path class="d" d="M110.27 177.52v10.06l-12.79.46v-10.37l12.79-.15z"/><path class="f" d="M110.27 167.46v10.06l-12.79.15v-10.38l12.79.17z"/><path class="f" d="M110.27 157.4v10.06l-12.79-.17v-10.37l12.79.48z"/><path class="f" d="M110.27 147.34v10.06l-12.79-.48v-10.37l12.79.79z"/><path class="f" d="M110.27 137.28v10.06l-12.79-.79v-10.37l12.79 1.1z"/><path class="f" d="M110.27 127.22v10.06l-12.79-1.1V125.8l12.79 1.42z"/><path class="f" d="M110.27 117.16v10.06l-12.79-1.42v-10.37l12.79 1.73z"/><path class="f" d="M110.27 107.1v10.06l-12.79-1.73v-10.37l12.79 2.04z"/><path class="f" d="M110.27 97.04v10.06l-12.79-2.04V94.68l12.79 2.36z"/><path class="f" d="M110.27 86.98v10.06l-12.79-2.36V84.31l12.79 2.67z"/><path class="f" d="M110.27 76.92v10.06l-12.79-2.67V73.94l12.79 2.98z"/><path class="f" d="M110.27 66.86v10.06l-12.79-2.98V63.56l12.79 3.3z"/><path class="f" d="M110.27 56.8v10.06l-12.79-3.3V53.19l12.79 3.61z"/><path class="e" d="M110.27 46.74V56.8l-12.79-3.61V42.82l12.79 3.92z"/><path class="f" d="M110.27 36.68v10.06l-12.79-3.92V32.45l12.79 4.23zM97.48 302.14v10.37L83.88 317v-10.71l13.6-4.15z"/><path class="e" d="M97.48 291.77v10.37l-13.6 4.15v-10.7l13.6-3.82z"/><path class="f" d="M97.48 281.4v10.37l-13.6 3.82v-10.71l13.6-3.48z"/><path class="f" d="M97.48 271.02v10.38l-13.6 3.48v-10.7l13.6-3.16z"/><path class="f" d="M97.48 260.65v10.37l-13.6 3.16v-10.71l13.6-2.82zM97.48 250.28v10.37l-13.6 2.82v-10.7l13.6-2.49z"/><path class="f" d="M97.48 239.9v10.38l-13.6 2.49v-10.71l13.6-2.16z"/><path class="f" d="M97.48 229.53v10.37l-13.6 2.16v-10.71l13.6-1.82z"/><path class="f" d="M97.48 219.16v10.37l-13.6 1.82v-10.7l13.6-1.49z"/><path class="f" d="M97.48 208.78v10.38l-13.6 1.49v-10.71l13.6-1.16z"/><path class="f" d="M97.48 198.41v10.37l-13.6 1.16v-10.71l13.6-.82z"/><path class="f" d="M97.48 188.04v10.37l-13.6.82v-10.7l13.6-.49z"/><path class="f" d="M97.48 177.67v10.37l-13.6.49v-10.71l13.6-.15z"/><path class="d" d="M97.48 167.29v10.38l-13.6.15v-10.7l13.6.17z"/><path class="d" d="M97.48 156.92v10.37l-13.6-.17v-10.71l13.6.51z"/><path class="d" d="M97.48 146.55v10.37l-13.6-.51v-10.7l13.6.84zM97.48 136.18v10.37l-13.6-.84V135l13.6 1.18z"/><path class="f" d="M97.48 125.8v10.38L83.88 135v-10.71l13.6 1.51z"/><path class="f" d="M97.48 115.43v10.37l-13.6-1.51v-10.7l13.6 1.84z"/><path class="f" d="M97.48 105.06v10.37l-13.6-1.84v-10.71l13.6 2.18z"/><path class="f" d="M97.48 94.68v10.38l-13.6-2.18v-10.7l13.6 2.5z"/><path class="f" d="M97.48 84.31v10.37l-13.6-2.5V81.47l13.6 2.84z"/><path class="f" d="M97.48 73.94v10.37l-13.6-2.84V70.76l13.6 3.18zM97.48 63.56v10.38l-13.6-3.18v-10.7l13.6 3.5z"/><path class="f" d="M97.48 53.19v10.37l-13.6-3.5V49.35l13.6 3.84z"/><path class="e" d="M97.48 42.82v10.37l-13.6-3.84v-10.7l13.6 4.17z"/><path class="f" d="M97.48 32.45v10.37l-13.6-4.17V27.94l13.6 4.51zM83.88 306.29V317l-14.51 4.78v-11.06l14.51-4.43z"/><path class="e" d="M83.88 295.59v10.7l-14.51 4.43v-11.06l14.51-4.07z"/><path class="f" d="M83.88 284.88v10.71l-14.51 4.07V288.6l14.51-3.72z"/><path class="f" d="M83.88 274.18v10.7l-14.51 3.72v-11.06l14.51-3.36z"/><path class="f" d="M83.88 263.47v10.71l-14.51 3.36v-11.06l14.51-3.01z"/><path class="f" d="M83.88 252.77v10.7l-14.51 3.01v-11.06l14.51-2.65z"/><path class="f" d="M83.88 242.06v10.71l-14.51 2.65v-11.06l14.51-2.3z"/><path class="f" d="M83.88 231.35v10.71l-14.51 2.3v-11.07l14.51-1.94zM83.88 220.65v10.7l-14.51 1.94v-11.06l14.51-1.58z"/><path class="f" d="M83.88 209.94v10.71l-14.51 1.58v-11.06l14.51-1.23zM83.88 199.23v10.71l-14.51 1.23v-11.06l14.51-.88z"/><path class="f" d="M83.88 188.53v10.7l-14.51.88v-11.06l14.51-.52z"/><path class="f" d="M83.88 177.82v10.71l-14.51.52v-11.06l14.51-.17zM83.88 167.12v10.7l-14.51.17v-11.06l14.51.19z"/><path class="f" d="M83.88 156.41v10.71l-14.51-.19v-11.06l14.51.54z"/><path class="f" d="M83.88 145.71v10.7l-14.51-.54v-11.06l14.51.9z"/><path class="f" d="M83.88 135v10.71l-14.51-.9v-11.06L83.88 135z"/><path class="f" d="M83.88 124.29V135l-14.51-1.25v-11.06l14.51 1.6z"/><path class="f" d="M83.88 113.59v10.7l-14.51-1.6v-11.07l14.51 1.97z"/><path class="f" d="M83.88 102.88v10.71l-14.51-1.97v-11.06l14.51 2.32z"/><path class="f" d="M83.88 92.18v10.7l-14.51-2.32V89.5l14.51 2.68zM83.88 81.47v10.71L69.37 89.5V78.44l14.51 3.03z"/><path class="f" d="M83.88 70.76v10.71l-14.51-3.03V67.38l14.51 3.38z"/><path class="f" d="M83.88 60.06v10.7l-14.51-3.38V56.32l14.51 3.74z"/><path class="f" d="M83.88 49.35v10.71l-14.51-3.74V45.26l14.51 4.09z"/><path class="e" d="M83.88 38.65v10.7l-14.51-4.09V34.2l14.51 4.45z"/><path class="f" d="M83.88 27.94v10.71L69.37 34.2V23.14l14.51 4.8zM69.37 310.72v11.06l-15.5 5.11v-11.44l15.5-4.73z"/><path class="e" d="M69.37 299.66v11.06l-15.5 4.73v-11.44l15.5-4.35z"/><path class="e" d="M69.37 288.6v11.06l-15.5 4.35v-11.44l15.5-3.97z"/><path class="f" d="M69.37 277.54v11.06l-15.5 3.97v-11.44l15.5-3.59zM69.37 266.48v11.06l-15.5 3.59v-11.44l15.5-3.21zM69.37 255.42v11.06l-15.5 3.21v-11.44l15.5-2.83z"/><path class="f" d="M69.37 244.36v11.06l-15.5 2.83v-11.44l15.5-2.45zM69.37 233.29v11.07l-15.5 2.45v-11.44l15.5-2.08z"/><path class="f" d="M69.37 222.23v11.06l-15.5 2.08v-11.44l15.5-1.7zM69.37 211.17v11.06l-15.5 1.7v-11.44l15.5-1.32z"/><path class="f" d="M69.37 200.11v11.06l-15.5 1.32v-11.44l15.5-.94z"/><path class="f" d="M69.37 189.05v11.06l-15.5.94v-11.44l15.5-.56z"/><path class="f" d="M69.37 177.99v11.06l-15.5.56v-11.44l15.5-.18z"/><path class="f" d="M69.37 166.93v11.06l-15.5.18v-11.44l15.5.2z"/><path class="f" d="M69.37 155.87v11.06l-15.5-.2v-11.44l15.5.58zM69.37 144.81v11.06l-15.5-.58v-11.44l15.5.96z"/><path class="f" d="M69.37 133.75v11.06l-15.5-.96v-11.44l15.5 1.34z"/><path class="f" d="M69.37 122.69v11.06l-15.5-1.34v-11.44l15.5 1.72z"/><path class="f" d="M69.37 111.62v11.07l-15.5-1.72v-11.44l15.5 2.09z"/><path class="f" d="M69.37 100.56v11.06l-15.5-2.09V98.09l15.5 2.47z"/><path class="f" d="M69.37 89.5v11.06l-15.5-2.47V86.65l15.5 2.85z"/><path class="f" d="M69.37 78.44V89.5l-15.5-2.85V75.21l15.5 3.23z"/><path class="f" d="M69.37 67.38v11.06l-15.5-3.23V63.77l15.5 3.61zM69.37 56.32v11.06l-15.5-3.61V52.33l15.5 3.99z"/><path class="e" d="M69.37 45.26v11.06l-15.5-3.99V40.89l15.5 4.37z"/><path class="e" d="M69.37 34.2v11.06l-15.5-4.37V29.44l15.5 4.76z"/><path class="f" d="M69.37 23.14V34.2l-15.5-4.76V18.01l15.5 5.13zM53.87 315.45v11.44l-16.6 5.48v-11.85l16.6-5.07z"/><path class="f" d="M53.87 304.01v11.44l-16.6 5.07v-11.85l16.6-4.66z"/><path class="e" d="M53.87 292.57v11.44l-16.6 4.66v-11.84l16.6-4.26zM53.87 281.13v11.44l-16.6 4.26v-11.85l16.6-3.85z"/><path class="f" d="M53.87 269.69v11.44l-16.6 3.85v-11.85l16.6-3.44z"/><path class="f" d="M53.87 258.25v11.44l-16.6 3.44v-11.84l16.6-3.04z"/><path class="f" d="M53.87 246.81v11.44l-16.6 3.04v-11.85l16.6-2.63zM53.87 235.37v11.44l-16.6 2.63v-11.85l16.6-2.22z"/><path class="f" d="M53.87 223.93v11.44l-16.6 2.22v-11.84l16.6-1.82z"/><path class="f" d="M53.87 212.49v11.44l-16.6 1.82V213.9l16.6-1.41z"/><path class="f" d="M53.87 201.05v11.44l-16.6 1.41v-11.85l16.6-1z"/><path class="f" d="M53.87 189.61v11.44l-16.6 1v-11.84l16.6-.6zM53.87 178.17v11.44l-16.6.6v-11.85l16.6-.19z"/><path class="f" d="M53.87 166.73v11.44l-16.6.19v-11.85l16.6.22z"/><path class="f" d="M53.87 155.29v11.44l-16.6-.22v-11.84l16.6.62z"/><path class="f" d="M53.87 143.85v11.44l-16.6-.62v-11.85l16.6 1.03z"/><path class="f" d="M53.87 132.41v11.44l-16.6-1.03v-11.85l16.6 1.44z"/><path class="f" d="M53.87 120.97v11.44l-16.6-1.44v-11.84l16.6 1.84z"/><path class="f" d="M53.87 109.53v11.44l-16.6-1.84v-11.85l16.6 2.25z"/><path class="f" d="M53.87 98.09v11.44l-16.6-2.25V95.43l16.6 2.66z"/><path class="f" d="M53.87 86.65v11.44l-16.6-2.66V83.59l16.6 3.06zM53.87 75.21v11.44l-16.6-3.06V71.74l16.6 3.47z"/><path class="f" d="M53.87 63.77v11.44l-16.6-3.47V59.89l16.6 3.88z"/><path class="e" d="M53.87 52.33v11.44l-16.6-3.88V48.05l16.6 4.28z"/><path class="e" d="M53.87 40.89v11.44l-16.6-4.28V36.2l16.6 4.69z"/><path class="f" d="M53.87 29.44v11.45l-16.6-4.69V24.35l16.6 5.09z"/><path class="f" d="M53.87 18.01v11.43l-16.6-5.09V12.51l16.6 5.5zM37.27 308.67v11.85l-17.83 5.44v-12.28l17.83-5.01zM37.27 296.83v11.84l-17.83 5.01v-12.29l17.83-4.56z"/><path class="e" d="M37.27 284.98v11.85l-17.83 4.56v-12.28l17.83-4.13zM37.27 273.13v11.85l-17.83 4.13v-12.28l17.83-3.7zM37.27 261.29v11.84l-17.83 3.7v-12.28l17.83-3.26z"/><path class="e" d="M37.27 249.44v11.85l-17.83 3.26v-12.29l17.83-2.82zM37.27 237.59v11.85l-17.83 2.82v-12.28l17.83-2.39z"/><path class="e" d="M37.27 225.75v11.84l-17.83 2.39V227.7l17.83-1.95z"/><path class="e" d="M37.27 213.9v11.85l-17.83 1.95v-12.29l17.83-1.51z"/><path class="e" d="M37.27 202.05v11.85l-17.83 1.51v-12.28l17.83-1.08z"/><path class="e" d="M37.27 190.21v11.84l-17.83 1.08v-12.28l17.83-.64zM37.27 178.36v11.85l-17.83.64v-12.28l17.83-.21z"/><path class="e" d="M37.27 166.51v11.85l-17.83.21v-12.29l17.83.23z"/><path class="e" d="M37.27 154.67v11.84l-17.83-.23V154l17.83.67z"/><path class="e" d="M37.27 142.82v11.85L19.44 154v-12.28l17.83 1.1z"/><path class="e" d="M37.27 130.97v11.85l-17.83-1.1v-12.29l17.83 1.54z"/><path class="e" d="M37.27 119.13v11.84l-17.83-1.54v-12.28l17.83 1.98zM37.27 107.28v11.85l-17.83-1.98v-12.28l17.83 2.41z"/><path class="e" d="M37.27 95.43v11.85l-17.83-2.41V92.59l17.83 2.84z"/><path class="e" d="M37.27 83.59v11.84l-17.83-2.84V80.3l17.83 3.29z"/><path class="e" d="M37.27 71.74v11.85L19.44 80.3V68.02l17.83 3.72z"/><path class="e" d="M37.27 59.89v11.85l-17.83-3.72V55.74l17.83 4.15z"/><path class="e" d="M37.27 48.05v11.84l-17.83-4.15V43.45l17.83 4.6z"/><path class="f" d="M37.27 36.2v11.85l-17.83-4.6V31.17l17.83 5.03z"/><path class="f" d="M37.27 24.35V36.2l-17.83-5.03V18.89l17.83 5.46zM19.44 301.39v12.29L.25 319.07v-12.76l19.19-4.92z"/><path class="f" d="M19.44 289.11v12.28L.25 306.31v-12.75l19.19-4.45zM19.44 276.83v12.28L.25 293.56v-12.75l19.19-3.98z"/><path class="f" d="M19.44 264.55v12.28L.25 280.81v-12.75l19.19-3.51z"/><path class="f" d="M19.44 252.26v12.29L.25 268.06V255.3l19.19-3.04z"/><path class="f" d="M19.44 239.98v12.28L.25 255.3v-12.75l19.19-2.57z"/><path class="f" d="M19.44 227.7v12.28L.25 242.55V229.8l19.19-2.1z"/><path class="f" d="M19.44 215.41v12.29L.25 229.8v-12.76l19.19-1.63zM19.44 203.13v12.28L.25 217.04v-12.75l19.19-1.16z"/><path class="f" d="M19.44 190.85v12.28L.25 204.29v-12.75l19.19-.69z"/><path class="f" d="M19.44 178.57v12.28l-19.19.69v-12.75l19.19-.22z"/><path class="f" d="M19.44 166.28v12.29l-19.19.22v-12.76l19.19.25z"/><path class="f" d="M19.44 154v12.28l-19.19-.25v-12.75l19.19.72z"/><path class="f" d="M19.44 141.72V154l-19.19-.72v-12.75l19.19 1.19z"/><path class="f" d="M19.44 129.43v12.29L.25 140.53v-12.75l19.19 1.65z"/><path class="f" d="M19.44 117.15v12.28L.25 127.78v-12.76l19.19 2.13z"/><path class="f" d="M19.44 104.87v12.28L.25 115.02v-12.75l19.19 2.6z"/><path class="f" d="M19.44 92.59v12.28l-19.19-2.6V89.52l19.19 3.07z"/><path class="f" d="M19.44 80.3v12.29L.25 89.52V76.77l19.19 3.53z"/><path class="f" d="M19.44 68.02V80.3L.25 76.77V64.01l19.19 4.01z"/><path class="f" d="M19.44 55.74v12.28L.25 64.01V51.26l19.19 4.48z"/><path class="f" d="M19.44 43.45v12.29L.25 51.26V38.51l19.19 4.94z"/><path class="f" d="M19.44 31.17v12.28L.25 38.51V25.76l19.19 5.41z"/></g></g></svg>