<svg xmlns="http://www.w3.org/2000/svg" viewBox="0 0 82.5 70.68"><defs><style>.d{fill:#1d1d1d}.e{fill:#305569}</style></defs><g id="b"><g id="c"><path class="d" d="M42.25 12.25h4v4h-4zM78.25.25h4v4h-4zM72.25.25h4v4h-4zM72.25 6.25h4v4h-4zM66.25.25h4v4h-4zM66.25 6.25h4v4h-4zM66.99 14.98l-2-3.46h-.01l-1.26.73h.53v4H63.1l.42.73 3.47-2zM60.25.25h4v4h-4zM60.25 6.25h4v4h-4z"/><path class="d" d="M64.25 16.25v-4h-.53l-2.2 1.27 1.58 2.73h1.15zM54.25.25h4v4h-4zM54.25 6.25h4v4h-4zM54.25 12.25h4v4h-4zM48.25.25h4v4h-4zM48.25 6.25h4v4h-4zM48.25 12.25h4v4h-4zM48.25 18.25h4v4h-4zM42.25.25h4v4h-4zM42.25 6.25h4v4h-4zM42.25 18.25h4v4h-4z"/><path class="e" d="m41.08 48.43-2-2h-1.66l-2 2 .83.83v-.83h4v.83l.83-.83z"/><path class="d" d="M36.25.25h4v4h-4zM36.25 6.25h4v4h-4zM36.25 12.25h4v4h-4zM36.25 24.25h4v4h-4z"/><path class="e" d="M40.25 49.26v-.83h-4v.83l2 2 2-2zM39.08 46.43l-.83-.83-.83.83h1.66z"/><path class="d" d="M30.25.25h4v4h-4zM30.25 6.25h4v4h-4zM30.25 12.25h4v4h-4zM30.25 18.25h4v4h-4zM30.25 24.25h4v4h-4zM24.25.25h4v4h-4zM24.25 6.25h4v4h-4zM24.25 12.25h4v4h-4zM24.25 18.25h4v4h-4zM24.25 24.25h4v4h-4z"/><path class="e" d="M24.25 30.25h4v4h-4z"/><path class="d" d="M18.25.25h4v4h-4zM18.25 6.25h4v4h-4zM18.25 12.25h4v4h-4zM18.25 18.25h4v4h-4zM18.25 24.25h4v4h-4zM12.25.25h4v4h-4zM12.25 6.25h4v4h-4zM12.25 12.25h4v4h-4zM12.25 18.25h4v4h-4z"/><path class="e" d="m10.82 60.62-.8-2.19H6.25v-.4l-.56.2.8 2.2h3.76v.4l.57-.21z"/><path class="d" d="M6.25.25h4v4h-4zM6.25 6.25h4v4h-4zM6.25 12.25h4v4h-4zM6.25 18.25h4v4h-4zM6.25 24.25h4v4h-4zM6.25 30.25h4v4h-4z"/><path class="e" d="M10.25 60.83v-.4H6.49l.57 1.56 3.19-1.16zM10.02 58.43l-.57-1.57-3.2 1.17v.4h3.77z"/><path class="d" d="M.25.25h4v4h-4zM.25 6.25h4v4h-4zM.25 12.25h4v4h-4zM.25 18.25h4v4h-4zM.25 24.25h4v4h-4zM.25 30.25h4v4h-4zM.25 36.25h4v4h-4zM.25 42.43h4v4h-4zM.25 48.43h4v4h-4z"/></g></g></svg>