<svg id="_イヤー_2" xmlns="http://www.w3.org/2000/svg" viewBox="0 0 324.52 344.83"><defs><style>.cls-1{fill:none}.cls-2{fill:#f9c}.cls-3{fill:#1d1d1d}.cls-4{fill:#653d52}</style></defs><g id="main"><path class="cls-1" d="M315.34 230.61v5.04l-3.17.97v-5.12l3.17-.89zM318.4 234.72v4.96l-3.06 1.01v-5.04l3.06-.93zM321.38 150.62v4.9l-2.98-.26v-4.97l2.98.33zM324.27 136.47v4.83l-2.89-.46v-4.9l2.89.53zM318.4 165.19v4.97l-3.06-.04v-5.04l3.06.11z"/><path class="cls-4" d="M308.91 227.22v5.19l-3.36.95v-5.28l3.36-.86z"/><path class="cls-4" d="M308.91 222.02v5.2l-3.36.86v-5.28l3.36-.78zM308.91 216.82v5.2l-3.36.78v-5.28l3.36-.7z"/><path class="cls-4" d="M308.91 211.62v5.2l-3.36.7v-5.28l3.36-.62z"/><path class="cls-4" d="M308.91 206.42v5.2l-3.36.62v-5.28l3.36-.54z"/><path class="cls-4" d="M308.91 201.23v5.19l-3.36.54v-5.28l3.36-.45z"/><path class="cls-4" d="M308.91 196.03v5.2l-3.36.45v-5.28l3.36-.37z"/><path class="cls-4" d="M308.91 190.83v5.2l-3.36.37v-5.29l3.36-.28zM308.91 185.63v5.2l-3.36.28v-5.28l3.36-.2z"/><path class="cls-4" d="M308.91 180.43v5.2l-3.36.2v-5.28l3.36-.12z"/><path class="cls-4" d="M308.91 175.23v5.2l-3.36.12v-5.28l3.36-.04z"/><path class="cls-4" d="M308.91 170.03v5.2l-3.36.04v-5.28l3.36.04z"/><path class="cls-4" d="M308.91 164.84v5.19l-3.36-.04v-5.28l3.36.13zM308.91 159.64v5.2l-3.36-.13v-5.28l3.36.21z"/><path class="cls-4" d="M308.91 154.44v5.2l-3.36-.21v-5.28l3.36.29z"/><path class="cls-4" d="M308.91 149.24v5.2l-3.36-.29v-5.28l3.36.37zM308.91 144.04v5.2l-3.36-.37v-5.28l3.36.45z"/><path class="cls-4" d="M308.91 138.84v5.2l-3.36-.45v-5.28l3.36.53z"/><path class="cls-4" d="M308.91 133.65v5.19l-3.36-.53v-5.28l3.36.62zM308.91 128.45v5.2l-3.36-.62v-5.28l3.36.7z"/><path class="cls-4" d="M308.91 123.25v5.2l-3.36-.7v-5.29l3.36.79z"/><path class="cls-4" d="M308.91 118.05v5.2l-3.36-.79v-5.28l3.36.87z"/><path class="cls-4" d="M308.91 112.85v5.2l-3.36-.87v-5.28l3.36.95zM305.55 233.36v5.28l-3.47 1.06v-5.37l3.47-.97z"/><path class="cls-4" d="M305.55 228.08v5.28l-3.47.97v-5.36l3.47-.89z"/><path class="cls-3" d="M305.55 222.8v5.28l-3.47.89v-5.37l3.47-.8z"/><path class="cls-3" d="M305.55 217.52v5.28l-3.47.8v-5.36l3.47-.72z"/><path class="cls-3" d="M305.55 212.24v5.28l-3.47.72v-5.37l3.47-.63z"/><path class="cls-3" d="M305.55 206.96v5.28l-3.47.63v-5.36l3.47-.55z"/><path class="cls-3" d="M305.55 201.68v5.28l-3.47.55v-5.37l3.47-.46z"/><path class="cls-3" d="M305.55 196.4v5.28l-3.47.46v-5.37l3.47-.37z"/><path class="cls-3" d="M305.55 191.11v5.29l-3.47.37v-5.36l3.47-.3z"/><path class="cls-3" d="M305.55 185.83v5.28l-3.47.3v-5.37l3.47-.21z"/><path class="cls-3" d="M305.55 180.55v5.28l-3.47.21v-5.36l3.47-.13z"/><path class="cls-3" d="M305.55 175.27v5.28l-3.47.13v-5.37l3.47-.04z"/><path class="cls-3" d="M305.55 169.99v5.28l-3.47.04v-5.36l3.47.04z"/><path class="cls-3" d="M305.55 164.71v5.28l-3.47-.04v-5.37l3.47.13z"/><path class="cls-3" d="M305.55 159.43v5.28l-3.47-.13v-5.37l3.47.22z"/><path class="cls-3" d="M305.55 154.15v5.28l-3.47-.22v-5.36l3.47.3z"/><path class="cls-3" d="M305.55 148.87v5.28l-3.47-.3v-5.37l3.47.39z"/><path class="cls-3" d="M305.55 143.59v5.28l-3.47-.39v-5.36l3.47.47z"/><path class="cls-3" d="M305.55 138.31v5.28l-3.47-.47v-5.37l3.47.56z"/><path class="cls-3" d="M305.55 133.03v5.28l-3.47-.56v-5.36l3.47.64z"/><path class="cls-3" d="M305.55 127.75v5.28l-3.47-.64v-5.37l3.47.73zM305.55 122.46v5.29l-3.47-.73v-5.37l3.47.81z"/><path class="cls-3" d="M305.55 117.18v5.28l-3.47-.81v-5.36l3.47.89z"/><path class="cls-4" d="M305.55 111.9v5.28l-3.47-.89v-5.37l3.47.98z"/><path class="cls-4" d="M305.55 106.62v5.28l-3.47-.98v-5.36l3.47 1.06zM302.08 239.7v5.37l-3.59 1.18v-5.46l3.59-1.09z"/><path class="cls-4" d="M302.08 234.33v5.37l-3.59 1.09v-5.45l3.59-1.01z"/><path class="cls-3" d="M302.08 228.97v5.36l-3.59 1.01v-5.45l3.59-.92zM302.08 223.6v5.37l-3.59.92v-5.46l3.59-.83z"/><path class="cls-4" d="M302.08 218.24v5.36l-3.59.83v-5.45l3.59-.74zM302.08 212.87v5.37l-3.59.74v-5.45l3.59-.66zM302.08 207.51v5.36l-3.59.66v-5.46l3.59-.56z"/><path class="cls-4" d="M302.08 202.14v5.37l-3.59.56v-5.45l3.59-.48z"/><path class="cls-4" d="M302.08 196.77v5.37l-3.59.48v-5.45l3.59-.4z"/><path class="cls-4" d="M302.08 191.41v5.36l-3.59.4v-5.46l3.59-.3z"/><path class="cls-4" d="M302.08 186.04v5.37l-3.59.3v-5.45l3.59-.22z"/><path class="cls-4" d="M302.08 180.68v5.36l-3.59.22v-5.45l3.59-.13zM302.08 175.31v5.37l-3.59.13v-5.46l3.59-.04z"/><path class="cls-4" d="M302.08 169.95v5.36l-3.59.04v-5.45l3.59.05z"/><path class="cls-4" d="M302.08 164.58v5.37l-3.59-.05v-5.45l3.59.13z"/><path class="cls-4" d="M302.08 159.21v5.37l-3.59-.13v-5.46l3.59.22z"/><path class="cls-4" d="M302.08 153.85v5.36l-3.59-.22v-5.45l3.59.31zM302.08 148.48v5.37l-3.59-.31v-5.45l3.59.39z"/><path class="cls-4" d="M302.08 143.12v5.36l-3.59-.39v-5.46l3.59.49zM302.08 137.75v5.37l-3.59-.49v-5.45l3.59.57z"/><path class="cls-4" d="M302.08 132.39v5.36l-3.59-.57v-5.45l3.59.66zM302.08 127.02v5.37l-3.59-.66v-5.46l3.59.75z"/><path class="cls-4" d="M302.08 121.65v5.37l-3.59-.75v-5.45l3.59.83z"/><path class="cls-3" d="M302.08 116.29v5.36l-3.59-.83v-5.46l3.59.93zM302.08 110.92v5.37l-3.59-.93v-5.45l3.59 1.01z"/><path class="cls-4" d="M302.08 105.56v5.36l-3.59-1.01v-5.45l3.59 1.1z"/><path class="cls-4" d="M302.08 100.19v5.37l-3.59-1.1V99l3.59 1.19zM298.49 240.79v5.46l-3.7 1.22v-5.55l3.7-1.13z"/><path class="cls-3" d="M298.49 235.34v5.45l-3.7 1.13v-5.54l3.7-1.04zM298.49 229.89v5.45l-3.7 1.04v-5.54l3.7-.95z"/><path class="cls-4" d="M298.49 224.43v5.46l-3.7.95v-5.55l3.7-.86z"/><path class="cls-4" d="M298.49 218.98v5.45l-3.7.86v-5.54l3.7-.77z"/><path class="cls-4" d="M298.49 213.53v5.45l-3.7.77v-5.55l3.7-.67z"/><path class="cls-4" d="M298.49 208.07v5.46l-3.7.67v-5.54l3.7-.59z"/><path class="cls-4" d="M298.49 202.62v5.45l-3.7.59v-5.54l3.7-.5zM298.49 197.17v5.45l-3.7.5v-5.55l3.7-.4z"/><path class="cls-4" d="M298.49 191.71v5.46l-3.7.4v-5.54l3.7-.32zM298.49 186.26v5.45l-3.7.32v-5.55l3.7-.22z"/><path class="cls-4" d="M298.49 180.81v5.45l-3.7.22v-5.54l3.7-.13z"/><path class="cls-4" d="M298.49 175.35v5.46l-3.7.13v-5.55l3.7-.04z"/><path class="cls-4" d="M298.49 169.9v5.45l-3.7.04v-5.54l3.7.05zM298.49 164.45v5.45l-3.7-.05v-5.54l3.7.14z"/><path class="cls-4" d="M298.49 158.99v5.46l-3.7-.14v-5.55l3.7.23zM298.49 153.54v5.45l-3.7-.23v-5.54l3.7.32z"/><path class="cls-4" d="M298.49 148.09v5.45l-3.7-.32v-5.55l3.7.42z"/><path class="cls-4" d="M298.49 142.63v5.46l-3.7-.42v-5.54l3.7.5zM298.49 137.18v5.45l-3.7-.5v-5.54l3.7.59zM298.49 131.73v5.45l-3.7-.59v-5.55l3.7.69z"/><path class="cls-4" d="M298.49 126.27v5.46l-3.7-.69v-5.54l3.7.77z"/><path class="cls-4" d="M298.49 120.82v5.45l-3.7-.77v-5.55l3.7.87zM298.49 115.36v5.46l-3.7-.87v-5.54l3.7.95z"/><path class="cls-3" d="M298.49 109.91v5.45l-3.7-.95v-5.54l3.7 1.04z"/><path class="cls-3" d="M298.49 104.46v5.45l-3.7-1.04v-5.55l3.7 1.14z"/><path class="cls-4" d="M298.49 99v5.46l-3.7-1.14v-5.54l3.7 1.22zM294.79 241.92v5.55l-3.83 1.26v-5.64l3.83-1.17z"/><path class="cls-3" d="M294.79 236.38v5.54l-3.83 1.17v-5.63l3.83-1.08z"/><path class="cls-4" d="M294.79 230.84v5.54l-3.83 1.08v-5.64l3.83-.98zM294.79 225.29v5.55l-3.83.98v-5.64l3.83-.89zM294.79 219.75v5.54l-3.83.89v-5.64l3.83-.79z"/><path class="cls-4" d="M294.79 214.2v5.55l-3.83.79v-5.64l3.83-.7zM294.79 208.66v5.54l-3.83.7v-5.63l3.83-.61z"/><path class="cls-4" d="M294.79 203.12v5.54l-3.83.61v-5.64l3.83-.51zM294.79 197.57v5.55l-3.83.51v-5.64l3.83-.42zM294.79 192.03v5.54l-3.83.42v-5.64l3.83-.32z"/><path class="cls-4" d="M294.79 186.48v5.55l-3.83.32v-5.64l3.83-.23zM294.79 180.94v5.54l-3.83.23v-5.63l3.83-.14z"/><path class="cls-4" d="M294.79 175.39v5.55l-3.83.14v-5.64l3.83-.05z"/><path class="cls-4" d="M294.79 169.85v5.54l-3.83.05v-5.64l3.83.05zM294.79 164.31v5.54l-3.83-.05v-5.64l3.83.15z"/><path class="cls-4" d="M294.79 158.76v5.55l-3.83-.15v-5.63l3.83.23z"/><path class="cls-4" d="M294.79 153.22v5.54l-3.83-.23v-5.64l3.83.33zM294.79 147.67v5.55l-3.83-.33v-5.64l3.83.42z"/><path class="cls-4" d="M294.79 142.13v5.54l-3.83-.42v-5.64l3.83.52zM294.79 136.59v5.54l-3.83-.52v-5.63l3.83.61z"/><path class="cls-4" d="M294.79 131.04v5.55l-3.83-.61v-5.64l3.83.7z"/><path class="cls-4" d="M294.79 125.5v5.54l-3.83-.7v-5.64l3.83.8z"/><path class="cls-4" d="M294.79 119.95v5.55l-3.83-.8v-5.64l3.83.89z"/><path class="cls-4" d="M294.79 114.41v5.54l-3.83-.89v-5.64l3.83.99z"/><path class="cls-4" d="M294.79 108.87v5.54l-3.83-.99v-5.63l3.83 1.08z"/><path class="cls-3" d="M294.79 103.32v5.55l-3.83-1.08v-5.64l3.83 1.17z"/><path class="cls-4" d="M294.79 97.78v5.54l-3.83-1.17v-5.64l3.83 1.27zM290.96 243.09v5.64l-3.96 1.31v-5.74l3.96-1.21z"/><path class="cls-3" d="M290.96 237.46v5.63L287 244.3v-5.73l3.96-1.11z"/><path class="cls-4" d="M290.96 231.82v5.64l-3.96 1.11v-5.74l3.96-1.01z"/><path class="cls-4" d="M290.96 226.18v5.64l-3.96 1.01v-5.73l3.96-.92zM290.96 220.54v5.64l-3.96.92v-5.74l3.96-.82z"/><path class="cls-4" d="M290.96 214.9v5.64l-3.96.82v-5.73l3.96-.73z"/><path class="cls-4" d="M290.96 209.27v5.63l-3.96.73v-5.74l3.96-.62z"/><path class="cls-4" d="M290.96 203.63v5.64l-3.96.62v-5.73l3.96-.53z"/><path class="cls-4" d="M290.96 197.99v5.64l-3.96.53v-5.74l3.96-.43z"/><path class="cls-4" d="M290.96 192.35v5.64l-3.96.43v-5.73l3.96-.34z"/><path class="cls-4" d="M290.96 186.71v5.64l-3.96.34v-5.74l3.96-.24z"/><path class="cls-2" d="M290.96 181.08v5.63l-3.96.24v-5.73l3.96-.14zM290.96 175.44v5.64l-3.96.14v-5.73l3.96-.05z"/><path class="cls-2" d="M290.96 169.8v5.64l-3.96.05v-5.74l3.96.05z"/><path class="cls-4" d="M290.96 164.16v5.64l-3.96-.05v-5.73l3.96.14z"/><path class="cls-2" d="M290.96 158.53v5.63l-3.96-.14v-5.74l3.96.25z"/><path class="cls-4" d="M290.96 152.89v5.64l-3.96-.25v-5.73l3.96.34z"/><path class="cls-4" d="M290.96 147.25v5.64l-3.96-.34v-5.74l3.96.44z"/><path class="cls-4" d="M290.96 141.61v5.64l-3.96-.44v-5.73l3.96.53zM290.96 135.98v5.63l-3.96-.53v-5.74l3.96.64z"/><path class="cls-4" d="M290.96 130.34v5.64l-3.96-.64v-5.73l3.96.73z"/><path class="cls-4" d="M290.96 124.7v5.64l-3.96-.73v-5.74l3.96.83zM290.96 119.06v5.64l-3.96-.83v-5.73l3.96.92z"/><path class="cls-4" d="M290.96 113.42v5.64l-3.96-.92v-5.74l3.96 1.02z"/><path class="cls-4" d="M290.96 107.79v5.63L287 112.4v-5.73l3.96 1.12z"/><path class="cls-3" d="M290.96 102.15v5.64l-3.96-1.12v-5.74l3.96 1.22z"/><path class="cls-4" d="M290.96 96.51v5.64l-3.96-1.22V95.2l3.96 1.31zM287 244.3v5.74l-4.1 1.35v-5.84l4.1-1.25z"/><path class="cls-3" d="M287 238.57v5.73l-4.1 1.25v-5.83l4.1-1.15z"/><path class="cls-4" d="M287 232.83v5.74l-4.1 1.15v-5.84l4.1-1.05zM287 227.1v5.73l-4.1 1.05v-5.83l4.1-.95z"/><path class="cls-4" d="M287 221.36v5.74l-4.1.95v-5.84l4.1-.85zM287 215.63v5.73l-4.1.85v-5.83l4.1-.75z"/><path class="cls-4" d="M287 209.89v5.74l-4.1.75v-5.84l4.1-.65z"/><path class="cls-4" d="M287 204.16v5.73l-4.1.65v-5.83l4.1-.55z"/><path class="cls-4" d="M287 198.42v5.74l-4.1.55v-5.84l4.1-.45zM287 192.69v5.73l-4.1.45v-5.83l4.1-.35z"/><path class="cls-2" d="M287 186.95v5.74l-4.1.35v-5.84l4.1-.25z"/><path class="cls-4" d="M287 181.22v5.73l-4.1.25v-5.83l4.1-.15z"/><path class="cls-4" d="M287 175.49v5.73l-4.1.15v-5.84l4.1-.04z"/><path class="cls-2" d="M287 169.75v5.74l-4.1.04v-5.83l4.1.05z"/><path class="cls-4" d="M287 164.02v5.73l-4.1-.05v-5.84l4.1.16z"/><path class="cls-4" d="M287 158.28v5.74l-4.1-.16v-5.83l4.1.25z"/><path class="cls-2" d="M287 152.55v5.73l-4.1-.25v-5.84l4.1.36z"/><path class="cls-4" d="M287 146.81v5.74l-4.1-.36v-5.83l4.1.45z"/><path class="cls-4" d="M287 141.08v5.73l-4.1-.45v-5.84l4.1.56z"/><path class="cls-4" d="M287 135.34v5.74l-4.1-.56v-5.83l4.1.65z"/><path class="cls-4" d="M287 129.61v5.73l-4.1-.65v-5.84l4.1.76z"/><path class="cls-4" d="M287 123.87v5.74l-4.1-.76v-5.83l4.1.85zM287 118.14v5.73l-4.1-.85v-5.84l4.1.96z"/><path class="cls-4" d="M287 112.4v5.74l-4.1-.96v-5.83l4.1 1.05z"/><path class="cls-4" d="M287 106.67v5.73l-4.1-1.05v-5.84l4.1 1.16z"/><path class="cls-3" d="M287 100.93v5.74l-4.1-1.16v-5.83l4.1 1.25z"/><path class="cls-4" d="M287 95.2v5.73l-4.1-1.25v-5.84l4.1 1.36zM282.9 245.55v5.84l-4.25 1.4v-5.94l4.25-1.3z"/><path class="cls-3" d="M282.9 239.72v5.83l-4.25 1.3v-5.94l4.25-1.19z"/><path class="cls-4" d="M282.9 233.88v5.84l-4.25 1.19v-5.94l4.25-1.09z"/><path class="cls-4" d="M282.9 228.05v5.83l-4.25 1.09v-5.94l4.25-.98zM282.9 222.21v5.84l-4.25.98v-5.94l4.25-.88z"/><path class="cls-4" d="M282.9 216.38v5.83l-4.25.88v-5.93l4.25-.78z"/><path class="cls-4" d="M282.9 210.54v5.84l-4.25.78v-5.94l4.25-.68z"/><path class="cls-4" d="M282.9 204.71v5.83l-4.25.68v-5.94l4.25-.57zM282.9 198.87v5.84l-4.25.57v-5.94l4.25-.47z"/><path class="cls-4" d="M282.9 193.04v5.83l-4.25.47v-5.94l4.25-.36z"/><path class="cls-2" d="M282.9 187.2v5.84l-4.25.36v-5.94l4.25-.26z"/><path class="cls-4" d="M282.9 181.37v5.83l-4.25.26v-5.94l4.25-.15z"/><path class="cls-4" d="M282.9 175.53v5.84l-4.25.15v-5.94l4.25-.05z"/><path class="cls-4" d="M282.9 169.7v5.83l-4.25.05v-5.94l4.25.06z"/><path class="cls-4" d="M282.9 163.86v5.84l-4.25-.06v-5.94l4.25.16z"/><path class="cls-4" d="M282.9 158.03v5.83l-4.25-.16v-5.94l4.25.27z"/><path class="cls-2" d="M282.9 152.19v5.84l-4.25-.27v-5.94l4.25.37z"/><path class="cls-4" d="M282.9 146.36v5.83l-4.25-.37v-5.93l4.25.47z"/><path class="cls-4" d="M282.9 140.52v5.84l-4.25-.47v-5.94l4.25.57z"/><path class="cls-4" d="M282.9 134.69v5.83l-4.25-.57v-5.94l4.25.68zM282.9 128.85v5.84l-4.25-.68v-5.94l4.25.78z"/><path class="cls-4" d="M282.9 123.02v5.83l-4.25-.78v-5.94l4.25.89z"/><path class="cls-4" d="M282.9 117.18v5.84l-4.25-.89v-5.94l4.25.99zM282.9 111.35v5.83l-4.25-.99v-5.94l4.25 1.1z"/><path class="cls-4" d="M282.9 105.51v5.84l-4.25-1.1v-5.94l4.25 1.2z"/><path class="cls-3" d="M282.9 99.68v5.83l-4.25-1.2v-5.94l4.25 1.31z"/><path class="cls-4" d="M282.9 93.84v5.84l-4.25-1.31v-5.94l4.25 1.41zM278.65 246.85v5.94l-4.4 1.45v-6.05l4.4-1.34z"/><path class="cls-3" d="M278.65 240.91v5.94l-4.4 1.34v-6.04l4.4-1.24z"/><path class="cls-4" d="M278.65 234.97v5.94l-4.4 1.24v-6.05l4.4-1.13z"/><path class="cls-4" d="M278.65 229.03v5.94l-4.4 1.13v-6.05l4.4-1.02z"/><path class="cls-4" d="M278.65 223.09v5.94l-4.4 1.02v-6.04l4.4-.92zM278.65 217.16v5.93l-4.4.92v-6.05l4.4-.8z"/><path class="cls-4" d="M278.65 211.22v5.94l-4.4.8v-6.05l4.4-.69z"/><path class="cls-4" d="M278.65 205.28v5.94l-4.4.69v-6.04l4.4-.59z"/><path class="cls-4" d="M278.65 199.34v5.94l-4.4.59v-6.05l4.4-.48z"/><path class="cls-4" d="M278.65 193.4v5.94l-4.4.48v-6.05l4.4-.37z"/><path class="cls-4" d="M278.65 187.46v5.94l-4.4.37v-6.05l4.4-.26z"/><path class="cls-2" d="M278.65 181.52v5.94l-4.4.26v-6.04l4.4-.16z"/><path class="cls-2" d="M278.65 175.58v5.94l-4.4.16v-6.05l4.4-.05z"/><path class="cls-2" d="M278.65 169.64v5.94l-4.4.05v-6.04l4.4.05zM278.65 163.7v5.94l-4.4-.05v-6.05l4.4.16z"/><path class="cls-2" d="M278.65 157.76v5.94l-4.4-.16v-6.05l4.4.27z"/><path class="cls-4" d="M278.65 151.82v5.94l-4.4-.27v-6.05l4.4.38z"/><path class="cls-4" d="M278.65 145.89v5.93l-4.4-.38v-6.04l4.4.49zM278.65 139.95v5.94l-4.4-.49v-6.05l4.4.6z"/><path class="cls-4" d="M278.65 134.01v5.94l-4.4-.6v-6.05l4.4.71z"/><path class="cls-4" d="M278.65 128.07v5.94l-4.4-.71v-6.04l4.4.81z"/><path class="cls-4" d="M278.65 122.13v5.94l-4.4-.81v-6.05l4.4.92z"/><path class="cls-4" d="M278.65 116.19v5.94l-4.4-.92v-6.04l4.4 1.02z"/><path class="cls-4" d="M278.65 110.25v5.94l-4.4-1.02v-6.05l4.4 1.13z"/><path class="cls-4" d="M278.65 104.31v5.94l-4.4-1.13v-6.05l4.4 1.24z"/><path class="cls-3" d="M278.65 98.37v5.94l-4.4-1.24v-6.05l4.4 1.35z"/><path class="cls-4" d="M278.65 92.43v5.94l-4.4-1.35v-6.04l4.4 1.45zM274.25 248.19v6.05l-4.56 1.5v-6.15l4.56-1.4z"/><path class="cls-3" d="M274.25 242.15v6.04l-4.56 1.4v-6.16l4.56-1.28z"/><path class="cls-4" d="M274.25 236.1v6.05l-4.56 1.28v-6.16l4.56-1.17z"/><path class="cls-4" d="M274.25 230.05v6.05l-4.56 1.17v-6.16l4.56-1.06zM274.25 224.01v6.04l-4.56 1.06v-6.16l4.56-.94z"/><path class="cls-4" d="M274.25 217.96v6.05l-4.56.94v-6.16l4.56-.83z"/><path class="cls-4" d="M274.25 211.91v6.05l-4.56.83v-6.15l4.56-.73zM274.25 205.87v6.04l-4.56.73v-6.16l4.56-.61z"/><path class="cls-4" d="M274.25 199.82v6.05l-4.56.61v-6.16l4.56-.5z"/><path class="cls-4" d="M274.25 193.77v6.05l-4.56.5v-6.16l4.56-.39zM274.25 187.72v6.05l-4.56.39V188l4.56-.28z"/><path class="cls-4" d="M274.25 181.68v6.04l-4.56.28v-6.16l4.56-.16z"/><path class="cls-4" d="M274.25 175.63v6.05l-4.56.16v-6.16l4.56-.05z"/><path class="cls-4" d="M274.25 169.59v6.04l-4.56.05v-6.15l4.56.06z"/><path class="cls-4" d="M274.25 163.54v6.05l-4.56-.06v-6.16l4.56.17z"/><path class="cls-4" d="M274.25 157.49v6.05l-4.56-.17v-6.16l4.56.28zM274.25 151.44v6.05l-4.56-.28v-6.16l4.56.39z"/><path class="cls-4" d="M274.25 145.4v6.04l-4.56-.39v-6.16l4.56.51z"/><path class="cls-4" d="M274.25 139.35v6.05l-4.56-.51v-6.16l4.56.62z"/><path class="cls-4" d="M274.25 133.3v6.05l-4.56-.62v-6.15l4.56.72z"/><path class="cls-4" d="M274.25 127.26v6.04l-4.56-.72v-6.16l4.56.84zM274.25 121.21v6.05l-4.56-.84v-6.16l4.56.95z"/><path class="cls-4" d="M274.25 115.17v6.04l-4.56-.95v-6.16l4.56 1.07z"/><path class="cls-4" d="M274.25 109.12v6.05l-4.56-1.07v-6.16l4.56 1.18zM274.25 103.07v6.05l-4.56-1.18v-6.16l4.56 1.29z"/><path class="cls-3" d="M274.25 97.02v6.05l-4.56-1.29v-6.16l4.56 1.4z"/><path class="cls-4" d="M274.25 90.98v6.04l-4.56-1.4v-6.15l4.56 1.51zM269.69 249.59v6.15l-4.74 1.57v-6.28l4.74-1.44z"/><path class="cls-3" d="M269.69 243.43v6.16l-4.74 1.44v-6.27l4.74-1.33z"/><path class="cls-4" d="M269.69 237.27v6.16l-4.74 1.33v-6.28l4.74-1.21z"/><path class="cls-4" d="M269.69 231.11v6.16l-4.74 1.21v-6.27l4.74-1.1zM269.69 224.95v6.16l-4.74 1.1v-6.28l4.74-.98z"/><path class="cls-4" d="M269.69 218.79v6.16l-4.74.98v-6.27l4.74-.87z"/><path class="cls-4" d="M269.69 212.64v6.15l-4.74.87v-6.27l4.74-.75z"/><path class="cls-4" d="M269.69 206.48v6.16l-4.74.75v-6.28l4.74-.63z"/><path class="cls-4" d="M269.69 200.32v6.16l-4.74.63v-6.27l4.74-.52z"/><path class="cls-4" d="M269.69 194.16v6.16l-4.74.52v-6.28l4.74-.4z"/><path class="cls-2" d="M269.69 188v6.16l-4.74.4v-6.27l4.74-.29z"/><path class="cls-2" d="M269.69 181.84V188l-4.74.29v-6.28l4.74-.17z"/><path class="cls-2" d="M269.69 175.68v6.16l-4.74.17v-6.27l4.74-.06z"/><path class="cls-2" d="M269.69 169.53v6.15l-4.74.06v-6.28l4.74.07z"/><path class="cls-2" d="M269.69 163.37v6.16l-4.74-.07v-6.27l4.74.18z"/><path class="cls-2" d="M269.69 157.21v6.16l-4.74-.18v-6.27l4.74.29z"/><path class="cls-2" d="M269.69 151.05v6.16l-4.74-.29v-6.28l4.74.41z"/><path class="cls-4" d="M269.69 144.89v6.16l-4.74-.41v-6.27l4.74.52z"/><path class="cls-4" d="M269.69 138.73v6.16l-4.74-.52v-6.28l4.74.64z"/><path class="cls-4" d="M269.69 132.58v6.15l-4.74-.64v-6.27l4.74.76z"/><path class="cls-4" d="M269.69 126.42v6.16l-4.74-.76v-6.28l4.74.88zM269.69 120.26v6.16l-4.74-.88v-6.27l4.74.99zM269.69 114.1v6.16l-4.74-.99V113l4.74 1.1z"/><path class="cls-4" d="M269.69 107.94v6.16l-4.74-1.1v-6.28l4.74 1.22z"/><path class="cls-4" d="M269.69 101.78v6.16l-4.74-1.22v-6.27l4.74 1.33z"/><path class="cls-3" d="M269.69 95.62v6.16l-4.74-1.33v-6.28l4.74 1.45z"/><path class="cls-4" d="M269.69 89.47v6.15l-4.74-1.45V87.9l4.74 1.57zM264.95 251.03v6.28l-4.91 1.62v-6.4l4.91-1.5z"/><path class="cls-3" d="M264.95 244.76v6.27l-4.91 1.5v-6.39l4.91-1.38z"/><path class="cls-4" d="M264.95 238.48v6.28l-4.91 1.38v-6.4l4.91-1.26z"/><path class="cls-4" d="M264.95 232.21v6.27l-4.91 1.26v-6.39l4.91-1.14zM264.95 225.93v6.28l-4.91 1.14v-6.4l4.91-1.02z"/><path class="cls-4" d="M264.95 219.66v6.27l-4.91 1.02v-6.39l4.91-.9zM264.95 213.39v6.27l-4.91.9v-6.4l4.91-.77z"/><path class="cls-4" d="M264.95 207.11v6.28l-4.91.77v-6.39l4.91-.66zM264.95 200.84v6.27l-4.91.66v-6.4l4.91-.53z"/><path class="cls-4" d="M264.95 194.56v6.28l-4.91.53v-6.39l4.91-.42zM264.95 188.29v6.27l-4.91.42v-6.39l4.91-.3z"/><path class="cls-2" d="M264.95 182.01v6.28l-4.91.3v-6.4l4.91-.18z"/><path class="cls-4" d="M264.95 175.74v6.27l-4.91.18v-6.39l4.91-.06zM264.95 169.46v6.28l-4.91.06v-6.4l4.91.06z"/><path class="cls-4" d="M264.95 163.19v6.27l-4.91-.06v-6.39l4.91.18zM264.95 156.92v6.27l-4.91-.18v-6.4l4.91.31z"/><path class="cls-4" d="M264.95 150.64v6.28l-4.91-.31v-6.39l4.91.42z"/><path class="cls-4" d="M264.95 144.37v6.27l-4.91-.42v-6.4l4.91.55zM264.95 138.09v6.28l-4.91-.55v-6.39l4.91.66z"/><path class="cls-4" d="M264.95 131.82v6.27l-4.91-.66v-6.4l4.91.79z"/><path class="cls-4" d="M264.95 125.54v6.28l-4.91-.79v-6.39l4.91.9zM264.95 119.27v6.27l-4.91-.9v-6.4l4.91 1.03z"/><path class="cls-4" d="M264.95 113v6.27l-4.91-1.03v-6.39l4.91 1.15z"/><path class="cls-4" d="M264.95 106.72V113l-4.91-1.15v-6.4l4.91 1.27z"/><path class="cls-4" d="M264.95 100.45v6.27l-4.91-1.27v-6.39l4.91 1.39z"/><path class="cls-3" d="M264.95 94.17v6.28l-4.91-1.39v-6.39l4.91 1.5z"/><path class="cls-4" d="M264.95 87.9v6.27l-4.91-1.5v-6.4l4.91 1.63zM260.04 252.53v6.4l-5.11 1.68v-6.52l5.11-1.56z"/><path class="cls-3" d="M260.04 246.14v6.39l-5.11 1.56v-6.52l5.11-1.43z"/><path class="cls-4" d="M260.04 239.74v6.4l-5.11 1.43v-6.52l5.11-1.31zM260.04 233.35v6.39l-5.11 1.31v-6.52l5.11-1.18z"/><path class="cls-4" d="M260.04 226.95v6.4l-5.11 1.18v-6.52l5.11-1.06z"/><path class="cls-4" d="M260.04 220.56v6.39l-5.11 1.06v-6.52l5.11-.93z"/><path class="cls-4" d="M260.04 214.16v6.4l-5.11.93v-6.52l5.11-.81z"/><path class="cls-4" d="M260.04 207.77v6.39l-5.11.81v-6.52l5.11-.68z"/><path class="cls-4" d="M260.04 201.37v6.4l-5.11.68v-6.52l5.11-.56zM260.04 194.98v6.39l-5.11.56v-6.52l5.11-.43z"/><path class="cls-4" d="M260.04 188.59v6.39l-5.11.43v-6.52l5.11-.3z"/><path class="cls-4" d="M260.04 182.19v6.4l-5.11.3v-6.52l5.11-.18z"/><path class="cls-2" d="M260.04 175.8v6.39l-5.11.18v-6.52l5.11-.05z"/><path class="cls-4" d="M260.04 169.4v6.4l-5.11.05v-6.52l5.11.07zM260.04 163.01v6.39l-5.11-.07v-6.51l5.11.19z"/><path class="cls-4" d="M260.04 156.61v6.4l-5.11-.19v-6.52l5.11.31zM260.04 150.22v6.39l-5.11-.31v-6.52l5.11.44z"/><path class="cls-4" d="M260.04 143.82v6.4l-5.11-.44v-6.52l5.11.56z"/><path class="cls-4" d="M260.04 137.43v6.39l-5.11-.56v-6.52l5.11.69z"/><path class="cls-4" d="M260.04 131.03v6.4l-5.11-.69v-6.52l5.11.81z"/><path class="cls-4" d="M260.04 124.64v6.39l-5.11-.81v-6.52l5.11.94z"/><path class="cls-4" d="M260.04 118.24v6.4l-5.11-.94v-6.52l5.11 1.06zM260.04 111.85v6.39l-5.11-1.06v-6.52l5.11 1.19z"/><path class="cls-4" d="M260.04 105.45v6.4l-5.11-1.19v-6.52l5.11 1.31zM260.04 99.06v6.39l-5.11-1.31v-6.52l5.11 1.44z"/><path class="cls-3" d="M260.04 92.67v6.39l-5.11-1.44V91.1l5.11 1.57z"/><path class="cls-4" d="M260.04 86.27v6.4l-5.11-1.57v-6.52l5.11 1.69zM254.93 254.09v6.52l-5.31 1.75v-6.65l5.31-1.62z"/><path class="cls-3" d="M254.93 247.57v6.52l-5.31 1.62v-6.65l5.31-1.49z"/><path class="cls-4" d="M254.93 241.05v6.52l-5.31 1.49v-6.65l5.31-1.36z"/><path class="cls-4" d="M254.93 234.53v6.52l-5.31 1.36v-6.65l5.31-1.23zM254.93 228.01v6.52l-5.31 1.23v-6.65l5.31-1.1z"/><path class="cls-4" d="M254.93 221.49v6.52l-5.31 1.1v-6.65l5.31-.97z"/><path class="cls-4" d="M254.93 214.97v6.52l-5.31.97v-6.65l5.31-.84z"/><path class="cls-4" d="M254.93 208.45v6.52l-5.31.84v-6.65l5.31-.71z"/><path class="cls-4" d="M254.93 201.93v6.52l-5.31.71v-6.65l5.31-.58z"/><path class="cls-4" d="M254.93 195.41v6.52l-5.31.58v-6.65l5.31-.45z"/><path class="cls-2" d="M254.93 188.89v6.52l-5.31.45v-6.65l5.31-.32z"/><path class="cls-2" d="M254.93 182.37v6.52l-5.31.32v-6.64l5.31-.2zM254.93 175.85v6.52l-5.31.2v-6.65l5.31-.07z"/><path class="cls-2" d="M254.93 169.33v6.52l-5.31.07v-6.65l5.31.06zM254.93 162.82v6.51l-5.31-.06v-6.65l5.31.2z"/><path class="cls-2" d="M254.93 156.3v6.52l-5.31-.2v-6.65l5.31.33zM254.93 149.78v6.52l-5.31-.33v-6.65l5.31.46z"/><path class="cls-4" d="M254.93 143.26v6.52l-5.31-.46v-6.65l5.31.59z"/><path class="cls-4" d="M254.93 136.74v6.52l-5.31-.59v-6.65l5.31.72z"/><path class="cls-4" d="M254.93 130.22v6.52l-5.31-.72v-6.65l5.31.85z"/><path class="cls-4" d="M254.93 123.7v6.52l-5.31-.85v-6.65l5.31.98z"/><path class="cls-4" d="M254.93 117.18v6.52l-5.31-.98v-6.65l5.31 1.11z"/><path class="cls-4" d="M254.93 110.66v6.52l-5.31-1.11v-6.65l5.31 1.24z"/><path class="cls-4" d="M254.93 104.14v6.52l-5.31-1.24v-6.65l5.31 1.37z"/><path class="cls-4" d="M254.93 97.62v6.52l-5.31-1.37v-6.65l5.31 1.5z"/><path class="cls-3" d="M254.93 91.1v6.52l-5.31-1.5v-6.65l5.31 1.63z"/><path class="cls-4" d="M254.93 84.58v6.52l-5.31-1.63v-6.65l5.31 1.76zM249.62 255.71v6.65l-5.53 1.82v-6.78l5.53-1.69z"/><path class="cls-3" d="M249.62 249.06v6.65l-5.53 1.69v-6.79l5.53-1.55z"/><path class="cls-4" d="M249.62 242.41v6.65l-5.53 1.55v-6.78l5.53-1.42zM249.62 235.76v6.65l-5.53 1.42v-6.79l5.53-1.28z"/><path class="cls-4" d="M249.62 229.11v6.65l-5.53 1.28v-6.78l5.53-1.15z"/><path class="cls-4" d="M249.62 222.46v6.65l-5.53 1.15v-6.79l5.53-1.01zM249.62 215.81v6.65l-5.53 1.01v-6.78l5.53-.88z"/><path class="cls-4" d="M249.62 209.16v6.65l-5.53.88v-6.79l5.53-.74z"/><path class="cls-4" d="M249.62 202.51v6.65l-5.53.74v-6.78l5.53-.61z"/><path class="cls-4" d="M249.62 195.86v6.65l-5.53.61v-6.79l5.53-.47zM249.62 189.21v6.65l-5.53.47v-6.78l5.53-.34zM249.62 182.57v6.64l-5.53.34v-6.79l5.53-.19z"/><path class="cls-4" d="M249.62 175.92v6.65l-5.53.19v-6.78l5.53-.06z"/><path class="cls-4" d="M249.62 169.27v6.65l-5.53.06v-6.79l5.53.08zM249.62 162.62v6.65l-5.53-.08v-6.78l5.53.21z"/><path class="cls-4" d="M249.62 155.97v6.65l-5.53-.21v-6.79l5.53.35z"/><path class="cls-4" d="M249.62 149.32v6.65l-5.53-.35v-6.78l5.53.48z"/><path class="cls-4" d="M249.62 142.67v6.65l-5.53-.48v-6.78l5.53.61z"/><path class="cls-4" d="M249.62 136.02v6.65l-5.53-.61v-6.79l5.53.75z"/><path class="cls-4" d="M249.62 129.37v6.65l-5.53-.75v-6.79l5.53.89z"/><path class="cls-4" d="M249.62 122.72v6.65l-5.53-.89v-6.78l5.53 1.02zM249.62 116.07v6.65l-5.53-1.02v-6.78l5.53 1.15z"/><path class="cls-4" d="M249.62 109.42v6.65l-5.53-1.15v-6.79l5.53 1.29z"/><path class="cls-4" d="M249.62 102.77v6.65l-5.53-1.29v-6.78l5.53 1.42z"/><path class="cls-4" d="M249.62 96.12v6.65l-5.53-1.42v-6.79l5.53 1.56z"/><path class="cls-3" d="M249.62 89.47v6.65l-5.53-1.56v-6.79l5.53 1.7z"/><path class="cls-4" d="M249.62 82.82v6.65l-5.53-1.7v-6.78l5.53 1.83zM244.09 257.4v6.78l-5.76 1.9v-6.92l5.76-1.76z"/><path class="cls-3" d="M244.09 250.61v6.79l-5.76 1.76v-6.93l5.76-1.62z"/><path class="cls-4" d="M244.09 243.83v6.78l-5.76 1.62v-6.92l5.76-1.48zM244.09 237.04v6.79l-5.76 1.48v-6.93l5.76-1.34z"/><path class="cls-4" d="M244.09 230.26v6.78l-5.76 1.34v-6.93l5.76-1.19z"/><path class="cls-4" d="M244.09 223.47v6.79l-5.76 1.19v-6.92l5.76-1.06z"/><path class="cls-4" d="M244.09 216.69v6.78l-5.76 1.06v-6.93l5.76-.91z"/><path class="cls-4" d="M244.09 209.9v6.79l-5.76.91v-6.92l5.76-.78z"/><path class="cls-4" d="M244.09 203.12v6.78l-5.76.78v-6.93l5.76-.63z"/><path class="cls-4" d="M244.09 196.33v6.79l-5.76.63v-6.93l5.76-.49z"/><path class="cls-2" d="M244.09 189.55v6.78l-5.76.49v-6.92l5.76-.35z"/><path class="cls-4" d="M244.09 182.76v6.79l-5.76.35v-6.93l5.76-.21z"/><path class="cls-4" d="M244.09 175.98v6.78l-5.76.21v-6.92l5.76-.07zM244.09 169.19v6.79l-5.76.07v-6.93l5.76.07z"/><path class="cls-4" d="M244.09 162.41v6.78l-5.76-.07v-6.93l5.76.22z"/><path class="cls-4" d="M244.09 155.62v6.79l-5.76-.22v-6.92l5.76.35z"/><path class="cls-2" d="M244.09 148.84v6.78l-5.76-.35v-6.93l5.76.5z"/><path class="cls-4" d="M244.09 142.06v6.78l-5.76-.5v-6.92l5.76.64z"/><path class="cls-4" d="M244.09 135.27v6.79l-5.76-.64v-6.93l5.76.78zM244.09 128.48v6.79l-5.76-.78v-6.93l5.76.92z"/><path class="cls-4" d="M244.09 121.7v6.78l-5.76-.92v-6.92l5.76 1.06z"/><path class="cls-4" d="M244.09 114.92v6.78l-5.76-1.06v-6.93l5.76 1.21z"/><path class="cls-4" d="M244.09 108.13v6.79l-5.76-1.21v-6.92l5.76 1.34zM244.09 101.35v6.78l-5.76-1.34v-6.93l5.76 1.49z"/><path class="cls-4" d="M244.09 94.56v6.79l-5.76-1.49v-6.92l5.76 1.62z"/><path class="cls-3" d="M244.09 87.77v6.79l-5.76-1.62v-6.93l5.76 1.76z"/><path class="cls-4" d="M244.09 80.99v6.78l-5.76-1.76v-6.93l5.76 1.91zM238.33 259.16v6.92l-6 1.98v-7.07l6-1.83z"/><path class="cls-3" d="M238.33 252.23v6.93l-6 1.83v-7.08l6-1.68z"/><path class="cls-4" d="M238.33 245.31v6.92l-6 1.68v-7.07l6-1.53z"/><path class="cls-4" d="M238.33 238.38v6.93l-6 1.53v-7.07l6-1.39zM238.33 231.45v6.93l-6 1.39v-7.07l6-1.25z"/><path class="cls-4" d="M238.33 224.53v6.92l-6 1.25v-7.08l6-1.09z"/><path class="cls-4" d="M238.33 217.6v6.93l-6 1.09v-7.07l6-.95zM238.33 210.68v6.92l-6 .95v-7.07l6-.8z"/><path class="cls-4" d="M238.33 203.75v6.93l-6 .8v-7.07l6-.66zM238.33 196.82v6.93l-6 .66v-7.08l6-.51z"/><path class="cls-2" d="M238.33 189.9v6.92l-6 .51v-7.07l6-.36z"/><path class="cls-2" d="M238.33 182.97v6.93l-6 .36v-7.07l6-.22zM238.33 176.05v6.92l-6 .22v-7.07l6-.07z"/><path class="cls-2" d="M238.33 169.12v6.93l-6 .07v-7.08l6 .08z"/><path class="cls-2" d="M238.33 162.19v6.93l-6-.08v-7.07l6 .22z"/><path class="cls-2" d="M238.33 155.27v6.92l-6-.22v-7.07l6 .37z"/><path class="cls-2" d="M238.33 148.34v6.93l-6-.37v-7.08l6 .52z"/><path class="cls-4" d="M238.33 141.42v6.92l-6-.52v-7.07l6 .67z"/><path class="cls-4" d="M238.33 134.49v6.93l-6-.67v-7.07l6 .81zM238.33 127.56v6.93l-6-.81v-7.07l6 .95zM238.33 120.64v6.92l-6-.95v-7.08l6 1.11zM238.33 113.71v6.93l-6-1.11v-7.07l6 1.25z"/><path class="cls-4" d="M238.33 106.79v6.92l-6-1.25v-7.07l6 1.4zM238.33 99.86v6.93l-6-1.4v-7.08l6 1.55z"/><path class="cls-4" d="M238.33 92.94v6.92l-6-1.55v-7.07l6 1.7z"/><path class="cls-3" d="M238.33 86.01v6.93l-6-1.7v-7.07l6 1.84z"/><path class="cls-4" d="M238.33 79.08v6.93l-6-1.84V77.1l6 1.98zM232.33 260.99v7.07l-6.26 2.07v-7.23l6.26-1.91z"/><path class="cls-3" d="M232.33 253.91v7.08l-6.26 1.91v-7.23l6.26-1.76z"/><path class="cls-4" d="M232.33 246.84v7.07l-6.26 1.76v-7.22l6.26-1.61z"/><path class="cls-4" d="M232.33 239.77v7.07l-6.26 1.61v-7.23l6.26-1.45zM232.33 232.7v7.07l-6.26 1.45v-7.23l6.26-1.29z"/><path class="cls-4" d="M232.33 225.62v7.08l-6.26 1.29v-7.22l6.26-1.15z"/><path class="cls-4" d="M232.33 218.55v7.07l-6.26 1.15v-7.23l6.26-.99zM232.33 211.48v7.07l-6.26.99v-7.22l6.26-.84z"/><path class="cls-4" d="M232.33 204.41v7.07l-6.26.84v-7.23l6.26-.68z"/><path class="cls-4" d="M232.33 197.33v7.08l-6.26.68v-7.23l6.26-.53z"/><path class="cls-2" d="M232.33 190.26v7.07l-6.26.53v-7.22l6.26-.38z"/><path class="cls-4" d="M232.33 183.19v7.07l-6.26.38v-7.23l6.26-.22z"/><path class="cls-4" d="M232.33 176.12v7.07l-6.26.22v-7.22l6.26-.07z"/><path class="cls-4" d="M232.33 169.04v7.08l-6.26.07v-7.23l6.26.08zM232.33 161.97v7.07l-6.26-.08v-7.22l6.26.23z"/><path class="cls-4" d="M232.33 154.9v7.07l-6.26-.23v-7.23l6.26.39z"/><path class="cls-2" d="M232.33 147.82v7.08l-6.26-.39v-7.23l6.26.54z"/><path class="cls-4" d="M232.33 140.75v7.07l-6.26-.54v-7.22l6.26.69z"/><path class="cls-4" d="M232.33 133.68v7.07l-6.26-.69v-7.23l6.26.85z"/><path class="cls-4" d="M232.33 126.61v7.07l-6.26-.85v-7.22l6.26 1zM232.33 119.53v7.08l-6.26-1v-7.23l6.26 1.15z"/><path class="cls-4" d="M232.33 112.46v7.07l-6.26-1.15v-7.23l6.26 1.31z"/><path class="cls-4" d="M232.33 105.39v7.07l-6.26-1.31v-7.22l6.26 1.46z"/><path class="cls-4" d="M232.33 98.31v7.08l-6.26-1.46V96.7l6.26 1.61z"/><path class="cls-4" d="M232.33 91.24v7.07l-6.26-1.61v-7.23l6.26 1.77z"/><path class="cls-3" d="M232.33 84.17v7.07l-6.26-1.77v-7.22l6.26 1.92z"/><path class="cls-4" d="M232.33 77.1v7.07l-6.26-1.92v-7.23l6.26 2.08zM226.07 262.9v7.23l-6.54 2.15v-7.38l6.54-2z"/><path class="cls-3" d="M226.07 255.67v7.23l-6.54 2v-7.39l6.54-1.84z"/><path class="cls-4" d="M226.07 248.45v7.22l-6.54 1.84v-7.39l6.54-1.67zM226.07 241.22v7.23l-6.54 1.67v-7.38l6.54-1.52z"/><path class="cls-4" d="M226.07 233.99v7.23l-6.54 1.52v-7.39l6.54-1.36z"/><path class="cls-4" d="M226.07 226.77v7.22l-6.54 1.36v-7.39l6.54-1.19zM226.07 219.54v7.23l-6.54 1.19v-7.38l6.54-1.04z"/><path class="cls-4" d="M226.07 212.32v7.22l-6.54 1.04v-7.39l6.54-.87z"/><path class="cls-4" d="M226.07 205.09v7.23l-6.54.87v-7.38l6.54-.72z"/><path class="cls-4" d="M226.07 197.86v7.23l-6.54.72v-7.39l6.54-.56zM226.07 190.64v7.22l-6.54.56v-7.39l6.54-.39zM226.07 183.41v7.23l-6.54.39v-7.38l6.54-.24z"/><path class="cls-4" d="M226.07 176.19v7.22l-6.54.24v-7.39l6.54-.07zM226.07 168.96v7.23l-6.54.07v-7.38l6.54.08z"/><path class="cls-4" d="M226.07 161.74v7.22l-6.54-.08v-7.39l6.54.25zM226.07 154.51v7.23l-6.54-.25v-7.38l6.54.4z"/><path class="cls-4" d="M226.07 147.28v7.23l-6.54-.4v-7.39l6.54.56z"/><path class="cls-4" d="M226.07 140.06v7.22l-6.54-.56v-7.39l6.54.73z"/><path class="cls-4" d="M226.07 132.83v7.23l-6.54-.73v-7.38l6.54.88z"/><path class="cls-4" d="M226.07 125.61v7.22l-6.54-.88v-7.39l6.54 1.05zM226.07 118.38v7.23l-6.54-1.05v-7.39l6.54 1.21z"/><path class="cls-4" d="M226.07 111.15v7.23l-6.54-1.21v-7.38l6.54 1.36zM226.07 103.93v7.22l-6.54-1.36v-7.39l6.54 1.53z"/><path class="cls-4" d="M226.07 96.7v7.23l-6.54-1.53v-7.38l6.54 1.68zM226.07 89.47v7.23l-6.54-1.68v-7.39l6.54 1.84z"/><path class="cls-3" d="M226.07 82.25v7.22l-6.54-1.84v-7.39l6.54 2.01z"/><path class="cls-4" d="M226.07 75.02v7.23l-6.54-2.01v-7.38l6.54 2.16zM219.53 264.9v7.38l-6.84 2.26v-7.56l6.84-2.08z"/><path class="cls-3" d="M219.53 257.51v7.39l-6.84 2.08v-7.55l6.84-1.92z"/><path class="cls-4" d="M219.53 250.12v7.39l-6.84 1.92v-7.56l6.84-1.75z"/><path class="cls-4" d="M219.53 242.74v7.38l-6.84 1.75v-7.55l6.84-1.58z"/><path class="cls-4" d="M219.53 235.35v7.39l-6.84 1.58v-7.55l6.84-1.42z"/><path class="cls-4" d="M219.53 227.96v7.39l-6.84 1.42v-7.56l6.84-1.25z"/><path class="cls-4" d="M219.53 220.58v7.38l-6.84 1.25v-7.55l6.84-1.08z"/><path class="cls-4" d="M219.53 213.19v7.39l-6.84 1.08v-7.55l6.84-.92z"/><path class="cls-4" d="M219.53 205.81v7.38l-6.84.92v-7.56l6.84-.74z"/><path class="cls-4" d="M219.53 198.42v7.39l-6.84.74V199l6.84-.58z"/><path class="cls-4" d="M219.53 191.03v7.39l-6.84.58v-7.55l6.84-.42z"/><path class="cls-2" d="M219.53 183.65v7.38l-6.84.42v-7.55l6.84-.25z"/><path class="cls-2" d="M219.53 176.26v7.39l-6.84.25v-7.56l6.84-.08z"/><path class="cls-2" d="M219.53 168.88v7.38l-6.84.08v-7.55l6.84.09z"/><path class="cls-2" d="M219.53 161.49v7.39l-6.84-.09v-7.56l6.84.26z"/><path class="cls-2" d="M219.53 154.11v7.38l-6.84-.26v-7.55l6.84.43z"/><path class="cls-4" d="M219.53 146.72v7.39l-6.84-.43v-7.55l6.84.59z"/><path class="cls-4" d="M219.53 139.33v7.39l-6.84-.59v-7.56l6.84.76z"/><path class="cls-4" d="M219.53 131.95v7.38l-6.84-.76v-7.55l6.84.93z"/><path class="cls-4" d="M219.53 124.56v7.39l-6.84-.93v-7.55l6.84 1.09z"/><path class="cls-4" d="M219.53 117.17v7.39l-6.84-1.09v-7.55l6.84 1.25z"/><path class="cls-4" d="M219.53 109.79v7.38l-6.84-1.25v-7.56l6.84 1.43z"/><path class="cls-4" d="M219.53 102.4v7.39l-6.84-1.43v-7.55l6.84 1.59zM219.53 95.02v7.38l-6.84-1.59v-7.56l6.84 1.77z"/><path class="cls-4" d="M219.53 87.63v7.39l-6.84-1.77V85.7l6.84 1.93z"/><path class="cls-3" d="M219.53 80.24v7.39l-6.84-1.93v-7.55l6.84 2.09z"/><path class="cls-4" d="M219.53 72.86v7.38l-6.84-2.09v-7.56l6.84 2.27zM212.69 266.98v7.56l-7.15 2.35v-7.73l7.15-2.18z"/><path class="cls-3" d="M212.69 259.43v7.55l-7.15 2.18v-7.72l7.15-2.01z"/><path class="cls-4" d="M212.69 251.87v7.56l-7.15 2.01v-7.73l7.15-1.84z"/><path class="cls-4" d="M212.69 244.32v7.55l-7.15 1.84v-7.73l7.15-1.66z"/><path class="cls-4" d="M212.69 236.77v7.55l-7.15 1.66v-7.73l7.15-1.48zM212.69 229.21v7.56l-7.15 1.48v-7.73l7.15-1.31z"/><path class="cls-4" d="M212.69 221.66v7.55l-7.15 1.31v-7.73l7.15-1.13z"/><path class="cls-4" d="M212.69 214.11v7.55l-7.15 1.13v-7.73l7.15-.95zM212.69 206.55v7.56l-7.15.95v-7.72l7.15-.79z"/><path class="cls-4" d="M212.69 199v7.55l-7.15.79v-7.73l7.15-.61z"/><path class="cls-2" d="M212.69 191.45V199l-7.15.61v-7.73l7.15-.43z"/><path class="cls-4" d="M212.69 183.9v7.55l-7.15.43v-7.73l7.15-.25zM212.69 176.34v7.56l-7.15.25v-7.73l7.15-.08z"/><path class="cls-4" d="M212.69 168.79v7.55l-7.15.08v-7.72l7.15.09zM212.69 161.23v7.56l-7.15-.09v-7.73l7.15.26z"/><path class="cls-4" d="M212.69 153.68v7.55l-7.15-.26v-7.73l7.15.44z"/><path class="cls-2" d="M212.69 146.13v7.55l-7.15-.44v-7.73l7.15.62z"/><path class="cls-4" d="M212.69 138.57v7.56l-7.15-.62v-7.73l7.15.79z"/><path class="cls-4" d="M212.69 131.02v7.55l-7.15-.79v-7.73l7.15.97zM212.69 123.47v7.55l-7.15-.97v-7.72l7.15 1.14zM212.69 115.92v7.55l-7.15-1.14v-7.73l7.15 1.32z"/><path class="cls-4" d="M212.69 108.36v7.56l-7.15-1.32v-7.73l7.15 1.49z"/><path class="cls-4" d="M212.69 100.81v7.55l-7.15-1.49v-7.73l7.15 1.67z"/><path class="cls-4" d="M212.69 93.25v7.56l-7.15-1.67v-7.73l7.15 1.84z"/><path class="cls-4" d="M212.69 85.7v7.55l-7.15-1.84v-7.73l7.15 2.02z"/><path class="cls-3" d="M212.69 78.15v7.55l-7.15-2.02v-7.73l7.15 2.2z"/><path class="cls-4" d="M212.69 70.59v7.56l-7.15-2.2v-7.72l7.15 2.36zM205.54 269.16v7.73l-7.49 2.47v-7.91l7.49-2.29z"/><path class="cls-3" d="M205.54 261.44v7.72l-7.49 2.29v-7.91l7.49-2.1z"/><path class="cls-4" d="M205.54 253.71v7.73l-7.49 2.1v-7.91l7.49-1.92zM205.54 245.98v7.73l-7.49 1.92v-7.91l7.49-1.74z"/><path class="cls-4" d="M205.54 238.25v7.73l-7.49 1.74v-7.92l7.49-1.55z"/><path class="cls-4" d="M205.54 230.52v7.73l-7.49 1.55v-7.91l7.49-1.37zM205.54 222.79v7.73l-7.49 1.37v-7.91l7.49-1.19z"/><path class="cls-4" d="M205.54 215.06v7.73l-7.49 1.19v-7.91l7.49-1.01z"/><path class="cls-4" d="M205.54 207.34v7.72l-7.49 1.01v-7.91l7.49-.82z"/><path class="cls-4" d="M205.54 199.61v7.73l-7.49.82v-7.92l7.49-.63z"/><path class="cls-2" d="M205.54 191.88v7.73l-7.49.63v-7.91l7.49-.45z"/><path class="cls-4" d="M205.54 184.15v7.73l-7.49.45v-7.91l7.49-.27z"/><path class="cls-4" d="M205.54 176.42v7.73l-7.49.27v-7.91l7.49-.09z"/><path class="cls-4" d="M205.54 168.7v7.72l-7.49.09v-7.91l7.49.1z"/><path class="cls-4" d="M205.54 160.97v7.73l-7.49-.1v-7.91l7.49.28z"/><path class="cls-4" d="M205.54 153.24v7.73l-7.49-.28v-7.92l7.49.47z"/><path class="cls-2" d="M205.54 145.51v7.73l-7.49-.47v-7.91l7.49.65z"/><path class="cls-4" d="M205.54 137.78v7.73l-7.49-.65v-7.91l7.49.83z"/><path class="cls-4" d="M205.54 130.05v7.73l-7.49-.83v-7.91l7.49 1.01z"/><path class="cls-4" d="M205.54 122.33v7.72l-7.49-1.01v-7.91l7.49 1.2zM205.54 114.6v7.73l-7.49-1.2v-7.91l7.49 1.38z"/><path class="cls-4" d="M205.54 106.87v7.73l-7.49-1.38v-7.92l7.49 1.57z"/><path class="cls-4" d="M205.54 99.14v7.73l-7.49-1.57v-7.91l7.49 1.75zM205.54 91.41v7.73l-7.49-1.75v-7.91l7.49 1.93z"/><path class="cls-4" d="M205.54 83.68v7.73l-7.49-1.93v-7.91l7.49 2.11z"/><path class="cls-3" d="M205.54 75.95v7.73l-7.49-2.11v-7.91l7.49 2.29z"/><path class="cls-4" d="M205.54 68.23v7.72l-7.49-2.29v-7.91l7.49 2.48zM198.05 271.45v7.91l-7.86 2.59v-8.1l7.86-2.4z"/><path class="cls-3" d="M198.05 263.54v7.91l-7.86 2.4v-8.11l7.86-2.2z"/><path class="cls-4" d="M198.05 255.63v7.91l-7.86 2.2v-8.1l7.86-2.01z"/><path class="cls-4" d="M198.05 247.72v7.91l-7.86 2.01v-8.1l7.86-1.82z"/><path class="cls-4" d="M198.05 239.8v7.92l-7.86 1.82v-8.11l7.86-1.63zM198.05 231.89v7.91l-7.86 1.63v-8.1l7.86-1.44z"/><path class="cls-4" d="M198.05 223.98v7.91l-7.86 1.44v-8.11l7.86-1.24z"/><path class="cls-4" d="M198.05 216.07v7.91l-7.86 1.24v-8.1l7.86-1.05z"/><path class="cls-4" d="M198.05 208.16v7.91l-7.86 1.05v-8.1l7.86-.86z"/><path class="cls-4" d="M198.05 200.24v7.92l-7.86.86v-8.11l7.86-.67z"/><path class="cls-2" d="M198.05 192.33v7.91l-7.86.67v-8.1l7.86-.48zM198.05 184.42v7.91l-7.86.48v-8.11l7.86-.28z"/><path class="cls-2" d="M198.05 176.51v7.91l-7.86.28v-8.1l7.86-.09z"/><path class="cls-2" d="M198.05 168.6v7.91l-7.86.09v-8.1l7.86.1z"/><path class="cls-2" d="M198.05 160.69v7.91l-7.86-.1v-8.11l7.86.3z"/><path class="cls-2" d="M198.05 152.77v7.92l-7.86-.3v-8.1l7.86.48z"/><path class="cls-2" d="M198.05 144.86v7.91l-7.86-.48v-8.11l7.86.68z"/><path class="cls-4" d="M198.05 136.95v7.91l-7.86-.68v-8.1l7.86.87z"/><path class="cls-4" d="M198.05 129.04v7.91l-7.86-.87v-8.1l7.86 1.06z"/><path class="cls-4" d="M198.05 121.13v7.91l-7.86-1.06v-8.11l7.86 1.26z"/><path class="cls-4" d="M198.05 113.22v7.91l-7.86-1.26v-8.1l7.86 1.45z"/><path class="cls-4" d="M198.05 105.3v7.92l-7.86-1.45v-8.11l7.86 1.64z"/><path class="cls-4" d="M198.05 97.39v7.91l-7.86-1.64v-8.1l7.86 1.83z"/><path class="cls-4" d="M198.05 89.48v7.91l-7.86-1.83v-8.1l7.86 2.02zM198.05 81.57v7.91l-7.86-2.02v-8.11l7.86 2.22z"/><path class="cls-3" d="M198.05 73.66v7.91l-7.86-2.22v-8.1l7.86 2.41z"/><path class="cls-4" d="M198.05 65.75v7.91l-7.86-2.41v-8.11l7.86 2.61zM190.19 273.85v8.1l-8.24 2.72v-8.3l8.24-2.52z"/><path class="cls-3" d="M190.19 265.74v8.11l-8.24 2.52v-8.31l8.24-2.32z"/><path class="cls-4" d="M190.19 257.64v8.1l-8.24 2.32v-8.3l8.24-2.12z"/><path class="cls-4" d="M190.19 249.54v8.1l-8.24 2.12v-8.31l8.24-1.91z"/><path class="cls-4" d="M190.19 241.43v8.11l-8.24 1.91v-8.31l8.24-1.71z"/><path class="cls-4" d="M190.19 233.33v8.1l-8.24 1.71v-8.3l8.24-1.51zM190.19 225.22v8.11l-8.24 1.51v-8.31l8.24-1.31z"/><path class="cls-4" d="M190.19 217.12v8.1l-8.24 1.31v-8.31l8.24-1.1z"/><path class="cls-4" d="M190.19 209.02v8.1l-8.24 1.1v-8.3l8.24-.9z"/><path class="cls-4" d="M190.19 200.91v8.11l-8.24.9v-8.31l8.24-.7z"/><path class="cls-4" d="M190.19 192.81v8.1l-8.24.7v-8.3l8.24-.5z"/><path class="cls-4" d="M190.19 184.7v8.11l-8.24.5V185l8.24-.3z"/><path class="cls-4" d="M190.19 176.6v8.1l-8.24.3v-8.3l8.24-.1z"/><path class="cls-4" d="M190.19 168.5v8.1l-8.24.1v-8.31l8.24.11z"/><path class="cls-4" d="M190.19 160.39v8.11l-8.24-.11v-8.31l8.24.31z"/><path class="cls-4" d="M190.19 152.29v8.1l-8.24-.31v-8.3l8.24.51z"/><path class="cls-4" d="M190.19 144.18v8.11l-8.24-.51v-8.31l8.24.71zM190.19 136.08v8.1l-8.24-.71v-8.3l8.24.91z"/><path class="cls-4" d="M190.19 127.98v8.1l-8.24-.91v-8.31l8.24 1.12zM190.19 119.87v8.11l-8.24-1.12v-8.3l8.24 1.31zM190.19 111.77v8.1l-8.24-1.31v-8.31l8.24 1.52z"/><path class="cls-4" d="M190.19 103.66v8.11l-8.24-1.52v-8.31l8.24 1.72z"/><path class="cls-4" d="M190.19 95.56v8.1l-8.24-1.72v-8.3l8.24 1.92zM190.19 87.46v8.1l-8.24-1.92v-8.31l8.24 2.13z"/><path class="cls-4" d="M190.19 79.35v8.11l-8.24-2.13v-8.3l8.24 2.32z"/><path class="cls-3" d="M190.19 71.25v8.1l-8.24-2.32v-8.31l8.24 2.53z"/><path class="cls-4" d="M190.19 63.14v8.11l-8.24-2.53v-8.31l8.24 2.73zM181.95 276.37v8.3l-8.67 2.86v-8.52l8.67-2.64z"/><path class="cls-3" d="M181.95 268.06v8.31l-8.67 2.64v-8.52l8.67-2.43z"/><path class="cls-4" d="M181.95 259.76v8.3l-8.67 2.43v-8.51l8.67-2.22z"/><path class="cls-4" d="M181.95 251.45v8.31l-8.67 2.22v-8.52l8.67-2.01zM181.95 243.14v8.31l-8.67 2.01v-8.52l8.67-1.8z"/><path class="cls-4" d="M181.95 234.84v8.3l-8.67 1.8v-8.52l8.67-1.58z"/><path class="cls-4" d="M181.95 226.53v8.31l-8.67 1.58v-8.52l8.67-1.37z"/><path class="cls-4" d="M181.95 218.22v8.31l-8.67 1.37v-8.51l8.67-1.17zM181.95 209.92v8.3l-8.67 1.17v-8.52l8.67-.95z"/><path class="cls-4" d="M181.95 201.61v8.31l-8.67.95v-8.52l8.67-.74z"/><path class="cls-4" d="M181.95 193.31v8.3l-8.67.74v-8.52l8.67-.52z"/><path class="cls-2" d="M181.95 185v8.31l-8.67.52v-8.52l8.67-.31z"/><path class="cls-2" d="M181.95 176.7v8.3l-8.67.31v-8.51l8.67-.1zM181.95 168.39v8.31l-8.67.1v-8.52l8.67.11z"/><path class="cls-2" d="M181.95 160.08v8.31l-8.67-.11v-8.52l8.67.32z"/><path class="cls-2" d="M181.95 151.78v8.3l-8.67-.32v-8.52l8.67.54z"/><path class="cls-4" d="M181.95 143.47v8.31l-8.67-.54v-8.52l8.67.75z"/><path class="cls-4" d="M181.95 135.17v8.3l-8.67-.75v-8.51l8.67.96zM181.95 126.86v8.31l-8.67-.96v-8.52l8.67 1.17z"/><path class="cls-4" d="M181.95 118.56v8.3l-8.67-1.17v-8.52l8.67 1.39z"/><path class="cls-4" d="M181.95 110.25v8.31l-8.67-1.39v-8.52l8.67 1.6z"/><path class="cls-4" d="M181.95 101.94v8.31l-8.67-1.6v-8.52l8.67 1.81zM181.95 93.64v8.3l-8.67-1.81v-8.51l8.67 2.02z"/><path class="cls-4" d="M181.95 85.33v8.31l-8.67-2.02V83.1l8.67 2.23z"/><path class="cls-4" d="M181.95 77.03v8.3l-8.67-2.23v-8.52l8.67 2.45z"/><path class="cls-3" d="M181.95 68.72v8.31l-8.67-2.45v-8.52l8.67 2.66z"/><path class="cls-4" d="M181.95 60.41v8.31l-8.67-2.66v-8.52l8.67 2.87zM173.28 279.01v8.52l-9.13 3.01v-8.74l9.13-2.79z"/><path class="cls-3" d="M173.28 270.49v8.52l-9.13 2.79v-8.75l9.13-2.56z"/><path class="cls-4" d="M173.28 261.98v8.51l-9.13 2.56v-8.74l9.13-2.33z"/><path class="cls-4" d="M173.28 253.46v8.52l-9.13 2.33v-8.74l9.13-2.11z"/><path class="cls-4" d="M173.28 244.94v8.52l-9.13 2.11v-8.74l9.13-1.89zM173.28 236.42v8.52l-9.13 1.89v-8.74l9.13-1.67z"/><path class="cls-4" d="M173.28 227.9v8.52l-9.13 1.67v-8.74l9.13-1.45zM173.28 219.39v8.51l-9.13 1.45v-8.74l9.13-1.22z"/><path class="cls-4" d="M173.28 210.87v8.52l-9.13 1.22v-8.74l9.13-1z"/><path class="cls-4" d="M173.28 202.35v8.52l-9.13 1v-8.75l9.13-.77z"/><path class="cls-2" d="M173.28 193.83v8.52l-9.13.77v-8.74l9.13-.55z"/><path class="cls-4" d="M173.28 185.31v8.52l-9.13.55v-8.74l9.13-.33z"/><path class="cls-4" d="M173.28 176.8v8.51l-9.13.33v-8.74l9.13-.1z"/><path class="cls-4" d="M173.28 168.28v8.52l-9.13.1v-8.74l9.13.12z"/><path class="cls-4" d="M173.28 159.76v8.52l-9.13-.12v-8.74l9.13.34z"/><path class="cls-4" d="M173.28 151.24v8.52l-9.13-.34v-8.74l9.13.56z"/><path class="cls-2" d="M173.28 142.72v8.52l-9.13-.56v-8.74l9.13.78z"/><path class="cls-4" d="M173.28 134.21v8.51l-9.13-.78v-8.75l9.13 1.02z"/><path class="cls-4" d="M173.28 125.69v8.52l-9.13-1.02v-8.74l9.13 1.24z"/><path class="cls-4" d="M173.28 117.17v8.52l-9.13-1.24v-8.74l9.13 1.46z"/><path class="cls-4" d="M173.28 108.65v8.52l-9.13-1.46v-8.74l9.13 1.68zM173.28 100.13v8.52l-9.13-1.68v-8.74l9.13 1.9z"/><path class="cls-4" d="M173.28 91.62v8.51l-9.13-1.9v-8.74l9.13 2.13zM173.28 83.1v8.52l-9.13-2.13v-8.74l9.13 2.35z"/><path class="cls-4" d="M173.28 74.58v8.52l-9.13-2.35V72l9.13 2.58z"/><path class="cls-3" d="M173.28 66.06v8.52L164.15 72v-8.74l9.13 2.8z"/><path class="cls-4" d="M173.28 57.54v8.52l-9.13-2.8v-8.74l9.13 3.02zM164.15 281.8v8.74l-9.61 3.17v-8.98l9.61-2.93z"/><path class="cls-3" d="M164.15 273.05v8.75l-9.61 2.93v-8.98l9.61-2.7z"/><path class="cls-4" d="M164.15 264.31v8.74l-9.61 2.7v-8.97l9.61-2.47z"/><path class="cls-4" d="M164.15 255.57v8.74l-9.61 2.47v-8.98l9.61-2.23z"/><path class="cls-4" d="M164.15 246.83v8.74l-9.61 2.23v-8.98l9.61-1.99z"/><path class="cls-4" d="M164.15 238.09v8.74l-9.61 1.99v-8.97l9.61-1.76zM164.15 229.35v8.74l-9.61 1.76v-8.98l9.61-1.52z"/><path class="cls-4" d="M164.15 220.61v8.74l-9.61 1.52v-8.97l9.61-1.29zM164.15 211.87v8.74l-9.61 1.29v-8.98l9.61-1.05zM164.15 203.12v8.75l-9.61 1.05v-8.98l9.61-.82z"/><path class="cls-2" d="M164.15 194.38v8.74l-9.61.82v-8.98l9.61-.58z"/><path class="cls-4" d="M164.15 185.64v8.74l-9.61.58v-8.97l9.61-.35z"/><path class="cls-4" d="M164.15 176.9v8.74l-9.61.35v-8.98l9.61-.11zM164.15 168.16v8.74l-9.61.11v-8.97l9.61.12zM164.15 159.42v8.74l-9.61-.12v-8.98l9.61.36z"/><path class="cls-4" d="M164.15 150.68v8.74l-9.61-.36v-8.98l9.61.6z"/><path class="cls-2" d="M164.15 141.94v8.74l-9.61-.6v-8.98l9.61.84z"/><path class="cls-4" d="M164.15 133.19v8.75l-9.61-.84v-8.97l9.61 1.06z"/><path class="cls-4" d="M164.15 124.45v8.74l-9.61-1.06v-8.98l9.61 1.3z"/><path class="cls-4" d="M164.15 115.71v8.74l-9.61-1.3v-8.97l9.61 1.53z"/><path class="cls-4" d="M164.15 106.97v8.74l-9.61-1.53v-8.98l9.61 1.77z"/><path class="cls-4" d="M164.15 98.23v8.74l-9.61-1.77v-8.98l9.61 2.01zM164.15 89.49v8.74l-9.61-2.01v-8.97l9.61 2.24z"/><path class="cls-4" d="M164.15 80.75v8.74l-9.61-2.24v-8.98l9.61 2.48z"/><path class="cls-4" d="M164.15 72v8.75l-9.61-2.48v-8.98l9.61 2.71z"/><path class="cls-3" d="M164.15 63.26V72l-9.61-2.71v-8.98l9.61 2.95z"/><path class="cls-4" d="M164.15 54.52v8.74l-9.61-2.95v-8.97l9.61 3.18zM154.54 284.73v8.98l-10.15 3.34v-9.22l10.15-3.1z"/><path class="cls-3" d="M154.54 275.75v8.98l-10.15 3.1v-9.23l10.15-2.85z"/><path class="cls-4" d="M154.54 266.78v8.97l-10.15 2.85v-9.22l10.15-2.6z"/><path class="cls-4" d="M154.54 257.8v8.98l-10.15 2.6v-9.23l10.15-2.35z"/><path class="cls-4" d="M154.54 248.82v8.98l-10.15 2.35v-9.22l10.15-2.11zM154.54 239.85v8.97l-10.15 2.11v-9.23l10.15-1.85zM154.54 230.87v8.98l-10.15 1.85v-9.22l10.15-1.61z"/><path class="cls-4" d="M154.54 221.9v8.97l-10.15 1.61v-9.23l10.15-1.35zM154.54 212.92v8.98l-10.15 1.35v-9.22l10.15-1.11z"/><path class="cls-4" d="M154.54 203.94v8.98l-10.15 1.11v-9.23l10.15-.86z"/><path class="cls-4" d="M154.54 194.96v8.98l-10.15.86v-9.22l10.15-.62z"/><path class="cls-2" d="M154.54 185.99v8.97l-10.15.62v-9.23l10.15-.36zM154.54 177.01v8.98l-10.15.36v-9.22l10.15-.12z"/><path class="cls-2" d="M154.54 168.04v8.97l-10.15.12v-9.23l10.15.14z"/><path class="cls-2" d="M154.54 159.06v8.98l-10.15-.14v-9.22l10.15.38z"/><path class="cls-2" d="M154.54 150.08v8.98l-10.15-.38v-9.23l10.15.63z"/><path class="cls-4" d="M154.54 141.1v8.98l-10.15-.63v-9.22l10.15.87z"/><path class="cls-4" d="M154.54 132.13v8.97l-10.15-.87V131l10.15 1.13z"/><path class="cls-4" d="M154.54 123.15v8.98L144.39 131v-9.22l10.15 1.37z"/><path class="cls-4" d="M154.54 114.18v8.97l-10.15-1.37v-9.23l10.15 1.63z"/><path class="cls-4" d="M154.54 105.2v8.98l-10.15-1.63v-9.22l10.15 1.87zM154.54 96.22v8.98l-10.15-1.87V94.1l10.15 2.12z"/><path class="cls-4" d="M154.54 87.25v8.97l-10.15-2.12v-9.22l10.15 2.37z"/><path class="cls-4" d="M154.54 78.27v8.98l-10.15-2.37v-9.23l10.15 2.62z"/><path class="cls-4" d="M154.54 69.29v8.98l-10.15-2.62v-9.22l10.15 2.86z"/><path class="cls-3" d="M154.54 60.31v8.98l-10.15-2.86V57.2l10.15 3.11z"/><path class="cls-4" d="M154.54 51.34v8.97l-10.15-3.11v-9.22l10.15 3.36zM144.39 287.83v9.22l-10.72 3.54v-9.49l10.72-3.27z"/><path class="cls-3" d="M144.39 278.6v9.23l-10.72 3.27v-9.49l10.72-3.01z"/><path class="cls-4" d="M144.39 269.38v9.22l-10.72 3.01v-9.48l10.72-2.75z"/><path class="cls-4" d="M144.39 260.15v9.23l-10.72 2.75v-9.49l10.72-2.49z"/><path class="cls-4" d="M144.39 250.93v9.22l-10.72 2.49v-9.49l10.72-2.22zM144.39 241.7v9.23l-10.72 2.22v-9.49l10.72-1.96z"/><path class="cls-4" d="M144.39 232.48v9.22l-10.72 1.96v-9.48l10.72-1.7zM144.39 223.25v9.23l-10.72 1.7v-9.49l10.72-1.44z"/><path class="cls-4" d="M144.39 214.03v9.22l-10.72 1.44v-9.49l10.72-1.17z"/><path class="cls-4" d="M144.39 204.8v9.23l-10.72 1.17v-9.49l10.72-.91z"/><path class="cls-4" d="M144.39 195.58v9.22l-10.72.91v-9.48l10.72-.65zM144.39 186.35v9.23l-10.72.65v-9.49l10.72-.39z"/><path class="cls-4" d="M144.39 177.13v9.22l-10.72.39v-9.49l10.72-.12z"/><path class="cls-4" d="M144.39 167.9v9.23l-10.72.12v-9.49l10.72.14z"/><path class="cls-4" d="M144.39 158.68v9.22l-10.72-.14v-9.48l10.72.4zM144.39 149.45v9.23l-10.72-.4v-9.49l10.72.66z"/><path class="cls-4" d="M144.39 140.23v9.22l-10.72-.66v-9.49l10.72.93z"/><path class="cls-4" d="M144.39 131v9.23l-10.72-.93v-9.49l10.72 1.19z"/><path class="cls-4" d="M144.39 121.78V131l-10.72-1.19v-9.48l10.72 1.45z"/><path class="cls-4" d="M144.39 112.55v9.23l-10.72-1.45v-9.49l10.72 1.71z"/><path class="cls-4" d="M144.39 103.33v9.22l-10.72-1.71v-9.49l10.72 1.98zM144.39 94.1v9.23l-10.72-1.98v-9.48l10.72 2.23z"/><path class="cls-4" d="M144.39 84.88v9.22l-10.72-2.23v-9.49l10.72 2.5z"/><path class="cls-4" d="M144.39 75.65v9.23l-10.72-2.5v-9.49l10.72 2.76zM144.39 66.43v9.22l-10.72-2.76V63.4l10.72 3.03z"/><path class="cls-3" d="M144.39 57.2v9.23l-10.72-3.03v-9.48l10.72 3.28z"/><path class="cls-4" d="M144.39 47.98v9.22l-10.72-3.28v-9.49l10.72 3.55zM133.67 291.1v9.49l-11.35 3.74v-9.76l11.35-3.47z"/><path class="cls-3" d="M133.67 281.61v9.49l-11.35 3.47v-9.77l11.35-3.19z"/><path class="cls-4" d="M133.67 272.13v9.48l-11.35 3.19v-9.77l11.35-2.9zM133.67 262.64v9.49l-11.35 2.9v-9.76l11.35-2.63z"/><path class="cls-4" d="M133.67 253.15v9.49l-11.35 2.63v-9.77l11.35-2.35z"/><path class="cls-4" d="M133.67 243.66v9.49l-11.35 2.35v-9.76l11.35-2.08z"/><path class="cls-4" d="M133.67 234.18v9.48l-11.35 2.08v-9.77l11.35-1.79z"/><path class="cls-4" d="M133.67 224.69v9.49l-11.35 1.79v-9.76l11.35-1.52z"/><path class="cls-4" d="M133.67 215.2v9.49l-11.35 1.52v-9.77l11.35-1.24z"/><path class="cls-4" d="M133.67 205.71v9.49l-11.35 1.24v-9.76l11.35-.97zM133.67 196.23v9.48l-11.35.97v-9.77l11.35-.68z"/><path class="cls-2" d="M133.67 186.74v9.49l-11.35.68v-9.76l11.35-.41z"/><path class="cls-4" d="M133.67 177.25v9.49l-11.35.41v-9.77l11.35-.13z"/><path class="cls-4" d="M133.67 167.76v9.49l-11.35.13v-9.76l11.35.14z"/><path class="cls-4" d="M133.67 158.28v9.48l-11.35-.14v-9.77l11.35.43z"/><path class="cls-2" d="M133.67 148.79v9.49l-11.35-.43v-9.76l11.35.7z"/><path class="cls-4" d="M133.67 139.3v9.49l-11.35-.7v-9.77l11.35.98z"/><path class="cls-4" d="M133.67 129.81v9.49l-11.35-.98v-9.76l11.35 1.25zM133.67 120.33v9.48l-11.35-1.25v-9.77l11.35 1.54zM133.67 110.84v9.49l-11.35-1.54v-9.76l11.35 1.81z"/><path class="cls-4" d="M133.67 101.35v9.49l-11.35-1.81v-9.77l11.35 2.09z"/><path class="cls-4" d="M133.67 91.87v9.48l-11.35-2.09V89.5l11.35 2.37zM133.67 82.38v9.49l-11.35-2.37v-9.77l11.35 2.65z"/><path class="cls-4" d="M133.67 72.89v9.49l-11.35-2.65v-9.76l11.35 2.92z"/><path class="cls-4" d="M133.67 63.4v9.49l-11.35-2.92V60.2l11.35 3.2z"/><path class="cls-3" d="M133.67 53.92v9.48l-11.35-3.2v-9.76l11.35 3.48z"/><path class="cls-4" d="M133.67 44.43v9.49l-11.35-3.48v-9.77l11.35 3.76zM122.32 294.57v9.76l-12.04 3.97v-10.06l12.04-3.67z"/><path class="cls-3" d="M122.32 284.8v9.77l-12.04 3.67v-10.06l12.04-3.38z"/><path class="cls-4" d="M122.32 275.03v9.77l-12.04 3.38v-10.06l12.04-3.09z"/><path class="cls-4" d="M122.32 265.27v9.76l-12.04 3.09v-10.06l12.04-2.79z"/><path class="cls-4" d="M122.32 255.5v9.77l-12.04 2.79V258l12.04-2.5z"/><path class="cls-4" d="M122.32 245.74v9.76l-12.04 2.5v-10.06l12.04-2.2z"/><path class="cls-4" d="M122.32 235.97v9.77l-12.04 2.2v-10.06l12.04-1.91z"/><path class="cls-4" d="M122.32 226.21v9.76l-12.04 1.91v-10.06l12.04-1.61z"/><path class="cls-4" d="M122.32 216.44v9.77l-12.04 1.61v-10.06l12.04-1.32zM122.32 206.68v9.76l-12.04 1.32V207.7l12.04-1.02z"/><path class="cls-2" d="M122.32 196.91v9.77l-12.04 1.02v-10.06l12.04-.73z"/><path class="cls-4" d="M122.32 187.15v9.76l-12.04.73v-10.06l12.04-.43z"/><path class="cls-4" d="M122.32 177.38v9.77l-12.04.43v-10.06l12.04-.14zM122.32 167.62v9.76l-12.04.14v-10.06l12.04.16z"/><path class="cls-4" d="M122.32 157.85v9.77l-12.04-.16V157.4l12.04.45z"/><path class="cls-4" d="M122.32 148.09v9.76l-12.04-.45v-10.06l12.04.75z"/><path class="cls-2" d="M122.32 138.32v9.77l-12.04-.75v-10.06l12.04 1.04z"/><path class="cls-4" d="M122.32 128.56v9.76l-12.04-1.04v-10.06l12.04 1.34z"/><path class="cls-4" d="M122.32 118.79v9.77l-12.04-1.34v-10.06l12.04 1.63z"/><path class="cls-4" d="M122.32 109.03v9.76l-12.04-1.63V107.1l12.04 1.93z"/><path class="cls-4" d="M122.32 99.26v9.77l-12.04-1.93V97.04l12.04 2.22z"/><path class="cls-4" d="M122.32 89.5v9.76l-12.04-2.22V86.98l12.04 2.52z"/><path class="cls-4" d="M122.32 79.73v9.77l-12.04-2.52V76.92l12.04 2.81z"/><path class="cls-4" d="M122.32 69.97v9.76l-12.04-2.81V66.86l12.04 3.11z"/><path class="cls-4" d="M122.32 60.2v9.77l-12.04-3.11V56.8l12.04 3.4z"/><path class="cls-3" d="M122.32 50.44v9.76l-12.04-3.4V46.74l12.04 3.7z"/><path class="cls-4" d="M122.32 40.67v9.77l-12.04-3.7V36.68l12.04 3.99zM110.28 298.24v10.06l-12.78 4.21v-10.37l12.78-3.9z"/><path class="cls-3" d="M110.28 288.18v10.06l-12.78 3.9v-10.37l12.78-3.59z"/><path class="cls-4" d="M110.28 278.12v10.06l-12.78 3.59V281.4l12.78-3.28z"/><path class="cls-4" d="M110.28 268.06v10.06L97.5 281.4v-10.38l12.78-2.96z"/><path class="cls-4" d="M110.28 258v10.06l-12.78 2.96v-10.37l12.78-2.65z"/><path class="cls-4" d="M110.28 247.94V258l-12.78 2.65v-10.37l12.78-2.34z"/><path class="cls-4" d="M110.28 237.88v10.06l-12.78 2.34v-10.37l12.78-2.03z"/><path class="cls-4" d="M110.28 227.82v10.06l-12.78 2.03v-10.38l12.78-1.71z"/><path class="cls-4" d="M110.28 217.76v10.06l-12.78 1.71v-10.37l12.78-1.4z"/><path class="cls-4" d="M110.28 207.7v10.06l-12.78 1.4v-10.37l12.78-1.09z"/><path class="cls-2" d="M110.28 197.64v10.06l-12.78 1.09v-10.38l12.78-.77z"/><path class="cls-4" d="M110.28 187.58v10.06l-12.78.77v-10.37l12.78-.46z"/><path class="cls-4" d="M110.28 177.52v10.06l-12.78.46v-10.37l12.78-.15z"/><path class="cls-4" d="M110.28 167.46v10.06l-12.78.15V167.3l12.78.16z"/><path class="cls-4" d="M110.28 157.4v10.06l-12.78-.16v-10.38l12.78.48z"/><path class="cls-4" d="M110.28 147.34v10.06l-12.78-.48v-10.37l12.78.79z"/><path class="cls-2" d="M110.28 137.28v10.06l-12.78-.79v-10.37l12.78 1.1z"/><path class="cls-4" d="M110.28 127.22v10.06l-12.78-1.1V125.8l12.78 1.42z"/><path class="cls-4" d="M110.28 117.16v10.06L97.5 125.8v-10.37l12.78 1.73z"/><path class="cls-4" d="M110.28 107.1v10.06l-12.78-1.73v-10.37l12.78 2.04z"/><path class="cls-4" d="M110.28 97.04v10.06l-12.78-2.04V94.69l12.78 2.35z"/><path class="cls-4" d="M110.28 86.98v10.06L97.5 94.69V84.31l12.78 2.67z"/><path class="cls-4" d="M110.28 76.92v10.06L97.5 84.31V73.94l12.78 2.98z"/><path class="cls-4" d="M110.28 66.86v10.06L97.5 73.94V63.57l12.78 3.29z"/><path class="cls-4" d="M110.28 56.8v10.06L97.5 63.57V53.2l12.78 3.6z"/><path class="cls-3" d="M110.28 46.74V56.8L97.5 53.2V42.82l12.78 3.92z"/><path class="cls-4" d="M110.28 36.68v10.06L97.5 42.82V32.45l12.78 4.23zM97.5 302.14v10.37L83.89 317v-10.71l13.61-4.15z"/><path class="cls-3" d="M97.5 291.77v10.37l-13.61 4.15v-10.7l13.61-3.82z"/><path class="cls-4" d="M97.5 281.4v10.37l-13.61 3.82v-10.71l13.61-3.48z"/><path class="cls-4" d="M97.5 271.02v10.38l-13.61 3.48v-10.7l13.61-3.16z"/><path class="cls-4" d="M97.5 260.65v10.37l-13.61 3.16v-10.71l13.61-2.82zM97.5 250.28v10.37l-13.61 2.82v-10.7l13.61-2.49z"/><path class="cls-4" d="M97.5 239.91v10.37l-13.61 2.49v-10.71l13.61-2.15z"/><path class="cls-4" d="M97.5 229.53v10.38l-13.61 2.15v-10.71l13.61-1.82z"/><path class="cls-4" d="M97.5 219.16v10.37l-13.61 1.82v-10.7l13.61-1.49z"/><path class="cls-4" d="M97.5 208.79v10.37l-13.61 1.49v-10.71l13.61-1.15z"/><path class="cls-4" d="M97.5 198.41v10.38l-13.61 1.15v-10.7l13.61-.83z"/><path class="cls-2" d="M97.5 188.04v10.37l-13.61.83v-10.71l13.61-.49z"/><path class="cls-2" d="M97.5 177.67v10.37l-13.61.49v-10.71l13.61-.15z"/><path class="cls-2" d="M97.5 167.3v10.37l-13.61.15v-10.7l13.61.18zM97.5 156.92v10.38l-13.61-.18v-10.71l13.61.51z"/><path class="cls-2" d="M97.5 146.55v10.37l-13.61-.51v-10.7l13.61.84z"/><path class="cls-4" d="M97.5 136.18v10.37l-13.61-.84V135l13.61 1.18z"/><path class="cls-4" d="M97.5 125.8v10.38L83.89 135v-10.7l13.61 1.5z"/><path class="cls-4" d="M97.5 115.43v10.37l-13.61-1.5v-10.71l13.61 1.84z"/><path class="cls-4" d="M97.5 105.06v10.37l-13.61-1.84v-10.71l13.61 2.18z"/><path class="cls-4" d="M97.5 94.69v10.37l-13.61-2.18v-10.7l13.61 2.51z"/><path class="cls-4" d="M97.5 84.31v10.38l-13.61-2.51V81.47l13.61 2.84z"/><path class="cls-4" d="M97.5 73.94v10.37l-13.61-2.84v-10.7l13.61 3.17z"/><path class="cls-4" d="M97.5 63.57v10.37l-13.61-3.17V60.06l13.61 3.51z"/><path class="cls-4" d="M97.5 53.2v10.37l-13.61-3.51v-10.7L97.5 53.2z"/><path class="cls-3" d="M97.5 42.82V53.2l-13.61-3.84V38.65l13.61 4.17z"/><path class="cls-4" d="M97.5 32.45v10.37l-13.61-4.17v-10.7l13.61 4.5zM83.89 306.29V317l-14.51 4.78v-11.06l14.51-4.43z"/><path class="cls-3" d="M83.89 295.59v10.7l-14.51 4.43v-11.06l14.51-4.07z"/><path class="cls-4" d="M83.89 284.88v10.71l-14.51 4.07V288.6l14.51-3.72z"/><path class="cls-4" d="M83.89 274.18v10.7l-14.51 3.72v-11.06l14.51-3.36z"/><path class="cls-4" d="M83.89 263.47v10.71l-14.51 3.36v-11.06l14.51-3.01z"/><path class="cls-4" d="M83.89 252.77v10.7l-14.51 3.01v-11.06l14.51-2.65z"/><path class="cls-4" d="M83.89 242.06v10.71l-14.51 2.65v-11.06l14.51-2.3z"/><path class="cls-4" d="M83.89 231.35v10.71l-14.51 2.3V233.3l14.51-1.95zM83.89 220.65v10.7l-14.51 1.95v-11.06l14.51-1.59z"/><path class="cls-4" d="M83.89 209.94v10.71l-14.51 1.59v-11.07l14.51-1.23zM83.89 199.24v10.7l-14.51 1.23v-11.06l14.51-.87z"/><path class="cls-4" d="M83.89 188.53v10.71l-14.51.87v-11.06l14.51-.52z"/><path class="cls-4" d="M83.89 177.82v10.71l-14.51.52v-11.06l14.51-.17zM83.89 167.12v10.7l-14.51.17v-11.06l14.51.19z"/><path class="cls-4" d="M83.89 156.41v10.71l-14.51-.19v-11.06l14.51.54z"/><path class="cls-4" d="M83.89 145.71v10.7l-14.51-.54v-11.06l14.51.9z"/><path class="cls-4" d="M83.89 135v10.71l-14.51-.9v-11.06L83.89 135z"/><path class="cls-4" d="M83.89 124.3V135l-14.51-1.25v-11.06l14.51 1.61z"/><path class="cls-4" d="M83.89 113.59v10.71l-14.51-1.61v-11.06l14.51 1.96z"/><path class="cls-4" d="M83.89 102.88v10.71l-14.51-1.96v-11.06l14.51 2.31z"/><path class="cls-4" d="M83.89 92.18v10.7l-14.51-2.31V89.51l14.51 2.67z"/><path class="cls-4" d="M83.89 81.47v10.71l-14.51-2.67V78.44l14.51 3.03z"/><path class="cls-4" d="M83.89 70.77v10.7l-14.51-3.03V67.38l14.51 3.39z"/><path class="cls-4" d="M83.89 60.06v10.71l-14.51-3.39V56.32l14.51 3.74z"/><path class="cls-4" d="M83.89 49.36v10.7l-14.51-3.74V45.26l14.51 4.1z"/><path class="cls-3" d="M83.89 38.65v10.71l-14.51-4.1V34.2l14.51 4.45z"/><path class="cls-4" d="M83.89 27.95v10.7L69.38 34.2V23.14l14.51 4.81zM69.38 310.72v11.06l-15.5 5.11v-11.43l15.5-4.74z"/><path class="cls-3" d="M69.38 299.66v11.06l-15.5 4.74v-11.45l15.5-4.35z"/><path class="cls-3" d="M69.38 288.6v11.06l-15.5 4.35v-11.44l15.5-3.97z"/><path class="cls-4" d="M69.38 277.54v11.06l-15.5 3.97v-11.44l15.5-3.59zM69.38 266.48v11.06l-15.5 3.59v-11.44l15.5-3.21zM69.38 255.42v11.06l-15.5 3.21v-11.44l15.5-2.83z"/><path class="cls-4" d="M69.38 244.36v11.06l-15.5 2.83v-11.44l15.5-2.45z"/><path class="cls-4" d="M69.38 233.3v11.06l-15.5 2.45v-11.44l15.5-2.07z"/><path class="cls-4" d="M69.38 222.24v11.06l-15.5 2.07v-11.44l15.5-1.69zM69.38 211.17v11.07l-15.5 1.69v-11.44l15.5-1.32z"/><path class="cls-4" d="M69.38 200.11v11.06l-15.5 1.32v-11.44l15.5-.94z"/><path class="cls-4" d="M69.38 189.05v11.06l-15.5.94v-11.44l15.5-.56z"/><path class="cls-4" d="M69.38 177.99v11.06l-15.5.56v-11.44l15.5-.18z"/><path class="cls-4" d="M69.38 166.93v11.06l-15.5.18v-11.44l15.5.2z"/><path class="cls-4" d="M69.38 155.87v11.06l-15.5-.2v-11.44l15.5.58zM69.38 144.81v11.06l-15.5-.58v-11.44l15.5.96z"/><path class="cls-4" d="M69.38 133.75v11.06l-15.5-.96v-11.44l15.5 1.34z"/><path class="cls-4" d="M69.38 122.69v11.06l-15.5-1.34v-11.44l15.5 1.72z"/><path class="cls-4" d="M69.38 111.63v11.06l-15.5-1.72v-11.44l15.5 2.1z"/><path class="cls-4" d="M69.38 100.57v11.06l-15.5-2.1V98.09l15.5 2.48z"/><path class="cls-4" d="M69.38 89.51v11.06l-15.5-2.48V86.65l15.5 2.86zM69.38 78.44v11.07l-15.5-2.86V75.21l15.5 3.23z"/><path class="cls-4" d="M69.38 67.38v11.06l-15.5-3.23V63.77l15.5 3.61zM69.38 56.32v11.06l-15.5-3.61V52.33l15.5 3.99z"/><path class="cls-3" d="M69.38 45.26v11.06l-15.5-3.99V40.89l15.5 4.37z"/><path class="cls-3" d="M69.38 34.2v11.06l-15.5-4.37V29.45l15.5 4.75z"/><path class="cls-4" d="M69.38 23.14V34.2l-15.5-4.75V18.01l15.5 5.13zM53.88 315.46v11.43l-16.61 5.48v-11.85l16.61-5.06z"/><path class="cls-4" d="M53.88 304.01v11.45l-16.61 5.06v-11.84l16.61-4.67z"/><path class="cls-3" d="M53.88 292.57v11.44l-16.61 4.67v-11.85l16.61-4.26z"/><path class="cls-3" d="M53.88 281.13v11.44l-16.61 4.26v-11.85l16.61-3.85z"/><path class="cls-4" d="M53.88 269.69v11.44l-16.61 3.85v-11.84l16.61-3.45zM53.88 258.25v11.44l-16.61 3.45v-11.85l16.61-3.04z"/><path class="cls-4" d="M53.88 246.81v11.44l-16.61 3.04v-11.85l16.61-2.63zM53.88 235.37v11.44l-16.61 2.63V237.6l16.61-2.23z"/><path class="cls-4" d="M53.88 223.93v11.44l-16.61 2.23v-11.85l16.61-1.82z"/><path class="cls-4" d="M53.88 212.49v11.44l-16.61 1.82V213.9l16.61-1.41z"/><path class="cls-4" d="M53.88 201.05v11.44l-16.61 1.41v-11.84l16.61-1.01z"/><path class="cls-4" d="M53.88 189.61v11.44l-16.61 1.01v-11.85l16.61-.6zM53.88 178.17v11.44l-16.61.6v-11.85l16.61-.19z"/><path class="cls-4" d="M53.88 166.73v11.44l-16.61.19v-11.84l16.61.21z"/><path class="cls-4" d="M53.88 155.29v11.44l-16.61-.21v-11.85l16.61.62z"/><path class="cls-4" d="M53.88 143.85v11.44l-16.61-.62v-11.85l16.61 1.03z"/><path class="cls-4" d="M53.88 132.41v11.44l-16.61-1.03v-11.84l16.61 1.43z"/><path class="cls-4" d="M53.88 120.97v11.44l-16.61-1.43v-11.85l16.61 1.84z"/><path class="cls-4" d="M53.88 109.53v11.44l-16.61-1.84v-11.85l16.61 2.25z"/><path class="cls-4" d="M53.88 98.09v11.44l-16.61-2.25V95.44l16.61 2.65z"/><path class="cls-4" d="M53.88 86.65v11.44l-16.61-2.65V83.59l16.61 3.06zM53.88 75.21v11.44l-16.61-3.06V71.74l16.61 3.47z"/><path class="cls-4" d="M53.88 63.77v11.44l-16.61-3.47V59.9l16.61 3.87z"/><path class="cls-3" d="M53.88 52.33v11.44L37.27 59.9V48.05l16.61 4.28z"/><path class="cls-3" d="M53.88 40.89v11.44l-16.61-4.28V36.2l16.61 4.69z"/><path class="cls-4" d="M53.88 29.45v11.44L37.27 36.2V24.36l16.61 5.09z"/><path class="cls-4" d="M53.88 18.01v11.44l-16.61-5.09V12.51l16.61 5.5zM37.27 308.68v11.84l-17.83 5.45v-12.29l17.83-5z"/><path class="cls-4" d="M37.27 296.83v11.85l-17.83 5V301.4l17.83-4.57z"/><path class="cls-3" d="M37.27 284.98v11.85l-17.83 4.57v-12.28l17.83-4.14zM37.27 273.14v11.84l-17.83 4.14v-12.29l17.83-3.69z"/><path class="cls-3" d="M37.27 261.29v11.85l-17.83 3.69v-12.28l17.83-3.26zM37.27 249.44v11.85l-17.83 3.26v-12.28l17.83-2.83z"/><path class="cls-3" d="M37.27 237.6v11.84l-17.83 2.83v-12.29l17.83-2.38zM37.27 225.75v11.85l-17.83 2.38V227.7l17.83-1.95z"/><path class="cls-3" d="M37.27 213.9v11.85l-17.83 1.95v-12.28l17.83-1.52z"/><path class="cls-3" d="M37.27 202.06v11.84l-17.83 1.52v-12.29l17.83-1.07zM37.27 190.21v11.85l-17.83 1.07v-12.28l17.83-.64z"/><path class="cls-3" d="M37.27 178.36v11.85l-17.83.64v-12.28l17.83-.21z"/><path class="cls-3" d="M37.27 166.52v11.84l-17.83.21v-12.28l17.83.23zM37.27 154.67v11.85l-17.83-.23V154l17.83.67z"/><path class="cls-3" d="M37.27 142.82v11.85L19.44 154v-12.28l17.83 1.1z"/><path class="cls-3" d="M37.27 130.98v11.84l-17.83-1.1v-12.28l17.83 1.54z"/><path class="cls-3" d="M37.27 119.13v11.85l-17.83-1.54v-12.29l17.83 1.98zM37.27 107.28v11.85l-17.83-1.98v-12.28l17.83 2.41z"/><path class="cls-3" d="M37.27 95.44v11.84l-17.83-2.41V92.59l17.83 2.85z"/><path class="cls-3" d="M37.27 83.59v11.85l-17.83-2.85V80.3l17.83 3.29z"/><path class="cls-3" d="M37.27 71.74v11.85L19.44 80.3V68.02l17.83 3.72z"/><path class="cls-3" d="M37.27 59.9v11.84l-17.83-3.72V55.74l17.83 4.16zM37.27 48.05V59.9l-17.83-4.16V43.45l17.83 4.6z"/><path class="cls-4" d="M37.27 36.2v11.85l-17.83-4.6V31.17l17.83 5.03z"/><path class="cls-4" d="M37.27 24.36V36.2l-17.83-5.03V18.89l17.83 5.47zM19.44 301.4v12.28L.25 319.07v-12.75l19.19-4.92z"/><path class="cls-4" d="M19.44 289.12v12.28L.25 306.32v-12.76l19.19-4.44z"/><path class="cls-4" d="M19.44 276.83v12.29L.25 293.56v-12.75l19.19-3.98z"/><path class="cls-4" d="M19.44 264.55v12.28L.25 280.81v-12.75l19.19-3.51z"/><path class="cls-4" d="M19.44 252.27v12.28L.25 268.06v-12.75l19.19-3.04zM19.44 239.98v12.29L.25 255.31v-12.76l19.19-2.57z"/><path class="cls-4" d="M19.44 227.7v12.28L.25 242.55V229.8l19.19-2.1z"/><path class="cls-4" d="M19.44 215.42v12.28L.25 229.8v-12.75l19.19-1.63z"/><path class="cls-4" d="M19.44 203.13v12.29L.25 217.05v-12.76l19.19-1.16zM19.44 190.85v12.28L.25 204.29v-12.75l19.19-.69z"/><path class="cls-4" d="M19.44 178.57v12.28l-19.19.69v-12.75l19.19-.22z"/><path class="cls-4" d="M19.44 166.29v12.28l-19.19.22v-12.75l19.19.25z"/><path class="cls-4" d="M19.44 154v12.29l-19.19-.25v-12.76l19.19.72z"/><path class="cls-4" d="M19.44 141.72V154l-19.19-.72v-12.75l19.19 1.19z"/><path class="cls-4" d="M19.44 129.44v12.28L.25 140.53v-12.75l19.19 1.66z"/><path class="cls-4" d="M19.44 117.15v12.29L.25 127.78v-12.76l19.19 2.13z"/><path class="cls-4" d="M19.44 104.87v12.28L.25 115.02v-12.75l19.19 2.6z"/><path class="cls-4" d="M19.44 92.59v12.28l-19.19-2.6V89.52l19.19 3.07z"/><path class="cls-4" d="M19.44 80.3v12.29L.25 89.52V76.77l19.19 3.53z"/><path class="cls-4" d="M19.44 68.02V80.3L.25 76.77V64.01l19.19 4.01z"/><path class="cls-4" d="M19.44 55.74v12.28L.25 64.01V51.26l19.19 4.48z"/><path class="cls-4" d="M19.44 43.45v12.29L.25 51.26V38.51l19.19 4.94z"/><path class="cls-4" d="M19.44 31.17v12.28L.25 38.51V25.76l19.19 5.41z"/></g></svg>