<svg id="_イヤー_2" xmlns="http://www.w3.org/2000/svg" viewBox="0 0 82.5 70.68"><defs><style>.cls-1{fill:#1d1d1d}</style></defs><g id="grid"><path class="cls-1" d="M78.25.25h4v4h-4zM72.25.25h4v4h-4zM72.25 6.25h4v4h-4zM66.25.25h4v4h-4zM66.25 6.25h4v4h-4zM60.25.25h4v4h-4zM60.25 6.25h4v4h-4zM54.25.25h4v4h-4zM54.25 6.25h4v4h-4zM54.25 12.25h4v4h-4zM48.25.25h4v4h-4zM48.25 6.25h4v4h-4zM48.25 12.25h4v4h-4zM48.25 18.25h4v4h-4zM42.25.25h4v4h-4zM42.25 6.25h4v4h-4zM42.25 12.25h4v4h-4zM42.25 18.25h4v4h-4zM36.25.25h4v4h-4zM36.25 6.25h4v4h-4zM36.25 12.25h4v4h-4zM36.25 24.25h4v4h-4zM30.25.25h4v4h-4zM30.25 6.25h4v4h-4zM30.25 12.25h4v4h-4zM30.25 18.25h4v4h-4zM30.25 24.25h4v4h-4zM24.25.25h4v4h-4zM24.25 6.25h4v4h-4zM24.25 12.25h4v4h-4zM24.25 18.25h4v4h-4zM24.25 24.25h4v4h-4zM18.25.25h4v4h-4zM18.25 6.25h4v4h-4zM18.25 12.25h4v4h-4zM18.25 18.25h4v4h-4zM18.25 24.25h4v4h-4zM12.25.25h4v4h-4zM12.25 6.25h4v4h-4zM12.25 12.25h4v4h-4zM12.25 18.25h4v4h-4zM6.25.25h4v4h-4zM6.25 6.25h4v4h-4zM6.25 12.25h4v4h-4zM6.25 18.25h4v4h-4zM6.25 24.25h4v4h-4zM6.25 30.25h4v4h-4zM.25.25h4v4h-4zM.25 6.25h4v4h-4zM.25 12.25h4v4h-4zM.25 18.25h4v4h-4zM.25 24.25h4v4h-4zM.25 30.25h4v4h-4zM.25 36.25h4v4h-4zM.25 42.43h4v4h-4zM.25 48.43h4v4h-4z"/></g></svg>