<svg xmlns="http://www.w3.org/2000/svg" viewBox="0 0 82.5 70.68"><defs><style>.d{fill:#1d1d1d}.e{fill:#653d52}</style></defs><g id="b"><g id="c"><path class="d" d="M48.25 24.25h4v4h-4zM42.25 18.25h4v4h-4zM.25 12.25h4v4h-4z"/><path class="e" d="M.42 3.75 3.25.92l1 1v2.33H.92l-.5-.5z"/><path class="e" d="M.92 4.25h3.33V1.92l1.83 1.83-2.5 2.5h-.66l-2-2zM2.92 6.25h.66l-.33.33-.33-.33z"/><path class="d" d="M6.25 12.25h4v4h-4zM12.25 6.25h4v4h-4zM12.25 12.25h4v4h-4zM18.25 6.25h4v4h-4zM18.25 12.25h4v4h-4zM24.25 6.25h4v4h-4zM24.25 12.25h4v4h-4zM30.25 6.25h4v4h-4zM30.25 12.25h4v4h-4zM30.25 18.25h4v4h-4z"/><path class="e" d="m32.95 38.89.44-2.64h.86v2.86l-1.3-.22z"/><path class="e" d="m33.39 36.25.21-1.3 3.95.66-.11.64h-1.19v3.19l-2-.33v-2.86h-.86z"/><path class="d" d="M36.25 6.25h4v4h-4zM36.25 12.25h4v4h-4zM36.25 18.25h4v4h-4z"/><path class="e" d="M36.25 39.44v-3.19h1.19l-.55 3.3-.64-.11z"/><path class="d" d="M42.25 6.25h4v4h-4zM42.25 12.25h4v4h-4zM48.25 6.25h4v4h-4zM48.25 12.25h4v4h-4zM48.25 18.25h4v4h-4zM54.25 6.25h4v4h-4zM54.25 12.25h4v4h-4zM54.25 18.25h4v4h-4zM54.25 24.25h4v4h-4z"/><path class="e" d="M54.25 30.25h4v4h-4z"/><path class="d" d="M60.25 6.25h4v4h-4zM60.25 12.25h4v4h-4zM60.25 18.25h4v4h-4zM60.25 24.25h4v4h-4zM66.25 6.25h4v4h-4zM66.25 12.25h4v4h-4zM66.25 18.25h4v4h-4zM66.25 24.25h4v4h-4zM66.25 30.25h4v4h-4zM66.25 36.25h4v4h-4zM72.25 6.25h4v4h-4zM72.25 12.25h4v4h-4zM72.25 18.25h4v4h-4zM72.25 24.25h4v4h-4zM72.25 30.25h4v4h-4zM72.25 36.25h4v4h-4zM72.25 42.43h4v4h-4zM78.25 6.25h4v4h-4zM78.25 12.25h4v4h-4zM78.25 18.25h4v4h-4zM78.25 24.25h4v4h-4zM78.25 30.25h4v4h-4zM78.25 36.25h4v4h-4zM78.25 42.43h4v4h-4zM78.25 48.43h4v4h-4z"/></g></g></svg>