<svg xmlns="http://www.w3.org/2000/svg" viewBox="0 0 309.15 344.83"><defs><style>.d{fill:#1d1d1d}.e{fill:#305569}.f{fill:#61abd3}</style></defs><g id="b"><g id="c"><path class="e" d="M308.9 306.32v12.75l-19.19-5.39V301.4l19.19 4.92z"/><path class="e" d="M308.9 293.56v12.76l-19.19-4.92v-12.28l19.19 4.44z"/><path class="e" d="M308.9 280.81v12.75l-19.19-4.44v-12.29l19.19 3.98z"/><path class="e" d="M308.9 268.06v12.75l-19.19-3.98v-12.28l19.19 3.51z"/><path class="e" d="M308.9 255.31v12.75l-19.19-3.51v-12.28l19.19 3.04z"/><path class="e" d="M308.9 242.55v12.76l-19.19-3.04v-12.29l19.19 2.57z"/><path class="e" d="M308.9 229.8v12.75l-19.19-2.57V227.7l19.19 2.1z"/><path class="e" d="M308.9 217.05v12.75l-19.19-2.1v-12.28l19.19 1.63zM308.9 204.29v12.76l-19.19-1.63v-12.28l19.19 1.15z"/><path class="e" d="M308.9 191.54v12.75l-19.19-1.15v-12.29l19.19.69z"/><path class="e" d="M308.9 178.79v12.75l-19.19-.69v-12.28l19.19.22z"/><path class="e" d="M308.9 166.04v12.75l-19.19-.22v-12.28l19.19-.25z"/><path class="e" d="M308.9 153.28v12.76l-19.19.25V154l19.19-.72z"/><path class="e" d="M308.9 140.53v12.75l-19.19.72v-12.28l19.19-1.19z"/><path class="e" d="M308.9 127.78v12.75l-19.19 1.19v-12.28l19.19-1.66z"/><path class="e" d="M308.9 115.02v12.76l-19.19 1.66v-12.29l19.19-2.13zM308.9 102.27v12.75l-19.19 2.13v-12.28l19.19-2.6z"/><path class="e" d="M308.9 89.52v12.75l-19.19 2.6V92.59l19.19-3.07zM308.9 76.77v12.75l-19.19 3.07V80.3l19.19-3.53z"/><path class="e" d="M308.9 64.01v12.76l-19.19 3.53V68.02l19.19-4.01z"/><path class="e" d="M308.9 51.26v12.75l-19.19 4.01V55.74l19.19-4.48zM308.9 38.51v12.75l-19.19 4.48V43.45l19.19-4.94z"/><path class="e" d="M308.9 25.76v12.75l-19.19 4.94V31.17l19.19-5.41zM289.71 313.68v12.29l-17.83-5.44v-11.85l17.83 5zM289.71 301.4v12.28l-17.83-5v-11.85l17.83 4.57z"/><path class="d" d="M289.71 289.12v12.28l-17.83-4.57v-11.85l17.83 4.14z"/><path class="d" d="M289.71 276.83v12.29l-17.83-4.14v-11.84l17.83 3.69zM289.71 264.55v12.28l-17.83-3.69v-11.85l17.83 3.26z"/><path class="d" d="M289.71 252.27v12.28l-17.83-3.26v-11.85l17.83 2.83zM289.71 239.98v12.29l-17.83-2.83V237.6l17.83 2.38z"/><path class="d" d="M289.71 227.7v12.28l-17.83-2.38v-11.85l17.83 1.95z"/><path class="d" d="M289.71 215.42v12.28l-17.83-1.95V213.9l17.83 1.52zM289.71 203.14v12.28l-17.83-1.52v-11.84l17.83 1.08z"/><path class="d" d="M289.71 190.85v12.29l-17.83-1.08v-11.85l17.83.64z"/><path class="d" d="M289.71 178.57v12.28l-17.83-.64v-11.85l17.83.21zM289.71 166.29v12.28l-17.83-.21v-11.84l17.83-.23z"/><path class="d" d="M289.71 154v12.29l-17.83.23v-11.85l17.83-.67z"/><path class="d" d="M289.71 141.72V154l-17.83.67v-11.85l17.83-1.1z"/><path class="d" d="M289.71 129.44v12.28l-17.83 1.1v-11.84l17.83-1.54z"/><path class="d" d="M289.71 117.15v12.29l-17.83 1.54v-11.85l17.83-1.98z"/><path class="d" d="M289.71 104.87v12.28l-17.83 1.98v-11.85l17.83-2.41zM289.71 92.59v12.28l-17.83 2.41V95.44l17.83-2.85z"/><path class="d" d="M289.71 80.3v12.29l-17.83 2.85V83.59l17.83-3.29z"/><path class="d" d="M289.71 68.02V80.3l-17.83 3.29V71.74l17.83-3.72z"/><path class="d" d="M289.71 55.74v12.28l-17.83 3.72V59.89l17.83-4.15z"/><path class="d" d="M289.71 43.45v12.29l-17.83 4.15V48.05l17.83-4.6z"/><path class="e" d="M289.71 31.17v12.28l-17.83 4.6V36.2l17.83-5.03z"/><path class="e" d="M289.71 18.89v12.28l-17.83 5.03V24.35l17.83-5.46zM271.88 320.53v11.84l-16.6-5.47v-11.44l16.6 5.07z"/><path class="e" d="M271.88 308.68v11.85l-16.6-5.07v-11.44l16.6 4.66z"/><path class="d" d="M271.88 296.83v11.85l-16.6-4.66v-11.44l16.6 4.25z"/><path class="d" d="M271.88 284.98v11.85l-16.6-4.25v-11.44l16.6 3.84z"/><path class="e" d="M271.88 273.14v11.84l-16.6-3.84v-11.45l16.6 3.45z"/><path class="e" d="M271.88 261.29v11.85l-16.6-3.45v-11.44l16.6 3.04zM271.88 249.44v11.85l-16.6-3.04v-11.44l16.6 2.63z"/><path class="e" d="M271.88 237.6v11.84l-16.6-2.63v-11.44l16.6 2.23z"/><path class="e" d="M271.88 225.75v11.85l-16.6-2.23v-11.44l16.6 1.82z"/><path class="e" d="M271.88 213.9v11.85l-16.6-1.82v-11.44l16.6 1.41z"/><path class="e" d="M271.88 202.06v11.84l-16.6-1.41v-11.44l16.6 1.01z"/><path class="e" d="M271.88 190.21v11.85l-16.6-1.01v-11.44l16.6.6z"/><path class="e" d="M271.88 178.36v11.85l-16.6-.6v-11.44l16.6.19z"/><path class="e" d="M271.88 166.52v11.84l-16.6-.19v-11.44l16.6-.21zM271.88 154.67v11.85l-16.6.21v-11.44l16.6-.62z"/><path class="e" d="M271.88 142.82v11.85l-16.6.62v-11.44l16.6-1.03z"/><path class="e" d="M271.88 130.98v11.84l-16.6 1.03v-11.44l16.6-1.43z"/><path class="e" d="M271.88 119.13v11.85l-16.6 1.43v-11.44l16.6-1.84z"/><path class="e" d="M271.88 107.28v11.85l-16.6 1.84v-11.44l16.6-2.25z"/><path class="e" d="M271.88 95.44v11.84l-16.6 2.25V98.09l16.6-2.65z"/><path class="e" d="M271.88 83.59v11.85l-16.6 2.65V86.65l16.6-3.06zM271.88 71.74v11.85l-16.6 3.06V75.21l16.6-3.47z"/><path class="e" d="M271.88 59.89v11.85l-16.6 3.47V63.77l16.6-3.88z"/><path class="d" d="M271.88 48.05v11.84l-16.6 3.88V52.33l16.6-4.28z"/><path class="d" d="M271.88 36.2v11.85l-16.6 4.28V40.89l16.6-4.69z"/><path class="e" d="M271.88 24.35V36.2l-16.6 4.69V29.45l16.6-5.1z"/><path class="e" d="M271.88 12.51v11.84l-16.6 5.1V18l16.6-5.49zM255.28 315.46v11.44l-15.51-5.11v-11.07l15.51 4.74z"/><path class="d" d="M255.28 304.02v11.44l-15.51-4.74v-11.06l15.51 4.36z"/><path class="d" d="M255.28 292.58v11.44l-15.51-4.36V288.6l15.51 3.98z"/><path class="e" d="M255.28 281.14v11.44l-15.51-3.98v-11.06l15.51 3.6z"/><path class="e" d="M255.28 269.69v11.45l-15.51-3.6v-11.06l15.51 3.21z"/><path class="e" d="M255.28 258.25v11.44l-15.51-3.21v-11.06l15.51 2.83zM255.28 246.81v11.44l-15.51-2.83v-11.06l15.51 2.45z"/><path class="e" d="M255.28 235.37v11.44l-15.51-2.45V233.3l15.51 2.07z"/><path class="e" d="M255.28 223.93v11.44l-15.51-2.07v-11.06l15.51 1.69z"/><path class="e" d="M255.28 212.49v11.44l-15.51-1.69v-11.07l15.51 1.32z"/><path class="e" d="M255.28 201.05v11.44l-15.51-1.32v-11.05l15.51.93z"/><path class="e" d="M255.28 189.61v11.44l-15.51-.93v-11.07l15.51.56zM255.28 178.17v11.44l-15.51-.56v-11.06l15.51.18z"/><path class="e" d="M255.28 166.73v11.44l-15.51-.18v-11.06l15.51-.2z"/><path class="e" d="M255.28 155.29v11.44l-15.51.2v-11.06l15.51-.58z"/><path class="e" d="M255.28 143.85v11.44l-15.51.58v-11.06l15.51-.96z"/><path class="e" d="M255.28 132.41v11.44l-15.51.96v-11.06l15.51-1.34z"/><path class="e" d="M255.28 120.97v11.44l-15.51 1.34v-11.06l15.51-1.72z"/><path class="e" d="M255.28 109.53v11.44l-15.51 1.72v-11.06l15.51-2.1z"/><path class="e" d="M255.28 98.09v11.44l-15.51 2.1v-11.06l15.51-2.48z"/><path class="e" d="M255.28 86.65v11.44l-15.51 2.48V89.5l15.51-2.85zM255.28 75.21v11.44l-15.51 2.85V78.44l15.51-3.23z"/><path class="e" d="M255.28 63.77v11.44l-15.51 3.23V67.38l15.51-3.61z"/><path class="e" d="M255.28 52.33v11.44l-15.51 3.61V56.32l15.51-3.99z"/><path class="d" d="M255.28 40.89v11.44l-15.51 3.99V45.26l15.51-4.37z"/><path class="d" d="M255.28 29.45v11.44l-15.51 4.37V34.2l15.51-4.75z"/><path class="e" d="M255.28 18v11.45l-15.51 4.75V23.14L255.28 18zM239.77 310.72v11.07l-14.5-4.79v-10.7l14.5 4.42z"/><path class="d" d="M239.77 299.66v11.06l-14.5-4.42v-10.71l14.5 4.07z"/><path class="e" d="M239.77 288.6v11.06l-14.5-4.07v-10.7l14.5 3.71z"/><path class="e" d="M239.77 277.54v11.06l-14.5-3.71v-10.71l14.5 3.36zM239.77 266.48v11.06l-14.5-3.36v-10.71l14.5 3.01zM239.77 255.42v11.06l-14.5-3.01v-10.7l14.5 2.65z"/><path class="e" d="M239.77 244.36v11.06l-14.5-2.65v-10.71l14.5 2.3z"/><path class="e" d="M239.77 233.3v11.06l-14.5-2.3v-10.71l14.5 1.95z"/><path class="e" d="M239.77 222.24v11.06l-14.5-1.95v-10.7l14.5 1.59zM239.77 211.17v11.07l-14.5-1.59v-10.71l14.5 1.23z"/><path class="e" d="M239.77 200.12v11.05l-14.5-1.23v-10.7l14.5.88zM239.77 189.05v11.07l-14.5-.88v-10.71l14.5.52z"/><path class="e" d="M239.77 177.99v11.06l-14.5-.52v-10.71l14.5.17z"/><path class="e" d="M239.77 166.93v11.06l-14.5-.17v-10.7l14.5-.19zM239.77 155.87v11.06l-14.5.19v-10.71l14.5-.54z"/><path class="e" d="M239.77 144.81v11.06l-14.5.54v-10.7l14.5-.9z"/><path class="e" d="M239.77 133.75v11.06l-14.5.9V135l14.5-1.25z"/><path class="e" d="M239.77 122.69v11.06l-14.5 1.25v-10.7l14.5-1.61z"/><path class="e" d="M239.77 111.63v11.06l-14.5 1.61v-10.71l14.5-1.96zM239.77 100.57v11.06l-14.5 1.96v-10.71l14.5-2.31z"/><path class="e" d="M239.77 89.5v11.07l-14.5 2.31v-10.7l14.5-2.68z"/><path class="e" d="M239.77 78.44V89.5l-14.5 2.68V81.47l14.5-3.03z"/><path class="e" d="M239.77 67.38v11.06l-14.5 3.03v-10.7l14.5-3.39z"/><path class="e" d="M239.77 56.32v11.06l-14.5 3.39V60.06l14.5-3.74z"/><path class="e" d="M239.77 45.26v11.06l-14.5 3.74V49.35l14.5-4.09z"/><path class="d" d="M239.77 34.2v11.06l-14.5 4.09v-10.7l14.5-4.45z"/><path class="e" d="M239.77 23.14V34.2l-14.5 4.45V27.94l14.5-4.8zM225.27 306.3V317l-13.61-4.48v-10.38l13.61 4.16z"/><path class="d" d="M225.27 295.59v10.71l-13.61-4.16v-10.37l13.61 3.82z"/><path class="e" d="M225.27 284.89v10.7l-13.61-3.82V281.4l13.61 3.49z"/><path class="e" d="M225.27 274.18v10.71l-13.61-3.49v-10.38l13.61 3.16z"/><path class="e" d="M225.27 263.47v10.71l-13.61-3.16v-10.37l13.61 2.82z"/><path class="f" d="M225.27 252.77v10.7l-13.61-2.82v-10.37l13.61 2.49zM225.27 242.06v10.71l-13.61-2.49v-10.37l13.61 2.15z"/><path class="f" d="M225.27 231.35v10.71l-13.61-2.15v-10.38l13.61 1.82z"/><path class="f" d="M225.27 220.65v10.7l-13.61-1.82v-10.37l13.61 1.49z"/><path class="f" d="M225.27 209.94v10.71l-13.61-1.49v-10.37l13.61 1.15z"/><path class="f" d="M225.27 199.24v10.7l-13.61-1.15v-10.37l13.61.82z"/><path class="f" d="M225.27 188.53v10.71l-13.61-.82v-10.38l13.61.49z"/><path class="e" d="M225.27 177.82v10.71l-13.61-.49v-10.37l13.61.15z"/><path class="e" d="M225.27 167.12v10.7l-13.61-.15V167.3l13.61-.18zM225.27 156.41v10.71l-13.61.18v-10.38l13.61-.51z"/><path class="f" d="M225.27 145.71v10.7l-13.61.51v-10.37l13.61-.84z"/><path class="f" d="M225.27 135v10.71l-13.61.84v-10.37l13.61-1.18z"/><path class="e" d="M225.27 124.3V135l-13.61 1.18V125.8l13.61-1.5z"/><path class="f" d="M225.27 113.59v10.71l-13.61 1.5v-10.37l13.61-1.84zM225.27 102.88v10.71l-13.61 1.84v-10.37l13.61-2.18z"/><path class="e" d="M225.27 92.18v10.7l-13.61 2.18V94.68l13.61-2.5z"/><path class="e" d="M225.27 81.47v10.71l-13.61 2.5V84.31l13.61-2.84z"/><path class="e" d="M225.27 70.77v10.7l-13.61 2.84V73.94l13.61-3.17z"/><path class="e" d="M225.27 60.06v10.71l-13.61 3.17V63.57l13.61-3.51zM225.27 49.35v10.71l-13.61 3.51V53.19l13.61-3.84z"/><path class="d" d="M225.27 38.65v10.7l-13.61 3.84V42.82l13.61-4.17z"/><path class="e" d="M225.27 27.94v10.71l-13.61 4.17V32.45l13.61-4.51zM211.66 302.14v10.38l-12.78-4.22v-10.06l12.78 3.9z"/><path class="d" d="M211.66 291.77v10.37l-12.78-3.9v-10.06l12.78 3.59z"/><path class="e" d="M211.66 281.4v10.37l-12.78-3.59v-10.06l12.78 3.28z"/><path class="e" d="M211.66 271.02v10.38l-12.78-3.28v-10.06l12.78 2.96z"/><path class="e" d="M211.66 260.65v10.37l-12.78-2.96V258l12.78 2.65z"/><path class="e" d="M211.66 250.28v10.37L198.88 258v-10.06l12.78 2.34z"/><path class="f" d="M211.66 239.91v10.37l-12.78-2.34v-10.06l12.78 2.03z"/><path class="e" d="M211.66 229.53v10.38l-12.78-2.03v-10.06l12.78 1.71z"/><path class="e" d="M211.66 219.16v10.37l-12.78-1.71v-10.06l12.78 1.4z"/><path class="e" d="M211.66 208.79v10.37l-12.78-1.4V207.7l12.78 1.09z"/><path class="e" d="M211.66 198.42v10.37l-12.78-1.09v-10.06l12.78.78z"/><path class="e" d="M211.66 188.04v10.38l-12.78-.78v-10.06l12.78.46z"/><path class="e" d="M211.66 177.67v10.37l-12.78-.46v-10.06l12.78.15z"/><path class="e" d="M211.66 167.3v10.37l-12.78-.15v-10.06l12.78-.16z"/><path class="f" d="M211.66 156.92v10.38l-12.78.16V157.4l12.78-.48z"/><path class="e" d="M211.66 146.55v10.37l-12.78.48v-10.06l12.78-.79z"/><path class="e" d="M211.66 136.18v10.37l-12.78.79v-10.06l12.78-1.1z"/><path class="f" d="M211.66 125.8v10.38l-12.78 1.1v-10.06l12.78-1.42z"/><path class="e" d="M211.66 115.43v10.37l-12.78 1.42v-10.06l12.78-1.73z"/><path class="e" d="M211.66 105.06v10.37l-12.78 1.73V107.1l12.78-2.04z"/><path class="f" d="M211.66 94.68v10.38l-12.78 2.04V97.04l12.78-2.36z"/><path class="e" d="M211.66 84.31v10.37l-12.78 2.36V86.98l12.78-2.67z"/><path class="e" d="M211.66 73.94v10.37l-12.78 2.67V76.92l12.78-2.98z"/><path class="e" d="M211.66 63.57v10.37l-12.78 2.98V66.86l12.78-3.29z"/><path class="e" d="M211.66 53.19v10.38l-12.78 3.29V56.8l12.78-3.61z"/><path class="d" d="M211.66 42.82v10.37l-12.78 3.61V46.74l12.78-3.92z"/><path class="e" d="M211.66 32.45v10.37l-12.78 3.92V36.68l12.78-4.23zM198.88 298.24v10.06l-12.04-3.97v-9.76l12.04 3.67z"/><path class="d" d="M198.88 288.18v10.06l-12.04-3.67v-9.77l12.04 3.38z"/><path class="e" d="M198.88 278.12v10.06l-12.04-3.38v-9.76l12.04 3.08z"/><path class="e" d="M198.88 268.06v10.06l-12.04-3.08v-9.77l12.04 2.79zM198.88 258v10.06l-12.04-2.79v-9.76l12.04 2.49z"/><path class="e" d="M198.88 247.94V258l-12.04-2.49v-9.77l12.04 2.2z"/><path class="e" d="M198.88 237.88v10.06l-12.04-2.2v-9.76l12.04 1.9z"/><path class="f" d="M198.88 227.82v10.06l-12.04-1.9v-9.77l12.04 1.61z"/><path class="e" d="M198.88 217.76v10.06l-12.04-1.61v-9.76l12.04 1.31z"/><path class="e" d="M198.88 207.7v10.06l-12.04-1.31v-9.77l12.04 1.02z"/><path class="e" d="M198.88 197.64v10.06l-12.04-1.02v-9.77l12.04.73z"/><path class="e" d="M198.88 187.58v10.06l-12.04-.73v-9.76l12.04.43zM198.88 177.52v10.06l-12.04-.43v-9.77l12.04.14z"/><path class="e" d="M198.88 167.46v10.06l-12.04-.14v-9.76l12.04-.16z"/><path class="f" d="M198.88 157.4v10.06l-12.04.16v-9.77l12.04-.45z"/><path class="e" d="M198.88 147.34v10.06l-12.04.45v-9.76l12.04-.75z"/><path class="e" d="M198.88 137.28v10.06l-12.04.75v-9.77l12.04-1.04z"/><path class="f" d="M198.88 127.22v10.06l-12.04 1.04v-9.77l12.04-1.33z"/><path class="e" d="M198.88 117.16v10.06l-12.04 1.33v-9.76l12.04-1.63zM198.88 107.1v10.06l-12.04 1.63v-9.77l12.04-1.92z"/><path class="f" d="M198.88 97.04v10.06l-12.04 1.92v-9.76l12.04-2.22z"/><path class="e" d="M198.88 86.98v10.06l-12.04 2.22v-9.77l12.04-2.51z"/><path class="e" d="M198.88 76.92v10.06l-12.04 2.51v-9.76l12.04-2.81z"/><path class="e" d="M198.88 66.86v10.06l-12.04 2.81v-9.77l12.04-3.1zM198.88 56.8v10.06l-12.04 3.1V60.2l12.04-3.4z"/><path class="d" d="M198.88 46.74V56.8l-12.04 3.4v-9.77l12.04-3.69z"/><path class="e" d="M198.88 36.68v10.06l-12.04 3.69v-9.76l12.04-3.99zM186.84 294.57v9.76l-11.35-3.74v-9.48l11.35 3.46z"/><path class="d" d="M186.84 284.8v9.77l-11.35-3.46v-9.49l11.35 3.18z"/><path class="e" d="M186.84 275.04v9.76l-11.35-3.18v-9.49l11.35 2.91zM186.84 265.27v9.77l-11.35-2.91v-9.49l11.35 2.63z"/><path class="e" d="M186.84 255.51v9.76l-11.35-2.63v-9.49l11.35 2.36z"/><path class="f" d="M186.84 245.74v9.77l-11.35-2.36v-9.48l11.35 2.07zM186.84 235.98v9.76l-11.35-2.07v-9.49l11.35 1.8z"/><path class="f" d="M186.84 226.21v9.77l-11.35-1.8v-9.49l11.35 1.52zM186.84 216.45v9.76l-11.35-1.52v-9.49l11.35 1.25z"/><path class="f" d="M186.84 206.68v9.77l-11.35-1.25v-9.49l11.35.97z"/><path class="f" d="M186.84 196.91v9.77l-11.35-.97v-9.48l11.35.68zM186.84 187.15v9.76l-11.35-.68v-9.49l11.35.41z"/><path class="e" d="M186.84 177.38v9.77l-11.35-.41v-9.49l11.35.13z"/><path class="e" d="M186.84 167.62v9.76l-11.35-.13v-9.49l11.35-.14z"/><path class="f" d="M186.84 157.85v9.77l-11.35.14v-9.48l11.35-.43z"/><path class="f" d="M186.84 148.09v9.76l-11.35.43v-9.49l11.35-.7z"/><path class="f" d="M186.84 138.32v9.77l-11.35.7v-9.49l11.35-.98z"/><path class="f" d="M186.84 128.55v9.77l-11.35.98v-9.49l11.35-1.26z"/><path class="f" d="M186.84 118.79v9.76l-11.35 1.26v-9.48l11.35-1.54z"/><path class="f" d="M186.84 109.02v9.77l-11.35 1.54v-9.49l11.35-1.82z"/><path class="f" d="M186.84 99.26v9.76l-11.35 1.82v-9.49l11.35-2.09z"/><path class="e" d="M186.84 89.49v9.77l-11.35 2.09v-9.49l11.35-2.37z"/><path class="e" d="M186.84 79.73v9.76l-11.35 2.37v-9.48l11.35-2.65zM186.84 69.96v9.77l-11.35 2.65v-9.49l11.35-2.93z"/><path class="e" d="M186.84 60.2v9.76l-11.35 2.93V63.4l11.35-3.2z"/><path class="d" d="M186.84 50.43v9.77l-11.35 3.2v-9.49l11.35-3.48z"/><path class="e" d="M186.84 40.67v9.76l-11.35 3.48v-9.49l11.35-3.75zM175.49 291.11v9.48l-10.72-3.53v-9.23l10.72 3.28z"/><path class="d" d="M175.49 281.62v9.49l-10.72-3.28v-9.22l10.72 3.01z"/><path class="e" d="M175.49 272.13v9.49l-10.72-3.01v-9.23l10.72 2.75z"/><path class="e" d="M175.49 262.64v9.49l-10.72-2.75v-9.22l10.72 2.48z"/><path class="e" d="M175.49 253.15v9.49l-10.72-2.48v-9.23l10.72 2.22z"/><path class="e" d="M175.49 243.67v9.48l-10.72-2.22v-9.23l10.72 1.97z"/><path class="e" d="M175.49 234.18v9.49l-10.72-1.97v-9.22l10.72 1.7z"/><path class="e" d="M175.49 224.69v9.49l-10.72-1.7v-9.23l10.72 1.44zM175.49 215.2v9.49l-10.72-1.44v-9.22l10.72 1.17z"/><path class="e" d="M175.49 205.71v9.49l-10.72-1.17v-9.23l10.72.91zM175.49 196.23v9.48l-10.72-.91v-9.22l10.72.65z"/><path class="e" d="M175.49 186.74v9.49l-10.72-.65v-9.23l10.72.39z"/><path class="e" d="M175.49 177.25v9.49l-10.72-.39v-9.22l10.72.12zM175.49 167.76v9.49l-10.72-.12v-9.23l10.72-.14zM175.49 158.28v9.48l-10.72.14v-9.22l10.72-.4z"/><path class="e" d="M175.49 148.79v9.49l-10.72.4v-9.23l10.72-.66z"/><path class="e" d="M175.49 139.3v9.49l-10.72.66v-9.22l10.72-.93z"/><path class="e" d="M175.49 129.81v9.49l-10.72.93V131l10.72-1.19z"/><path class="e" d="M175.49 120.33v9.48L164.77 131v-9.22l10.72-1.45z"/><path class="e" d="M175.49 110.84v9.49l-10.72 1.45v-9.23l10.72-1.71zM175.49 101.35v9.49l-10.72 1.71v-9.22l10.72-1.98z"/><path class="e" d="M175.49 91.86v9.49l-10.72 1.98V94.1l10.72-2.24z"/><path class="e" d="M175.49 82.38v9.48l-10.72 2.24v-9.23l10.72-2.49z"/><path class="e" d="M175.49 72.89v9.49l-10.72 2.49v-9.22l10.72-2.76z"/><path class="e" d="M175.49 63.4v9.49l-10.72 2.76v-9.23l10.72-3.02z"/><path class="d" d="M175.49 53.91v9.49l-10.72 3.02V57.2l10.72-3.29z"/><path class="e" d="M175.49 44.42v9.49l-10.72 3.29v-9.23l10.72-3.55zM164.77 287.83v9.23l-10.15-3.35v-8.97l10.15 3.09z"/><path class="d" d="M164.77 278.61v9.22l-10.15-3.09v-8.98l10.15 2.85z"/><path class="e" d="M164.77 269.38v9.23l-10.15-2.85v-8.98l10.15 2.6z"/><path class="e" d="M164.77 260.16v9.22l-10.15-2.6v-8.98l10.15 2.36z"/><path class="e" d="M164.77 250.93v9.23l-10.15-2.36v-8.97l10.15 2.1zM164.77 241.7v9.23l-10.15-2.1v-8.98l10.15 1.85z"/><path class="f" d="M164.77 232.48v9.22l-10.15-1.85v-8.98l10.15 1.61zM164.77 223.25v9.23l-10.15-1.61v-8.97l10.15 1.35z"/><path class="f" d="M164.77 214.03v9.22l-10.15-1.35v-8.98l10.15 1.11z"/><path class="e" d="M164.77 204.8v9.23l-10.15-1.11v-8.98l10.15.86z"/><path class="f" d="M164.77 195.58v9.22l-10.15-.86v-8.97l10.15.61z"/><path class="e" d="M164.77 186.35v9.23l-10.15-.61v-8.98l10.15.36z"/><path class="e" d="M164.77 177.13v9.22l-10.15-.36v-8.98l10.15.12z"/><path class="e" d="M164.77 167.9v9.23l-10.15-.12v-8.97l10.15-.14z"/><path class="f" d="M164.77 158.68v9.22l-10.15.14v-8.98l10.15-.38z"/><path class="e" d="M164.77 149.45v9.23l-10.15.38v-8.98l10.15-.63z"/><path class="e" d="M164.77 140.23v9.22l-10.15.63v-8.98l10.15-.87z"/><path class="e" d="M164.77 131v9.23l-10.15.87v-8.97l10.15-1.13z"/><path class="e" d="M164.77 121.78V131l-10.15 1.13v-8.98l10.15-1.37z"/><path class="e" d="M164.77 112.55v9.23l-10.15 1.37v-8.98l10.15-1.62z"/><path class="f" d="M164.77 103.33v9.22l-10.15 1.62v-8.98l10.15-1.86z"/><path class="e" d="M164.77 94.1v9.23l-10.15 1.86v-8.97l10.15-2.12z"/><path class="e" d="M164.77 84.87v9.23l-10.15 2.12v-8.98l10.15-2.37z"/><path class="e" d="M164.77 75.65v9.22l-10.15 2.37v-8.97l10.15-2.62z"/><path class="e" d="M164.77 66.42v9.23l-10.15 2.62v-8.98l10.15-2.87z"/><path class="d" d="M164.77 57.2v9.22l-10.15 2.87v-8.98l10.15-3.11z"/><path class="e" d="M164.77 47.97v9.23l-10.15 3.11v-8.98l10.15-3.36zM154.62 284.74v8.97l-9.61-3.17v-8.74l9.61 2.94z"/><path class="d" d="M154.62 275.76v8.98l-9.61-2.94v-8.74l9.61 2.7z"/><path class="e" d="M154.62 266.78v8.98l-9.61-2.7v-8.74l9.61 2.46z"/><path class="e" d="M154.62 257.8v8.98l-9.61-2.46v-8.74l9.61 2.22zM154.62 248.83v8.97l-9.61-2.22v-8.75l9.61 2z"/><path class="f" d="M154.62 239.85v8.98l-9.61-2v-8.74l9.61 1.76z"/><path class="e" d="M154.62 230.87v8.98l-9.61-1.76v-8.74l9.61 1.52z"/><path class="e" d="M154.62 221.9v8.97l-9.61-1.52v-8.74l9.61 1.29z"/><path class="f" d="M154.62 212.92v8.98l-9.61-1.29v-8.74l9.61 1.05z"/><path class="e" d="M154.62 203.94v8.98l-9.61-1.05v-8.74l9.61.81z"/><path class="e" d="M154.62 194.97v8.97l-9.61-.81v-8.75l9.61.59z"/><path class="f" d="M154.62 185.99v8.98l-9.61-.59v-8.74l9.61.35z"/><path class="e" d="M154.62 177.01v8.98l-9.61-.35v-8.74l9.61.11z"/><path class="e" d="M154.62 168.04v8.97l-9.61-.11v-8.74l9.61-.12z"/><path class="f" d="M154.62 159.06v8.98l-9.61.12v-8.74l9.61-.36z"/><path class="e" d="M154.62 150.08v8.98l-9.61.36v-8.74l9.61-.6zM154.62 141.1v8.98l-9.61.6v-8.75l9.61-.83z"/><path class="f" d="M154.62 132.13v8.97l-9.61.83v-8.74l9.61-1.06z"/><path class="e" d="M154.62 123.15v8.98l-9.61 1.06v-8.74l9.61-1.3z"/><path class="e" d="M154.62 114.17v8.98l-9.61 1.3v-8.74l9.61-1.54z"/><path class="f" d="M154.62 105.19v8.98l-9.61 1.54v-8.74l9.61-1.78z"/><path class="e" d="M154.62 96.22v8.97l-9.61 1.78v-8.74l9.61-2.01z"/><path class="e" d="M154.62 87.24v8.98l-9.61 2.01v-8.75l9.61-2.24zM154.62 78.27v8.97l-9.61 2.24v-8.74l9.61-2.47z"/><path class="e" d="M154.62 69.29v8.98l-9.61 2.47V72l9.61-2.71z"/><path class="d" d="M154.62 60.31v8.98L145.01 72v-8.74l9.61-2.95z"/><path class="e" d="M154.62 51.33v8.98l-9.61 2.95v-8.74l9.61-3.19zM145.01 281.8v8.74l-9.12-3.01v-8.51l9.12 2.78z"/><path class="d" d="M145.01 273.06v8.74l-9.12-2.78v-8.52l9.12 2.56z"/><path class="e" d="M145.01 264.32v8.74l-9.12-2.56v-8.52l9.12 2.34z"/><path class="e" d="M145.01 255.58v8.74l-9.12-2.34v-8.52l9.12 2.12z"/><path class="e" d="M145.01 246.83v8.75l-9.12-2.12v-8.52l9.12 1.89z"/><path class="f" d="M145.01 238.09v8.74l-9.12-1.89v-8.52l9.12 1.67z"/><path class="e" d="M145.01 229.35v8.74l-9.12-1.67v-8.51l9.12 1.44z"/><path class="e" d="M145.01 220.61v8.74l-9.12-1.44v-8.52l9.12 1.22z"/><path class="e" d="M145.01 211.87v8.74l-9.12-1.22v-8.52l9.12 1z"/><path class="e" d="M145.01 203.13v8.74l-9.12-1v-8.52l9.12.78z"/><path class="e" d="M145.01 194.38v8.75l-9.12-.78v-8.52l9.12.55z"/><path class="f" d="M145.01 185.64v8.74l-9.12-.55v-8.52l9.12.33z"/><path class="e" d="M145.01 176.9v8.74l-9.12-.33v-8.51l9.12.1z"/><path class="e" d="M145.01 168.16v8.74l-9.12-.1v-8.52l9.12-.12z"/><path class="f" d="M145.01 159.42v8.74l-9.12.12v-8.52l9.12-.34z"/><path class="e" d="M145.01 150.68v8.74l-9.12.34v-8.52l9.12-.56z"/><path class="e" d="M145.01 141.93v8.75l-9.12.56v-8.52l9.12-.79z"/><path class="f" d="M145.01 133.19v8.74l-9.12.79v-8.52l9.12-1.01z"/><path class="e" d="M145.01 124.45v8.74l-9.12 1.01v-8.52l9.12-1.23z"/><path class="e" d="M145.01 115.71v8.74l-9.12 1.23v-8.51l9.12-1.46z"/><path class="f" d="M145.01 106.97v8.74l-9.12 1.46v-8.52l9.12-1.68z"/><path class="e" d="M145.01 98.23v8.74l-9.12 1.68v-8.52l9.12-1.9z"/><path class="e" d="M145.01 89.48v8.75l-9.12 1.9v-8.52l9.12-2.13zM145.01 80.74v8.74l-9.12 2.13v-8.52l9.12-2.35z"/><path class="e" d="M145.01 72v8.74l-9.12 2.35v-8.52l9.12-2.57z"/><path class="d" d="M145.01 63.26V72l-9.12 2.57v-8.51l9.12-2.8z"/><path class="e" d="M145.01 54.52v8.74l-9.12 2.8v-8.52l9.12-3.02zM135.89 279.02v8.51l-8.67-2.85v-8.31l8.67 2.65z"/><path class="d" d="M135.89 270.5v8.52l-8.67-2.65v-8.31l8.67 2.44z"/><path class="e" d="M135.89 261.98v8.52l-8.67-2.44v-8.3l8.67 2.22z"/><path class="e" d="M135.89 253.46v8.52l-8.67-2.22v-8.31l8.67 2.01z"/><path class="e" d="M135.89 244.94v8.52l-8.67-2.01v-8.3l8.67 1.79z"/><path class="e" d="M135.89 236.42v8.52l-8.67-1.79v-8.31l8.67 1.58z"/><path class="f" d="M135.89 227.91v8.51l-8.67-1.58v-8.31l8.67 1.38z"/><path class="f" d="M135.89 219.39v8.52l-8.67-1.38v-8.3l8.67 1.16z"/><path class="f" d="M135.89 210.87v8.52l-8.67-1.16v-8.31l8.67.95z"/><path class="f" d="M135.89 202.35v8.52l-8.67-.95v-8.31l8.67.74z"/><path class="f" d="M135.89 193.83v8.52l-8.67-.74v-8.3l8.67.52z"/><path class="e" d="M135.89 185.31v8.52l-8.67-.52V185l8.67.31z"/><path class="e" d="M135.89 176.8v8.51l-8.67-.31v-8.3l8.67.1z"/><path class="e" d="M135.89 168.28v8.52l-8.67-.1v-8.31l8.67-.11z"/><path class="f" d="M135.89 159.76v8.52l-8.67.11v-8.31l8.67-.32z"/><path class="f" d="M135.89 151.24v8.52l-8.67.32v-8.3l8.67-.54z"/><path class="f" d="M135.89 142.72v8.52l-8.67.54v-8.31l8.67-.75z"/><path class="f" d="M135.89 134.2v8.52l-8.67.75v-8.31l8.67-.96z"/><path class="f" d="M135.89 125.68v8.52l-8.67.96v-8.3l8.67-1.18zM135.89 117.17v8.51l-8.67 1.18v-8.31l8.67-1.38zM135.89 108.65v8.52l-8.67 1.38v-8.3l8.67-1.6z"/><path class="e" d="M135.89 100.13v8.52l-8.67 1.6v-8.31l8.67-1.81z"/><path class="e" d="M135.89 91.61v8.52l-8.67 1.81v-8.31l8.67-2.02z"/><path class="e" d="M135.89 83.09v8.52l-8.67 2.02v-8.3l8.67-2.24zM135.89 74.57v8.52l-8.67 2.24v-8.31l8.67-2.45z"/><path class="d" d="M135.89 66.06v8.51l-8.67 2.45v-8.31l8.67-2.65z"/><path class="e" d="M135.89 57.54v8.52l-8.67 2.65v-8.3l8.67-2.87zM127.22 276.37v8.31l-8.25-2.72v-8.11l8.25 2.52z"/><path class="d" d="M127.22 268.06v8.31l-8.25-2.52v-8.1l8.25 2.31z"/><path class="e" d="M127.22 259.76v8.3l-8.25-2.31v-8.11l8.25 2.12z"/><path class="e" d="M127.22 251.45v8.31l-8.25-2.12v-8.1l8.25 1.91z"/><path class="e" d="M127.22 243.15v8.3l-8.25-1.91v-8.1l8.25 1.71zM127.22 234.84v8.31l-8.25-1.71v-8.11l8.25 1.51z"/><path class="e" d="M127.22 226.53v8.31l-8.25-1.51v-8.1l8.25 1.3zM127.22 218.23v8.3l-8.25-1.3v-8.11l8.25 1.11zM127.22 209.92v8.31l-8.25-1.11v-8.1l8.25.9z"/><path class="e" d="M127.22 201.61v8.31l-8.25-.9v-8.11l8.25.7z"/><path class="e" d="M127.22 193.31v8.3l-8.25-.7v-8.1l8.25.5zM127.22 185v8.31l-8.25-.5v-8.11l8.25.3z"/><path class="e" d="M127.22 176.7v8.3l-8.25-.3v-8.1l8.25.1z"/><path class="e" d="M127.22 168.39v8.31l-8.25-.1v-8.1l8.25-.11z"/><path class="e" d="M127.22 160.08v8.31l-8.25.11v-8.11l8.25-.31zM127.22 151.78v8.3l-8.25.31v-8.1l8.25-.51zM127.22 143.47v8.31l-8.25.51v-8.11l8.25-.71z"/><path class="e" d="M127.22 135.16v8.31l-8.25.71v-8.1l8.25-.92zM127.22 126.86v8.3l-8.25.92v-8.11l8.25-1.11z"/><path class="e" d="M127.22 118.55v8.31l-8.25 1.11v-8.1l8.25-1.32zM127.22 110.25v8.3l-8.25 1.32v-8.1l8.25-1.52z"/><path class="e" d="M127.22 101.94v8.31l-8.25 1.52v-8.11l8.25-1.72z"/><path class="e" d="M127.22 93.63v8.31l-8.25 1.72v-8.1l8.25-1.93z"/><path class="e" d="M127.22 85.33v8.3l-8.25 1.93v-8.11l8.25-2.12z"/><path class="e" d="M127.22 77.02v8.31l-8.25 2.12v-8.1l8.25-2.33z"/><path class="d" d="M127.22 68.71v8.31l-8.25 2.33v-8.11l8.25-2.53z"/><path class="e" d="M127.22 60.41v8.3l-8.25 2.53v-8.1l8.25-2.73zM118.97 273.85v8.11l-7.86-2.59v-7.91l7.86 2.39z"/><path class="d" d="M118.97 265.75v8.1l-7.86-2.39v-7.92l7.86 2.21z"/><path class="e" d="M118.97 257.64v8.11l-7.86-2.21v-7.91l7.86 2.01zM118.97 249.54v8.1l-7.86-2.01v-7.91l7.86 1.82z"/><path class="e" d="M118.97 241.44v8.1l-7.86-1.82v-7.91l7.86 1.63z"/><path class="f" d="M118.97 233.33v8.11l-7.86-1.63v-7.92l7.86 1.44z"/><path class="e" d="M118.97 225.23v8.1l-7.86-1.44v-7.91l7.86 1.25z"/><path class="e" d="M118.97 217.12v8.11l-7.86-1.25v-7.91l7.86 1.05zM118.97 209.02v8.1l-7.86-1.05v-7.91l7.86.86zM118.97 200.91v8.11l-7.86-.86v-7.91l7.86.66z"/><path class="e" d="M118.97 192.81v8.1l-7.86-.66v-7.91l7.86.47z"/><path class="f" d="M118.97 184.7v8.11l-7.86-.47v-7.92l7.86.28z"/><path class="e" d="M118.97 176.6v8.1l-7.86-.28v-7.91l7.86.09z"/><path class="e" d="M118.97 168.5v8.1l-7.86-.09v-7.91l7.86-.1z"/><path class="e" d="M118.97 160.39v8.11l-7.86.1v-7.91l7.86-.3z"/><path class="e" d="M118.97 152.29v8.1l-7.86.3v-7.92l7.86-.48z"/><path class="e" d="M118.97 144.18v8.11l-7.86.48v-7.91l7.86-.68z"/><path class="f" d="M118.97 136.08v8.1l-7.86.68v-7.91l7.86-.87zM118.97 127.97v8.11l-7.86.87v-7.91l7.86-1.07z"/><path class="f" d="M118.97 119.87v8.1l-7.86 1.07v-7.91l7.86-1.26z"/><path class="f" d="M118.97 111.77v8.1l-7.86 1.26v-7.92l7.86-1.44z"/><path class="e" d="M118.97 103.66v8.11l-7.86 1.44v-7.91l7.86-1.64z"/><path class="e" d="M118.97 95.56v8.1l-7.86 1.64v-7.91l7.86-1.83z"/><path class="e" d="M118.97 87.45v8.11l-7.86 1.83v-7.91l7.86-2.03zM118.97 79.35v8.1l-7.86 2.03v-7.92l7.86-2.21z"/><path class="d" d="M118.97 71.24v8.11l-7.86 2.21v-7.91l7.86-2.41z"/><path class="e" d="M118.97 63.14v8.1l-7.86 2.41v-7.91l7.86-2.6zM111.11 271.46v7.91l-7.49-2.47v-7.73l7.49 2.29z"/><path class="d" d="M111.11 263.54v7.92l-7.49-2.29v-7.73l7.49 2.1z"/><path class="e" d="M111.11 255.63v7.91l-7.49-2.1v-7.73l7.49 1.92z"/><path class="e" d="M111.11 247.72v7.91l-7.49-1.92v-7.73l7.49 1.74zM111.11 239.81v7.91l-7.49-1.74v-7.73l7.49 1.56z"/><path class="f" d="M111.11 231.89v7.92l-7.49-1.56v-7.72l7.49 1.36z"/><path class="f" d="M111.11 223.98v7.91l-7.49-1.36v-7.73l7.49 1.18z"/><path class="f" d="M111.11 216.07v7.91l-7.49-1.18v-7.73l7.49 1z"/><path class="f" d="M111.11 208.16v7.91l-7.49-1v-7.73l7.49.82z"/><path class="f" d="M111.11 200.25v7.91l-7.49-.82v-7.73l7.49.64z"/><path class="f" d="M111.11 192.34v7.91l-7.49-.64v-7.73l7.49.46zM111.11 184.42v7.92l-7.49-.46v-7.73l7.49.27z"/><path class="e" d="M111.11 176.51v7.91l-7.49-.27v-7.73l7.49.09z"/><path class="e" d="M111.11 168.6v7.91l-7.49-.09v-7.72l7.49-.1z"/><path class="f" d="M111.11 160.69v7.91l-7.49.1v-7.73l7.49-.28z"/><path class="f" d="M111.11 152.77v7.92l-7.49.28v-7.73l7.49-.47z"/><path class="f" d="M111.11 144.86v7.91l-7.49.47v-7.73l7.49-.65z"/><path class="e" d="M111.11 136.95v7.91l-7.49.65v-7.73l7.49-.83z"/><path class="e" d="M111.11 129.04v7.91l-7.49.83v-7.73l7.49-1.01zM111.11 121.13v7.91l-7.49 1.01v-7.73l7.49-1.19z"/><path class="e" d="M111.11 113.21v7.92l-7.49 1.19v-7.73l7.49-1.38z"/><path class="e" d="M111.11 105.3v7.91l-7.49 1.38v-7.72l7.49-1.57z"/><path class="e" d="M111.11 97.39v7.91l-7.49 1.57v-7.73l7.49-1.75z"/><path class="e" d="M111.11 89.48v7.91l-7.49 1.75v-7.73l7.49-1.93z"/><path class="e" d="M111.11 81.56v7.92l-7.49 1.93v-7.73l7.49-2.12z"/><path class="d" d="M111.11 73.65v7.91l-7.49 2.12v-7.73l7.49-2.3z"/><path class="e" d="M111.11 65.74v7.91l-7.49 2.3v-7.73l7.49-2.48zM103.62 269.17v7.73l-7.15-2.36v-7.55l7.15 2.18z"/><path class="d" d="M103.62 261.44v7.73l-7.15-2.18v-7.56l7.15 2.01z"/><path class="e" d="M103.62 253.71v7.73l-7.15-2.01v-7.55l7.15 1.83zM103.62 245.98v7.73l-7.15-1.83v-7.56l7.15 1.66z"/><path class="e" d="M103.62 238.25v7.73l-7.15-1.66v-7.55l7.15 1.48z"/><path class="f" d="M103.62 230.53v7.72l-7.15-1.48v-7.55l7.15 1.31z"/><path class="e" d="M103.62 222.8v7.73l-7.15-1.31v-7.56l7.15 1.14z"/><path class="e" d="M103.62 215.07v7.73l-7.15-1.14v-7.55l7.15.96z"/><path class="e" d="M103.62 207.34v7.73l-7.15-.96v-7.55l7.15.78z"/><path class="e" d="M103.62 199.61v7.73l-7.15-.78V199l7.15.61zM103.62 191.88v7.73l-7.15-.61v-7.55l7.15.43z"/><path class="f" d="M103.62 184.15v7.73l-7.15-.43v-7.55l7.15.25z"/><path class="e" d="M103.62 176.42v7.73l-7.15-.25v-7.56l7.15.08z"/><path class="e" d="M103.62 168.7v7.72l-7.15-.08v-7.55l7.15-.09z"/><path class="e" d="M103.62 160.97v7.73l-7.15.09v-7.56l7.15-.26z"/><path class="e" d="M103.62 153.24v7.73l-7.15.26v-7.55l7.15-.44z"/><path class="e" d="M103.62 145.51v7.73l-7.15.44v-7.55l7.15-.62z"/><path class="f" d="M103.62 137.78v7.73l-7.15.62v-7.56l7.15-.79z"/><path class="f" d="M103.62 130.05v7.73l-7.15.79v-7.55l7.15-.97z"/><path class="f" d="M103.62 122.32v7.73l-7.15.97v-7.56l7.15-1.14z"/><path class="f" d="M103.62 114.59v7.73l-7.15 1.14v-7.55l7.15-1.32z"/><path class="e" d="M103.62 106.87v7.72l-7.15 1.32v-7.55l7.15-1.49z"/><path class="e" d="M103.62 99.14v7.73l-7.15 1.49v-7.56l7.15-1.66z"/><path class="e" d="M103.62 91.41v7.73l-7.15 1.66v-7.55l7.15-1.84z"/><path class="e" d="M103.62 83.68v7.73l-7.15 1.84V85.7l7.15-2.02z"/><path class="d" d="M103.62 75.95v7.73l-7.15 2.02v-7.56l7.15-2.19z"/><path class="e" d="M103.62 68.22v7.73l-7.15 2.19v-7.55l7.15-2.37zM96.47 266.99v7.55l-6.83-2.25v-7.39l6.83 2.09z"/><path class="d" d="M96.47 259.43v7.56l-6.83-2.09v-7.39l6.83 1.92z"/><path class="e" d="M96.47 251.88v7.55l-6.83-1.92v-7.38l6.83 1.75z"/><path class="e" d="M96.47 244.32v7.56l-6.83-1.75v-7.39l6.83 1.58z"/><path class="e" d="M96.47 236.77v7.55l-6.83-1.58v-7.39l6.83 1.42z"/><path class="e" d="M96.47 229.22v7.55l-6.83-1.42v-7.38l6.83 1.25zM96.47 221.66v7.56l-6.83-1.25v-7.39l6.83 1.08z"/><path class="e" d="M96.47 214.11v7.55l-6.83-1.08v-7.38l6.83.91z"/><path class="e" d="M96.47 206.56v7.55l-6.83-.91v-7.39l6.83.75zM96.47 199v7.56l-6.83-.75v-7.39l6.83.58zM96.47 191.45V199l-6.83-.58v-7.38l6.83.41z"/><path class="e" d="M96.47 183.9v7.55l-6.83-.41v-7.39l6.83.25zM96.47 176.34v7.56l-6.83-.25v-7.39l6.83.08zM96.47 168.79v7.55l-6.83-.08v-7.38l6.83-.09z"/><path class="f" d="M96.47 161.23v7.56l-6.83.09v-7.39l6.83-.26z"/><path class="f" d="M96.47 153.68v7.55l-6.83.26v-7.39l6.83-.42zM96.47 146.13v7.55l-6.83.42v-7.38l6.83-.59z"/><path class="e" d="M96.47 138.57v7.56l-6.83.59v-7.39l6.83-.76z"/><path class="e" d="M96.47 131.02v7.55l-6.83.76v-7.39l6.83-.92zM96.47 123.46v7.56l-6.83.92v-7.38l6.83-1.1z"/><path class="e" d="M96.47 115.91v7.55l-6.83 1.1v-7.39l6.83-1.26z"/><path class="e" d="M96.47 108.36v7.55l-6.83 1.26v-7.38l6.83-1.43z"/><path class="e" d="M96.47 100.8v7.56l-6.83 1.43v-7.39l6.83-1.6zM96.47 93.25v7.55l-6.83 1.6v-7.39l6.83-1.76z"/><path class="e" d="M96.47 85.7v7.55l-6.83 1.76v-7.38l6.83-1.93z"/><path class="d" d="M96.47 78.14v7.56l-6.83 1.93v-7.39l6.83-2.1z"/><path class="e" d="M96.47 70.59v7.55l-6.83 2.1v-7.39l6.83-2.26zM89.64 264.9v7.39l-6.54-2.16v-7.23l6.54 2z"/><path class="d" d="M89.64 257.51v7.39l-6.54-2v-7.22l6.54 1.83z"/><path class="e" d="M89.64 250.13v7.38l-6.54-1.83v-7.23l6.54 1.68z"/><path class="e" d="M89.64 242.74v7.39l-6.54-1.68v-7.22l6.54 1.51z"/><path class="e" d="M89.64 235.35v7.39l-6.54-1.51V234l6.54 1.35z"/><path class="e" d="M89.64 227.97v7.38L83.1 234v-7.23l6.54 1.2z"/><path class="f" d="M89.64 220.58v7.39l-6.54-1.2v-7.22l6.54 1.03zM89.64 213.2v7.38l-6.54-1.03v-7.23l6.54.88z"/><path class="e" d="M89.64 205.81v7.39l-6.54-.88v-7.23l6.54.72zM89.64 198.42v7.39l-6.54-.72v-7.22l6.54.55z"/><path class="e" d="M89.64 191.04v7.38l-6.54-.55v-7.23l6.54.4z"/><path class="f" d="M89.64 183.65v7.39l-6.54-.4v-7.23l6.54.24z"/><path class="e" d="M89.64 176.26v7.39l-6.54-.24v-7.22l6.54.07z"/><path class="e" d="M89.64 168.88v7.38l-6.54-.07v-7.23l6.54-.08z"/><path class="e" d="M89.64 161.49v7.39l-6.54.08v-7.23l6.54-.24zM89.64 154.1v7.39l-6.54.24v-7.22l6.54-.41z"/><path class="e" d="M89.64 146.72v7.38l-6.54.41v-7.23l6.54-.56z"/><path class="f" d="M89.64 139.33v7.39l-6.54.56v-7.22l6.54-.73zM89.64 131.94v7.39l-6.54.73v-7.23l6.54-.89z"/><path class="f" d="M89.64 124.56v7.38l-6.54.89v-7.23l6.54-1.04z"/><path class="f" d="M89.64 117.17v7.39l-6.54 1.04v-7.22l6.54-1.21z"/><path class="e" d="M89.64 109.79v7.38l-6.54 1.21v-7.23l6.54-1.36z"/><path class="e" d="M89.64 102.4v7.39l-6.54 1.36v-7.23l6.54-1.52z"/><path class="e" d="M89.64 95.01v7.39l-6.54 1.52V96.7l6.54-1.69zM89.64 87.63v7.38L83.1 96.7v-7.23l6.54-1.84z"/><path class="d" d="M89.64 80.24v7.39l-6.54 1.84v-7.23l6.54-2z"/><path class="e" d="M89.64 72.85v7.39l-6.54 2v-7.22l6.54-2.17zM83.1 262.9v7.23l-6.27-2.06v-7.08l6.27 1.91z"/><path class="d" d="M83.1 255.68v7.22l-6.27-1.91v-7.07l6.27 1.76z"/><path class="e" d="M83.1 248.45v7.23l-6.27-1.76v-7.07l6.27 1.6z"/><path class="e" d="M83.1 241.23v7.22l-6.27-1.6v-7.08l6.27 1.46z"/><path class="e" d="M83.1 234v7.23l-6.27-1.46v-7.07l6.27 1.3z"/><path class="f" d="M83.1 226.77V234l-6.27-1.3v-7.07l6.27 1.14z"/><path class="e" d="M83.1 219.55v7.22l-6.27-1.14v-7.08l6.27 1zM83.1 212.32v7.23l-6.27-1v-7.07l6.27.84z"/><path class="f" d="M83.1 205.09v7.23l-6.27-.84v-7.07l6.27.68z"/><path class="e" d="M83.1 197.87v7.22l-6.27-.68v-7.07l6.27.53zM83.1 190.64v7.23l-6.27-.53v-7.08l6.27.38z"/><path class="f" d="M83.1 183.41v7.23l-6.27-.38v-7.07l6.27.22z"/><path class="e" d="M83.1 176.19v7.22l-6.27-.22v-7.07l6.27.07z"/><path class="e" d="M83.1 168.96v7.23l-6.27-.07v-7.08l6.27-.08z"/><path class="e" d="M83.1 161.73v7.23l-6.27.08v-7.07l6.27-.24z"/><path class="e" d="M83.1 154.51v7.22l-6.27.24v-7.07l6.27-.39zM83.1 147.28v7.23l-6.27.39v-7.08l6.27-.54z"/><path class="e" d="M83.1 140.06v7.22l-6.27.54v-7.07l6.27-.69z"/><path class="e" d="M83.1 132.83v7.23l-6.27.69v-7.07l6.27-.85zM83.1 125.6v7.23l-6.27.85v-7.08l6.27-1z"/><path class="e" d="M83.1 118.38v7.22l-6.27 1v-7.07l6.27-1.15z"/><path class="e" d="M83.1 111.15v7.23l-6.27 1.15v-7.07l6.27-1.31z"/><path class="e" d="M83.1 103.92v7.23l-6.27 1.31v-7.08l6.27-1.46zM83.1 96.7v7.22l-6.27 1.46v-7.07l6.27-1.61z"/><path class="e" d="M83.1 89.47v7.23l-6.27 1.61v-7.07l6.27-1.77z"/><path class="d" d="M83.1 82.24v7.23l-6.27 1.77v-7.07l6.27-1.93z"/><path class="e" d="M83.1 75.02v7.22l-6.27 1.93v-7.08l6.27-2.07zM76.83 260.99v7.08l-6-1.98v-6.93l6 1.83z"/><path class="d" d="M76.83 253.92v7.07l-6-1.83v-6.92l6 1.68z"/><path class="e" d="M76.83 246.85v7.07l-6-1.68v-6.93l6 1.54z"/><path class="e" d="M76.83 239.77v7.08l-6-1.54v-6.93l6 1.39zM76.83 232.7v7.07l-6-1.39v-6.92l6 1.24z"/><path class="f" d="M76.83 225.63v7.07l-6-1.24v-6.93l6 1.1z"/><path class="e" d="M76.83 218.55v7.08l-6-1.1v-6.93l6 .95zM76.83 211.48v7.07l-6-.95v-6.92l6 .8z"/><path class="f" d="M76.83 204.41v7.07l-6-.8v-6.93l6 .66z"/><path class="e" d="M76.83 197.34v7.07l-6-.66v-6.93l6 .52z"/><path class="e" d="M76.83 190.26v7.08l-6-.52v-6.92l6 .36z"/><path class="f" d="M76.83 183.19v7.07l-6-.36v-6.93l6 .22z"/><path class="e" d="M76.83 176.12v7.07l-6-.22v-6.92l6 .07z"/><path class="e" d="M76.83 169.04v7.08l-6-.07v-6.93l6-.08z"/><path class="e" d="M76.83 161.97v7.07l-6 .08v-6.93l6-.22z"/><path class="e" d="M76.83 154.9v7.07l-6 .22v-6.92l6-.37z"/><path class="e" d="M76.83 147.82v7.08l-6 .37v-6.93l6-.52z"/><path class="e" d="M76.83 140.75v7.07l-6 .52v-6.93l6-.66z"/><path class="e" d="M76.83 133.68v7.07l-6 .66v-6.92l6-.81z"/><path class="e" d="M76.83 126.6v7.08l-6 .81v-6.93l6-.96zM76.83 119.53v7.07l-6 .96v-6.92l6-1.11z"/><path class="e" d="M76.83 112.46v7.07l-6 1.11v-6.93l6-1.25zM76.83 105.38v7.08l-6 1.25v-6.93l6-1.4z"/><path class="e" d="M76.83 98.31v7.07l-6 1.4v-6.92l6-1.55z"/><path class="e" d="M76.83 91.24v7.07l-6 1.55v-6.93l6-1.69z"/><path class="d" d="M76.83 84.17v7.07l-6 1.69v-6.92l6-1.84z"/><path class="e" d="M76.83 77.09v7.08l-6 1.84v-6.93l6-1.99zM70.83 259.16v6.93l-5.76-1.9v-6.79l5.76 1.76z"/><path class="d" d="M70.83 252.24v6.92l-5.76-1.76v-6.78l5.76 1.62z"/><path class="e" d="M70.83 245.31v6.93l-5.76-1.62v-6.79l5.76 1.48z"/><path class="e" d="M70.83 238.38v6.93l-5.76-1.48v-6.78l5.76 1.33zM70.83 231.46v6.92l-5.76-1.33v-6.79l5.76 1.2z"/><path class="f" d="M70.83 224.53v6.93l-5.76-1.2v-6.78l5.76 1.05z"/><path class="e" d="M70.83 217.6v6.93l-5.76-1.05v-6.79l5.76.91z"/><path class="e" d="M70.83 210.68v6.92l-5.76-.91v-6.78l5.76.77z"/><path class="e" d="M70.83 203.75v6.93l-5.76-.77v-6.79l5.76.63z"/><path class="f" d="M70.83 196.82v6.93l-5.76-.63v-6.78l5.76.48z"/><path class="f" d="M70.83 189.9v6.92l-5.76-.48v-6.79l5.76.35z"/><path class="e" d="M70.83 182.97v6.93l-5.76-.35v-6.78l5.76.2z"/><path class="e" d="M70.83 176.05v6.92l-5.76-.2v-6.79l5.76.07z"/><path class="e" d="M70.83 169.12v6.93l-5.76-.07v-6.79l5.76-.07zM70.83 162.19v6.93l-5.76.07v-6.78l5.76-.22z"/><path class="e" d="M70.83 155.27v6.92l-5.76.22v-6.79l5.76-.35z"/><path class="e" d="M70.83 148.34v6.93l-5.76.35v-6.78l5.76-.5z"/><path class="e" d="M70.83 141.41v6.93l-5.76.5v-6.79l5.76-.64zM70.83 134.49v6.92l-5.76.64v-6.78l5.76-.78z"/><path class="e" d="M70.83 127.56v6.93l-5.76.78v-6.79l5.76-.92zM70.83 120.64v6.92l-5.76.92v-6.78l5.76-1.06z"/><path class="e" d="M70.83 113.71v6.93l-5.76 1.06v-6.79l5.76-1.2z"/><path class="e" d="M70.83 106.78v6.93l-5.76 1.2v-6.78l5.76-1.35zM70.83 99.86v6.92l-5.76 1.35v-6.79l5.76-1.48z"/><path class="e" d="M70.83 92.93v6.93l-5.76 1.48v-6.78l5.76-1.63z"/><path class="d" d="M70.83 86.01v6.92l-5.76 1.63v-6.79l5.76-1.76z"/><path class="e" d="M70.83 79.08v6.93l-5.76 1.76v-6.78l5.76-1.91zM65.07 257.4v6.79l-5.52-1.82v-6.65l5.52 1.68z"/><path class="d" d="M65.07 250.62v6.78l-5.52-1.68v-6.65l5.52 1.55z"/><path class="e" d="M65.07 243.83v6.79l-5.52-1.55v-6.65l5.52 1.41z"/><path class="e" d="M65.07 237.05v6.78l-5.52-1.41v-6.65l5.52 1.28zM65.07 230.26v6.79l-5.52-1.28v-6.65l5.52 1.14z"/><path class="e" d="M65.07 223.48v6.78l-5.52-1.14v-6.65l5.52 1.01z"/><path class="e" d="M65.07 216.69v6.79l-5.52-1.01v-6.65l5.52.87z"/><path class="e" d="M65.07 209.91v6.78l-5.52-.87v-6.65l5.52.74z"/><path class="e" d="M65.07 203.12v6.79l-5.52-.74v-6.65l5.52.6z"/><path class="e" d="M65.07 196.34v6.78l-5.52-.6v-6.65l5.52.47z"/><path class="e" d="M65.07 189.55v6.79l-5.52-.47v-6.65l5.52.33z"/><path class="e" d="M65.07 182.77v6.78l-5.52-.33v-6.65l5.52.2z"/><path class="e" d="M65.07 175.98v6.79l-5.52-.2v-6.65l5.52.06z"/><path class="e" d="M65.07 169.19v6.79l-5.52-.06v-6.65l5.52-.08z"/><path class="e" d="M65.07 162.41v6.78l-5.52.08v-6.65l5.52-.21z"/><path class="e" d="M65.07 155.62v6.79l-5.52.21v-6.65l5.52-.35z"/><path class="e" d="M65.07 148.84v6.78l-5.52.35v-6.65l5.52-.48z"/><path class="e" d="M65.07 142.05v6.79l-5.52.48v-6.65l5.52-.62z"/><path class="e" d="M65.07 135.27v6.78l-5.52.62v-6.65l5.52-.75zM65.07 128.48v6.79l-5.52.75v-6.65l5.52-.89z"/><path class="e" d="M65.07 121.7v6.78l-5.52.89v-6.65l5.52-1.02z"/><path class="e" d="M65.07 114.91v6.79l-5.52 1.02v-6.65l5.52-1.16z"/><path class="e" d="M65.07 108.13v6.78l-5.52 1.16v-6.66l5.52-1.28z"/><path class="e" d="M65.07 101.34v6.79l-5.52 1.28v-6.64l5.52-1.43z"/><path class="e" d="M65.07 94.56v6.78l-5.52 1.43v-6.65l5.52-1.56z"/><path class="d" d="M65.07 87.77v6.79l-5.52 1.56v-6.65l5.52-1.7z"/><path class="e" d="M65.07 80.99v6.78l-5.52 1.7v-6.65l5.52-1.83zM59.55 255.72v6.65l-5.32-1.75v-6.52l5.32 1.62z"/><path class="d" d="M59.55 249.07v6.65l-5.32-1.62v-6.53l5.32 1.5z"/><path class="e" d="M59.55 242.42v6.65l-5.32-1.5v-6.51l5.32 1.36z"/><path class="e" d="M59.55 235.77v6.65l-5.32-1.36v-6.52l5.32 1.23z"/><path class="e" d="M59.55 229.12v6.65l-5.32-1.23v-6.52l5.32 1.1z"/><path class="f" d="M59.55 222.47v6.65l-5.32-1.1v-6.52l5.32.97z"/><path class="e" d="M59.55 215.82v6.65l-5.32-.97v-6.53l5.32.85z"/><path class="e" d="M59.55 209.17v6.65l-5.32-.85v-6.51l5.32.71z"/><path class="e" d="M59.55 202.52v6.65l-5.32-.71v-6.53l5.32.59z"/><path class="e" d="M59.55 195.87v6.65l-5.32-.59v-6.52l5.32.46z"/><path class="e" d="M59.55 189.22v6.65l-5.32-.46v-6.51l5.32.32z"/><path class="f" d="M59.55 182.57v6.65l-5.32-.32v-6.53l5.32.2z"/><path class="e" d="M59.55 175.92v6.65l-5.32-.2v-6.51l5.32.06z"/><path class="e" d="M59.55 169.27v6.65l-5.32-.06v-6.53l5.32-.06z"/><path class="e" d="M59.55 162.62v6.65l-5.32.06v-6.52l5.32-.19z"/><path class="e" d="M59.55 155.97v6.65l-5.32.19v-6.51l5.32-.33z"/><path class="e" d="M59.55 149.32v6.65l-5.32.33v-6.53l5.32-.45zM59.55 142.67v6.65l-5.32.45v-6.52l5.32-.58z"/><path class="e" d="M59.55 136.02v6.65l-5.32.58v-6.52l5.32-.71z"/><path class="e" d="M59.55 129.37v6.65l-5.32.71v-6.52l5.32-.84z"/><path class="e" d="M59.55 122.72v6.65l-5.32.84v-6.51l5.32-.98z"/><path class="e" d="M59.55 116.07v6.65l-5.32.98v-6.53l5.32-1.1zM59.55 109.41v6.66l-5.32 1.1v-6.52l5.32-1.24z"/><path class="e" d="M59.55 102.77v6.64l-5.32 1.24v-6.52l5.32-1.36z"/><path class="e" d="M59.55 96.12v6.65l-5.32 1.36v-6.52l5.32-1.49z"/><path class="d" d="M59.55 89.47v6.65l-5.32 1.49v-6.52l5.32-1.62z"/><path class="e" d="M59.55 82.82v6.65l-5.32 1.62v-6.52l5.32-1.75zM54.23 254.1v6.52l-5.1-1.69v-6.39l5.1 1.56z"/><path class="d" d="M54.23 247.57v6.53l-5.1-1.56v-6.4l5.1 1.43z"/><path class="e" d="M54.23 241.06v6.51l-5.1-1.43v-6.39l5.1 1.31z"/><path class="e" d="M54.23 234.54v6.52l-5.1-1.31v-6.4l5.1 1.19z"/><path class="e" d="M54.23 228.02v6.52l-5.1-1.19v-6.39l5.1 1.06z"/><path class="f" d="M54.23 221.5v6.52l-5.1-1.06v-6.4l5.1.94z"/><path class="e" d="M54.23 214.97v6.53l-5.1-.94v-6.39l5.1.8zM54.23 208.46v6.51l-5.1-.8v-6.4l5.1.69z"/><path class="f" d="M54.23 201.93v6.53l-5.1-.69v-6.39l5.1.55z"/><path class="e" d="M54.23 195.41v6.52l-5.1-.55v-6.4l5.1.43z"/><path class="e" d="M54.23 188.9v6.51l-5.1-.43v-6.39l5.1.31z"/><path class="f" d="M54.23 182.37v6.53l-5.1-.31v-6.4l5.1.18z"/><path class="e" d="M54.23 175.86v6.51l-5.1-.18v-6.39l5.1.06z"/><path class="e" d="M54.23 169.33v6.53l-5.1-.06v-6.4l5.1-.07z"/><path class="e" d="M54.23 162.81v6.52l-5.1.07v-6.39l5.1-.2zM54.23 156.3v6.51l-5.1.2v-6.4l5.1-.31z"/><path class="e" d="M54.23 149.77v6.53l-5.1.31v-6.39l5.1-.45zM54.23 143.25v6.52l-5.1.45v-6.4l5.1-.57z"/><path class="e" d="M54.23 136.73v6.52l-5.1.57v-6.39l5.1-.7z"/><path class="e" d="M54.23 130.21v6.52l-5.1.7v-6.4l5.1-.82z"/><path class="e" d="M54.23 123.7v6.51l-5.1.82v-6.39l5.1-.94z"/><path class="e" d="M54.23 117.17v6.53l-5.1.94v-6.4l5.1-1.07z"/><path class="e" d="M54.23 110.65v6.52l-5.1 1.07v-6.39l5.1-1.2z"/><path class="e" d="M54.23 104.13v6.52l-5.1 1.2v-6.4l5.1-1.32z"/><path class="e" d="M54.23 97.61v6.52l-5.1 1.32v-6.39l5.1-1.45z"/><path class="d" d="M54.23 91.09v6.52l-5.1 1.45v-6.4l5.1-1.57z"/><path class="e" d="M54.23 84.57v6.52l-5.1 1.57v-6.39l5.1-1.7zM49.13 252.54v6.39l-4.92-1.62v-6.27l4.92 1.5z"/><path class="d" d="M49.13 246.14v6.4l-4.92-1.5v-6.28l4.92 1.38z"/><path class="e" d="M49.13 239.75v6.39l-4.92-1.38v-6.27l4.92 1.26z"/><path class="e" d="M49.13 233.35v6.4l-4.92-1.26v-6.28l4.92 1.14z"/><path class="e" d="M49.13 226.96v6.39l-4.92-1.14v-6.27l4.92 1.02z"/><path class="f" d="M49.13 220.56v6.4l-4.92-1.02v-6.28l4.92.9z"/><path class="e" d="M49.13 214.17v6.39l-4.92-.9v-6.27l4.92.78z"/><path class="e" d="M49.13 207.77v6.4l-4.92-.78v-6.28l4.92.66z"/><path class="f" d="M49.13 201.38v6.39l-4.92-.66v-6.27l4.92.54z"/><path class="e" d="M49.13 194.98v6.4l-4.92-.54v-6.28l4.92.42z"/><path class="e" d="M49.13 188.59v6.39l-4.92-.42v-6.27l4.92.3z"/><path class="f" d="M49.13 182.19v6.4l-4.92-.3v-6.28l4.92.18z"/><path class="e" d="M49.13 175.8v6.39l-4.92-.18v-6.27l4.92.06z"/><path class="e" d="M49.13 169.4v6.4l-4.92-.06v-6.28l4.92-.06zM49.13 163.01v6.39l-4.92.06v-6.27l4.92-.18z"/><path class="e" d="M49.13 156.61v6.4l-4.92.18v-6.28l4.92-.3zM49.13 150.22v6.39l-4.92.3v-6.27l4.92-.42z"/><path class="e" d="M49.13 143.82v6.4l-4.92.42v-6.27l4.92-.55z"/><path class="e" d="M49.13 137.43v6.39l-4.92.55v-6.28l4.92-.66z"/><path class="e" d="M49.13 131.03v6.4l-4.92.66v-6.27l4.92-.79z"/><path class="e" d="M49.13 124.64v6.39l-4.92.79v-6.28l4.92-.9z"/><path class="e" d="M49.13 118.24v6.4l-4.92.9v-6.27l4.92-1.03zM49.13 111.85v6.39l-4.92 1.03v-6.28l4.92-1.14z"/><path class="e" d="M49.13 105.45v6.4l-4.92 1.14v-6.27l4.92-1.27zM49.13 99.06v6.39l-4.92 1.27v-6.28l4.92-1.38z"/><path class="d" d="M49.13 92.66v6.4l-4.92 1.38v-6.27l4.92-1.51z"/><path class="e" d="M49.13 86.27v6.39l-4.92 1.51v-6.28l4.92-1.62zM44.21 251.04v6.27l-4.73-1.56v-6.16l4.73 1.45z"/><path class="d" d="M44.21 244.76v6.28l-4.73-1.45v-6.16l4.73 1.33z"/><path class="e" d="M44.21 238.49v6.27l-4.73-1.33v-6.16l4.73 1.22z"/><path class="e" d="M44.21 232.21v6.28l-4.73-1.22v-6.15l4.73 1.09z"/><path class="e" d="M44.21 225.94v6.27l-4.73-1.09v-6.16l4.73.98z"/><path class="f" d="M44.21 219.66v6.28l-4.73-.98v-6.16l4.73.86zM44.21 213.39v6.27l-4.73-.86v-6.16l4.73.75z"/><path class="f" d="M44.21 207.11v6.28l-4.73-.75v-6.16l4.73.63z"/><path class="f" d="M44.21 200.84v6.27l-4.73-.63v-6.16l4.73.52zM44.21 194.56v6.28l-4.73-.52v-6.16l4.73.4z"/><path class="f" d="M44.21 188.29v6.27l-4.73-.4V188l4.73.29z"/><path class="f" d="M44.21 182.01v6.28l-4.73-.29v-6.16l4.73.17z"/><path class="e" d="M44.21 175.74v6.27l-4.73-.17v-6.16l4.73.06zM44.21 169.46v6.28l-4.73-.06v-6.15l4.73-.07z"/><path class="e" d="M44.21 163.19v6.27l-4.73.07v-6.16l4.73-.18zM44.21 156.91v6.28l-4.73.18v-6.16l4.73-.3z"/><path class="e" d="M44.21 150.64v6.27l-4.73.3v-6.16l4.73-.41z"/><path class="e" d="M44.21 144.37v6.27l-4.73.41v-6.16l4.73-.52zM44.21 138.09v6.28l-4.73.52v-6.16l4.73-.64zM44.21 131.82v6.27l-4.73.64v-6.16l4.73-.75zM44.21 125.54v6.28l-4.73.75v-6.16l4.73-.87zM44.21 119.27v6.27l-4.73.87v-6.15l4.73-.99zM44.21 112.99v6.28l-4.73.99v-6.16l4.73-1.11zM44.21 106.72v6.27l-4.73 1.11v-6.16l4.73-1.22zM44.21 100.44v6.28l-4.73 1.22v-6.16l4.73-1.34z"/><path class="d" d="M44.21 94.17v6.27l-4.73 1.34v-6.16l4.73-1.45z"/><path class="e" d="M44.21 87.89v6.28l-4.73 1.45v-6.16l4.73-1.57zM39.48 249.59v6.16l-4.57-1.51v-6.04l4.57 1.39z"/><path class="d" d="M39.48 243.43v6.16l-4.57-1.39v-6.05l4.57 1.28z"/><path class="e" d="M39.48 237.27v6.16l-4.57-1.28v-6.05l4.57 1.17z"/><path class="e" d="M39.48 231.12v6.15l-4.57-1.17v-6.04l4.57 1.06zM39.48 224.96v6.16l-4.57-1.06v-6.05l4.57.95z"/><path class="e" d="M39.48 218.8v6.16l-4.57-.95v-6.05l4.57.84zM39.48 212.64v6.16l-4.57-.84v-6.04l4.57.72z"/><path class="e" d="M39.48 206.48v6.16l-4.57-.72v-6.05l4.57.61z"/><path class="e" d="M39.48 200.32v6.16l-4.57-.61v-6.05l4.57.5z"/><path class="e" d="M39.48 194.16v6.16l-4.57-.5v-6.05l4.57.39z"/><path class="e" d="M39.48 188v6.16l-4.57-.39v-6.04l4.57.27zM39.48 181.84V188l-4.57-.27v-6.05l4.57.16z"/><path class="e" d="M39.48 175.68v6.16l-4.57-.16v-6.05l4.57.05z"/><path class="e" d="M39.48 169.53v6.15l-4.57-.05v-6.04l4.57-.06z"/><path class="e" d="M39.48 163.37v6.16l-4.57.06v-6.05l4.57-.17z"/><path class="e" d="M39.48 157.21v6.16l-4.57.17v-6.05l4.57-.28z"/><path class="e" d="M39.48 151.05v6.16l-4.57.28v-6.05l4.57-.39zM39.48 144.89v6.16l-4.57.39v-6.04l4.57-.51z"/><path class="e" d="M39.48 138.73v6.16l-4.57.51v-6.05l4.57-.62z"/><path class="e" d="M39.48 132.57v6.16l-4.57.62v-6.05l4.57-.73z"/><path class="e" d="M39.48 126.41v6.16l-4.57.73v-6.04l4.57-.85z"/><path class="e" d="M39.48 120.26v6.15l-4.57.85v-6.05l4.57-.95zM39.48 114.1v6.16l-4.57.95v-6.05l4.57-1.06z"/><path class="e" d="M39.48 107.94v6.16l-4.57 1.06v-6.05l4.57-1.17z"/><path class="e" d="M39.48 101.78v6.16l-4.57 1.17v-6.04l4.57-1.29z"/><path class="d" d="M39.48 95.62v6.16l-4.57 1.29v-6.05l4.57-1.4z"/><path class="e" d="M39.48 89.46v6.16l-4.57 1.4v-6.05l4.57-1.51zM34.91 248.2v6.04l-4.4-1.44v-5.94l4.4 1.34z"/><path class="d" d="M34.91 242.15v6.05l-4.4-1.34v-5.94l4.4 1.23z"/><path class="e" d="M34.91 236.1v6.05l-4.4-1.23v-5.94l4.4 1.12zM34.91 230.06v6.04l-4.4-1.12v-5.94l4.4 1.02z"/><path class="e" d="M34.91 224.01v6.05l-4.4-1.02v-5.94l4.4.91z"/><path class="e" d="M34.91 217.96v6.05l-4.4-.91v-5.94l4.4.8z"/><path class="f" d="M34.91 211.92v6.04l-4.4-.8v-5.94l4.4.7z"/><path class="f" d="M34.91 205.87v6.05l-4.4-.7v-5.94l4.4.59zM34.91 199.82v6.05l-4.4-.59v-5.94l4.4.48z"/><path class="f" d="M34.91 193.77v6.05l-4.4-.48v-5.94l4.4.37zM34.91 187.73v6.04l-4.4-.37v-5.94l4.4.27z"/><path class="e" d="M34.91 181.68v6.05l-4.4-.27v-5.94l4.4.16z"/><path class="e" d="M34.91 175.63v6.05l-4.4-.16v-5.94l4.4.05zM34.91 169.59v6.04l-4.4-.05v-5.94l4.4-.05z"/><path class="e" d="M34.91 163.54v6.05l-4.4.05v-5.94l4.4-.16z"/><path class="e" d="M34.91 157.49v6.05l-4.4.16v-5.94l4.4-.27z"/><path class="e" d="M34.91 151.44v6.05l-4.4.27v-5.94l4.4-.38zM34.91 145.4v6.04l-4.4.38v-5.94l4.4-.48z"/><path class="e" d="M34.91 139.35v6.05l-4.4.48v-5.94l4.4-.59z"/><path class="e" d="M34.91 133.3v6.05l-4.4.59V134l4.4-.7z"/><path class="e" d="M34.91 127.26v6.04l-4.4.7v-5.93l4.4-.81z"/><path class="e" d="M34.91 121.21v6.05l-4.4.81v-5.94l4.4-.92z"/><path class="e" d="M34.91 115.16v6.05l-4.4.92v-5.94l4.4-1.03z"/><path class="e" d="M34.91 109.11v6.05l-4.4 1.03v-5.94l4.4-1.14z"/><path class="e" d="M34.91 103.07v6.04l-4.4 1.14v-5.94l4.4-1.24z"/><path class="d" d="M34.91 97.02v6.05l-4.4 1.24v-5.94l4.4-1.35z"/><path class="e" d="M34.91 90.97v6.05l-4.4 1.35v-5.94l4.4-1.46zM30.51 246.86v5.94l-4.24-1.41v-5.83l4.24 1.3z"/><path class="d" d="M30.51 240.92v5.94l-4.24-1.3v-5.84l4.24 1.2z"/><path class="e" d="M30.51 234.98v5.94l-4.24-1.2v-5.83l4.24 1.09z"/><path class="e" d="M30.51 229.04v5.94l-4.24-1.09v-5.84l4.24.99z"/><path class="e" d="M30.51 223.1v5.94l-4.24-.99v-5.83l4.24.88z"/><path class="f" d="M30.51 217.16v5.94l-4.24-.88v-5.84l4.24.78z"/><path class="e" d="M30.51 211.22v5.94l-4.24-.78v-5.83l4.24.67z"/><path class="e" d="M30.51 205.28v5.94l-4.24-.67v-5.84l4.24.57z"/><path class="e" d="M30.51 199.34v5.94l-4.24-.57v-5.84l4.24.47z"/><path class="e" d="M30.51 193.4v5.94l-4.24-.47v-5.83l4.24.36z"/><path class="e" d="M30.51 187.46v5.94l-4.24-.36v-5.84l4.24.26z"/><path class="f" d="M30.51 181.52v5.94l-4.24-.26v-5.83l4.24.15z"/><path class="e" d="M30.51 175.58v5.94l-4.24-.15v-5.84l4.24.05zM30.51 169.64v5.94l-4.24-.05v-5.83l4.24-.06z"/><path class="e" d="M30.51 163.7v5.94l-4.24.06v-5.84l4.24-.16zM30.51 157.76v5.94l-4.24.16v-5.83l4.24-.27z"/><path class="e" d="M30.51 151.82v5.94l-4.24.27v-5.84l4.24-.37zM30.51 145.88v5.94l-4.24.37v-5.84l4.24-.47zM30.51 139.94v5.94l-4.24.47v-5.83l4.24-.58z"/><path class="e" d="M30.51 134v5.94l-4.24.58v-5.84l4.24-.68zM30.51 128.07V134l-4.24.68v-5.83l4.24-.78zM30.51 122.13v5.94l-4.24.78v-5.84l4.24-.88z"/><path class="e" d="M30.51 116.19v5.94l-4.24.88v-5.83l4.24-.99zM30.51 110.25v5.94l-4.24.99v-5.84l4.24-1.09z"/><path class="e" d="M30.51 104.31v5.94l-4.24 1.09v-5.83l4.24-1.2z"/><path class="d" d="M30.51 98.37v5.94l-4.24 1.2v-5.84l4.24-1.3z"/><path class="e" d="M30.51 92.43v5.94l-4.24 1.3v-5.84l4.24-1.4zM26.27 245.56v5.83l-4.1-1.35v-5.73l4.1 1.25z"/><path class="d" d="M26.27 239.72v5.84l-4.1-1.25v-5.74l4.1 1.15z"/><path class="e" d="M26.27 233.89v5.83l-4.1-1.15v-5.73l4.1 1.05z"/><path class="e" d="M26.27 228.05v5.84l-4.1-1.05v-5.74l4.1.95z"/><path class="e" d="M26.27 222.22v5.83l-4.1-.95v-5.73l4.1.85z"/><path class="f" d="M26.27 216.38v5.84l-4.1-.85v-5.74l4.1.75z"/><path class="e" d="M26.27 210.55v5.83l-4.1-.75v-5.73l4.1.65zM26.27 204.71v5.84l-4.1-.65v-5.74l4.1.55z"/><path class="e" d="M26.27 198.87v5.84l-4.1-.55v-5.73l4.1.44z"/><path class="e" d="M26.27 193.04v5.83l-4.1-.44v-5.74l4.1.35z"/><path class="e" d="M26.27 187.2v5.84l-4.1-.35v-5.73l4.1.24z"/><path class="f" d="M26.27 181.37v5.83l-4.1-.24v-5.74l4.1.15z"/><path class="e" d="M26.27 175.53v5.84l-4.1-.15v-5.73l4.1.04z"/><path class="e" d="M26.27 169.7v5.83l-4.1-.04v-5.74l4.1-.05z"/><path class="e" d="M26.27 163.86v5.84l-4.1.05v-5.74l4.1-.15zM26.27 158.03v5.83l-4.1.15v-5.73l4.1-.25zM26.27 152.19v5.84l-4.1.25v-5.73l4.1-.36zM26.27 146.35v5.84l-4.1.36v-5.74l4.1-.46z"/><path class="e" d="M26.27 140.52v5.83l-4.1.46v-5.74l4.1-.55zM26.27 134.68v5.84l-4.1.55v-5.73l4.1-.66zM26.27 128.85v5.83l-4.1.66v-5.74l4.1-.75zM26.27 123.01v5.84l-4.1.75v-5.73l4.1-.86z"/><path class="e" d="M26.27 117.18v5.83l-4.1.86v-5.74l4.1-.95zM26.27 111.34v5.84l-4.1.95v-5.73l4.1-1.06zM26.27 105.51v5.83l-4.1 1.06v-5.74l4.1-1.15z"/><path class="d" d="M26.27 99.67v5.84l-4.1 1.15v-5.73l4.1-1.26z"/><path class="e" d="M26.27 93.83v5.84l-4.1 1.26v-5.74l4.1-1.36zM22.17 244.31v5.73l-3.96-1.3v-5.64l3.96 1.21z"/><path class="d" d="M22.17 238.57v5.74l-3.96-1.21v-5.64l3.96 1.11z"/><path class="e" d="M22.17 232.84v5.73l-3.96-1.11v-5.64l3.96 1.02z"/><path class="e" d="M22.17 227.1v5.74l-3.96-1.02v-5.64l3.96.92z"/><path class="e" d="M22.17 221.37v5.73l-3.96-.92v-5.63l3.96.82z"/><path class="f" d="M22.17 215.63v5.74l-3.96-.82v-5.64l3.96.72zM22.17 209.9v5.73l-3.96-.72v-5.64l3.96.63z"/><path class="f" d="M22.17 204.16v5.74l-3.96-.63v-5.64l3.96.53zM22.17 198.43v5.73l-3.96-.53v-5.64l3.96.44z"/><path class="f" d="M22.17 192.69v5.74l-3.96-.44v-5.64l3.96.34zM22.17 186.96v5.73l-3.96-.34v-5.63l3.96.24z"/><path class="f" d="M22.17 181.22v5.74l-3.96-.24v-5.64l3.96.14z"/><path class="e" d="M22.17 175.49v5.73l-3.96-.14v-5.64l3.96.05zM22.17 169.75v5.74l-3.96-.05v-5.64l3.96-.05z"/><path class="e" d="M22.17 164.01v5.74l-3.96.05v-5.64l3.96-.15zM22.17 158.28v5.73l-3.96.15v-5.64l3.96-.24z"/><path class="e" d="M22.17 152.55v5.73l-3.96.24v-5.63l3.96-.34z"/><path class="e" d="M22.17 146.81v5.74l-3.96.34v-5.64l3.96-.44zM22.17 141.07v5.74l-3.96.44v-5.64l3.96-.54zM22.17 135.34v5.73l-3.96.54v-5.64l3.96-.63z"/><path class="e" d="M22.17 129.6v5.74l-3.96.63v-5.64l3.96-.73zM22.17 123.87v5.73l-3.96.73v-5.63l3.96-.83z"/><path class="e" d="M22.17 118.13v5.74l-3.96.83v-5.64l3.96-.93z"/><path class="e" d="M22.17 112.4v5.73l-3.96.93v-5.64l3.96-1.02zM22.17 106.66v5.74l-3.96 1.02v-5.64l3.96-1.12z"/><path class="d" d="M22.17 100.93v5.73l-3.96 1.12v-5.64l3.96-1.21z"/><path class="e" d="M22.17 95.19v5.74l-3.96 1.21V96.5l3.96-1.31zM18.21 243.1v5.64l-3.84-1.26v-5.55l3.84 1.17z"/><path class="d" d="M18.21 237.46v5.64l-3.84-1.17v-5.54l3.84 1.07z"/><path class="e" d="M18.21 231.82v5.64l-3.84-1.07v-5.55l3.84.98z"/><path class="e" d="M18.21 226.18v5.64l-3.84-.98v-5.54l3.84.88z"/><path class="e" d="M18.21 220.55v5.63l-3.84-.88v-5.55l3.84.8zM18.21 214.91v5.64l-3.84-.8v-5.54l3.84.7z"/><path class="e" d="M18.21 209.27v5.64l-3.84-.7v-5.55l3.84.61zM18.21 203.63v5.64l-3.84-.61v-5.54l3.84.51z"/><path class="e" d="M18.21 197.99v5.64l-3.84-.51v-5.55l3.84.42z"/><path class="e" d="M18.21 192.35v5.64l-3.84-.42v-5.54l3.84.32z"/><path class="e" d="M18.21 186.72v5.63l-3.84-.32v-5.55l3.84.24z"/><path class="e" d="M18.21 181.08v5.64l-3.84-.24v-5.54l3.84.14z"/><path class="e" d="M18.21 175.44v5.64l-3.84-.14v-5.55l3.84.05z"/><path class="e" d="M18.21 169.8v5.64l-3.84-.05v-5.54l3.84-.05z"/><path class="e" d="M18.21 164.16v5.64l-3.84.05v-5.54l3.84-.15z"/><path class="e" d="M18.21 158.52v5.64l-3.84.15v-5.55l3.84-.24z"/><path class="e" d="M18.21 152.89v5.63l-3.84.24v-5.54l3.84-.33z"/><path class="e" d="M18.21 147.25v5.64l-3.84.33v-5.55l3.84-.42z"/><path class="e" d="M18.21 141.61v5.64l-3.84.42v-5.54l3.84-.52z"/><path class="e" d="M18.21 135.97v5.64l-3.84.52v-5.55l3.84-.61z"/><path class="e" d="M18.21 130.33v5.64l-3.84.61v-5.54l3.84-.71z"/><path class="e" d="M18.21 124.7v5.63l-3.84.71v-5.55l3.84-.79zM18.21 119.06v5.64l-3.84.79v-5.54l3.84-.89z"/><path class="e" d="M18.21 113.42v5.64l-3.84.89v-5.54l3.84-.99z"/><path class="e" d="M18.21 107.78v5.64l-3.84.99v-5.55l3.84-1.08z"/><path class="d" d="M18.21 102.14v5.64l-3.84 1.08v-5.54l3.84-1.18z"/><path class="e" d="M18.21 96.5v5.64l-3.84 1.18v-5.55l3.84-1.27zM14.37 241.93v5.55l-3.7-1.23v-5.45l3.7 1.13z"/><path class="d" d="M14.37 236.39v5.54l-3.7-1.13v-5.45l3.7 1.04z"/><path class="d" d="M14.37 230.84v5.55l-3.7-1.04v-5.46l3.7.95z"/><path class="e" d="M14.37 225.3v5.54l-3.7-.95v-5.45l3.7.86zM14.37 219.75v5.55l-3.7-.86v-5.46l3.7.77z"/><path class="e" d="M14.37 214.21v5.54l-3.7-.77v-5.45l3.7.68z"/><path class="e" d="M14.37 208.66v5.55l-3.7-.68v-5.45l3.7.58zM14.37 203.12v5.54l-3.7-.58v-5.46l3.7.5z"/><path class="e" d="M14.37 197.57v5.55l-3.7-.5v-5.45l3.7.4zM14.37 192.03v5.54l-3.7-.4v-5.46l3.7.32z"/><path class="e" d="M14.37 186.48v5.55l-3.7-.32v-5.45l3.7.22zM14.37 180.94v5.54l-3.7-.22v-5.45l3.7.13z"/><path class="e" d="M14.37 175.39v5.55l-3.7-.13v-5.46l3.7.04z"/><path class="e" d="M14.37 169.85v5.54l-3.7-.04v-5.45l3.7-.05z"/><path class="e" d="M14.37 164.31v5.54l-3.7.05v-5.45l3.7-.14zM14.37 158.76v5.55l-3.7.14v-5.46l3.7-.23z"/><path class="e" d="M14.37 153.22v5.54l-3.7.23v-5.45l3.7-.32z"/><path class="e" d="M14.37 147.67v5.55l-3.7.32v-5.46l3.7-.41z"/><path class="e" d="M14.37 142.13v5.54l-3.7.41v-5.45l3.7-.5z"/><path class="e" d="M14.37 136.58v5.55l-3.7.5v-5.45l3.7-.6zM14.37 131.04v5.54l-3.7.6v-5.46l3.7-.68z"/><path class="e" d="M14.37 125.49v5.55l-3.7.68v-5.45l3.7-.78z"/><path class="e" d="M14.37 119.95v5.54l-3.7.78v-5.46l3.7-.86zM14.37 114.41v5.54l-3.7.86v-5.45l3.7-.95z"/><path class="d" d="M14.37 108.86v5.55l-3.7.95v-5.45l3.7-1.05z"/><path class="d" d="M14.37 103.32v5.54l-3.7 1.05v-5.46l3.7-1.13z"/><path class="e" d="M14.37 97.77v5.55l-3.7 1.13V99l3.7-1.23zM10.67 240.8v5.45l-3.58-1.18v-5.37l3.58 1.1z"/><path class="e" d="M10.67 235.35v5.45l-3.58-1.1v-5.36l3.58 1.01z"/><path class="d" d="M10.67 229.89v5.46l-3.58-1.01v-5.37l3.58.92z"/><path class="d" d="M10.67 224.44v5.45l-3.58-.92v-5.36l3.58.83z"/><path class="e" d="M10.67 218.98v5.46l-3.58-.83v-5.37l3.58.74z"/><path class="e" d="M10.67 213.53v5.45l-3.58-.74v-5.37l3.58.66z"/><path class="e" d="M10.67 208.08v5.45l-3.58-.66v-5.36l3.58.57z"/><path class="e" d="M10.67 202.62v5.46l-3.58-.57v-5.37l3.58.48zM10.67 197.17v5.45l-3.58-.48v-5.36l3.58.39z"/><path class="e" d="M10.67 191.71v5.46l-3.58-.39v-5.37l3.58.3zM10.67 186.26v5.45l-3.58-.3v-5.37l3.58.22z"/><path class="e" d="M10.67 180.81v5.45l-3.58-.22v-5.36l3.58.13z"/><path class="e" d="M10.67 175.35v5.46l-3.58-.13v-5.37l3.58.04z"/><path class="e" d="M10.67 169.9v5.45l-3.58-.04v-5.36l3.58-.05z"/><path class="e" d="M10.67 164.45v5.45l-3.58.05v-5.37l3.58-.13z"/><path class="e" d="M10.67 158.99v5.46l-3.58.13v-5.37l3.58-.22zM10.67 153.54v5.45l-3.58.22v-5.36l3.58-.31z"/><path class="e" d="M10.67 148.08v5.46l-3.58.31v-5.37l3.58-.4zM10.67 142.63v5.45l-3.58.4v-5.36l3.58-.49z"/><path class="e" d="M10.67 137.18v5.45l-3.58.49v-5.37l3.58-.57z"/><path class="e" d="M10.67 131.72v5.46l-3.58.57v-5.37l3.58-.66z"/><path class="e" d="M10.67 126.27v5.45l-3.58.66v-5.36l3.58-.75z"/><path class="e" d="M10.67 120.81v5.46l-3.58.75v-5.37l3.58-.84z"/><path class="d" d="M10.67 115.36v5.45l-3.58.84v-5.37l3.58-.92z"/><path class="d" d="M10.67 109.91v5.45l-3.58.92v-5.36l3.58-1.01z"/><path class="e" d="M10.67 104.45v5.46l-3.58 1.01v-5.37l3.58-1.1z"/><path class="e" d="M10.67 99v5.45l-3.58 1.1v-5.36L10.67 99zM7.09 234.34v5.36l-3.48-1.06v-5.28l3.48.98z"/><path class="e" d="M7.09 228.97v5.37l-3.48-.98v-5.28l3.48.89z"/><path class="d" d="M7.09 223.61v5.36l-3.48-.89v-5.28l3.48.81zM7.09 218.24v5.37l-3.48-.81v-5.28l3.48.72z"/><path class="d" d="M7.09 212.87v5.37l-3.48-.72v-5.28l3.48.63z"/><path class="d" d="M7.09 207.51v5.36l-3.48-.63v-5.28l3.48.55zM7.09 202.14v5.37l-3.48-.55v-5.28l3.48.46z"/><path class="d" d="M7.09 196.78v5.36l-3.48-.46v-5.28l3.48.38z"/><path class="d" d="M7.09 191.41v5.37l-3.48-.38v-5.28l3.48.29z"/><path class="d" d="M7.09 186.04v5.37l-3.48-.29v-5.29l3.48.21z"/><path class="d" d="M7.09 180.68v5.36l-3.48-.21v-5.28l3.48.13z"/><path class="d" d="M7.09 175.31v5.37l-3.48-.13v-5.28l3.48.04z"/><path class="d" d="M7.09 169.95v5.36l-3.48-.04v-5.28l3.48-.04z"/><path class="d" d="M7.09 164.58v5.37l-3.48.04v-5.28l3.48-.13z"/><path class="d" d="M7.09 159.21v5.37l-3.48.13v-5.28l3.48-.22z"/><path class="d" d="M7.09 153.85v5.36l-3.48.22v-5.28l3.48-.3z"/><path class="d" d="M7.09 148.48v5.37l-3.48.3v-5.28l3.48-.39z"/><path class="d" d="M7.09 143.12v5.36l-3.48.39v-5.28l3.48-.47z"/><path class="d" d="M7.09 137.75v5.37l-3.48.47v-5.29l3.48-.55z"/><path class="d" d="M7.09 132.38v5.37l-3.48.55v-5.28l3.48-.64zM7.09 127.02v5.36l-3.48.64v-5.28l3.48-.72z"/><path class="d" d="M7.09 121.65v5.37l-3.48.72v-5.28l3.48-.81z"/><path class="d" d="M7.09 116.28v5.37l-3.48.81v-5.28l3.48-.9z"/><path class="e" d="M7.09 110.92v5.36l-3.48.9v-5.28l3.48-.98z"/><path class="e" d="M7.09 105.55v5.37l-3.48.98v-5.28l3.48-1.07zM3.61 228.08v5.28l-3.36-.94v-5.2l3.36.86zM3.61 222.8v5.28l-3.36-.86v-5.2l3.36.78z"/><path class="e" d="M3.61 217.52v5.28l-3.36-.78v-5.2l3.36.7z"/><path class="e" d="M3.61 212.24v5.28l-3.36-.7v-5.2l3.36.62zM3.61 206.96v5.28l-3.36-.62v-5.19l3.36.53z"/><path class="e" d="M3.61 201.68v5.28l-3.36-.53v-5.2l3.36.45z"/><path class="e" d="M3.61 196.4v5.28l-3.36-.45v-5.2l3.36.37zM3.61 191.12v5.28l-3.36-.37v-5.2l3.36.29z"/><path class="e" d="M3.61 185.83v5.29l-3.36-.29v-5.2l3.36.2z"/><path class="e" d="M3.61 180.55v5.28l-3.36-.2v-5.2l3.36.12zM3.61 175.27v5.28l-3.36-.12v-5.2l3.36.04z"/><path class="e" d="M3.61 169.99v5.28l-3.36-.04v-5.2l3.36-.04zM3.61 164.71v5.28l-3.36.04v-5.2l3.36-.12z"/><path class="e" d="M3.61 159.43v5.28l-3.36.12v-5.19l3.36-.21z"/><path class="e" d="M3.61 154.15v5.28l-3.36.21v-5.2l3.36-.29zM3.61 148.87v5.28l-3.36.29v-5.2l3.36-.37z"/><path class="e" d="M3.61 143.59v5.28l-3.36.37v-5.2l3.36-.45zM3.61 138.3v5.29l-3.36.45v-5.2l3.36-.54z"/><path class="e" d="M3.61 133.02v5.28l-3.36.54v-5.2l3.36-.62zM3.61 127.74v5.28l-3.36.62v-5.2l3.36-.7z"/><path class="e" d="M3.61 122.46v5.28l-3.36.7v-5.19l3.36-.79z"/><path class="e" d="M3.61 117.18v5.28l-3.36.79v-5.2l3.36-.87z"/><path class="e" d="M3.61 111.9v5.28l-3.36.87v-5.2l3.36-.95z"/></g></g></svg>