<svg xmlns="http://www.w3.org/2000/svg" viewBox="0 0 291.19 344.83"><defs><style>.d{fill:#1d1d1d}.e{fill:#305569}.f{fill:#61abd3}</style></defs><g id="b"><g id="c"><path class="e" d="M290.94 306.32v12.75l-19.19-5.39V301.4l19.19 4.92z"/><path class="e" d="M290.94 293.56v12.76l-19.19-4.92v-12.28l19.19 4.44z"/><path class="e" d="M290.94 280.81v12.75l-19.19-4.44v-12.29l19.19 3.98z"/><path class="e" d="M290.94 268.06v12.75l-19.19-3.98v-12.28l19.19 3.51z"/><path class="e" d="M290.94 255.31v12.75l-19.19-3.51v-12.28l19.19 3.04z"/><path class="e" d="M290.94 242.55v12.76l-19.19-3.04v-12.29l19.19 2.57z"/><path class="e" d="M290.94 229.8v12.75l-19.19-2.57V227.7l19.19 2.1z"/><path class="e" d="M290.94 217.05v12.75l-19.19-2.1v-12.28l19.19 1.63zM290.94 204.29v12.76l-19.19-1.63v-12.28l19.19 1.15z"/><path class="e" d="M290.94 191.54v12.75l-19.19-1.15v-12.29l19.19.69z"/><path class="e" d="M290.94 178.79v12.75l-19.19-.69v-12.28l19.19.22z"/><path class="e" d="M290.94 166.04v12.75l-19.19-.22v-12.28l19.19-.25z"/><path class="e" d="M290.94 153.28v12.76l-19.19.25V154l19.19-.72z"/><path class="e" d="M290.94 140.53v12.75l-19.19.72v-12.28l19.19-1.19z"/><path class="e" d="M290.94 127.78v12.75l-19.19 1.19v-12.28l19.19-1.66z"/><path class="e" d="M290.94 115.02v12.76l-19.19 1.66v-12.29l19.19-2.13zM290.94 102.27v12.75l-19.19 2.13v-12.28l19.19-2.6z"/><path class="e" d="M290.94 89.52v12.75l-19.19 2.6V92.59l19.19-3.07zM290.94 76.77v12.75l-19.19 3.07V80.3l19.19-3.53z"/><path class="e" d="M290.94 64.01v12.76l-19.19 3.53V68.02l19.19-4.01z"/><path class="e" d="M290.94 51.26v12.75l-19.19 4.01V55.74l19.19-4.48zM290.94 38.51v12.75l-19.19 4.48V43.45l19.19-4.94z"/><path class="e" d="M290.94 25.76v12.75l-19.19 4.94V31.17l19.19-5.41zM271.75 313.68v12.29l-17.83-5.44v-11.85l17.83 5zM271.75 301.4v12.28l-17.83-5v-11.85l17.83 4.57z"/><path class="d" d="M271.75 289.12v12.28l-17.83-4.57v-11.85l17.83 4.14z"/><path class="d" d="M271.75 276.83v12.29l-17.83-4.14v-11.84l17.83 3.69zM271.75 264.55v12.28l-17.83-3.69v-11.85l17.83 3.26z"/><path class="d" d="M271.75 252.27v12.28l-17.83-3.26v-11.85l17.83 2.83zM271.75 239.98v12.29l-17.83-2.83V237.6l17.83 2.38z"/><path class="d" d="M271.75 227.7v12.28l-17.83-2.38v-11.85l17.83 1.95z"/><path class="d" d="M271.75 215.42v12.28l-17.83-1.95V213.9l17.83 1.52zM271.75 203.14v12.28l-17.83-1.52v-11.84l17.83 1.08z"/><path class="d" d="M271.75 190.85v12.29l-17.83-1.08v-11.85l17.83.64z"/><path class="d" d="M271.75 178.57v12.28l-17.83-.64v-11.85l17.83.21zM271.75 166.29v12.28l-17.83-.21v-11.84l17.83-.23z"/><path class="d" d="M271.75 154v12.29l-17.83.23v-11.85l17.83-.67z"/><path class="d" d="M271.75 141.72V154l-17.83.67v-11.85l17.83-1.1z"/><path class="d" d="M271.75 129.44v12.28l-17.83 1.1v-11.84l17.83-1.54z"/><path class="d" d="M271.75 117.15v12.29l-17.83 1.54v-11.85l17.83-1.98z"/><path class="d" d="M271.75 104.87v12.28l-17.83 1.98v-11.85l17.83-2.41zM271.75 92.59v12.28l-17.83 2.41V95.44l17.83-2.85z"/><path class="d" d="M271.75 80.3v12.29l-17.83 2.85V83.59l17.83-3.29z"/><path class="d" d="M271.75 68.02V80.3l-17.83 3.29V71.74l17.83-3.72z"/><path class="d" d="M271.75 55.74v12.28l-17.83 3.72V59.89l17.83-4.15z"/><path class="d" d="M271.75 43.45v12.29l-17.83 4.15V48.05l17.83-4.6z"/><path class="e" d="M271.75 31.17v12.28l-17.83 4.6V36.2l17.83-5.03z"/><path class="e" d="M271.75 18.89v12.28l-17.83 5.03V24.35l17.83-5.46zM253.92 320.53v11.84l-16.6-5.47v-11.44l16.6 5.07z"/><path class="e" d="M253.92 308.68v11.85l-16.6-5.07v-11.44l16.6 4.66z"/><path class="d" d="M253.92 296.83v11.85l-16.6-4.66v-11.44l16.6 4.25z"/><path class="d" d="M253.92 284.98v11.85l-16.6-4.25v-11.44l16.6 3.84z"/><path class="e" d="M253.92 273.14v11.84l-16.6-3.84v-11.45l16.6 3.45z"/><path class="e" d="M253.92 261.29v11.85l-16.6-3.45v-11.44l16.6 3.04zM253.92 249.44v11.85l-16.6-3.04v-11.44l16.6 2.63z"/><path class="e" d="M253.92 237.6v11.84l-16.6-2.63v-11.44l16.6 2.23z"/><path class="e" d="M253.92 225.75v11.85l-16.6-2.23v-11.44l16.6 1.82z"/><path class="e" d="M253.92 213.9v11.85l-16.6-1.82v-11.44l16.6 1.41z"/><path class="e" d="M253.92 202.06v11.84l-16.6-1.41v-11.44l16.6 1.01z"/><path class="e" d="M253.92 190.21v11.85l-16.6-1.01v-11.44l16.6.6z"/><path class="e" d="M253.92 178.36v11.85l-16.6-.6v-11.44l16.6.19z"/><path class="e" d="M253.92 166.52v11.84l-16.6-.19v-11.44l16.6-.21zM253.92 154.67v11.85l-16.6.21v-11.44l16.6-.62z"/><path class="e" d="M253.92 142.82v11.85l-16.6.62v-11.44l16.6-1.03z"/><path class="e" d="M253.92 130.98v11.84l-16.6 1.03v-11.44l16.6-1.43z"/><path class="e" d="M253.92 119.13v11.85l-16.6 1.43v-11.44l16.6-1.84z"/><path class="e" d="M253.92 107.28v11.85l-16.6 1.84v-11.44l16.6-2.25z"/><path class="e" d="M253.92 95.44v11.84l-16.6 2.25V98.09l16.6-2.65z"/><path class="e" d="M253.92 83.59v11.85l-16.6 2.65V86.65l16.6-3.06zM253.92 71.74v11.85l-16.6 3.06V75.21l16.6-3.47z"/><path class="e" d="M253.92 59.89v11.85l-16.6 3.47V63.77l16.6-3.88z"/><path class="d" d="M253.92 48.05v11.84l-16.6 3.88V52.33l16.6-4.28z"/><path class="d" d="M253.92 36.2v11.85l-16.6 4.28V40.89l16.6-4.69z"/><path class="e" d="M253.92 24.35V36.2l-16.6 4.69V29.45l16.6-5.1z"/><path class="e" d="M253.92 12.51v11.84l-16.6 5.1V18l16.6-5.49zM237.32 315.46v11.44l-15.5-5.11v-11.07l15.5 4.74z"/><path class="d" d="M237.32 304.02v11.44l-15.5-4.74v-11.06l15.5 4.36z"/><path class="d" d="M237.32 292.58v11.44l-15.5-4.36V288.6l15.5 3.98z"/><path class="e" d="M237.32 281.14v11.44l-15.5-3.98v-11.06l15.5 3.6z"/><path class="e" d="M237.32 269.69v11.45l-15.5-3.6v-11.06l15.5 3.21z"/><path class="e" d="M237.32 258.25v11.44l-15.5-3.21v-11.06l15.5 2.83zM237.32 246.81v11.44l-15.5-2.83v-11.06l15.5 2.45z"/><path class="e" d="M237.32 235.37v11.44l-15.5-2.45V233.3l15.5 2.07z"/><path class="e" d="M237.32 223.93v11.44l-15.5-2.07v-11.06l15.5 1.69z"/><path class="e" d="M237.32 212.49v11.44l-15.5-1.69v-11.07l15.5 1.32z"/><path class="e" d="M237.32 201.05v11.44l-15.5-1.32v-11.05l15.5.93z"/><path class="e" d="M237.32 189.61v11.44l-15.5-.93v-11.07l15.5.56zM237.32 178.17v11.44l-15.5-.56v-11.06l15.5.18z"/><path class="e" d="M237.32 166.73v11.44l-15.5-.18v-11.06l15.5-.2z"/><path class="e" d="M237.32 155.29v11.44l-15.5.2v-11.06l15.5-.58z"/><path class="e" d="M237.32 143.85v11.44l-15.5.58v-11.06l15.5-.96z"/><path class="e" d="M237.32 132.41v11.44l-15.5.96v-11.06l15.5-1.34z"/><path class="e" d="M237.32 120.97v11.44l-15.5 1.34v-11.06l15.5-1.72z"/><path class="e" d="M237.32 109.53v11.44l-15.5 1.72v-11.06l15.5-2.1z"/><path class="e" d="M237.32 98.09v11.44l-15.5 2.1v-11.06l15.5-2.48z"/><path class="e" d="M237.32 86.65v11.44l-15.5 2.48V89.5l15.5-2.85zM237.32 75.21v11.44l-15.5 2.85V78.44l15.5-3.23z"/><path class="e" d="M237.32 63.77v11.44l-15.5 3.23V67.38l15.5-3.61z"/><path class="e" d="M237.32 52.33v11.44l-15.5 3.61V56.32l15.5-3.99z"/><path class="d" d="M237.32 40.89v11.44l-15.5 3.99V45.26l15.5-4.37z"/><path class="d" d="M237.32 29.45v11.44l-15.5 4.37V34.2l15.5-4.75z"/><path class="e" d="M237.32 18v11.45l-15.5 4.75V23.14l15.5-5.14zM221.82 310.72v11.07L207.31 317v-10.7l14.51 4.42z"/><path class="d" d="M221.82 299.66v11.06l-14.51-4.42v-10.71l14.51 4.07z"/><path class="e" d="M221.82 288.6v11.06l-14.51-4.07v-10.7l14.51 3.71z"/><path class="e" d="M221.82 277.54v11.06l-14.51-3.71v-10.71l14.51 3.36zM221.82 266.48v11.06l-14.51-3.36v-10.71l14.51 3.01zM221.82 255.42v11.06l-14.51-3.01v-10.7l14.51 2.65z"/><path class="e" d="M221.82 244.36v11.06l-14.51-2.65v-10.71l14.51 2.3z"/><path class="e" d="M221.82 233.3v11.06l-14.51-2.3v-10.71l14.51 1.95z"/><path class="e" d="M221.82 222.24v11.06l-14.51-1.95v-10.7l14.51 1.59zM221.82 211.17v11.07l-14.51-1.59v-10.71l14.51 1.23z"/><path class="e" d="M221.82 200.12v11.05l-14.51-1.23v-10.7l14.51.88zM221.82 189.05v11.07l-14.51-.88v-10.71l14.51.52z"/><path class="e" d="M221.82 177.99v11.06l-14.51-.52v-10.71l14.51.17z"/><path class="e" d="M221.82 166.93v11.06l-14.51-.17v-10.7l14.51-.19zM221.82 155.87v11.06l-14.51.19v-10.71l14.51-.54z"/><path class="e" d="M221.82 144.81v11.06l-14.51.54v-10.7l14.51-.9z"/><path class="e" d="M221.82 133.75v11.06l-14.51.9V135l14.51-1.25z"/><path class="e" d="M221.82 122.69v11.06L207.31 135v-10.7l14.51-1.61z"/><path class="e" d="M221.82 111.63v11.06l-14.51 1.61v-10.71l14.51-1.96zM221.82 100.57v11.06l-14.51 1.96v-10.71l14.51-2.31z"/><path class="e" d="M221.82 89.5v11.07l-14.51 2.31v-10.7l14.51-2.68z"/><path class="e" d="M221.82 78.44V89.5l-14.51 2.68V81.47l14.51-3.03z"/><path class="e" d="M221.82 67.38v11.06l-14.51 3.03v-10.7l14.51-3.39z"/><path class="e" d="M221.82 56.32v11.06l-14.51 3.39V60.06l14.51-3.74z"/><path class="e" d="M221.82 45.26v11.06l-14.51 3.74V49.35l14.51-4.09z"/><path class="d" d="M221.82 34.2v11.06l-14.51 4.09v-10.7l14.51-4.45z"/><path class="e" d="M221.82 23.14V34.2l-14.51 4.45V27.94l14.51-4.8zM207.31 306.3V317l-13.6-4.48v-10.38l13.6 4.16z"/><path class="d" d="M207.31 295.59v10.71l-13.6-4.16v-10.37l13.6 3.82z"/><path class="e" d="M207.31 284.89v10.7l-13.6-3.82V281.4l13.6 3.49z"/><path class="e" d="M207.31 274.18v10.71l-13.6-3.49v-10.38l13.6 3.16z"/><path class="e" d="M207.31 263.47v10.71l-13.6-3.16v-10.37l13.6 2.82z"/><path class="e" d="M207.31 252.77v10.7l-13.6-2.82v-10.37l13.6 2.49zM207.31 242.06v10.71l-13.6-2.49v-10.37l13.6 2.15z"/><path class="e" d="M207.31 231.35v10.71l-13.6-2.15v-10.38l13.6 1.82z"/><path class="e" d="M207.31 220.65v10.7l-13.6-1.82v-10.37l13.6 1.49z"/><path class="e" d="M207.31 209.94v10.71l-13.6-1.49v-10.37l13.6 1.15z"/><path class="e" d="M207.31 199.24v10.7l-13.6-1.15v-10.37l13.6.82z"/><path class="e" d="M207.31 188.53v10.71l-13.6-.82v-10.38l13.6.49z"/><path class="f" d="M207.31 177.82v10.71l-13.6-.49v-10.37l13.6.15z"/><path class="e" d="M207.31 167.12v10.7l-13.6-.15V167.3l13.6-.18z"/><path class="e" d="M207.31 156.41v10.71l-13.6.18v-10.38l13.6-.51z"/><path class="f" d="M207.31 145.71v10.7l-13.6.51v-10.37l13.6-.84z"/><path class="e" d="M207.31 135v10.71l-13.6.84v-10.37l13.6-1.18z"/><path class="e" d="M207.31 124.3V135l-13.6 1.18V125.8l13.6-1.5z"/><path class="e" d="M207.31 113.59v10.71l-13.6 1.5v-10.37l13.6-1.84z"/><path class="e" d="M207.31 102.88v10.71l-13.6 1.84v-10.37l13.6-2.18z"/><path class="e" d="M207.31 92.18v10.7l-13.6 2.18V94.68l13.6-2.5z"/><path class="e" d="M207.31 81.47v10.71l-13.6 2.5V84.31l13.6-2.84z"/><path class="e" d="M207.31 70.77v10.7l-13.6 2.84V73.94l13.6-3.17z"/><path class="e" d="M207.31 60.06v10.71l-13.6 3.17V63.57l13.6-3.51z"/><path class="e" d="M207.31 49.35v10.71l-13.6 3.51V53.19l13.6-3.84z"/><path class="d" d="M207.31 38.65v10.7l-13.6 3.84V42.82l13.6-4.17z"/><path class="e" d="M207.31 27.94v10.71l-13.6 4.17V32.45l13.6-4.51zM193.71 302.14v10.38l-12.79-4.22v-10.06l12.79 3.9z"/><path class="d" d="M193.71 291.77v10.37l-12.79-3.9v-10.06l12.79 3.59z"/><path class="e" d="M193.71 281.4v10.37l-12.79-3.59v-10.06l12.79 3.28z"/><path class="e" d="M193.71 271.02v10.38l-12.79-3.28v-10.06l12.79 2.96z"/><path class="e" d="M193.71 260.65v10.37l-12.79-2.96V258l12.79 2.65z"/><path class="e" d="M193.71 250.28v10.37L180.92 258v-10.06l12.79 2.34zM193.71 239.91v10.37l-12.79-2.34v-10.06l12.79 2.03z"/><path class="e" d="M193.71 229.53v10.38l-12.79-2.03v-10.06l12.79 1.71z"/><path class="e" d="M193.71 219.16v10.37l-12.79-1.71v-10.06l12.79 1.4z"/><path class="e" d="M193.71 208.79v10.37l-12.79-1.4V207.7l12.79 1.09z"/><path class="e" d="M193.71 198.42v10.37l-12.79-1.09v-10.06l12.79.78z"/><path class="e" d="M193.71 188.04v10.38l-12.79-.78v-10.06l12.79.46z"/><path class="f" d="M193.71 177.67v10.37l-12.79-.46v-10.06l12.79.15z"/><path class="e" d="M193.71 167.3v10.37l-12.79-.15v-10.06l12.79-.16zM193.71 156.92v10.38l-12.79.16V157.4l12.79-.48z"/><path class="f" d="M193.71 146.55v10.37l-12.79.48v-10.06l12.79-.79z"/><path class="e" d="M193.71 136.18v10.37l-12.79.79v-10.06l12.79-1.1z"/><path class="e" d="M193.71 125.8v10.38l-12.79 1.1v-10.06l12.79-1.42z"/><path class="e" d="M193.71 115.43v10.37l-12.79 1.42v-10.06l12.79-1.73z"/><path class="e" d="M193.71 105.06v10.37l-12.79 1.73V107.1l12.79-2.04z"/><path class="e" d="M193.71 94.68v10.38l-12.79 2.04V97.04l12.79-2.36z"/><path class="e" d="M193.71 84.31v10.37l-12.79 2.36V86.98l12.79-2.67z"/><path class="e" d="M193.71 73.94v10.37l-12.79 2.67V76.92l12.79-2.98z"/><path class="e" d="M193.71 63.57v10.37l-12.79 2.98V66.86l12.79-3.29z"/><path class="e" d="M193.71 53.19v10.38l-12.79 3.29V56.8l12.79-3.61z"/><path class="d" d="M193.71 42.82v10.37l-12.79 3.61V46.74l12.79-3.92z"/><path class="e" d="M193.71 32.45v10.37l-12.79 3.92V36.68l12.79-4.23zM180.92 298.24v10.06l-12.04-3.97v-9.76l12.04 3.67z"/><path class="d" d="M180.92 288.18v10.06l-12.04-3.67v-9.77l12.04 3.38z"/><path class="e" d="M180.92 278.12v10.06l-12.04-3.38v-9.76l12.04 3.08z"/><path class="e" d="M180.92 268.06v10.06l-12.04-3.08v-9.77l12.04 2.79zM180.92 258v10.06l-12.04-2.79v-9.76l12.04 2.49z"/><path class="e" d="M180.92 247.94V258l-12.04-2.49v-9.77l12.04 2.2z"/><path class="f" d="M180.92 237.88v10.06l-12.04-2.2v-9.76l12.04 1.9zM180.92 227.82v10.06l-12.04-1.9v-9.77l12.04 1.61z"/><path class="f" d="M180.92 217.76v10.06l-12.04-1.61v-9.76l12.04 1.31z"/><path class="f" d="M180.92 207.7v10.06l-12.04-1.31v-9.77l12.04 1.02z"/><path class="f" d="M180.92 197.64v10.06l-12.04-1.02v-9.77l12.04.73z"/><path class="f" d="M180.92 187.58v10.06l-12.04-.73v-9.76l12.04.43zM180.92 177.52v10.06l-12.04-.43v-9.77l12.04.14z"/><path class="e" d="M180.92 167.46v10.06l-12.04-.14v-9.76l12.04-.16zM180.92 157.4v10.06l-12.04.16v-9.77l12.04-.45z"/><path class="f" d="M180.92 147.34v10.06l-12.04.45v-9.76l12.04-.75z"/><path class="e" d="M180.92 137.28v10.06l-12.04.75v-9.77l12.04-1.04z"/><path class="e" d="M180.92 127.22v10.06l-12.04 1.04v-9.77l12.04-1.33z"/><path class="e" d="M180.92 117.16v10.06l-12.04 1.33v-9.76l12.04-1.63zM180.92 107.1v10.06l-12.04 1.63v-9.77l12.04-1.92z"/><path class="e" d="M180.92 97.04v10.06l-12.04 1.92v-9.76l12.04-2.22z"/><path class="e" d="M180.92 86.98v10.06l-12.04 2.22v-9.77l12.04-2.51z"/><path class="e" d="M180.92 76.92v10.06l-12.04 2.51v-9.76l12.04-2.81z"/><path class="e" d="M180.92 66.86v10.06l-12.04 2.81v-9.77l12.04-3.1zM180.92 56.8v10.06l-12.04 3.1V60.2l12.04-3.4z"/><path class="d" d="M180.92 46.74V56.8l-12.04 3.4v-9.77l12.04-3.69z"/><path class="e" d="M180.92 36.68v10.06l-12.04 3.69v-9.76l12.04-3.99zM168.88 294.57v9.76l-11.35-3.74v-9.48l11.35 3.46z"/><path class="d" d="M168.88 284.8v9.77l-11.35-3.46v-9.49l11.35 3.18z"/><path class="e" d="M168.88 275.04v9.76l-11.35-3.18v-9.49l11.35 2.91zM168.88 265.27v9.77l-11.35-2.91v-9.49l11.35 2.63z"/><path class="e" d="M168.88 255.51v9.76l-11.35-2.63v-9.49l11.35 2.36z"/><path class="e" d="M168.88 245.74v9.77l-11.35-2.36v-9.48l11.35 2.07zM168.88 235.98v9.76l-11.35-2.07v-9.49l11.35 1.8z"/><path class="e" d="M168.88 226.21v9.77l-11.35-1.8v-9.49l11.35 1.52zM168.88 216.45v9.76l-11.35-1.52v-9.49l11.35 1.25z"/><path class="e" d="M168.88 206.68v9.77l-11.35-1.25v-9.49l11.35.97z"/><path class="e" d="M168.88 196.91v9.77l-11.35-.97v-9.48l11.35.68zM168.88 187.15v9.76l-11.35-.68v-9.49l11.35.41z"/><path class="f" d="M168.88 177.38v9.77l-11.35-.41v-9.49l11.35.13z"/><path class="e" d="M168.88 167.62v9.76l-11.35-.13v-9.49l11.35-.14z"/><path class="e" d="M168.88 157.85v9.77l-11.35.14v-9.48l11.35-.43z"/><path class="f" d="M168.88 148.09v9.76l-11.35.43v-9.49l11.35-.7z"/><path class="f" d="M168.88 138.32v9.77l-11.35.7v-9.49l11.35-.98z"/><path class="f" d="M168.88 128.55v9.77l-11.35.98v-9.49l11.35-1.26z"/><path class="f" d="M168.88 118.79v9.76l-11.35 1.26v-9.48l11.35-1.54z"/><path class="f" d="M168.88 109.02v9.77l-11.35 1.54v-9.49l11.35-1.82z"/><path class="f" d="M168.88 99.26v9.76l-11.35 1.82v-9.49l11.35-2.09zM168.88 89.49v9.77l-11.35 2.09v-9.49l11.35-2.37z"/><path class="e" d="M168.88 79.73v9.76l-11.35 2.37v-9.48l11.35-2.65zM168.88 69.96v9.77l-11.35 2.65v-9.49l11.35-2.93z"/><path class="e" d="M168.88 60.2v9.76l-11.35 2.93V63.4l11.35-3.2z"/><path class="d" d="M168.88 50.43v9.77l-11.35 3.2v-9.49l11.35-3.48z"/><path class="e" d="M168.88 40.67v9.76l-11.35 3.48v-9.49l11.35-3.75zM157.53 291.11v9.48l-10.72-3.53v-9.23l10.72 3.28z"/><path class="d" d="M157.53 281.62v9.49l-10.72-3.28v-9.22l10.72 3.01z"/><path class="e" d="M157.53 272.13v9.49l-10.72-3.01v-9.23l10.72 2.75z"/><path class="e" d="M157.53 262.64v9.49l-10.72-2.75v-9.22l10.72 2.48z"/><path class="e" d="M157.53 253.15v9.49l-10.72-2.48v-9.23l10.72 2.22z"/><path class="e" d="M157.53 243.67v9.48l-10.72-2.22v-9.23l10.72 1.97z"/><path class="e" d="M157.53 234.18v9.49l-10.72-1.97v-9.22l10.72 1.7z"/><path class="e" d="M157.53 224.69v9.49l-10.72-1.7v-9.23l10.72 1.44zM157.53 215.2v9.49l-10.72-1.44v-9.22l10.72 1.17z"/><path class="e" d="M157.53 205.71v9.49l-10.72-1.17v-9.23l10.72.91zM157.53 196.23v9.48l-10.72-.91v-9.22l10.72.65z"/><path class="e" d="M157.53 186.74v9.49l-10.72-.65v-9.23l10.72.39z"/><path class="f" d="M157.53 177.25v9.49l-10.72-.39v-9.22l10.72.12z"/><path class="e" d="M157.53 167.76v9.49l-10.72-.12v-9.23l10.72-.14zM157.53 158.28v9.48l-10.72.14v-9.22l10.72-.4z"/><path class="e" d="M157.53 148.79v9.49l-10.72.4v-9.23l10.72-.66z"/><path class="e" d="M157.53 139.3v9.49l-10.72.66v-9.22l10.72-.93z"/><path class="e" d="M157.53 129.81v9.49l-10.72.93V131l10.72-1.19z"/><path class="e" d="M157.53 120.33v9.48L146.81 131v-9.22l10.72-1.45z"/><path class="e" d="M157.53 110.84v9.49l-10.72 1.45v-9.23l10.72-1.71zM157.53 101.35v9.49l-10.72 1.71v-9.22l10.72-1.98z"/><path class="e" d="M157.53 91.86v9.49l-10.72 1.98V94.1l10.72-2.24z"/><path class="e" d="M157.53 82.38v9.48l-10.72 2.24v-9.23l10.72-2.49z"/><path class="e" d="M157.53 72.89v9.49l-10.72 2.49v-9.22l10.72-2.76z"/><path class="e" d="M157.53 63.4v9.49l-10.72 2.76v-9.23l10.72-3.02z"/><path class="d" d="M157.53 53.91v9.49l-10.72 3.02V57.2l10.72-3.29z"/><path class="e" d="M157.53 44.42v9.49l-10.72 3.29v-9.23l10.72-3.55zM146.81 287.83v9.23l-10.14-3.35v-8.97l10.14 3.09z"/><path class="d" d="M146.81 278.61v9.22l-10.14-3.09v-8.98l10.14 2.85z"/><path class="e" d="M146.81 269.38v9.23l-10.14-2.85v-8.98l10.14 2.6z"/><path class="e" d="M146.81 260.16v9.22l-10.14-2.6v-8.98l10.14 2.36z"/><path class="e" d="M146.81 250.93v9.23l-10.14-2.36v-8.97l10.14 2.1zM146.81 241.7v9.23l-10.14-2.1v-8.98l10.14 1.85z"/><path class="e" d="M146.81 232.48v9.22l-10.14-1.85v-8.98l10.14 1.61zM146.81 223.25v9.23l-10.14-1.61v-8.97l10.14 1.35z"/><path class="e" d="M146.81 214.03v9.22l-10.14-1.35v-8.98l10.14 1.11zM146.81 204.8v9.23l-10.14-1.11v-8.98l10.14.86z"/><path class="e" d="M146.81 195.58v9.22l-10.14-.86v-8.97l10.14.61zM146.81 186.35v9.23l-10.14-.61v-8.98l10.14.36z"/><path class="e" d="M146.81 177.13v9.22l-10.14-.36v-8.98l10.14.12z"/><path class="e" d="M146.81 167.9v9.23l-10.14-.12v-8.97l10.14-.14z"/><path class="e" d="M146.81 158.68v9.22l-10.14.14v-8.98l10.14-.38z"/><path class="f" d="M146.81 149.45v9.23l-10.14.38v-8.98l10.14-.63z"/><path class="e" d="M146.81 140.23v9.22l-10.14.63v-8.98l10.14-.87z"/><path class="e" d="M146.81 131v9.23l-10.14.87v-8.97l10.14-1.13z"/><path class="e" d="M146.81 121.78V131l-10.14 1.13v-8.98l10.14-1.37z"/><path class="e" d="M146.81 112.55v9.23l-10.14 1.37v-8.98l10.14-1.62z"/><path class="e" d="M146.81 103.33v9.22l-10.14 1.62v-8.98l10.14-1.86z"/><path class="f" d="M146.81 94.1v9.23l-10.14 1.86v-8.97l10.14-2.12z"/><path class="e" d="M146.81 84.87v9.23l-10.14 2.12v-8.98l10.14-2.37z"/><path class="e" d="M146.81 75.65v9.22l-10.14 2.37v-8.97l10.14-2.62z"/><path class="e" d="M146.81 66.42v9.23l-10.14 2.62v-8.98l10.14-2.87z"/><path class="d" d="M146.81 57.2v9.22l-10.14 2.87v-8.98l10.14-3.11z"/><path class="e" d="M146.81 47.97v9.23l-10.14 3.11v-8.98l10.14-3.36zM136.67 284.74v8.97l-9.62-3.17v-8.74l9.62 2.94z"/><path class="d" d="M136.67 275.76v8.98l-9.62-2.94v-8.74l9.62 2.7z"/><path class="e" d="M136.67 266.78v8.98l-9.62-2.7v-8.74l9.62 2.46z"/><path class="e" d="M136.67 257.8v8.98l-9.62-2.46v-8.74l9.62 2.22zM136.67 248.83v8.97l-9.62-2.22v-8.75l9.62 2zM136.67 239.85v8.98l-9.62-2v-8.74l9.62 1.76z"/><path class="f" d="M136.67 230.87v8.98l-9.62-1.76v-8.74l9.62 1.52z"/><path class="f" d="M136.67 221.9v8.97l-9.62-1.52v-8.74l9.62 1.29z"/><path class="f" d="M136.67 212.92v8.98l-9.62-1.29v-8.74l9.62 1.05z"/><path class="e" d="M136.67 203.94v8.98l-9.62-1.05v-8.74l9.62.81z"/><path class="f" d="M136.67 194.97v8.97l-9.62-.81v-8.75l9.62.59z"/><path class="f" d="M136.67 185.99v8.98l-9.62-.59v-8.74l9.62.35z"/><path class="e" d="M136.67 177.01v8.98l-9.62-.35v-8.74l9.62.11z"/><path class="e" d="M136.67 168.04v8.97l-9.62-.11v-8.74l9.62-.12z"/><path class="e" d="M136.67 159.06v8.98l-9.62.12v-8.74l9.62-.36z"/><path class="f" d="M136.67 150.08v8.98l-9.62.36v-8.74l9.62-.6z"/><path class="e" d="M136.67 141.1v8.98l-9.62.6v-8.75l9.62-.83z"/><path class="e" d="M136.67 132.13v8.97l-9.62.83v-8.74l9.62-1.06z"/><path class="f" d="M136.67 123.15v8.98l-9.62 1.06v-8.74l9.62-1.3z"/><path class="e" d="M136.67 114.17v8.98l-9.62 1.3v-8.74l9.62-1.54z"/><path class="e" d="M136.67 105.19v8.98l-9.62 1.54v-8.74l9.62-1.78z"/><path class="f" d="M136.67 96.22v8.97l-9.62 1.78v-8.74l9.62-2.01z"/><path class="e" d="M136.67 87.24v8.98l-9.62 2.01v-8.75l9.62-2.24zM136.67 78.27v8.97l-9.62 2.24v-8.74l9.62-2.47z"/><path class="e" d="M136.67 69.29v8.98l-9.62 2.47V72l9.62-2.71z"/><path class="d" d="M136.67 60.31v8.98L127.05 72v-8.74l9.62-2.95z"/><path class="e" d="M136.67 51.33v8.98l-9.62 2.95v-8.74l9.62-3.19zM127.05 281.8v8.74l-9.12-3.01v-8.51l9.12 2.78z"/><path class="d" d="M127.05 273.06v8.74l-9.12-2.78v-8.52l9.12 2.56z"/><path class="e" d="M127.05 264.32v8.74l-9.12-2.56v-8.52l9.12 2.34z"/><path class="e" d="M127.05 255.58v8.74l-9.12-2.34v-8.52l9.12 2.12z"/><path class="e" d="M127.05 246.83v8.75l-9.12-2.12v-8.52l9.12 1.89z"/><path class="e" d="M127.05 238.09v8.74l-9.12-1.89v-8.52l9.12 1.67z"/><path class="e" d="M127.05 229.35v8.74l-9.12-1.67v-8.51l9.12 1.44z"/><path class="e" d="M127.05 220.61v8.74l-9.12-1.44v-8.52l9.12 1.22z"/><path class="e" d="M127.05 211.87v8.74l-9.12-1.22v-8.52l9.12 1z"/><path class="f" d="M127.05 203.13v8.74l-9.12-1v-8.52l9.12.78z"/><path class="e" d="M127.05 194.38v8.75l-9.12-.78v-8.52l9.12.55z"/><path class="e" d="M127.05 185.64v8.74l-9.12-.55v-8.52l9.12.33z"/><path class="f" d="M127.05 176.9v8.74l-9.12-.33v-8.51l9.12.1z"/><path class="e" d="M127.05 168.16v8.74l-9.12-.1v-8.52l9.12-.12z"/><path class="e" d="M127.05 159.42v8.74l-9.12.12v-8.52l9.12-.34z"/><path class="f" d="M127.05 150.68v8.74l-9.12.34v-8.52l9.12-.56z"/><path class="e" d="M127.05 141.93v8.75l-9.12.56v-8.52l9.12-.79z"/><path class="e" d="M127.05 133.19v8.74l-9.12.79v-8.52l9.12-1.01z"/><path class="f" d="M127.05 124.45v8.74l-9.12 1.01v-8.52l9.12-1.23z"/><path class="e" d="M127.05 115.71v8.74l-9.12 1.23v-8.51l9.12-1.46z"/><path class="e" d="M127.05 106.97v8.74l-9.12 1.46v-8.52l9.12-1.68z"/><path class="f" d="M127.05 98.23v8.74l-9.12 1.68v-8.52l9.12-1.9z"/><path class="e" d="M127.05 89.48v8.75l-9.12 1.9v-8.52l9.12-2.13zM127.05 80.74v8.74l-9.12 2.13v-8.52l9.12-2.35z"/><path class="e" d="M127.05 72v8.74l-9.12 2.35v-8.52l9.12-2.57z"/><path class="d" d="M127.05 63.26V72l-9.12 2.57v-8.51l9.12-2.8z"/><path class="e" d="M127.05 54.52v8.74l-9.12 2.8v-8.52l9.12-3.02zM117.93 279.02v8.51l-8.67-2.85v-8.31l8.67 2.65z"/><path class="d" d="M117.93 270.5v8.52l-8.67-2.65v-8.31l8.67 2.44z"/><path class="e" d="M117.93 261.98v8.52l-8.67-2.44v-8.3l8.67 2.22z"/><path class="e" d="M117.93 253.46v8.52l-8.67-2.22v-8.31l8.67 2.01z"/><path class="e" d="M117.93 244.94v8.52l-8.67-2.01v-8.3l8.67 1.79z"/><path class="e" d="M117.93 236.42v8.52l-8.67-1.79v-8.31l8.67 1.58zM117.93 227.91v8.51l-8.67-1.58v-8.31l8.67 1.38z"/><path class="e" d="M117.93 219.39v8.52l-8.67-1.38v-8.3l8.67 1.16z"/><path class="e" d="M117.93 210.87v8.52l-8.67-1.16v-8.31l8.67.95z"/><path class="f" d="M117.93 202.35v8.52l-8.67-.95v-8.31l8.67.74z"/><path class="e" d="M117.93 193.83v8.52l-8.67-.74v-8.3l8.67.52z"/><path class="e" d="M117.93 185.31v8.52l-8.67-.52V185l8.67.31z"/><path class="f" d="M117.93 176.8v8.51l-8.67-.31v-8.3l8.67.1z"/><path class="e" d="M117.93 168.28v8.52l-8.67-.1v-8.31l8.67-.11z"/><path class="e" d="M117.93 159.76v8.52l-8.67.11v-8.31l8.67-.32z"/><path class="f" d="M117.93 151.24v8.52l-8.67.32v-8.3l8.67-.54z"/><path class="f" d="M117.93 142.72v8.52l-8.67.54v-8.31l8.67-.75z"/><path class="f" d="M117.93 134.2v8.52l-8.67.75v-8.31l8.67-.96z"/><path class="f" d="M117.93 125.68v8.52l-8.67.96v-8.3l8.67-1.18zM117.93 117.17v8.51l-8.67 1.18v-8.31l8.67-1.38zM117.93 108.65v8.52l-8.67 1.38v-8.3l8.67-1.6zM117.93 100.13v8.52l-8.67 1.6v-8.31l8.67-1.81z"/><path class="e" d="M117.93 91.61v8.52l-8.67 1.81v-8.31l8.67-2.02z"/><path class="e" d="M117.93 83.09v8.52l-8.67 2.02v-8.3l8.67-2.24zM117.93 74.57v8.52l-8.67 2.24v-8.31l8.67-2.45z"/><path class="d" d="M117.93 66.06v8.51l-8.67 2.45v-8.31l8.67-2.65z"/><path class="e" d="M117.93 57.54v8.52l-8.67 2.65v-8.3l8.67-2.87zM109.26 276.37v8.31l-8.24-2.72v-8.11l8.24 2.52z"/><path class="d" d="M109.26 268.06v8.31l-8.24-2.52v-8.1l8.24 2.31z"/><path class="e" d="M109.26 259.76v8.3l-8.24-2.31v-8.11l8.24 2.12z"/><path class="e" d="M109.26 251.45v8.31l-8.24-2.12v-8.1l8.24 1.91z"/><path class="e" d="M109.26 243.15v8.3l-8.24-1.91v-8.1l8.24 1.71zM109.26 234.84v8.31l-8.24-1.71v-8.11l8.24 1.51z"/><path class="f" d="M109.26 226.53v8.31l-8.24-1.51v-8.1l8.24 1.3zM109.26 218.23v8.3l-8.24-1.3v-8.11l8.24 1.11zM109.26 209.92v8.31l-8.24-1.11v-8.1l8.24.9z"/><path class="f" d="M109.26 201.61v8.31l-8.24-.9v-8.11l8.24.7z"/><path class="f" d="M109.26 193.31v8.3l-8.24-.7v-8.1l8.24.5zM109.26 185v8.31l-8.24-.5v-8.11l8.24.3z"/><path class="f" d="M109.26 176.7v8.3l-8.24-.3v-8.1l8.24.1z"/><path class="e" d="M109.26 168.39v8.31l-8.24-.1v-8.1l8.24-.11z"/><path class="e" d="M109.26 160.08v8.31l-8.24.11v-8.11l8.24-.31zM109.26 151.78v8.3l-8.24.31v-8.1l8.24-.51zM109.26 143.47v8.31l-8.24.51v-8.11l8.24-.71z"/><path class="e" d="M109.26 135.16v8.31l-8.24.71v-8.1l8.24-.92zM109.26 126.86v8.3l-8.24.92v-8.11l8.24-1.11z"/><path class="e" d="M109.26 118.55v8.31l-8.24 1.11v-8.1l8.24-1.32zM109.26 110.25v8.3l-8.24 1.32v-8.1l8.24-1.52z"/><path class="e" d="M109.26 101.94v8.31l-8.24 1.52v-8.11l8.24-1.72z"/><path class="e" d="M109.26 93.63v8.31l-8.24 1.72v-8.1l8.24-1.93z"/><path class="e" d="M109.26 85.33v8.3l-8.24 1.93v-8.11l8.24-2.12z"/><path class="e" d="M109.26 77.02v8.31l-8.24 2.12v-8.1l8.24-2.33z"/><path class="d" d="M109.26 68.71v8.31l-8.24 2.33v-8.11l8.24-2.53z"/><path class="e" d="M109.26 60.41v8.3l-8.24 2.53v-8.1l8.24-2.73zM101.02 273.85v8.11l-7.86-2.59v-7.91l7.86 2.39z"/><path class="d" d="M101.02 265.75v8.1l-7.86-2.39v-7.92l7.86 2.21z"/><path class="e" d="M101.02 257.64v8.11l-7.86-2.21v-7.91l7.86 2.01zM101.02 249.54v8.1l-7.86-2.01v-7.91l7.86 1.82z"/><path class="e" d="M101.02 241.44v8.1l-7.86-1.82v-7.91l7.86 1.63z"/><path class="e" d="M101.02 233.33v8.11l-7.86-1.63v-7.92l7.86 1.44zM101.02 225.23v8.1l-7.86-1.44v-7.91l7.86 1.25z"/><path class="e" d="M101.02 217.12v8.11l-7.86-1.25v-7.91l7.86 1.05zM101.02 209.02v8.1l-7.86-1.05v-7.91l7.86.86zM101.02 200.91v8.11l-7.86-.86v-7.91l7.86.66z"/><path class="e" d="M101.02 192.81v8.1l-7.86-.66v-7.91l7.86.47z"/><path class="e" d="M101.02 184.7v8.11l-7.86-.47v-7.92l7.86.28zM101.02 176.6v8.1l-7.86-.28v-7.91l7.86.09z"/><path class="e" d="M101.02 168.5v8.1l-7.86-.09v-7.91l7.86-.1z"/><path class="e" d="M101.02 160.39v8.11l-7.86.1v-7.91l7.86-.3z"/><path class="f" d="M101.02 152.29v8.1l-7.86.3v-7.92l7.86-.48z"/><path class="f" d="M101.02 144.18v8.11l-7.86.48v-7.91l7.86-.68z"/><path class="f" d="M101.02 136.08v8.1l-7.86.68v-7.91l7.86-.87z"/><path class="e" d="M101.02 127.97v8.11l-7.86.87v-7.91l7.86-1.07z"/><path class="f" d="M101.02 119.87v8.1l-7.86 1.07v-7.91l7.86-1.26z"/><path class="f" d="M101.02 111.77v8.1l-7.86 1.26v-7.92l7.86-1.44z"/><path class="f" d="M101.02 103.66v8.11l-7.86 1.44v-7.91l7.86-1.64z"/><path class="e" d="M101.02 95.56v8.1l-7.86 1.64v-7.91l7.86-1.83z"/><path class="e" d="M101.02 87.45v8.11l-7.86 1.83v-7.91l7.86-2.03zM101.02 79.35v8.1l-7.86 2.03v-7.92l7.86-2.21z"/><path class="d" d="M101.02 71.24v8.11l-7.86 2.21v-7.91l7.86-2.41z"/><path class="e" d="M101.02 63.14v8.1l-7.86 2.41v-7.91l7.86-2.6zM93.16 271.46v7.91l-7.49-2.47v-7.73l7.49 2.29z"/><path class="d" d="M93.16 263.54v7.92l-7.49-2.29v-7.73l7.49 2.1z"/><path class="e" d="M93.16 255.63v7.91l-7.49-2.1v-7.73l7.49 1.92z"/><path class="e" d="M93.16 247.72v7.91l-7.49-1.92v-7.73l7.49 1.74zM93.16 239.81v7.91l-7.49-1.74v-7.73l7.49 1.56zM93.16 231.89v7.92l-7.49-1.56v-7.72l7.49 1.36z"/><path class="f" d="M93.16 223.98v7.91l-7.49-1.36v-7.73l7.49 1.18z"/><path class="f" d="M93.16 216.07v7.91l-7.49-1.18v-7.73l7.49 1z"/><path class="f" d="M93.16 208.16v7.91l-7.49-1v-7.73l7.49.82z"/><path class="f" d="M93.16 200.25v7.91l-7.49-.82v-7.73l7.49.64z"/><path class="f" d="M93.16 192.34v7.91l-7.49-.64v-7.73l7.49.46zM93.16 184.42v7.92l-7.49-.46v-7.73l7.49.27z"/><path class="e" d="M93.16 176.51v7.91l-7.49-.27v-7.73l7.49.09z"/><path class="e" d="M93.16 168.6v7.91l-7.49-.09v-7.72l7.49-.1z"/><path class="e" d="M93.16 160.69v7.91l-7.49.1v-7.73l7.49-.28z"/><path class="e" d="M93.16 152.77v7.92l-7.49.28v-7.73l7.49-.47z"/><path class="e" d="M93.16 144.86v7.91l-7.49.47v-7.73l7.49-.65zM93.16 136.95v7.91l-7.49.65v-7.73l7.49-.83z"/><path class="f" d="M93.16 129.04v7.91l-7.49.83v-7.73l7.49-1.01z"/><path class="e" d="M93.16 121.13v7.91l-7.49 1.01v-7.73l7.49-1.19z"/><path class="e" d="M93.16 113.21v7.92l-7.49 1.19v-7.73l7.49-1.38z"/><path class="e" d="M93.16 105.3v7.91l-7.49 1.38v-7.72l7.49-1.57z"/><path class="e" d="M93.16 97.39v7.91l-7.49 1.57v-7.73l7.49-1.75z"/><path class="e" d="M93.16 89.48v7.91l-7.49 1.75v-7.73l7.49-1.93z"/><path class="e" d="M93.16 81.56v7.92l-7.49 1.93v-7.73l7.49-2.12z"/><path class="d" d="M93.16 73.65v7.91l-7.49 2.12v-7.73l7.49-2.3z"/><path class="e" d="M93.16 65.74v7.91l-7.49 2.3v-7.73l7.49-2.48zM85.67 269.17v7.73l-7.16-2.36v-7.55l7.16 2.18z"/><path class="d" d="M85.67 261.44v7.73l-7.16-2.18v-7.56l7.16 2.01z"/><path class="e" d="M85.67 253.71v7.73l-7.16-2.01v-7.55l7.16 1.83zM85.67 245.98v7.73l-7.16-1.83v-7.56l7.16 1.66z"/><path class="e" d="M85.67 238.25v7.73l-7.16-1.66v-7.55l7.16 1.48z"/><path class="e" d="M85.67 230.53v7.72l-7.16-1.48v-7.55l7.16 1.31z"/><path class="e" d="M85.67 222.8v7.73l-7.16-1.31v-7.56l7.16 1.14z"/><path class="e" d="M85.67 215.07v7.73l-7.16-1.14v-7.55l7.16.96z"/><path class="e" d="M85.67 207.34v7.73l-7.16-.96v-7.55l7.16.78z"/><path class="f" d="M85.67 199.61v7.73l-7.16-.78V199l7.16.61z"/><path class="e" d="M85.67 191.88v7.73l-7.16-.61v-7.55l7.16.43z"/><path class="e" d="M85.67 184.15v7.73l-7.16-.43v-7.55l7.16.25z"/><path class="f" d="M85.67 176.42v7.73l-7.16-.25v-7.56l7.16.08z"/><path class="e" d="M85.67 168.7v7.72l-7.16-.08v-7.55l7.16-.09z"/><path class="e" d="M85.67 160.97v7.73l-7.16.09v-7.56l7.16-.26z"/><path class="e" d="M85.67 153.24v7.73l-7.16.26v-7.55l7.16-.44z"/><path class="e" d="M85.67 145.51v7.73l-7.16.44v-7.55l7.16-.62z"/><path class="e" d="M85.67 137.78v7.73l-7.16.62v-7.56l7.16-.79z"/><path class="f" d="M85.67 130.05v7.73l-7.16.79v-7.55l7.16-.97z"/><path class="e" d="M85.67 122.32v7.73l-7.16.97v-7.56l7.16-1.14z"/><path class="e" d="M85.67 114.59v7.73l-7.16 1.14v-7.55l7.16-1.32zM85.67 106.87v7.72l-7.16 1.32v-7.55l7.16-1.49z"/><path class="e" d="M85.67 99.14v7.73l-7.16 1.49v-7.56l7.16-1.66z"/><path class="e" d="M85.67 91.41v7.73l-7.16 1.66v-7.55l7.16-1.84z"/><path class="e" d="M85.67 83.68v7.73l-7.16 1.84V85.7l7.16-2.02z"/><path class="d" d="M85.67 75.95v7.73l-7.16 2.02v-7.56l7.16-2.19z"/><path class="e" d="M85.67 68.22v7.73l-7.16 2.19v-7.55l7.16-2.37zM78.51 266.99v7.55l-6.83-2.25v-7.39l6.83 2.09z"/><path class="d" d="M78.51 259.43v7.56l-6.83-2.09v-7.39l6.83 1.92z"/><path class="e" d="M78.51 251.88v7.55l-6.83-1.92v-7.38l6.83 1.75z"/><path class="e" d="M78.51 244.32v7.56l-6.83-1.75v-7.39l6.83 1.58z"/><path class="e" d="M78.51 236.77v7.55l-6.83-1.58v-7.39l6.83 1.42z"/><path class="e" d="M78.51 229.22v7.55l-6.83-1.42v-7.38l6.83 1.25zM78.51 221.66v7.56l-6.83-1.25v-7.39l6.83 1.08z"/><path class="e" d="M78.51 214.11v7.55l-6.83-1.08v-7.38l6.83.91z"/><path class="e" d="M78.51 206.56v7.55l-6.83-.91v-7.39l6.83.75z"/><path class="f" d="M78.51 199v7.56l-6.83-.75v-7.39l6.83.58z"/><path class="e" d="M78.51 191.45V199l-6.83-.58v-7.38l6.83.41z"/><path class="e" d="M78.51 183.9v7.55l-6.83-.41v-7.39l6.83.25z"/><path class="f" d="M78.51 176.34v7.56l-6.83-.25v-7.39l6.83.08z"/><path class="e" d="M78.51 168.79v7.55l-6.83-.08v-7.38l6.83-.09z"/><path class="e" d="M78.51 161.23v7.56l-6.83.09v-7.39l6.83-.26z"/><path class="f" d="M78.51 153.68v7.55l-6.83.26v-7.39l6.83-.42zM78.51 146.13v7.55l-6.83.42v-7.38l6.83-.59z"/><path class="f" d="M78.51 138.57v7.56l-6.83.59v-7.39l6.83-.76z"/><path class="e" d="M78.51 131.02v7.55l-6.83.76v-7.39l6.83-.92z"/><path class="f" d="M78.51 123.46v7.56l-6.83.92v-7.38l6.83-1.1z"/><path class="f" d="M78.51 115.91v7.55l-6.83 1.1v-7.39l6.83-1.26z"/><path class="f" d="M78.51 108.36v7.55l-6.83 1.26v-7.38l6.83-1.43z"/><path class="e" d="M78.51 100.8v7.56l-6.83 1.43v-7.39l6.83-1.6zM78.51 93.25v7.55l-6.83 1.6v-7.39l6.83-1.76z"/><path class="e" d="M78.51 85.7v7.55l-6.83 1.76v-7.38l6.83-1.93z"/><path class="d" d="M78.51 78.14v7.56l-6.83 1.93v-7.39l6.83-2.1z"/><path class="e" d="M78.51 70.59v7.55l-6.83 2.1v-7.39l6.83-2.26zM71.68 264.9v7.39l-6.54-2.16v-7.23l6.54 2z"/><path class="d" d="M71.68 257.51v7.39l-6.54-2v-7.22l6.54 1.83z"/><path class="e" d="M71.68 250.13v7.38l-6.54-1.83v-7.23l6.54 1.68z"/><path class="e" d="M71.68 242.74v7.39l-6.54-1.68v-7.22l6.54 1.51z"/><path class="e" d="M71.68 235.35v7.39l-6.54-1.51V234l6.54 1.35z"/><path class="e" d="M71.68 227.97v7.38L65.14 234v-7.23l6.54 1.2z"/><path class="f" d="M71.68 220.58v7.39l-6.54-1.2v-7.22l6.54 1.03zM71.68 213.2v7.38l-6.54-1.03v-7.23l6.54.88z"/><path class="f" d="M71.68 205.81v7.39l-6.54-.88v-7.23l6.54.72zM71.68 198.42v7.39l-6.54-.72v-7.22l6.54.55z"/><path class="f" d="M71.68 191.04v7.38l-6.54-.55v-7.23l6.54.4z"/><path class="f" d="M71.68 183.65v7.39l-6.54-.4v-7.23l6.54.24z"/><path class="e" d="M71.68 176.26v7.39l-6.54-.24v-7.22l6.54.07z"/><path class="e" d="M71.68 168.88v7.38l-6.54-.07v-7.23l6.54-.08z"/><path class="e" d="M71.68 161.49v7.39l-6.54.08v-7.23l6.54-.24zM71.68 154.1v7.39l-6.54.24v-7.22l6.54-.41z"/><path class="e" d="M71.68 146.72v7.38l-6.54.41v-7.23l6.54-.56z"/><path class="e" d="M71.68 139.33v7.39l-6.54.56v-7.22l6.54-.73zM71.68 131.94v7.39l-6.54.73v-7.23l6.54-.89z"/><path class="e" d="M71.68 124.56v7.38l-6.54.89v-7.23l6.54-1.04z"/><path class="e" d="M71.68 117.17v7.39l-6.54 1.04v-7.22l6.54-1.21zM71.68 109.79v7.38l-6.54 1.21v-7.23l6.54-1.36z"/><path class="e" d="M71.68 102.4v7.39l-6.54 1.36v-7.23l6.54-1.52z"/><path class="e" d="M71.68 95.01v7.39l-6.54 1.52V96.7l6.54-1.69zM71.68 87.63v7.38l-6.54 1.69v-7.23l6.54-1.84z"/><path class="d" d="M71.68 80.24v7.39l-6.54 1.84v-7.23l6.54-2z"/><path class="e" d="M71.68 72.85v7.39l-6.54 2v-7.22l6.54-2.17zM65.14 262.9v7.23l-6.26-2.06v-7.08l6.26 1.91z"/><path class="d" d="M65.14 255.68v7.22l-6.26-1.91v-7.07l6.26 1.76z"/><path class="e" d="M65.14 248.45v7.23l-6.26-1.76v-7.07l6.26 1.6z"/><path class="e" d="M65.14 241.23v7.22l-6.26-1.6v-7.08l6.26 1.46z"/><path class="e" d="M65.14 234v7.23l-6.26-1.46v-7.07l6.26 1.3z"/><path class="e" d="M65.14 226.77V234l-6.26-1.3v-7.07l6.26 1.14z"/><path class="e" d="M65.14 219.55v7.22l-6.26-1.14v-7.08l6.26 1zM65.14 212.32v7.23l-6.26-1v-7.07l6.26.84z"/><path class="e" d="M65.14 205.09v7.23l-6.26-.84v-7.07l6.26.68z"/><path class="e" d="M65.14 197.87v7.22l-6.26-.68v-7.07l6.26.53zM65.14 190.64v7.23l-6.26-.53v-7.08l6.26.38z"/><path class="e" d="M65.14 183.41v7.23l-6.26-.38v-7.07l6.26.22z"/><path class="e" d="M65.14 176.19v7.22l-6.26-.22v-7.07l6.26.07z"/><path class="e" d="M65.14 168.96v7.23l-6.26-.07v-7.08l6.26-.08z"/><path class="e" d="M65.14 161.73v7.23l-6.26.08v-7.07l6.26-.24z"/><path class="f" d="M65.14 154.51v7.22l-6.26.24v-7.07l6.26-.39z"/><path class="e" d="M65.14 147.28v7.23l-6.26.39v-7.08l6.26-.54z"/><path class="e" d="M65.14 140.06v7.22l-6.26.54v-7.07l6.26-.69z"/><path class="e" d="M65.14 132.83v7.23l-6.26.69v-7.07l6.26-.85zM65.14 125.6v7.23l-6.26.85v-7.08l6.26-1z"/><path class="e" d="M65.14 118.38v7.22l-6.26 1v-7.07l6.26-1.15z"/><path class="f" d="M65.14 111.15v7.23l-6.26 1.15v-7.07l6.26-1.31z"/><path class="e" d="M65.14 103.92v7.23l-6.26 1.31v-7.08l6.26-1.46zM65.14 96.7v7.22l-6.26 1.46v-7.07l6.26-1.61z"/><path class="e" d="M65.14 89.47v7.23l-6.26 1.61v-7.07l6.26-1.77z"/><path class="d" d="M65.14 82.24v7.23l-6.26 1.77v-7.07l6.26-1.93z"/><path class="e" d="M65.14 75.02v7.22l-6.26 1.93v-7.08l6.26-2.07zM58.88 260.99v7.08l-6-1.98v-6.93l6 1.83z"/><path class="d" d="M58.88 253.92v7.07l-6-1.83v-6.92l6 1.68z"/><path class="e" d="M58.88 246.85v7.07l-6-1.68v-6.93l6 1.54z"/><path class="e" d="M58.88 239.77v7.08l-6-1.54v-6.93l6 1.39zM58.88 232.7v7.07l-6-1.39v-6.92l6 1.24zM58.88 225.63v7.07l-6-1.24v-6.93l6 1.1z"/><path class="e" d="M58.88 218.55v7.08l-6-1.1v-6.93l6 .95zM58.88 211.48v7.07l-6-.95v-6.92l6 .8zM58.88 204.41v7.07l-6-.8v-6.93l6 .66z"/><path class="e" d="M58.88 197.34v7.07l-6-.66v-6.93l6 .52z"/><path class="e" d="M58.88 190.26v7.08l-6-.52v-6.92l6 .36zM58.88 183.19v7.07l-6-.36v-6.93l6 .22z"/><path class="e" d="M58.88 176.12v7.07l-6-.22v-6.92l6 .07z"/><path class="e" d="M58.88 169.04v7.08l-6-.07v-6.93l6-.08z"/><path class="e" d="M58.88 161.97v7.07l-6 .08v-6.93l6-.22z"/><path class="f" d="M58.88 154.9v7.07l-6 .22v-6.92l6-.37z"/><path class="f" d="M58.88 147.82v7.08l-6 .37v-6.93l6-.52z"/><path class="f" d="M58.88 140.75v7.07l-6 .52v-6.93l6-.66z"/><path class="f" d="M58.88 133.68v7.07l-6 .66v-6.92l6-.81z"/><path class="f" d="M58.88 126.6v7.08l-6 .81v-6.93l6-.96zM58.88 119.53v7.07l-6 .96v-6.92l6-1.11z"/><path class="f" d="M58.88 112.46v7.07l-6 1.11v-6.93l6-1.25z"/><path class="e" d="M58.88 105.38v7.08l-6 1.25v-6.93l6-1.4z"/><path class="e" d="M58.88 98.31v7.07l-6 1.4v-6.92l6-1.55z"/><path class="e" d="M58.88 91.24v7.07l-6 1.55v-6.93l6-1.69z"/><path class="d" d="M58.88 84.17v7.07l-6 1.69v-6.92l6-1.84z"/><path class="e" d="M58.88 77.09v7.08l-6 1.84v-6.93l6-1.99zM52.88 259.16v6.93l-5.76-1.9v-6.79l5.76 1.76z"/><path class="d" d="M52.88 252.24v6.92l-5.76-1.76v-6.78l5.76 1.62z"/><path class="e" d="M52.88 245.31v6.93l-5.76-1.62v-6.79l5.76 1.48z"/><path class="e" d="M52.88 238.38v6.93l-5.76-1.48v-6.78l5.76 1.33zM52.88 231.46v6.92l-5.76-1.33v-6.79l5.76 1.2z"/><path class="e" d="M52.88 224.53v6.93l-5.76-1.2v-6.78l5.76 1.05zM52.88 217.6v6.93l-5.76-1.05v-6.79l5.76.91z"/><path class="e" d="M52.88 210.68v6.92l-5.76-.91v-6.78l5.76.77z"/><path class="e" d="M52.88 203.75v6.93l-5.76-.77v-6.79l5.76.63z"/><path class="e" d="M52.88 196.82v6.93l-5.76-.63v-6.78l5.76.48z"/><path class="e" d="M52.88 189.9v6.92l-5.76-.48v-6.79l5.76.35z"/><path class="e" d="M52.88 182.97v6.93l-5.76-.35v-6.78l5.76.2z"/><path class="e" d="M52.88 176.05v6.92l-5.76-.2v-6.79l5.76.07z"/><path class="e" d="M52.88 169.12v6.93l-5.76-.07v-6.79l5.76-.07zM52.88 162.19v6.93l-5.76.07v-6.78l5.76-.22z"/><path class="f" d="M52.88 155.27v6.92l-5.76.22v-6.79l5.76-.35z"/><path class="e" d="M52.88 148.34v6.93l-5.76.35v-6.78l5.76-.5z"/><path class="e" d="M52.88 141.41v6.93l-5.76.5v-6.79l5.76-.64zM52.88 134.49v6.92l-5.76.64v-6.78l5.76-.78z"/><path class="e" d="M52.88 127.56v6.93l-5.76.78v-6.79l5.76-.92zM52.88 120.64v6.92l-5.76.92v-6.78l5.76-1.06z"/><path class="f" d="M52.88 113.71v6.93l-5.76 1.06v-6.79l5.76-1.2z"/><path class="e" d="M52.88 106.78v6.93l-5.76 1.2v-6.78l5.76-1.35zM52.88 99.86v6.92l-5.76 1.35v-6.79l5.76-1.48z"/><path class="e" d="M52.88 92.93v6.93l-5.76 1.48v-6.78l5.76-1.63z"/><path class="d" d="M52.88 86.01v6.92l-5.76 1.63v-6.79l5.76-1.76z"/><path class="e" d="M52.88 79.08v6.93l-5.76 1.76v-6.78l5.76-1.91zM47.12 257.4v6.79l-5.53-1.82v-6.65l5.53 1.68z"/><path class="d" d="M47.12 250.62v6.78l-5.53-1.68v-6.65l5.53 1.55z"/><path class="e" d="M47.12 243.83v6.79l-5.53-1.55v-6.65l5.53 1.41z"/><path class="e" d="M47.12 237.05v6.78l-5.53-1.41v-6.65l5.53 1.28zM47.12 230.26v6.79l-5.53-1.28v-6.65l5.53 1.14z"/><path class="e" d="M47.12 223.48v6.78l-5.53-1.14v-6.65l5.53 1.01z"/><path class="e" d="M47.12 216.69v6.79l-5.53-1.01v-6.65l5.53.87z"/><path class="e" d="M47.12 209.91v6.78l-5.53-.87v-6.65l5.53.74z"/><path class="e" d="M47.12 203.12v6.79l-5.53-.74v-6.65l5.53.6z"/><path class="e" d="M47.12 196.34v6.78l-5.53-.6v-6.65l5.53.47z"/><path class="e" d="M47.12 189.55v6.79l-5.53-.47v-6.65l5.53.33z"/><path class="e" d="M47.12 182.77v6.78l-5.53-.33v-6.65l5.53.2z"/><path class="e" d="M47.12 175.98v6.79l-5.53-.2v-6.65l5.53.06z"/><path class="e" d="M47.12 169.19v6.79l-5.53-.06v-6.65l5.53-.08z"/><path class="e" d="M47.12 162.41v6.78l-5.53.08v-6.65l5.53-.21z"/><path class="e" d="M47.12 155.62v6.79l-5.53.21v-6.65l5.53-.35z"/><path class="e" d="M47.12 148.84v6.78l-5.53.35v-6.65l5.53-.48z"/><path class="e" d="M47.12 142.05v6.79l-5.53.48v-6.65l5.53-.62z"/><path class="e" d="M47.12 135.27v6.78l-5.53.62v-6.65l5.53-.75zM47.12 128.48v6.79l-5.53.75v-6.65l5.53-.89z"/><path class="e" d="M47.12 121.7v6.78l-5.53.89v-6.65l5.53-1.02z"/><path class="e" d="M47.12 114.91v6.79l-5.53 1.02v-6.65l5.53-1.16z"/><path class="e" d="M47.12 108.13v6.78l-5.53 1.16v-6.66l5.53-1.28z"/><path class="e" d="M47.12 101.34v6.79l-5.53 1.28v-6.64l5.53-1.43z"/><path class="e" d="M47.12 94.56v6.78l-5.53 1.43v-6.65l5.53-1.56z"/><path class="d" d="M47.12 87.77v6.79l-5.53 1.56v-6.65l5.53-1.7z"/><path class="e" d="M47.12 80.99v6.78l-5.53 1.7v-6.65l5.53-1.83zM41.59 255.72v6.65l-5.31-1.75v-6.52l5.31 1.62z"/><path class="d" d="M41.59 249.07v6.65l-5.31-1.62v-6.53l5.31 1.5z"/><path class="e" d="M41.59 242.42v6.65l-5.31-1.5v-6.51l5.31 1.36z"/><path class="e" d="M41.59 235.77v6.65l-5.31-1.36v-6.52l5.31 1.23z"/><path class="e" d="M41.59 229.12v6.65l-5.31-1.23v-6.52l5.31 1.1z"/><path class="e" d="M41.59 222.47v6.65l-5.31-1.1v-6.52l5.31.97z"/><path class="e" d="M41.59 215.82v6.65l-5.31-.97v-6.53l5.31.85z"/><path class="e" d="M41.59 209.17v6.65l-5.31-.85v-6.51l5.31.71z"/><path class="e" d="M41.59 202.52v6.65l-5.31-.71v-6.53l5.31.59z"/><path class="e" d="M41.59 195.87v6.65l-5.31-.59v-6.52l5.31.46z"/><path class="e" d="M41.59 189.22v6.65l-5.31-.46v-6.51l5.31.32z"/><path class="e" d="M41.59 182.57v6.65l-5.31-.32v-6.53l5.31.2z"/><path class="e" d="M41.59 175.92v6.65l-5.31-.2v-6.51l5.31.06z"/><path class="e" d="M41.59 169.27v6.65l-5.31-.06v-6.53l5.31-.06z"/><path class="e" d="M41.59 162.62v6.65l-5.31.06v-6.52l5.31-.19z"/><path class="e" d="M41.59 155.97v6.65l-5.31.19v-6.51l5.31-.33z"/><path class="e" d="M41.59 149.32v6.65l-5.31.33v-6.53l5.31-.45zM41.59 142.67v6.65l-5.31.45v-6.52l5.31-.58z"/><path class="e" d="M41.59 136.02v6.65l-5.31.58v-6.52l5.31-.71z"/><path class="f" d="M41.59 129.37v6.65l-5.31.71v-6.52l5.31-.84z"/><path class="f" d="M41.59 122.72v6.65l-5.31.84v-6.51l5.31-.98z"/><path class="e" d="M41.59 116.07v6.65l-5.31.98v-6.53l5.31-1.1zM41.59 109.41v6.66l-5.31 1.1v-6.52l5.31-1.24z"/><path class="e" d="M41.59 102.77v6.64l-5.31 1.24v-6.52l5.31-1.36z"/><path class="e" d="M41.59 96.12v6.65l-5.31 1.36v-6.52l5.31-1.49z"/><path class="d" d="M41.59 89.47v6.65l-5.31 1.49v-6.52l5.31-1.62z"/><path class="e" d="M41.59 82.82v6.65l-5.31 1.62v-6.52l5.31-1.75zM36.28 254.1v6.52l-5.11-1.69v-6.39l5.11 1.56z"/><path class="d" d="M36.28 247.57v6.53l-5.11-1.56v-6.4l5.11 1.43z"/><path class="e" d="M36.28 241.06v6.51l-5.11-1.43v-6.39l5.11 1.31z"/><path class="e" d="M36.28 234.54v6.52l-5.11-1.31v-6.4l5.11 1.19z"/><path class="e" d="M36.28 228.02v6.52l-5.11-1.19v-6.39l5.11 1.06zM36.28 221.5v6.52l-5.11-1.06v-6.4l5.11.94z"/><path class="e" d="M36.28 214.97v6.53l-5.11-.94v-6.39l5.11.8zM36.28 208.46v6.51l-5.11-.8v-6.4l5.11.69z"/><path class="e" d="M36.28 201.93v6.53l-5.11-.69v-6.39l5.11.55zM36.28 195.41v6.52l-5.11-.55v-6.4l5.11.43z"/><path class="e" d="M36.28 188.9v6.51l-5.11-.43v-6.39l5.11.31z"/><path class="e" d="M36.28 182.37v6.53l-5.11-.31v-6.4l5.11.18z"/><path class="e" d="M36.28 175.86v6.51l-5.11-.18v-6.39l5.11.06z"/><path class="e" d="M36.28 169.33v6.53l-5.11-.06v-6.4l5.11-.07z"/><path class="e" d="M36.28 162.81v6.52l-5.11.07v-6.39l5.11-.2zM36.28 156.3v6.51l-5.11.2v-6.4l5.11-.31z"/><path class="e" d="M36.28 149.77v6.53l-5.11.31v-6.39l5.11-.45zM36.28 143.25v6.52l-5.11.45v-6.4l5.11-.57z"/><path class="f" d="M36.28 136.73v6.52l-5.11.57v-6.39l5.11-.7z"/><path class="e" d="M36.28 130.21v6.52l-5.11.7v-6.4l5.11-.82z"/><path class="e" d="M36.28 123.7v6.51l-5.11.82v-6.39l5.11-.94z"/><path class="f" d="M36.28 117.17v6.53l-5.11.94v-6.4l5.11-1.07z"/><path class="e" d="M36.28 110.65v6.52l-5.11 1.07v-6.39l5.11-1.2z"/><path class="e" d="M36.28 104.13v6.52l-5.11 1.2v-6.4l5.11-1.32z"/><path class="e" d="M36.28 97.61v6.52l-5.11 1.32v-6.39l5.11-1.45z"/><path class="d" d="M36.28 91.09v6.52l-5.11 1.45v-6.4l5.11-1.57z"/><path class="e" d="M36.28 84.57v6.52l-5.11 1.57v-6.39l5.11-1.7zM31.17 252.54v6.39l-4.92-1.62v-6.27l4.92 1.5z"/><path class="d" d="M31.17 246.14v6.4l-4.92-1.5v-6.28l4.92 1.38z"/><path class="e" d="M31.17 239.75v6.39l-4.92-1.38v-6.27l4.92 1.26z"/><path class="e" d="M31.17 233.35v6.4l-4.92-1.26v-6.28l4.92 1.14z"/><path class="e" d="M31.17 226.96v6.39l-4.92-1.14v-6.27l4.92 1.02z"/><path class="e" d="M31.17 220.56v6.4l-4.92-1.02v-6.28l4.92.9zM31.17 214.17v6.39l-4.92-.9v-6.27l4.92.78z"/><path class="e" d="M31.17 207.77v6.4l-4.92-.78v-6.28l4.92.66zM31.17 201.38v6.39l-4.92-.66v-6.27l4.92.54z"/><path class="e" d="M31.17 194.98v6.4l-4.92-.54v-6.28l4.92.42z"/><path class="e" d="M31.17 188.59v6.39l-4.92-.42v-6.27l4.92.3z"/><path class="e" d="M31.17 182.19v6.4l-4.92-.3v-6.28l4.92.18z"/><path class="e" d="M31.17 175.8v6.39l-4.92-.18v-6.27l4.92.06z"/><path class="e" d="M31.17 169.4v6.4l-4.92-.06v-6.28l4.92-.06zM31.17 163.01v6.39l-4.92.06v-6.27l4.92-.18z"/><path class="e" d="M31.17 156.61v6.4l-4.92.18v-6.28l4.92-.3zM31.17 150.22v6.39l-4.92.3v-6.27l4.92-.42z"/><path class="e" d="M31.17 143.82v6.4l-4.92.42v-6.27l4.92-.55z"/><path class="f" d="M31.17 137.43v6.39l-4.92.55v-6.28l4.92-.66z"/><path class="e" d="M31.17 131.03v6.4l-4.92.66v-6.27l4.92-.79z"/><path class="e" d="M31.17 124.64v6.39l-4.92.79v-6.28l4.92-.9z"/><path class="f" d="M31.17 118.24v6.4l-4.92.9v-6.27l4.92-1.03z"/><path class="e" d="M31.17 111.85v6.39l-4.92 1.03v-6.28l4.92-1.14z"/><path class="e" d="M31.17 105.45v6.4l-4.92 1.14v-6.27l4.92-1.27zM31.17 99.06v6.39l-4.92 1.27v-6.28l4.92-1.38z"/><path class="d" d="M31.17 92.66v6.4l-4.92 1.38v-6.27l4.92-1.51z"/><path class="e" d="M31.17 86.27v6.39l-4.92 1.51v-6.28l4.92-1.62zM26.25 251.04v6.27l-4.73-1.56v-6.16l4.73 1.45z"/><path class="d" d="M26.25 244.76v6.28l-4.73-1.45v-6.16l4.73 1.33z"/><path class="e" d="M26.25 238.49v6.27l-4.73-1.33v-6.16l4.73 1.22z"/><path class="e" d="M26.25 232.21v6.28l-4.73-1.22v-6.15l4.73 1.09z"/><path class="e" d="M26.25 225.94v6.27l-4.73-1.09v-6.16l4.73.98z"/><path class="e" d="M26.25 219.66v6.28l-4.73-.98v-6.16l4.73.86zM26.25 213.39v6.27l-4.73-.86v-6.16l4.73.75z"/><path class="e" d="M26.25 207.11v6.28l-4.73-.75v-6.16l4.73.63z"/><path class="e" d="M26.25 200.84v6.27l-4.73-.63v-6.16l4.73.52zM26.25 194.56v6.28l-4.73-.52v-6.16l4.73.4z"/><path class="e" d="M26.25 188.29v6.27l-4.73-.4V188l4.73.29z"/><path class="e" d="M26.25 182.01v6.28l-4.73-.29v-6.16l4.73.17z"/><path class="e" d="M26.25 175.74v6.27l-4.73-.17v-6.16l4.73.06zM26.25 169.46v6.28l-4.73-.06v-6.15l4.73-.07z"/><path class="e" d="M26.25 163.19v6.27l-4.73.07v-6.16l4.73-.18z"/><path class="f" d="M26.25 156.91v6.28l-4.73.18v-6.16l4.73-.3z"/><path class="f" d="M26.25 150.64v6.27l-4.73.3v-6.16l4.73-.41z"/><path class="f" d="M26.25 144.37v6.27l-4.73.41v-6.16l4.73-.52z"/><path class="f" d="M26.25 138.09v6.28l-4.73.52v-6.16l4.73-.64zM26.25 131.82v6.27l-4.73.64v-6.16l4.73-.75z"/><path class="f" d="M26.25 125.54v6.28l-4.73.75v-6.16l4.73-.87z"/><path class="f" d="M26.25 119.27v6.27l-4.73.87v-6.15l4.73-.99z"/><path class="e" d="M26.25 112.99v6.28l-4.73.99v-6.16l4.73-1.11z"/><path class="e" d="M26.25 106.72v6.27l-4.73 1.11v-6.16l4.73-1.22z"/><path class="e" d="M26.25 100.44v6.28l-4.73 1.22v-6.16l4.73-1.34z"/><path class="d" d="M26.25 94.17v6.27l-4.73 1.34v-6.16l4.73-1.45z"/><path class="e" d="M26.25 87.89v6.28l-4.73 1.45v-6.16l4.73-1.57zM21.52 249.59v6.16l-4.56-1.51v-6.04l4.56 1.39z"/><path class="d" d="M21.52 243.43v6.16l-4.56-1.39v-6.05l4.56 1.28z"/><path class="e" d="M21.52 237.27v6.16l-4.56-1.28v-6.05l4.56 1.17z"/><path class="e" d="M21.52 231.12v6.15l-4.56-1.17v-6.04l4.56 1.06zM21.52 224.96v6.16l-4.56-1.06v-6.05l4.56.95z"/><path class="e" d="M21.52 218.8v6.16l-4.56-.95v-6.05l4.56.84zM21.52 212.64v6.16l-4.56-.84v-6.04l4.56.72z"/><path class="e" d="M21.52 206.48v6.16l-4.56-.72v-6.05l4.56.61z"/><path class="e" d="M21.52 200.32v6.16l-4.56-.61v-6.05l4.56.5z"/><path class="e" d="M21.52 194.16v6.16l-4.56-.5v-6.05l4.56.39z"/><path class="e" d="M21.52 188v6.16l-4.56-.39v-6.04l4.56.27zM21.52 181.84V188l-4.56-.27v-6.05l4.56.16z"/><path class="e" d="M21.52 175.68v6.16l-4.56-.16v-6.05l4.56.05z"/><path class="e" d="M21.52 169.53v6.15l-4.56-.05v-6.04l4.56-.06z"/><path class="e" d="M21.52 163.37v6.16l-4.56.06v-6.05l4.56-.17z"/><path class="e" d="M21.52 157.21v6.16l-4.56.17v-6.05l4.56-.28z"/><path class="e" d="M21.52 151.05v6.16l-4.56.28v-6.05l4.56-.39zM21.52 144.89v6.16l-4.56.39v-6.04l4.56-.51z"/><path class="e" d="M21.52 138.73v6.16l-4.56.51v-6.05l4.56-.62z"/><path class="e" d="M21.52 132.57v6.16l-4.56.62v-6.05l4.56-.73z"/><path class="e" d="M21.52 126.41v6.16l-4.56.73v-6.04l4.56-.85z"/><path class="e" d="M21.52 120.26v6.15l-4.56.85v-6.05l4.56-.95zM21.52 114.1v6.16l-4.56.95v-6.05l4.56-1.06z"/><path class="e" d="M21.52 107.94v6.16l-4.56 1.06v-6.05l4.56-1.17z"/><path class="e" d="M21.52 101.78v6.16l-4.56 1.17v-6.04l4.56-1.29z"/><path class="d" d="M21.52 95.62v6.16l-4.56 1.29v-6.05l4.56-1.4z"/><path class="e" d="M21.52 89.46v6.16l-4.56 1.4v-6.05l4.56-1.51zM16.96 248.2v6.04l-4.4-1.44v-5.94l4.4 1.34z"/><path class="d" d="M16.96 242.15v6.05l-4.4-1.34v-5.94l4.4 1.23z"/><path class="d" d="M16.96 236.1v6.05l-4.4-1.23v-5.94l4.4 1.12z"/><path class="e" d="M16.96 230.06v6.04l-4.4-1.12v-5.94l4.4 1.02z"/><path class="e" d="M16.96 224.01v6.05l-4.4-1.02v-5.94l4.4.91z"/><path class="e" d="M16.96 217.96v6.05l-4.4-.91v-5.94l4.4.8zM16.96 211.92v6.04l-4.4-.8v-5.94l4.4.7z"/><path class="e" d="M16.96 205.87v6.05l-4.4-.7v-5.94l4.4.59zM16.96 199.82v6.05l-4.4-.59v-5.94l4.4.48z"/><path class="e" d="M16.96 193.77v6.05l-4.4-.48v-5.94l4.4.37zM16.96 187.73v6.04l-4.4-.37v-5.94l4.4.27z"/><path class="e" d="M16.96 181.68v6.05l-4.4-.27v-5.94l4.4.16z"/><path class="e" d="M16.96 175.63v6.05l-4.4-.16v-5.94l4.4.05zM16.96 169.59v6.04l-4.4-.05v-5.94l4.4-.05z"/><path class="e" d="M16.96 163.54v6.05l-4.4.05v-5.94l4.4-.16z"/><path class="e" d="M16.96 157.49v6.05l-4.4.16v-5.94l4.4-.27z"/><path class="e" d="M16.96 151.44v6.05l-4.4.27v-5.94l4.4-.38zM16.96 145.4v6.04l-4.4.38v-5.94l4.4-.48z"/><path class="e" d="M16.96 139.35v6.05l-4.4.48v-5.94l4.4-.59z"/><path class="e" d="M16.96 133.3v6.05l-4.4.59V134l4.4-.7z"/><path class="e" d="M16.96 127.26v6.04l-4.4.7v-5.93l4.4-.81z"/><path class="e" d="M16.96 121.21v6.05l-4.4.81v-5.94l4.4-.92z"/><path class="e" d="M16.96 115.16v6.05l-4.4.92v-5.94l4.4-1.03z"/><path class="e" d="M16.96 109.11v6.05l-4.4 1.03v-5.94l4.4-1.14z"/><path class="d" d="M16.96 103.07v6.04l-4.4 1.14v-5.94l4.4-1.24zM16.96 97.02v6.05l-4.4 1.24v-5.94l4.4-1.35z"/><path class="e" d="M16.96 90.97v6.05l-4.4 1.35v-5.94l4.4-1.46zM12.56 246.86v5.94l-4.25-1.41v-5.83l4.25 1.3zM12.56 240.92v5.94l-4.25-1.3v-5.84l4.25 1.2z"/><path class="d" d="M12.56 234.98v5.94l-4.25-1.2v-5.83l4.25 1.09z"/><path class="d" d="M12.56 229.04v5.94l-4.25-1.09v-5.84l4.25.99z"/><path class="e" d="M12.56 223.1v5.94l-4.25-.99v-5.83l4.25.88z"/><path class="e" d="M12.56 217.16v5.94l-4.25-.88v-5.84l4.25.78z"/><path class="e" d="M12.56 211.22v5.94l-4.25-.78v-5.83l4.25.67z"/><path class="e" d="M12.56 205.28v5.94l-4.25-.67v-5.84l4.25.57z"/><path class="e" d="M12.56 199.34v5.94l-4.25-.57v-5.84l4.25.47z"/><path class="e" d="M12.56 193.4v5.94l-4.25-.47v-5.83l4.25.36z"/><path class="e" d="M12.56 187.46v5.94l-4.25-.36v-5.84l4.25.26z"/><path class="e" d="M12.56 181.52v5.94l-4.25-.26v-5.83l4.25.15z"/><path class="e" d="M12.56 175.58v5.94l-4.25-.15v-5.84l4.25.05zM12.56 169.64v5.94l-4.25-.05v-5.83l4.25-.06z"/><path class="e" d="M12.56 163.7v5.94l-4.25.06v-5.84l4.25-.16z"/><path class="e" d="M12.56 157.76v5.94l-4.25.16v-5.83l4.25-.27z"/><path class="e" d="M12.56 151.82v5.94l-4.25.27v-5.84l4.25-.37z"/><path class="e" d="M12.56 145.88v5.94l-4.25.37v-5.84l4.25-.47z"/><path class="e" d="M12.56 139.94v5.94l-4.25.47v-5.83l4.25-.58z"/><path class="e" d="M12.56 134v5.94l-4.25.58v-5.84l4.25-.68z"/><path class="e" d="M12.56 128.07V134l-4.25.68v-5.83l4.25-.78z"/><path class="e" d="M12.56 122.13v5.94l-4.25.78v-5.84l4.25-.88z"/><path class="e" d="M12.56 116.19v5.94l-4.25.88v-5.83l4.25-.99z"/><path class="d" d="M12.56 110.25v5.94l-4.25.99v-5.84l4.25-1.09z"/><path class="d" d="M12.56 104.31v5.94l-4.25 1.09v-5.83l4.25-1.2z"/><path class="e" d="M12.56 98.37v5.94l-4.25 1.2v-5.84l4.25-1.3z"/><path class="e" d="M12.56 92.43v5.94l-4.25 1.3v-5.84l4.25-1.4zM8.31 239.72v5.84l-4.1-1.25v-5.74l4.1 1.15z"/><path class="e" d="M8.31 233.89v5.83l-4.1-1.15v-5.73l4.1 1.05z"/><path class="d" d="M8.31 228.05v5.84l-4.1-1.05v-5.74l4.1.95z"/><path class="d" d="M8.31 222.22v5.83l-4.1-.95v-5.73l4.1.85zM8.31 216.38v5.84l-4.1-.85v-5.74l4.1.75z"/><path class="d" d="M8.31 210.55v5.83l-4.1-.75v-5.73l4.1.65zM8.31 204.71v5.84l-4.1-.65v-5.74l4.1.55z"/><path class="d" d="M8.31 198.87v5.84l-4.1-.55v-5.73l4.1.44z"/><path class="d" d="M8.31 193.04v5.83l-4.1-.44v-5.74l4.1.35z"/><path class="d" d="M8.31 187.2v5.84l-4.1-.35v-5.73l4.1.24z"/><path class="d" d="M8.31 181.37v5.83l-4.1-.24v-5.74l4.1.15z"/><path class="d" d="M8.31 175.53v5.84l-4.1-.15v-5.73l4.1.04z"/><path class="d" d="M8.31 169.7v5.83l-4.1-.04v-5.74l4.1-.05z"/><path class="d" d="M8.31 163.86v5.84l-4.1.05v-5.74l4.1-.15z"/><path class="d" d="M8.31 158.03v5.83l-4.1.15v-5.73l4.1-.25zM8.31 152.19v5.84l-4.1.25v-5.73l4.1-.36z"/><path class="d" d="M8.31 146.35v5.84l-4.1.36v-5.74l4.1-.46z"/><path class="d" d="M8.31 140.52v5.83l-4.1.46v-5.74l4.1-.55z"/><path class="d" d="M8.31 134.68v5.84l-4.1.55v-5.73l4.1-.66zM8.31 128.85v5.83l-4.1.66v-5.74l4.1-.75z"/><path class="d" d="M8.31 123.01v5.84l-4.1.75v-5.73l4.1-.86z"/><path class="d" d="M8.31 117.18v5.83l-4.1.86v-5.74l4.1-.95z"/><path class="d" d="M8.31 111.34v5.84l-4.1.95v-5.73l4.1-1.06z"/><path class="e" d="M8.31 105.51v5.83l-4.1 1.06v-5.74l4.1-1.15z"/><path class="e" d="M8.31 99.67v5.84l-4.1 1.15v-5.73l4.1-1.26zM4.21 232.84v5.73l-3.96-1.11v-5.64l3.96 1.02z"/><path class="e" d="M4.21 227.1v5.74l-3.96-1.02v-5.64l3.96.92z"/><path class="e" d="M4.21 221.37v5.73l-3.96-.92v-5.63l3.96.82z"/><path class="e" d="M4.21 215.63v5.74l-3.96-.82v-5.64l3.96.72zM4.21 209.9v5.73l-3.96-.72v-5.64l3.96.63z"/><path class="e" d="M4.21 204.16v5.74l-3.96-.63v-5.64l3.96.53zM4.21 198.43v5.73l-3.96-.53v-5.64l3.96.44z"/><path class="e" d="M4.21 192.69v5.74l-3.96-.44v-5.64l3.96.34zM4.21 186.96v5.73l-3.96-.34v-5.63l3.96.24z"/><path class="e" d="M4.21 181.22v5.74l-3.96-.24v-5.64l3.96.14z"/><path class="e" d="M4.21 175.49v5.73l-3.96-.14v-5.64l3.96.05zM4.21 169.75v5.74l-3.96-.05v-5.64l3.96-.05z"/><path class="e" d="M4.21 164.01v5.74l-3.96.05v-5.64l3.96-.15zM4.21 158.28v5.73l-3.96.15v-5.64l3.96-.24z"/><path class="e" d="M4.21 152.55v5.73l-3.96.24v-5.63l3.96-.34z"/><path class="e" d="M4.21 146.81v5.74l-3.96.34v-5.64l3.96-.44zM4.21 141.07v5.74l-3.96.44v-5.64l3.96-.54zM4.21 135.34v5.73l-3.96.54v-5.64l3.96-.63z"/><path class="e" d="M4.21 129.6v5.74l-3.96.63v-5.64l3.96-.73zM4.21 123.87v5.73l-3.96.73v-5.63l3.96-.83z"/><path class="e" d="M4.21 118.13v5.74l-3.96.83v-5.64l3.96-.93z"/><path class="e" d="M4.21 112.4v5.73l-3.96.93v-5.64l3.96-1.02zM4.21 106.66v5.74l-3.96 1.02v-5.64l3.96-1.12z"/></g></g></svg>