<svg xmlns="http://www.w3.org/2000/svg" viewBox="0 0 80 80" style="enable-background:new 0 0 80 80" xml:space="preserve"><style>.st3{fill:#004921}.st4{fill:#5000a2}.st5{fill:#7945ff}.st6{fill:#9e73ff}.st7{fill:#2f0073}.st8{fill:#d4b9ff}.st9{fill:#1a1a1a}.st10{fill:#b7a2ff}.st12{fill:#220052}.st13{fill:#4300a2}.st14{fill:#00b921}.st16{fill:#008821}.st18{fill:#006d21}</style><g id="grid"><g id="XMLID_00000041283197804244816020000004535456255995436928_"><path style="fill:#003821" d="M70.59 18.82h4.7v4.71h-4.7z"/><path class="st3" d="M65.88 18.82h4.71v4.71h-4.71z"/><path class="st4" d="M9.41 37.65h4.71v4.7H9.41z"/><path class="st5" d="M9.41 32.94h4.71v4.71H9.41z"/><path class="st6" d="M9.41 28.24h4.71v4.7H9.41z"/><path class="st4" d="M14.12 51.76h4.7v4.71h-4.7z"/><path class="st5" d="M14.12 47.06h4.7v4.7h-4.7z"/><path class="st7" d="M14.12 42.35h4.7v4.71h-4.7z"/><path class="st4" d="M14.12 37.65h4.7v4.7h-4.7zM14.12 32.94h4.7v4.71h-4.7z"/><path class="st8" d="M14.12 28.24h4.7v4.7h-4.7z"/><path class="st5" d="M14.12 23.53h4.7v4.71h-4.7z"/><path class="st4" d="M18.82 70.59h4.71v4.7h-4.71z"/><path class="st5" d="M18.82 65.88h4.71v4.71h-4.71z"/><path class="st9" d="M18.82 61.18h4.71v4.7h-4.71z"/><path class="st4" d="M18.82 56.47h4.71v4.71h-4.71zM18.82 51.76h4.71v4.71h-4.71z"/><path class="st10" d="M18.82 47.06h4.71v4.7h-4.71z"/><path style="fill:#7c5cff" d="M18.82 42.35h4.71v4.71h-4.71z"/><path class="st7" d="M18.82 37.65h4.71v4.7h-4.71z"/><path class="st4" d="M18.82 32.94h4.71v4.71h-4.71zM18.82 28.24h4.71v4.7h-4.71z"/><path class="st7" d="M18.82 23.53h4.71v4.71h-4.71z"/><path class="st12" d="M23.53 75.29h4.71V80h-4.71z"/><path class="st4" d="M23.53 70.59h4.71v4.7h-4.71z"/><path class="st8" d="M23.53 65.88h4.71v4.71h-4.71z"/><path class="st6" d="M23.53 61.18h4.71v4.7h-4.71z"/><path class="st7" d="M23.53 56.47h4.71v4.71h-4.71z"/><path class="st4" d="M23.53 51.76h4.71v4.71h-4.71z"/><path class="st4" d="M23.53 47.06h4.71v4.7h-4.71z"/><path class="st7" d="M23.53 42.35h4.71v4.71h-4.71z"/><path class="st12" d="M23.53 37.65h4.71v4.7h-4.71z"/><path class="st7" d="M23.53 32.94h4.71v4.71h-4.71z"/><path class="st12" d="M23.53 28.24h4.71v4.7h-4.71z"/><path class="st7" d="M23.53 23.53h4.71v4.71h-4.71z"/><path class="st4" d="M23.53 18.82h4.71v4.71h-4.71z"/><path class="st6" d="M23.53 14.12h4.71v4.7h-4.71z"/><path class="st12" d="M28.24 75.29h4.7V80h-4.7z"/><path class="st4" d="M28.24 70.59h4.7v4.7h-4.7zM28.24 65.88h4.7v4.71h-4.7z"/><path class="st5" d="M28.24 61.18h4.7v4.7h-4.7z"/><path class="st7" d="M28.24 56.47h4.7v4.71h-4.7zM28.24 51.76h4.7v4.71h-4.7z"/><path class="st13" d="M28.24 47.06h4.7v4.7h-4.7z"/><path class="st4" d="M28.24 42.35h4.7v4.71h-4.7z"/><path class="st10" d="M28.24 37.65h4.7v4.7h-4.7z"/><path class="st5" d="M28.24 32.94h4.7v4.71h-4.7z"/><path class="st12" d="M28.24 28.24h4.7v4.7h-4.7z"/><path class="st13" d="M28.24 23.53h4.7v4.71h-4.7z"/><path class="st4" d="M28.24 18.82h4.7v4.71h-4.7zM28.24 14.12h4.7v4.7h-4.7z"/><path class="st14" d="M28.24 0h4.7v4.71h-4.7z"/><path class="st12" d="M32.94 70.59h4.71v4.7h-4.71z"/><path class="st13" d="M32.94 65.88h4.71v4.71h-4.71z"/><path class="st7" d="M32.94 61.18h4.71v4.7h-4.71z"/><path class="st4" d="M32.94 56.47h4.71v4.71h-4.71zM32.94 51.76h4.71v4.71h-4.71z"/><path class="st7" d="M32.94 47.06h4.71v4.7h-4.71z"/><path class="st4" d="M32.94 42.35h4.71v4.71h-4.71z"/><path class="st8" d="M32.94 37.65h4.71v4.7h-4.71z"/><path class="st10" d="M32.94 32.94h4.71v4.71h-4.71z"/><path class="st12" d="M32.94 28.24h4.71v4.7h-4.71z"/><path class="st12" d="M32.94 23.53h4.71v4.71h-4.71z"/><path class="st13" d="M32.94 18.82h4.71v4.71h-4.71z"/><path class="st4" d="M32.94 14.12h4.71v4.7h-4.71z"/><path class="st14" d="M32.94 4.71h4.71v4.7h-4.71z"/><path class="st9" d="M37.65 65.88h4.7v4.71h-4.7z"/><path style="fill:#682eff" d="M37.65 61.18h4.7v4.7h-4.7z"/><path class="st4" d="M37.65 56.47h4.7v4.71h-4.7zM37.65 51.76h4.7v4.71h-4.7z"/><path class="st7" d="M37.65 47.06h4.7v4.7h-4.7z"/><path class="st4" d="M37.65 42.35h4.7v4.71h-4.7zM37.65 37.65h4.7v4.7h-4.7zM37.65 32.94h4.7v4.71h-4.7z"/><path class="st7" d="M37.65 28.24h4.7v4.7h-4.7z"/><path class="st7" d="M37.65 23.53h4.7v4.71h-4.7z"/><path class="st3" d="M37.65 18.82h4.7v4.71h-4.7zM37.65 14.12h4.7v4.7h-4.7z"/><path class="st16" d="M37.65 4.71h4.7v4.7h-4.7z"/><path class="st7" d="M42.35 61.18h4.71v4.7h-4.71z"/><path class="st4" d="M42.35 56.47h4.71v4.71h-4.71z"/><path style="fill:#35008b" d="M42.35 51.76h4.71v4.71h-4.71z"/><path class="st5" d="M42.35 47.06h4.71v4.7h-4.71z"/><path class="st7" d="M42.35 42.35h4.71v4.71h-4.71z"/><path class="st4" d="M42.35 37.65h4.71v4.7h-4.71z"/><path class="st7" d="M42.35 32.94h4.71v4.71h-4.71z"/><path class="st5" d="M42.35 28.24h4.71v4.7h-4.71z"/><path class="st10" d="M42.35 23.53h4.71v4.71h-4.71z"/><path class="st7" d="M42.35 18.82h4.71v4.71h-4.71z"/><path class="st18" d="M42.35 14.12h4.71v4.7h-4.71z"/><path class="st14" d="M42.35 9.41h4.71v4.71h-4.71z"/><path class="st7" d="M47.06 56.47h4.7v4.71h-4.7z"/><path class="st4" d="M47.06 51.76h4.7v4.71h-4.7z"/><path class="st4" d="M47.06 47.06h4.7v4.7h-4.7z"/><path class="st5" d="M47.06 42.35h4.7v4.71h-4.7z"/><path class="st7" d="M47.06 37.65h4.7v4.7h-4.7z"/><path class="st4" d="M47.06 32.94h4.7v4.71h-4.7z"/><path class="st5" d="M47.06 28.24h4.7v4.7h-4.7z"/><path class="st6" d="M47.06 23.53h4.7v4.71h-4.7z"/><path class="st7" d="M47.06 18.82h4.7v4.71h-4.7z"/><path class="st16" d="M47.06 9.41h4.7v4.71h-4.7z"/><path class="st13" d="M51.76 51.76h4.71v4.71h-4.71z"/><path class="st4" d="M51.76 47.06h4.71v4.7h-4.71zM51.76 42.35h4.71v4.71h-4.71z"/><path class="st7" d="M51.76 37.65h4.71v4.7h-4.71z"/><path class="st13" d="M51.76 32.94h4.71v4.71h-4.71z"/><path class="st4" d="M51.76 28.24h4.71v4.7h-4.71z"/><path class="st4" d="M51.76 23.53h4.71v4.71h-4.71z"/><path class="st5" d="M51.76 18.82h4.71v4.71h-4.71z"/><path class="st3" d="M51.76 9.41h4.71v4.71h-4.71z"/><path class="st13" d="M56.47 47.06h4.71v4.7h-4.71z"/><path class="st7" d="M56.47 42.35h4.71v4.71h-4.71z"/><path class="st9" d="M56.47 32.94h4.71v4.71h-4.71z"/><path class="st7" d="M56.47 28.24h4.71v4.7h-4.71z"/><path class="st7" d="M56.47 23.53h4.71v4.71h-4.71z"/><path class="st3" d="M56.47 14.12h4.71v4.7h-4.71z"/><path class="st18" d="M61.18 14.12h4.7v4.7h-4.7z"/></g></g></svg>