<svg xmlns="http://www.w3.org/2000/svg" viewBox="0 0 80 80" style="enable-background:new 0 0 80 80" xml:space="preserve"><style>.st2{fill:#f4543b}.st3{fill:#f42121}.st4{fill:#f4392c}.st5{fill:#f4a1ac}.st7{fill:#ffc4cf}.st10{fill:#e62121}.st11{fill:#ffcfa2}.st14{fill:#bc2121}.st17{fill:#ffb917}.st18{fill:#e92121}.st19{fill:#ff4a45}.st22{fill:#833021}</style><g id="grid"><g id="XMLID_00000041283197804244816020000004535456255995436928_"><path class="st2" d="M9.41 56.47h4.71v4.71H9.41zM9.41 51.76h4.71v4.71H9.41z"/><path class="st3" d="M9.41 47.06h4.71v4.7H9.41zM9.41 42.35h4.71v4.71H9.41zM9.41 37.65h4.71v4.7H9.41z"/><path class="st4" d="M14.12 61.18h4.7v4.7h-4.7zM14.12 56.47h4.7v4.71h-4.7z"/><path class="st5" d="M14.12 51.76h4.7v4.71h-4.7z"/><path style="fill:#f4676a" d="M14.12 47.06h4.7v4.7h-4.7z"/><path class="st7" d="M14.12 42.35h4.7v4.71h-4.7z"/><path class="st2" d="M14.12 37.65h4.7v4.7h-4.7z"/><path class="st3" d="M14.12 32.94h4.7v4.71h-4.7z"/><path style="fill:#ffe8b1" d="M18.82 65.88h4.71v4.71h-4.71z"/><path class="st3" d="M18.82 61.18h4.71v4.7h-4.71z"/><path class="st4" d="M18.82 56.47h4.71v4.71h-4.71zM18.82 51.76h4.71v4.71h-4.71z"/><path class="st4" d="M18.82 47.06h4.71v4.7h-4.71z"/><path style="fill:#f4abb8" d="M18.82 42.35h4.71v4.71h-4.71z"/><path class="st7" d="M18.82 37.65h4.71v4.7h-4.71z"/><path class="st2" d="M18.82 32.94h4.71v4.71h-4.71z"/><path class="st10" d="M18.82 28.24h4.71v4.7h-4.71z"/><path class="st11" d="M23.53 70.59h4.71v4.7h-4.71z"/><path class="st3" d="M23.53 65.88h4.71v4.71h-4.71zM23.53 61.18h4.71v4.7h-4.71zM23.53 56.47h4.71v4.71h-4.71zM23.53 51.76h4.71v4.71h-4.71z"/><path class="st3" d="M23.53 47.06h4.71v4.7h-4.71z"/><path class="st4" d="M23.53 42.35h4.71v4.71h-4.71zM23.53 37.65h4.71v4.7h-4.71zM23.53 32.94h4.71v4.71h-4.71z"/><path class="st5" d="M23.53 28.24h4.71v4.7h-4.71z"/><path class="st10" d="M23.53 23.53h4.71v4.71h-4.71z"/><path class="st11" d="M28.24 75.29h4.7V80h-4.7z"/><path class="st3" d="M28.24 70.59h4.7v4.7h-4.7zM28.24 65.88h4.7v4.71h-4.7zM28.24 61.18h4.7v4.7h-4.7zM28.24 56.47h4.7v4.71h-4.7zM28.24 51.76h4.7v4.71h-4.7z"/><path class="st3" d="M28.24 47.06h4.7v4.7h-4.7zM28.24 42.35h4.7v4.71h-4.7z"/><path class="st4" d="M28.24 37.65h4.7v4.7h-4.7zM28.24 32.94h4.7v4.71h-4.7z"/><path style="fill:#d72121" d="M28.24 28.24h4.7v4.7h-4.7z"/><path class="st10" d="M28.24 23.53h4.7v4.71h-4.7z"/><path style="fill:#86d621" d="M28.24 4.71h4.7v4.7h-4.7z"/><path class="st11" d="M32.94 75.29h4.71V80h-4.71z"/><path class="st3" d="M32.94 70.59h4.71v4.7h-4.71zM32.94 65.88h4.71v4.71h-4.71zM32.94 61.18h4.71v4.7h-4.71zM32.94 56.47h4.71v4.71h-4.71zM32.94 51.76h4.71v4.71h-4.71z"/><path class="st3" d="M32.94 47.06h4.71v4.7h-4.71zM32.94 42.35h4.71v4.71h-4.71zM32.94 37.65h4.71v4.7h-4.71z"/><path class="st14" d="M32.94 32.94h4.71v4.71h-4.71zM32.94 28.24h4.71v4.7h-4.71z"/><path style="fill:#2c8621" d="M32.94 9.41h4.71v4.71h-4.71z"/><path style="fill:#2cb721" d="M32.94 4.71h4.71v4.7h-4.71z"/><path class="st17" d="M37.65 75.29h4.7V80h-4.7z"/><path class="st18" d="M37.65 70.59h4.7v4.7h-4.7zM37.65 65.88h4.7v4.71h-4.7z"/><path class="st3" d="M37.65 61.18h4.7v4.7h-4.7z"/><path class="st18" d="M37.65 56.47h4.7v4.71h-4.7z"/><path class="st3" d="M37.65 51.76h4.7v4.71h-4.7z"/><path class="st3" d="M37.65 47.06h4.7v4.7h-4.7zM37.65 42.35h4.7v4.71h-4.7zM37.65 37.65h4.7v4.7h-4.7z"/><path class="st19" d="M37.65 32.94h4.7v4.71h-4.7z"/><path style="fill:#2c3e21" d="M37.65 28.24h4.7v4.7h-4.7z"/><path style="fill:#653021" d="M37.65 23.53h4.7v4.71h-4.7z"/><path class="st22" d="M37.65 18.82h4.7v4.71h-4.7z"/><path style="fill:#2c6b21" d="M37.65 9.41h4.7v4.71h-4.7z"/><path class="st17" d="M42.35 75.29h4.71V80h-4.71z"/><path class="st18" d="M42.35 70.59h4.71v4.7h-4.71zM42.35 65.88h4.71v4.71h-4.71zM42.35 61.18h4.71v4.7h-4.71zM42.35 56.47h4.71v4.71h-4.71z"/><path class="st3" d="M42.35 51.76h4.71v4.71h-4.71z"/><path class="st3" d="M42.35 47.06h4.71v4.7h-4.71zM42.35 42.35h4.71v4.71h-4.71z"/><path class="st4" d="M42.35 37.65h4.71v4.7h-4.71z"/><path class="st19" d="M42.35 32.94h4.71v4.71h-4.71z"/><path class="st14" d="M42.35 28.24h4.71v4.7h-4.71z"/><path class="st22" d="M42.35 14.12h4.71v4.7h-4.71z"/><path class="st17" d="M47.06 75.29h4.7V80h-4.7z"/><path class="st18" d="M47.06 70.59h4.7v4.7h-4.7zM47.06 65.88h4.7v4.71h-4.7zM47.06 61.18h4.7v4.7h-4.7zM47.06 56.47h4.7v4.71h-4.7z"/><path class="st3" d="M47.06 51.76h4.7v4.71h-4.7z"/><path class="st3" d="M47.06 47.06h4.7v4.7h-4.7zM47.06 42.35h4.7v4.71h-4.7z"/><path class="st4" d="M47.06 37.65h4.7v4.7h-4.7z"/><path class="st3" d="M47.06 32.94h4.7v4.71h-4.7zM47.06 28.24h4.7v4.7h-4.7z"/><path class="st4" d="M47.06 23.53h4.7v4.71h-4.7z"/><path class="st17" d="M51.76 70.59h4.71v4.7h-4.71z"/><path class="st18" d="M51.76 65.88h4.71v4.71h-4.71zM51.76 61.18h4.71v4.7h-4.71zM51.76 56.47h4.71v4.71h-4.71zM51.76 51.76h4.71v4.71h-4.71z"/><path class="st3" d="M51.76 47.06h4.71v4.7h-4.71z"/><path class="st4" d="M51.76 42.35h4.71v4.71h-4.71z"/><path class="st3" d="M51.76 37.65h4.71v4.7h-4.71zM51.76 32.94h4.71v4.71h-4.71zM51.76 28.24h4.71v4.7h-4.71z"/><path class="st3" d="M51.76 23.53h4.71v4.71h-4.71z"/><path class="st18" d="M56.47 65.88h4.71v4.71h-4.71zM56.47 61.18h4.71v4.7h-4.71zM56.47 56.47h4.71v4.71h-4.71zM56.47 51.76h4.71v4.71h-4.71z"/><path class="st18" d="M56.47 47.06h4.71v4.7h-4.71z"/><path class="st3" d="M56.47 42.35h4.71v4.71h-4.71zM56.47 37.65h4.71v4.7h-4.71zM56.47 32.94h4.71v4.71h-4.71zM56.47 28.24h4.71v4.7h-4.71z"/><path class="st18" d="M61.18 61.18h4.7v4.7h-4.7zM61.18 56.47h4.7v4.71h-4.7zM61.18 51.76h4.7v4.71h-4.7z"/><path class="st18" d="M61.18 47.06h4.7v4.7h-4.7z"/><path class="st3" d="M61.18 42.35h4.7v4.71h-4.7zM61.18 37.65h4.7v4.7h-4.7zM61.18 32.94h4.7v4.71h-4.7z"/><path class="st18" d="M65.88 56.47h4.71v4.71h-4.71zM65.88 51.76h4.71v4.71h-4.71z"/><path class="st18" d="M65.88 47.06h4.71v4.7h-4.71z"/><path class="st3" d="M65.88 42.35h4.71v4.71h-4.71zM65.88 37.65h4.71v4.7h-4.71z"/></g></g></svg>