<svg xmlns="http://www.w3.org/2000/svg" viewBox="0 0 80 80" style="enable-background:new 0 0 80 80" xml:space="preserve"><style>.st2{fill:#ffb200}.st3{fill:#ff9d00}.st4{fill:#ffb317}.st5{fill:#ffba2e}.st6{fill:#e7a200}.st7{fill:#ffb52e}.st8{fill:#ffd173}.st9{fill:#ffe58b}.st12{fill:#ff9600}.st15{fill:#f79d3a}.st16{fill:#ffac17}.st17{fill:#77d000}.st20{fill:#5bb900}</style><g id="grid"><g id="XMLID_00000041283197804244816020000004535456255995436928_"><path class="st2" d="M4.71 51.76h4.7v4.71h-4.7z"/><path class="st2" d="M4.71 47.06h4.7v4.7h-4.7z"/><path class="st3" d="M4.71 42.35h4.7v4.71h-4.7zM4.71 37.65h4.7v4.7h-4.7zM4.71 32.94h4.7v4.71h-4.7z"/><path class="st2" d="M9.41 61.18h4.71v4.7H9.41zM9.41 56.47h4.71v4.71H9.41zM9.41 51.76h4.71v4.71H9.41z"/><path class="st4" d="M9.41 47.06h4.71v4.7H9.41z"/><path class="st5" d="M9.41 42.35h4.71v4.71H9.41zM9.41 37.65h4.71v4.7H9.41z"/><path class="st4" d="M9.41 32.94h4.71v4.71H9.41z"/><path class="st3" d="M9.41 28.24h4.71v4.7H9.41z"/><path class="st6" d="M14.12 65.88h4.7v4.71h-4.7zM14.12 61.18h4.7v4.7h-4.7z"/><path class="st7" d="M14.12 56.47h4.7v4.71h-4.7zM14.12 51.76h4.7v4.71h-4.7z"/><path class="st5" d="M14.12 47.06h4.7v4.7h-4.7z"/><path class="st8" d="M14.12 42.35h4.7v4.71h-4.7z"/><path class="st9" d="M14.12 37.65h4.7v4.7h-4.7z"/><path class="st4" d="M14.12 32.94h4.7v4.71h-4.7z"/><path style="fill:#ffc15c" d="M14.12 28.24h4.7v4.7h-4.7z"/><path style="fill:#e79500" d="M14.12 23.53h4.7v4.71h-4.7z"/><path class="st6" d="M18.82 65.88h4.71v4.71h-4.71z"/><path class="st12" d="M18.82 61.18h4.71v4.7h-4.71z"/><path class="st7" d="M18.82 56.47h4.71v4.71h-4.71z"/><path class="st4" d="M18.82 51.76h4.71v4.71h-4.71z"/><path class="st8" d="M18.82 47.06h4.71v4.7h-4.71z"/><path class="st9" d="M18.82 42.35h4.71v4.71h-4.71z"/><path style="fill:#fff6e7" d="M18.82 37.65h4.71v4.7h-4.71z"/><path class="st9" d="M18.82 32.94h4.71v4.71h-4.71z"/><path class="st4" d="M18.82 28.24h4.71v4.7h-4.71z"/><path class="st4" d="M18.82 23.53h4.71v4.71h-4.71z"/><path style="fill:#91e700" d="M18.82 18.82h4.71v4.71h-4.71z"/><path class="st15" d="M23.53 70.59h4.71v4.7h-4.71z"/><path class="st6" d="M23.53 65.88h4.71v4.71h-4.71z"/><path class="st16" d="M23.53 61.18h4.71v4.7h-4.71z"/><path class="st7" d="M23.53 56.47h4.71v4.71h-4.71z"/><path class="st4" d="M23.53 51.76h4.71v4.71h-4.71z"/><path class="st8" d="M23.53 47.06h4.71v4.7h-4.71zM23.53 42.35h4.71v4.71h-4.71z"/><path class="st5" d="M23.53 37.65h4.71v4.7h-4.71z"/><path class="st4" d="M23.53 32.94h4.71v4.71h-4.71z"/><path class="st17" d="M23.53 28.24h4.71v4.7h-4.71z"/><path style="fill:#085c00" d="M23.53 23.53h4.71v4.71h-4.71z"/><path class="st17" d="M23.53 18.82h4.71v4.71h-4.71z"/><path class="st15" d="M28.24 70.59h4.7v4.7h-4.7z"/><path class="st12" d="M28.24 65.88h4.7v4.71h-4.7z"/><path class="st16" d="M28.24 61.18h4.7v4.7h-4.7z"/><path class="st7" d="M28.24 56.47h4.7v4.71h-4.7zM28.24 51.76h4.7v4.71h-4.7z"/><path class="st7" d="M28.24 47.06h4.7v4.7h-4.7z"/><path class="st5" d="M28.24 42.35h4.7v4.71h-4.7z"/><path class="st3" d="M28.24 37.65h4.7v4.7h-4.7z"/><path class="st4" d="M28.24 32.94h4.7v4.71h-4.7z"/><path class="st3" d="M28.24 28.24h4.7v4.7h-4.7z"/><path style="fill:#1f8b00" d="M28.24 23.53h4.7v4.71h-4.7z"/><path class="st20" d="M28.24 18.82h4.7v4.71h-4.7z"/><path class="st16" d="M28.24 14.12h4.7v4.7h-4.7z"/><path class="st15" d="M32.94 70.59h4.71v4.7h-4.71z"/><path class="st12" d="M32.94 65.88h4.71v4.71h-4.71z"/><path class="st16" d="M32.94 61.18h4.71v4.7h-4.71z"/><path class="st7" d="M32.94 56.47h4.71v4.71h-4.71zM32.94 51.76h4.71v4.71h-4.71z"/><path class="st7" d="M32.94 47.06h4.71v4.7h-4.71z"/><path class="st5" d="M32.94 42.35h4.71v4.71h-4.71zM32.94 37.65h4.71v4.7h-4.71z"/><path class="st3" d="M32.94 32.94h4.71v4.71h-4.71z"/><path class="st17" d="M32.94 28.24h4.71v4.7h-4.71z"/><path class="st20" d="M32.94 23.53h4.71v4.71h-4.71zM32.94 18.82h4.71v4.71h-4.71z"/><path class="st17" d="M32.94 14.12h4.71v4.7h-4.71z"/><path class="st15" d="M37.65 70.59h4.7v4.7h-4.7z"/><path class="st12" d="M37.65 65.88h4.7v4.71h-4.7z"/><path class="st16" d="M37.65 61.18h4.7v4.7h-4.7zM37.65 56.47h4.7v4.71h-4.7z"/><path class="st4" d="M37.65 51.76h4.7v4.71h-4.7z"/><path class="st7" d="M37.65 47.06h4.7v4.7h-4.7zM37.65 42.35h4.7v4.71h-4.7z"/><path class="st3" d="M37.65 37.65h4.7v4.7h-4.7zM37.65 32.94h4.7v4.71h-4.7z"/><path class="st20" d="M37.65 28.24h4.7v4.7h-4.7z"/><path class="st5" d="M37.65 23.53h4.7v4.71h-4.7z"/><path class="st4" d="M37.65 18.82h4.7v4.71h-4.7zM37.65 14.12h4.7v4.7h-4.7z"/><path class="st15" d="M42.35 70.59h4.71v4.7h-4.71z"/><path class="st12" d="M42.35 65.88h4.71v4.71h-4.71zM42.35 61.18h4.71v4.7h-4.71z"/><path class="st16" d="M42.35 56.47h4.71v4.71h-4.71z"/><path class="st4" d="M42.35 51.76h4.71v4.71h-4.71z"/><path class="st4" d="M42.35 47.06h4.71v4.7h-4.71z"/><path class="st7" d="M42.35 42.35h4.71v4.71h-4.71zM42.35 37.65h4.71v4.7h-4.71z"/><path class="st5" d="M42.35 32.94h4.71v4.71h-4.71zM42.35 28.24h4.71v4.7h-4.71z"/><path class="st4" d="M42.35 23.53h4.71v4.71h-4.71z"/><path class="st8" d="M42.35 18.82h4.71v4.71h-4.71z"/><path class="st4" d="M42.35 14.12h4.71v4.7h-4.71z"/><path class="st15" d="M47.06 70.59h4.7v4.7h-4.7z"/><path class="st6" d="M47.06 65.88h4.7v4.71h-4.7z"/><path class="st12" d="M47.06 61.18h4.7v4.7h-4.7z"/><path class="st16" d="M47.06 56.47h4.7v4.71h-4.7zM47.06 51.76h4.7v4.71h-4.7z"/><path class="st4" d="M47.06 47.06h4.7v4.7h-4.7zM47.06 42.35h4.7v4.71h-4.7z"/><path class="st7" d="M47.06 37.65h4.7v4.7h-4.7zM47.06 32.94h4.7v4.71h-4.7zM47.06 28.24h4.7v4.7h-4.7z"/><path class="st9" d="M47.06 23.53h4.7v4.71h-4.7zM47.06 18.82h4.7v4.71h-4.7z"/><path class="st2" d="M47.06 14.12h4.7v4.7h-4.7z"/><path class="st15" d="M51.76 65.88h4.71v4.71h-4.71z"/><path class="st12" d="M51.76 61.18h4.71v4.7h-4.71zM51.76 56.47h4.71v4.71h-4.71z"/><path class="st16" d="M51.76 51.76h4.71v4.71h-4.71z"/><path class="st16" d="M51.76 47.06h4.71v4.7h-4.71zM51.76 42.35h4.71v4.71h-4.71z"/><path class="st4" d="M51.76 37.65h4.71v4.7h-4.71zM51.76 32.94h4.71v4.71h-4.71z"/><path class="st7" d="M51.76 28.24h4.71v4.7h-4.71z"/><path class="st8" d="M51.76 23.53h4.71v4.71h-4.71zM51.76 18.82h4.71v4.71h-4.71z"/><path class="st2" d="M51.76 14.12h4.71v4.7h-4.71z"/><path class="st15" d="M56.47 65.88h4.71v4.71h-4.71z"/><path class="st6" d="M56.47 61.18h4.71v4.7h-4.71z"/><path class="st12" d="M56.47 56.47h4.71v4.71h-4.71z"/><path class="st16" d="M56.47 51.76h4.71v4.71h-4.71z"/><path class="st16" d="M56.47 47.06h4.71v4.7h-4.71z"/><path class="st4" d="M56.47 42.35h4.71v4.71h-4.71zM56.47 37.65h4.71v4.7h-4.71zM56.47 32.94h4.71v4.71h-4.71z"/><path class="st16" d="M56.47 28.24h4.71v4.7h-4.71z"/><path class="st16" d="M56.47 23.53h4.71v4.71h-4.71z"/><path class="st2" d="M56.47 18.82h4.71v4.71h-4.71z"/><path class="st6" d="M61.18 61.18h4.7v4.7h-4.7zM61.18 56.47h4.7v4.71h-4.7z"/><path class="st12" d="M61.18 51.76h4.7v4.71h-4.7z"/><path class="st16" d="M61.18 47.06h4.7v4.7h-4.7zM61.18 42.35h4.7v4.71h-4.7zM61.18 37.65h4.7v4.7h-4.7zM61.18 32.94h4.7v4.71h-4.7zM61.18 28.24h4.7v4.7h-4.7z"/><path class="st12" d="M61.18 23.53h4.7v4.71h-4.7z"/><path class="st2" d="M61.18 18.82h4.7v4.71h-4.7z"/><path class="st6" d="M65.88 56.47h4.71v4.71h-4.71zM65.88 51.76h4.71v4.71h-4.71z"/><path class="st12" d="M65.88 47.06h4.71v4.7h-4.71zM65.88 42.35h4.71v4.71h-4.71zM65.88 37.65h4.71v4.7h-4.71zM65.88 32.94h4.71v4.71h-4.71zM65.88 28.24h4.71v4.7h-4.71z"/><path class="st2" d="M65.88 23.53h4.71v4.71h-4.71z"/><path class="st6" d="M70.59 51.76h4.7v4.71h-4.7z"/><path class="st6" d="M70.59 47.06h4.7v4.7h-4.7zM70.59 42.35h4.7v4.71h-4.7zM70.59 37.65h4.7v4.7h-4.7z"/><path class="st2" d="M70.59 32.94h4.7v4.71h-4.7zM70.59 28.24h4.7v4.7h-4.7z"/></g></g></svg>