<svg xmlns="http://www.w3.org/2000/svg" viewBox="0 0 80 80" style="enable-background:new 0 0 80 80" xml:space="preserve"><style>.st2{fill:#d1ad00}.st3{fill:#b29000}.st4{fill:#ffff8d}.st5{fill:#ffdf1a}.st6{fill:#ffd46b}.st7{fill:#c48500}.st8{fill:#ffb800}.st9{fill:#fff6dc}.st10{fill:#9f7600}.st11{fill:#ad8d1e}</style><g id="grid"><g id="XMLID_00000041283197804244816020000004535456255995436928_"><path class="st2" d="M0 61.18h4.71v4.7H0zM0 56.47h4.71v4.71H0z"/><path class="st3" d="M0 47.06h4.71v4.7H0z"/><path class="st4" d="M0 42.35h4.71v4.71H0z"/><path class="st2" d="M0 37.65h4.71v4.7H0zM4.71 61.18h4.7v4.7h-4.7z"/><path class="st4" d="M4.71 56.47h4.7v4.71h-4.7z"/><path class="st2" d="M4.71 51.76h4.7v4.71h-4.7z"/><path class="st3" d="M4.71 47.06h4.7v4.7h-4.7z"/><path class="st4" d="M4.71 42.35h4.7v4.71h-4.7z"/><path class="st5" d="M4.71 37.65h4.7v4.7h-4.7z"/><path class="st2" d="M4.71 32.94h4.7v4.71h-4.7zM9.41 61.18h4.71v4.7H9.41z"/><path class="st6" d="M9.41 56.47h4.71v4.71H9.41z"/><path class="st4" d="M9.41 51.76h4.71v4.71H9.41z"/><path class="st7" d="M9.41 47.06h4.71v4.7H9.41z"/><path class="st6" d="M9.41 42.35h4.71v4.71H9.41z"/><path class="st4" d="M9.41 37.65h4.71v4.7H9.41z"/><path class="st5" d="M9.41 32.94h4.71v4.71H9.41z"/><path class="st2" d="M14.12 61.18h4.7v4.7h-4.7z"/><path class="st6" d="M14.12 56.47h4.7v4.71h-4.7z"/><path class="st4" d="M14.12 51.76h4.7v4.71h-4.7z"/><path class="st7" d="M14.12 47.06h4.7v4.7h-4.7z"/><path class="st8" d="M14.12 42.35h4.7v4.71h-4.7z"/><path class="st6" d="M14.12 37.65h4.7v4.7h-4.7z"/><path class="st9" d="M14.12 32.94h4.7v4.71h-4.7z"/><path class="st2" d="M14.12 28.24h4.7v4.7h-4.7z"/><path class="st3" d="M18.82 61.18h4.71v4.7h-4.71z"/><path class="st8" d="M18.82 56.47h4.71v4.71h-4.71z"/><path class="st6" d="M18.82 51.76h4.71v4.71h-4.71z"/><path class="st4" d="M18.82 47.06h4.71v4.7h-4.71z"/><path class="st7" d="M18.82 42.35h4.71v4.71h-4.71z"/><path class="st6" d="M18.82 37.65h4.71v4.7h-4.71z"/><path class="st4" d="M18.82 32.94h4.71v4.71h-4.71z"/><path class="st5" d="M18.82 28.24h4.71v4.7h-4.71z"/><path class="st8" d="M23.53 70.59h4.71v4.7h-4.71z"/><path class="st3" d="M23.53 65.88h4.71v4.71h-4.71zM23.53 61.18h4.71v4.7h-4.71z"/><path class="st8" d="M23.53 56.47h4.71v4.71h-4.71z"/><path class="st5" d="M23.53 51.76h4.71v4.71h-4.71z"/><path class="st6" d="M23.53 47.06h4.71v4.7h-4.71z"/><path class="st4" d="M23.53 42.35h4.71v4.71h-4.71z"/><path class="st3" d="M23.53 37.65h4.71v4.7h-4.71z"/><path class="st6" d="M23.53 32.94h4.71v4.71h-4.71z"/><path class="st5" d="M23.53 28.24h4.71v4.7h-4.71z"/><path class="st3" d="M23.53 23.53h4.71v4.71h-4.71z"/><path class="st8" d="M28.24 70.59h4.7v4.7h-4.7z"/><path class="st5" d="M28.24 65.88h4.7v4.71h-4.7z"/><path class="st3" d="M28.24 61.18h4.7v4.7h-4.7zM28.24 56.47h4.7v4.71h-4.7z"/><path class="st8" d="M28.24 51.76h4.7v4.71h-4.7z"/><path class="st5" d="M28.24 47.06h4.7v4.7h-4.7z"/><path class="st6" d="M28.24 42.35h4.7v4.71h-4.7z"/><path class="st4" d="M28.24 37.65h4.7v4.7h-4.7z"/><path class="st10" d="M28.24 32.94h4.7v4.71h-4.7z"/><path class="st5" d="M28.24 28.24h4.7v4.7h-4.7z"/><path class="st5" d="M28.24 23.53h4.7v4.71h-4.7z"/><path class="st3" d="M32.94 70.59h4.71v4.7h-4.71z"/><path class="st5" d="M32.94 65.88h4.71v4.71h-4.71z"/><path class="st4" d="M32.94 61.18h4.71v4.7h-4.71z"/><path class="st3" d="M32.94 56.47h4.71v4.71h-4.71zM32.94 51.76h4.71v4.71h-4.71z"/><path class="st8" d="M32.94 47.06h4.71v4.7h-4.71z"/><path class="st5" d="M32.94 42.35h4.71v4.71h-4.71zM32.94 37.65h4.71v4.7h-4.71zM32.94 32.94h4.71v4.71h-4.71z"/><path class="st10" d="M32.94 28.24h4.71v4.7h-4.71z"/><path class="st6" d="M32.94 23.53h4.71v4.71h-4.71z"/><path class="st3" d="M32.94 18.82h4.71v4.71h-4.71zM37.65 70.59h4.7v4.7h-4.7z"/><path class="st8" d="M37.65 65.88h4.7v4.71h-4.7z"/><path class="st5" d="M37.65 61.18h4.7v4.7h-4.7z"/><path class="st9" d="M37.65 56.47h4.7v4.71h-4.7z"/><path class="st4" d="M37.65 51.76h4.7v4.71h-4.7z"/><path class="st3" d="M37.65 47.06h4.7v4.7h-4.7z"/><path class="st8" d="M37.65 42.35h4.7v4.71h-4.7zM37.65 37.65h4.7v4.7h-4.7z"/><path class="st5" d="M37.65 32.94h4.7v4.71h-4.7zM37.65 28.24h4.7v4.7h-4.7z"/><path class="st10" d="M37.65 23.53h4.7v4.71h-4.7z"/><path class="st7" d="M37.65 18.82h4.7v4.71h-4.7z"/><path class="st6" d="M37.65 4.71h4.7v4.7h-4.7z"/><path class="st3" d="M42.35 70.59h4.71v4.7h-4.71z"/><path class="st8" d="M42.35 65.88h4.71v4.71h-4.71z"/><path class="st5" d="M42.35 61.18h4.71v4.7h-4.71z"/><path class="st4" d="M42.35 56.47h4.71v4.71h-4.71z"/><path class="st9" d="M42.35 51.76h4.71v4.71h-4.71z"/><path class="st9" d="M42.35 47.06h4.71v4.7h-4.71z"/><path class="st3" d="M42.35 42.35h4.71v4.71h-4.71z"/><path class="st8" d="M42.35 37.65h4.71v4.7h-4.71zM42.35 32.94h4.71v4.71h-4.71zM42.35 28.24h4.71v4.7h-4.71z"/><path class="st8" d="M42.35 23.53h4.71v4.71h-4.71z"/><path class="st7" d="M42.35 18.82h4.71v4.71h-4.71z"/><path class="st6" d="M42.35 9.41h4.71v4.71h-4.71z"/><path class="st4" d="M42.35 4.71h4.71v4.7h-4.71z"/><path class="st11" d="M42.35 0h4.71v4.71h-4.71z"/><path class="st3" d="M47.06 65.88h4.7v4.71h-4.7z"/><path class="st8" d="M47.06 61.18h4.7v4.7h-4.7z"/><path class="st5" d="M47.06 56.47h4.7v4.71h-4.7zM47.06 51.76h4.7v4.71h-4.7z"/><path class="st4" d="M47.06 47.06h4.7v4.7h-4.7z"/><path class="st9" d="M47.06 42.35h4.7v4.71h-4.7z"/><path class="st3" d="M47.06 37.65h4.7v4.7h-4.7z"/><path class="st10" d="M47.06 32.94h4.7v4.71h-4.7zM47.06 28.24h4.7v4.7h-4.7z"/><path class="st8" d="M47.06 23.53h4.7v4.71h-4.7zM47.06 18.82h4.7v4.71h-4.7z"/><path class="st10" d="M47.06 14.12h4.7v4.7h-4.7z"/><path class="st5" d="M47.06 9.41h4.7v4.71h-4.7z"/><path class="st11" d="M47.06 4.71h4.7v4.7h-4.7z"/><path class="st10" d="M51.76 65.88h4.71v4.71h-4.71z"/><path class="st8" d="M51.76 61.18h4.71v4.7h-4.71zM51.76 56.47h4.71v4.71h-4.71z"/><path class="st5" d="M51.76 51.76h4.71v4.71h-4.71z"/><path class="st5" d="M51.76 47.06h4.71v4.7h-4.71z"/><path class="st4" d="M51.76 42.35h4.71v4.71h-4.71zM51.76 37.65h4.71v4.7h-4.71zM51.76 32.94h4.71v4.71h-4.71z"/><path class="st8" d="M51.76 28.24h4.71v4.7h-4.71z"/><path class="st3" d="M51.76 23.53h4.71v4.71h-4.71z"/><path class="st10" d="M51.76 18.82h4.71v4.71h-4.71z"/><path class="st8" d="M51.76 14.12h4.71v4.7h-4.71z"/><path class="st5" d="M51.76 9.41h4.71v4.71h-4.71z"/><path class="st7" d="M51.76 4.71h4.71v4.7h-4.71z"/><path class="st10" d="M56.47 61.18h4.71v4.7h-4.71z"/><path class="st8" d="M56.47 56.47h4.71v4.71h-4.71zM56.47 51.76h4.71v4.71h-4.71z"/><path class="st5" d="M56.47 47.06h4.71v4.7h-4.71zM56.47 42.35h4.71v4.71h-4.71zM56.47 37.65h4.71v4.7h-4.71zM56.47 32.94h4.71v4.71h-4.71z"/><path class="st8" d="M56.47 28.24h4.71v4.7h-4.71z"/><path class="st8" d="M56.47 23.53h4.71v4.71h-4.71zM56.47 18.82h4.71v4.71h-4.71zM56.47 14.12h4.71v4.7h-4.71z"/><path class="st7" d="M56.47 9.41h4.71v4.71h-4.71z"/><path class="st10" d="M61.18 56.47h4.7v4.71h-4.7zM61.18 51.76h4.7v4.71h-4.7z"/><path class="st8" d="M61.18 47.06h4.7v4.7h-4.7zM61.18 42.35h4.7v4.71h-4.7zM61.18 37.65h4.7v4.7h-4.7z"/><path class="st3" d="M61.18 32.94h4.7v4.71h-4.7z"/><path class="st7" d="M61.18 28.24h4.7v4.7h-4.7z"/><path class="st7" d="M61.18 23.53h4.7v4.71h-4.7z"/><path class="st10" d="M61.18 18.82h4.7v4.71h-4.7z"/><path class="st8" d="M61.18 14.12h4.7v4.7h-4.7z"/><path class="st3" d="M61.18 9.41h4.7v4.71h-4.7z"/><path class="st10" d="M65.88 47.06h4.71v4.7h-4.71z"/><path class="st3" d="M65.88 42.35h4.71v4.71h-4.71zM65.88 37.65h4.71v4.7h-4.71zM65.88 18.82h4.71v4.71h-4.71z"/><path class="st6" d="M65.88 14.12h4.71v4.7h-4.71z"/><path class="st7" d="M65.88 9.41h4.71v4.71h-4.71z"/><path class="st11" d="M70.59 18.82h4.7v4.71h-4.7z"/><path class="st7" d="M70.59 14.12h4.7v4.7h-4.7z"/><path class="st3" d="M75.29 18.82H80v4.71h-4.71z"/></g></g></svg>