<svg id="_イヤー_2" xmlns="http://www.w3.org/2000/svg" viewBox="0 0 80.5 80.5"><defs><style>.cls-1{fill:#e8ab69}.cls-2{fill:#fff}.cls-3{fill:#ffe5c5}.cls-4{fill:#e5c08f}.cls-6{fill:#e5b780}.cls-7{fill:#c9bc9c}.cls-8{fill:#cc954c}.cls-9{fill:#231815}.cls-10{fill:#1d1d1d}.cls-11{fill:#9acfe2}</style></defs><g id="grid"><path class="cls-9" d="M9.67 23.78h4.7v4.71h-4.7zM9.67 19.07h4.7v4.71h-4.7zM9.67 9.66h4.7v4.71h-4.7z"/><path class="cls-10" d="M14.37 56.72h4.71v4.71h-4.71zM14.37 52.01h4.71v4.71h-4.71z"/><path class="cls-10" d="M14.37 47.31h4.71v4.7h-4.71zM14.37 42.6h4.71v4.71h-4.71z"/><path class="cls-9" d="M14.37 28.49h4.71v4.7h-4.71z"/><path d="M14.37 23.78h4.71v4.71h-4.71zM14.37 19.07h4.71v4.71h-4.71zM14.37 14.37h4.71v4.7h-4.71z"/><path class="cls-9" d="M14.37 9.66h4.71v4.71h-4.71zM14.37 4.96h4.71v4.7h-4.71z"/><path class="cls-10" d="M19.08 61.43h4.7v4.7h-4.7z"/><path class="cls-3" d="M19.08 56.72h4.7v4.71h-4.7z"/><path class="cls-1" d="M19.08 52.01h4.7v4.71h-4.7z"/><path class="cls-6" d="M19.08 47.31h4.7v4.7h-4.7zM19.08 42.6h4.7v4.71h-4.7z"/><path class="cls-10" d="M19.08 37.9h4.7v4.7h-4.7z"/><path class="cls-9" d="M19.08 33.19h4.7v4.71h-4.7z"/><path d="M19.08 28.49h4.7v4.7h-4.7z"/><path d="M19.08 23.78h4.7v4.71h-4.7zM19.08 19.07h4.7v4.71h-4.7zM19.08 14.37h4.7v4.7h-4.7z"/><path d="M19.08 9.66h4.7v4.71h-4.7z"/><path class="cls-9" d="M19.08 4.96h4.7v4.7h-4.7zM19.08.25h4.7v4.71h-4.7z"/><path class="cls-10" d="M23.78 66.13h4.71v4.71h-4.71z"/><path class="cls-11" d="M23.78 61.43h4.71v4.7h-4.71z"/><path class="cls-8" d="M23.78 56.72h4.71v4.71h-4.71zM23.78 52.01h4.71v4.71h-4.71z"/><path class="cls-1" d="M23.78 47.31h4.71v4.7h-4.71z"/><path class="cls-8" d="M23.78 42.6h4.71v4.71h-4.71z"/><path class="cls-3" d="M23.78 37.9h4.71v4.7h-4.71zM23.78 33.19h4.71v4.71h-4.71z"/><path class="cls-4" d="M23.78 28.49h4.71v4.7h-4.71z"/><path d="M23.78 23.78h4.71v4.71h-4.71zM23.78 19.07h4.71v4.71h-4.71zM23.78 14.37h4.71v4.7h-4.71z"/><path d="M23.78 9.66h4.71v4.71h-4.71zM23.78 4.96h4.71v4.7h-4.71zM23.78.25h4.71v4.71h-4.71z"/><path class="cls-10" d="M28.49 70.84h4.71v4.7h-4.71z"/><path class="cls-7" d="M28.49 66.13h4.71v4.71h-4.71z"/><path class="cls-11" d="M28.49 61.43h4.71v4.7h-4.71z"/><path class="cls-1" d="M28.49 56.72h4.71v4.71h-4.71zM28.49 52.01h4.71v4.71h-4.71z"/><path class="cls-1" d="M28.49 47.31h4.71v4.7h-4.71z"/><path class="cls-6" d="M28.49 42.6h4.71v4.71h-4.71z"/><path class="cls-3" d="M28.49 37.9h4.71v4.7h-4.71z"/><path class="cls-9" d="M28.49 33.19h4.71v4.71h-4.71z"/><path d="M28.49 28.49h4.71v4.7h-4.71z"/><path class="cls-9" d="M28.49 23.78h4.71v4.71h-4.71z"/><path d="M28.49 19.07h4.71v4.71h-4.71zM28.49 14.37h4.71v4.7h-4.71z"/><path d="M28.49 9.66h4.71v4.71h-4.71zM28.49 4.96h4.71v4.7h-4.71zM28.49.25h4.71v4.71h-4.71z"/><path class="cls-10" d="M33.2 70.84h4.7v4.7h-4.7z"/><path class="cls-7" d="M33.2 66.13h4.7v4.71h-4.7z"/><path class="cls-11" d="M33.2 61.43h4.7v4.7h-4.7z"/><path class="cls-1" d="M33.2 56.72h4.7v4.71h-4.7zM33.2 52.01h4.7v4.71h-4.7z"/><path class="cls-6" d="M33.2 47.31h4.7v4.7h-4.7zM33.2 42.6h4.7v4.71h-4.7z"/><path class="cls-3" d="M33.2 37.9h4.7v4.7h-4.7zM33.2 33.19h4.7v4.71h-4.7zM33.2 28.49h4.7v4.7h-4.7z"/><path class="cls-4" d="M33.2 23.78h4.7v4.71h-4.7z"/><path d="M33.2 19.07h4.7v4.71h-4.7zM33.2 14.37h4.7v4.7h-4.7z"/><path d="M33.2 9.66h4.7v4.71h-4.7zM33.2 4.96h4.7v4.7h-4.7z"/><path class="cls-9" d="M33.2.25h4.7v4.71h-4.7z"/><path class="cls-10" d="M37.9 66.13h4.71v4.71H37.9z"/><path style="fill:#549ab2" d="M37.9 61.43h4.71v4.7H37.9z"/><path class="cls-2" d="M37.9 56.72h4.71v4.71H37.9zM37.9 52.01h4.71v4.71H37.9z"/><path class="cls-2" d="M37.9 47.31h4.71v4.7H37.9z"/><path style="fill:#e2e2e2" d="M37.9 42.6h4.71v4.71H37.9z"/><path class="cls-3" d="M37.9 37.9h4.71v4.7H37.9zM37.9 33.19h4.71v4.71H37.9zM37.9 28.49h4.71v4.7H37.9z"/><path d="M37.9 23.78h4.71v4.71H37.9zM37.9 19.07h4.71v4.71H37.9zM37.9 14.37h4.71v4.7H37.9z"/><path d="M37.9 9.66h4.71v4.71H37.9zM37.9 4.96h4.71v4.7H37.9zM37.9.25h4.71v4.71H37.9z"/><path class="cls-10" d="M42.61 70.84h4.7v4.7h-4.7z"/><path class="cls-7" d="M42.61 66.13h4.7v4.71h-4.7z"/><path class="cls-11" d="M42.61 61.43h4.7v4.7h-4.7z"/><path class="cls-1" d="M42.61 56.72h4.7v4.71h-4.7zM42.61 52.01h4.7v4.71h-4.7z"/><path class="cls-1" d="M42.61 47.31h4.7v4.7h-4.7z"/><path class="cls-6" d="M42.61 42.6h4.7v4.71h-4.7z"/><path class="cls-3" d="M42.61 37.9h4.7v4.7h-4.7zM42.61 33.19h4.7v4.71h-4.7zM42.61 28.49h4.7v4.7h-4.7z"/><path class="cls-4" d="M42.61 23.78h4.7v4.71h-4.7zM42.61 19.07h4.7v4.71h-4.7z"/><path d="M42.61 14.37h4.7v4.7h-4.7z"/><path d="M42.61 9.66h4.7v4.71h-4.7zM42.61 4.96h4.7v4.7h-4.7zM42.61.25h4.7v4.71h-4.7z"/><path class="cls-10" d="M47.31 70.84h4.71v4.7h-4.71z"/><path class="cls-7" d="M47.31 66.13h4.71v4.71h-4.71z"/><path class="cls-11" d="M47.31 61.43h4.71v4.7h-4.71z"/><path class="cls-1" d="M47.31 56.72h4.71v4.71h-4.71zM47.31 52.01h4.71v4.71h-4.71z"/><path class="cls-1" d="M47.31 47.31h4.71v4.7h-4.71z"/><path class="cls-6" d="M47.31 42.6h4.71v4.71h-4.71z"/><path class="cls-3" d="M47.31 37.9h4.71v4.7h-4.71z"/><path class="cls-9" d="M47.31 33.19h4.71v4.71h-4.71z"/><path d="M47.31 28.49h4.71v4.7h-4.71z"/><path class="cls-9" d="M47.31 23.78h4.71v4.71h-4.71z"/><path class="cls-4" d="M47.31 19.07h4.71v4.71h-4.71z"/><path d="M47.31 14.37h4.71v4.7h-4.71z"/><path d="M47.31 9.66h4.71v4.71h-4.71z"/><path class="cls-9" d="M47.31 4.96h4.71v4.7h-4.71z"/><path d="M47.31.25h4.71v4.71h-4.71z"/><path class="cls-10" d="M52.02 66.13h4.7v4.71h-4.7z"/><path class="cls-11" d="M52.02 61.43h4.7v4.7h-4.7z"/><path class="cls-8" d="M52.02 56.72h4.7v4.71h-4.7zM52.02 52.01h4.7v4.71h-4.7z"/><path class="cls-1" d="M52.02 47.31h4.7v4.7h-4.7z"/><path class="cls-8" d="M52.02 42.6h4.7v4.71h-4.7z"/><path class="cls-3" d="M52.02 37.9h4.7v4.7h-4.7zM52.02 33.19h4.7v4.71h-4.7z"/><path class="cls-4" d="M52.02 28.49h4.7v4.7h-4.7z"/><path class="cls-6" d="M52.02 23.78h4.7v4.71h-4.7z"/><path d="M52.02 19.07h4.7v4.71h-4.7zM52.02 14.37h4.7v4.7h-4.7z"/><path d="M52.02 9.66h4.7v4.71h-4.7zM52.02 4.96h4.7v4.7h-4.7zM52.02.25h4.7v4.71h-4.7z"/><path class="cls-10" d="M56.72 61.43h4.71v4.7h-4.71z"/><path class="cls-3" d="M56.72 56.72h4.71v4.71h-4.71z"/><path class="cls-1" d="M56.72 52.01h4.71v4.71h-4.71z"/><path class="cls-6" d="M56.72 47.31h4.71v4.7h-4.71zM56.72 42.6h4.71v4.71h-4.71z"/><path class="cls-10" d="M56.72 37.9h4.71v4.7h-4.71z"/><path d="M56.72 33.19h4.71v4.71h-4.71zM56.72 28.49h4.71v4.7h-4.71z"/><path d="M56.72 23.78h4.71v4.71h-4.71zM56.72 19.07h4.71v4.71h-4.71zM56.72 14.37h4.71v4.7h-4.71z"/><path class="cls-9" d="M56.72 9.66h4.71v4.71h-4.71zM56.72 4.96h4.71v4.7h-4.71z"/><path class="cls-10" d="M56.72.25h4.71v4.71h-4.71zM61.43 56.72h4.71v4.71h-4.71zM61.43 52.01h4.71v4.71h-4.71z"/><path class="cls-10" d="M61.43 47.31h4.71v4.7h-4.71zM61.43 42.6h4.71v4.71h-4.71z"/><path d="M61.43 28.49h4.71v4.7h-4.71z"/><path d="M61.43 23.78h4.71v4.71h-4.71zM61.43 19.07h4.71v4.71h-4.71zM61.43 14.37h4.71v4.7h-4.71z"/><path class="cls-9" d="M61.43 9.66h4.71v4.71h-4.71z"/><path class="cls-10" d="M61.43 4.96h4.71v4.7h-4.71z"/><path class="cls-9" d="M66.14 19.07h4.7v4.71h-4.7zM66.14 14.37h4.7v4.7h-4.7z"/></g></svg>