<svg id="_イヤー_2" xmlns="http://www.w3.org/2000/svg" viewBox="0 0 160.5 160.5"><defs><style>.cls-1{fill:#eaa259}.cls-2{fill:#e8ab69}.cls-3{fill:#fff}.cls-4{fill:#fff1d0}.cls-5{fill:#ffe5c5}.cls-6{fill:#eacdb9}.cls-7{fill:#e5c08f}.cls-8{fill:#e2e2e2}.cls-9{fill:#eddacc}.cls-10{fill:#e5b780}.cls-11{fill:#b58b5d}.cls-12{fill:#cc954c}.cls-13{fill:#e2cfa6}.cls-14{fill:#e2b68a}.cls-15{fill:#e2a040}.cls-16{fill:#231815}</style></defs><g id="grid"><path d="M140.25 65.25h5v5h-5z"/><path class="cls-16" d="M140.25 60.25h5v5h-5z"/><path d="M140.25 30.25h5v5h-5zM135.25 80.25h5v5h-5z"/><path class="cls-16" d="M135.25 75.25h5v5h-5zM135.25 70.25h5v5h-5zM135.25 65.25h5v5h-5zM135.25 60.25h5v5h-5zM135.25 50.25h5v5h-5zM135.25 45.25h5v5h-5z"/><path d="M135.25 35.25h5v5h-5z"/><path class="cls-16" d="M130.25 90.25h5v5h-5zM130.25 85.25h5v5h-5zM130.25 80.25h5v5h-5z"/><path d="M130.25 75.25h5v5h-5z"/><path class="cls-16" d="M130.25 70.25h5v5h-5z"/><path d="M130.25 65.25h5v5h-5z"/><path class="cls-16" d="M130.25 60.25h5v5h-5zM130.25 55.25h5v5h-5zM130.25 50.25h5v5h-5zM130.25 45.25h5v5h-5zM130.25 40.25h5v5h-5zM130.25 35.25h5v5h-5zM130.25 30.25h5v5h-5z"/><path d="M125.25 155.25h5v5h-5zM125.25 150.25h5v5h-5zM125.25 145.25h5v5h-5zM125.25 140.25h5v5h-5zM125.25 135.25h5v5h-5zM125.25 130.25h5v5h-5z"/><path class="cls-16" d="M125.25 90.25h5v5h-5z"/><path class="cls-7" d="M125.25 85.25h5v5h-5z"/><path class="cls-16" d="M125.25 80.25h5v5h-5z"/><path d="M125.25 75.25h5v5h-5zM125.25 70.25h5v5h-5zM125.25 65.25h5v5h-5zM125.25 60.25h5v5h-5z"/><path class="cls-16" d="M125.25 55.25h5v5h-5z"/><path d="M125.25 50.25h5v5h-5z"/><path class="cls-16" d="M125.25 45.25h5v5h-5z"/><path d="M125.25 40.25h5v5h-5z"/><path class="cls-16" d="M125.25 35.25h5v5h-5zM125.25 30.25h5v5h-5z"/><path d="M125.25 25.25h5v5h-5zM125.25 20.25h5v5h-5z"/><path class="cls-15" d="M120.25 155.25h5v5h-5zM120.25 150.25h5v5h-5z"/><path class="cls-1" d="M120.25 145.25h5v5h-5zM120.25 140.25h5v5h-5z"/><path class="cls-2" d="M120.25 135.25h5v5h-5z"/><path class="cls-10" d="M120.25 130.25h5v5h-5z"/><path d="M120.25 125.25h5v5h-5zM120.25 95.25h5v5h-5z"/><path class="cls-16" d="M120.25 90.25h5v5h-5zM120.25 85.25h5v5h-5zM120.25 80.25h5v5h-5z"/><path d="M120.25 75.25h5v5h-5zM120.25 70.25h5v5h-5zM120.25 65.25h5v5h-5zM120.25 60.25h5v5h-5zM120.25 55.25h5v5h-5zM120.25 50.25h5v5h-5z"/><path class="cls-16" d="M120.25 45.25h5v5h-5zM120.25 40.25h5v5h-5z"/><path d="M120.25 35.25h5v5h-5z"/><path class="cls-16" d="M120.25 30.25h5v5h-5zM120.25 25.25h5v5h-5z"/><path d="M120.25 20.25h5v5h-5zM120.25 15.25h5v5h-5z"/><path class="cls-12" d="M115.25 155.25h5v5h-5zM115.25 150.25h5v5h-5zM115.25 145.25h5v5h-5z"/><path d="M115.25 140.25h5v5h-5zM115.25 135.25h5v5h-5zM115.25 130.25h5v5h-5z"/><path class="cls-2" d="M115.25 125.25h5v5h-5z"/><path d="M115.25 120.25h5v5h-5z"/><path class="cls-16" d="M115.25 100.25h5v5h-5zM115.25 95.25h5v5h-5z"/><path class="cls-11" d="M115.25 90.25h5v5h-5z"/><path d="M115.25 85.25h5v5h-5z"/><path class="cls-16" d="M115.25 80.25h5v5h-5zM115.25 75.25h5v5h-5zM115.25 70.25h5v5h-5zM115.25 65.25h5v5h-5zM115.25 60.25h5v5h-5z"/><path d="M115.25 55.25h5v5h-5zM115.25 50.25h5v5h-5zM115.25 45.25h5v5h-5zM115.25 40.25h5v5h-5zM115.25 35.25h5v5h-5zM115.25 30.25h5v5h-5zM115.25 25.25h5v5h-5z"/><path class="cls-16" d="M115.25 20.25h5v5h-5z"/><path d="M115.25 15.25h5v5h-5zM115.25 5.25h5v5h-5zM110.25 155.25h5v5h-5zM110.25 150.25h5v5h-5zM110.25 145.25h5v5h-5z"/><path class="cls-15" d="M110.25 140.25h5v5h-5zM110.25 135.25h5v5h-5zM110.25 130.25h5v5h-5zM110.25 125.25h5v5h-5zM110.25 120.25h5v5h-5z"/><path d="M110.25 115.25h5v5h-5z"/><path class="cls-16" d="M110.25 105.25h5v5h-5z"/><path class="cls-7" d="M110.25 100.25h5v5h-5zM110.25 95.25h5v5h-5zM110.25 90.25h5v5h-5z"/><path d="M110.25 85.25h5v5h-5z"/><path class="cls-16" d="M110.25 80.25h5v5h-5zM110.25 75.25h5v5h-5z"/><path class="cls-11" d="M110.25 70.25h5v5h-5zM110.25 65.25h5v5h-5z"/><path class="cls-16" d="M110.25 60.25h5v5h-5zM110.25 55.25h5v5h-5z"/><path d="M110.25 50.25h5v5h-5zM110.25 45.25h5v5h-5zM110.25 40.25h5v5h-5zM110.25 35.25h5v5h-5zM110.25 30.25h5v5h-5zM110.25 25.25h5v5h-5z"/><path class="cls-16" d="M110.25 20.25h5v5h-5zM110.25 15.25h5v5h-5zM110.25 10.25h5v5h-5z"/><path d="M110.25 5.25h5v5h-5z"/><path class="cls-1" d="M105.25 155.25h5v5h-5zM105.25 150.25h5v5h-5zM105.25 145.25h5v5h-5z"/><path d="M105.25 140.25h5v5h-5zM105.25 135.25h5v5h-5z"/><path class="cls-15" d="M105.25 130.25h5v5h-5z"/><path d="M105.25 125.25h5v5h-5z"/><path class="cls-12" d="M105.25 120.25h5v5h-5zM105.25 115.25h5v5h-5z"/><path class="cls-16" d="M105.25 110.25h5v5h-5z"/><path class="cls-11" d="M105.25 105.25h5v5h-5z"/><path class="cls-7" d="M105.25 100.25h5v5h-5z"/><path class="cls-5" d="M105.25 95.25h5v5h-5z"/><path d="M105.25 90.25h5v5h-5zM105.25 85.25h5v5h-5z"/><path class="cls-3" d="M105.25 80.25h5v5h-5z"/><path class="cls-16" d="M105.25 75.25h5v5h-5z"/><path class="cls-7" d="M105.25 70.25h5v5h-5z"/><path class="cls-16" d="M105.25 65.25h5v5h-5z"/><path d="M105.25 60.25h5v5h-5z"/><path class="cls-16" d="M105.25 55.25h5v5h-5zM105.25 50.25h5v5h-5z"/><path d="M105.25 45.25h5v5h-5zM105.25 40.25h5v5h-5zM105.25 35.25h5v5h-5zM105.25 30.25h5v5h-5zM105.25 25.25h5v5h-5zM105.25 20.25h5v5h-5zM105.25 15.25h5v5h-5z"/><path class="cls-16" d="M105.25 10.25h5v5h-5z"/><path class="cls-12" d="M100.25 155.25h5v5h-5zM100.25 150.25h5v5h-5z"/><path d="M100.25 145.25h5v5h-5z"/><path class="cls-2" d="M100.25 140.25h5v5h-5zM100.25 135.25h5v5h-5z"/><path d="M100.25 130.25h5v5h-5z"/><path class="cls-15" d="M100.25 125.25h5v5h-5z"/><path d="M100.25 120.25h5v5h-5zM100.25 115.25h5v5h-5z"/><path class="cls-11" d="M100.25 110.25h5v5h-5z"/><path class="cls-7" d="M100.25 105.25h5v5h-5z"/><path class="cls-5" d="M100.25 100.25h5v5h-5zM100.25 95.25h5v5h-5z"/><path d="M100.25 90.25h5v5h-5z"/><path class="cls-3" d="M100.25 85.25h5v5h-5z"/><path class="cls-5" d="M100.25 80.25h5v5h-5z"/><path class="cls-7" d="M100.25 75.25h5v5h-5zM100.25 70.25h5v5h-5z"/><path class="cls-16" d="M100.25 65.25h5v5h-5z"/><path d="M100.25 60.25h5v5h-5zM100.25 55.25h5v5h-5zM100.25 50.25h5v5h-5zM100.25 45.25h5v5h-5zM100.25 40.25h5v5h-5zM100.25 35.25h5v5h-5zM100.25 30.25h5v5h-5zM100.25 25.25h5v5h-5zM100.25 20.25h5v5h-5zM100.25 15.25h5v5h-5z"/><path class="cls-16" d="M100.25 10.25h5v5h-5z"/><path d="M95.25 155.25h5v5h-5zM95.25 150.25h5v5h-5z"/><path class="cls-15" d="M95.25 145.25h5v5h-5zM95.25 140.25h5v5h-5zM95.25 135.25h5v5h-5zM95.25 130.25h5v5h-5zM95.25 125.25h5v5h-5z"/><path class="cls-12" d="M95.25 120.25h5v5h-5z"/><path class="cls-16" d="M95.25 115.25h5v5h-5z"/><path class="cls-7" d="M95.25 110.25h5v5h-5z"/><path class="cls-5" d="M95.25 105.25h5v5h-5zM95.25 100.25h5v5h-5zM95.25 95.25h5v5h-5z"/><path d="M95.25 90.25h5v5h-5zM95.25 85.25h5v5h-5z"/><path class="cls-16" d="M95.25 80.25h5v5h-5zM95.25 75.25h5v5h-5z"/><path class="cls-5" d="M95.25 70.25h5v5h-5z"/><path class="cls-16" d="M95.25 65.25h5v5h-5zM95.25 60.25h5v5h-5zM95.25 55.25h5v5h-5zM95.25 50.25h5v5h-5zM95.25 45.25h5v5h-5z"/><path d="M95.25 40.25h5v5h-5zM95.25 35.25h5v5h-5zM95.25 30.25h5v5h-5zM95.25 25.25h5v5h-5zM95.25 20.25h5v5h-5zM95.25 15.25h5v5h-5z"/><path class="cls-16" d="M95.25 10.25h5v5h-5zM95.25 5.25h5v5h-5z"/><path class="cls-15" d="M90.25 155.25h5v5h-5zM90.25 150.25h5v5h-5zM90.25 145.25h5v5h-5z"/><path class="cls-2" d="M90.25 140.25h5v5h-5z"/><path d="M90.25 135.25h5v5h-5zM90.25 130.25h5v5h-5zM90.25 125.25h5v5h-5zM90.25 120.25h5v5h-5z"/><path class="cls-16" d="M90.25 115.25h5v5h-5z"/><path class="cls-13" d="M90.25 110.25h5v5h-5z"/><path class="cls-5" d="M90.25 105.25h5v5h-5zM90.25 100.25h5v5h-5zM90.25 95.25h5v5h-5z"/><path d="M90.25 90.25h5v5h-5z"/><path class="cls-3" d="M90.25 85.25h5v5h-5z"/><path class="cls-5" d="M90.25 80.25h5v5h-5zM90.25 75.25h5v5h-5zM90.25 70.25h5v5h-5z"/><path class="cls-7" d="M90.25 65.25h5v5h-5z"/><path class="cls-16" d="M90.25 60.25h5v5h-5zM90.25 55.25h5v5h-5zM90.25 50.25h5v5h-5z"/><path d="M90.25 45.25h5v5h-5zM90.25 40.25h5v5h-5zM90.25 35.25h5v5h-5zM90.25 30.25h5v5h-5zM90.25 25.25h5v5h-5zM90.25 20.25h5v5h-5zM90.25 15.25h5v5h-5z"/><path class="cls-16" d="M90.25 10.25h5v5h-5zM90.25 5.25h5v5h-5z"/><path d="M85.25 155.25h5v5h-5zM85.25 150.25h5v5h-5zM85.25 145.25h5v5h-5zM85.25 140.25h5v5h-5z"/><path class="cls-3" d="M85.25 135.25h5v5h-5z"/><path d="M85.25 130.25h5v5h-5z"/><path class="cls-13" d="M85.25 125.25h5v5h-5z"/><path class="cls-11" d="M85.25 120.25h5v5h-5z"/><path class="cls-16" d="M85.25 115.25h5v5h-5z"/><path class="cls-5" d="M85.25 110.25h5v5h-5zM85.25 105.25h5v5h-5z"/><path class="cls-16" d="M85.25 100.25h5v5h-5z"/><path class="cls-5" d="M85.25 95.25h5v5h-5z"/><path d="M85.25 90.25h5v5h-5zM85.25 85.25h5v5h-5z"/><path class="cls-3" d="M85.25 80.25h5v5h-5z"/><path d="M85.25 75.25h5v5h-5z"/><path class="cls-7" d="M85.25 70.25h5v5h-5z"/><path class="cls-16" d="M85.25 65.25h5v5h-5zM85.25 60.25h5v5h-5z"/><path d="M85.25 55.25h5v5h-5zM85.25 50.25h5v5h-5zM85.25 45.25h5v5h-5zM85.25 40.25h5v5h-5zM85.25 35.25h5v5h-5zM85.25 30.25h5v5h-5zM85.25 25.25h5v5h-5zM85.25 20.25h5v5h-5zM85.25 15.25h5v5h-5z"/><path class="cls-16" d="M85.25 10.25h5v5h-5zM85.25 5.25h5v5h-5z"/><path class="cls-3" d="M80.25 155.25h5v5h-5zM80.25 150.25h5v5h-5z"/><path class="cls-8" d="M80.25 145.25h5v5h-5z"/><path class="cls-3" d="M80.25 140.25h5v5h-5zM80.25 135.25h5v5h-5z"/><path d="M80.25 130.25h5v5h-5z"/><path class="cls-4" d="M80.25 125.25h5v5h-5z"/><path class="cls-14" d="M80.25 120.25h5v5h-5z"/><path class="cls-16" d="M80.25 115.25h5v5h-5z"/><path class="cls-5" d="M80.25 110.25h5v5h-5z"/><path class="cls-9" d="M80.25 105.25h5v5h-5z"/><path class="cls-16" d="M80.25 100.25h5v5h-5z"/><path class="cls-5" d="M80.25 95.25h5v5h-5zM80.25 90.25h5v5h-5zM80.25 85.25h5v5h-5z"/><path d="M80.25 80.25h5v5h-5z"/><path class="cls-5" d="M80.25 75.25h5v5h-5z"/><path class="cls-7" d="M80.25 70.25h5v5h-5z"/><path class="cls-16" d="M80.25 65.25h5v5h-5z"/><path d="M80.25 60.25h5v5h-5zM80.25 55.25h5v5h-5zM80.25 50.25h5v5h-5zM80.25 45.25h5v5h-5zM80.25 40.25h5v5h-5zM80.25 35.25h5v5h-5zM80.25 30.25h5v5h-5zM80.25 25.25h5v5h-5zM80.25 20.25h5v5h-5zM80.25 15.25h5v5h-5z"/><path class="cls-16" d="M80.25 10.25h5v5h-5z"/><path class="cls-8" d="M75.25 155.25h5v5h-5zM75.25 150.25h5v5h-5z"/><path class="cls-3" d="M75.25 145.25h5v5h-5zM75.25 140.25h5v5h-5zM75.25 135.25h5v5h-5z"/><path d="M75.25 130.25h5v5h-5z"/><path class="cls-4" d="M75.25 125.25h5v5h-5z"/><path class="cls-14" d="M75.25 120.25h5v5h-5z"/><path class="cls-16" d="M75.25 115.25h5v5h-5z"/><path class="cls-5" d="M75.25 110.25h5v5h-5z"/><path class="cls-9" d="M75.25 105.25h5v5h-5z"/><path class="cls-16" d="M75.25 100.25h5v5h-5z"/><path class="cls-5" d="M75.25 95.25h5v5h-5zM75.25 90.25h5v5h-5zM75.25 85.25h5v5h-5z"/><path d="M75.25 80.25h5v5h-5z"/><path class="cls-7" d="M75.25 75.25h5v5h-5z"/><path class="cls-16" d="M75.25 70.25h5v5h-5zM75.25 65.25h5v5h-5zM75.25 60.25h5v5h-5zM75.25 55.25h5v5h-5zM75.25 50.25h5v5h-5zM75.25 45.25h5v5h-5zM75.25 40.25h5v5h-5z"/><path d="M75.25 35.25h5v5h-5zM75.25 30.25h5v5h-5zM75.25 25.25h5v5h-5zM75.25 20.25h5v5h-5zM75.25 15.25h5v5h-5z"/><path class="cls-16" d="M75.25 10.25h5v5h-5zM75.25 5.25h5v5h-5z"/><path d="M70.25 155.25h5v5h-5zM70.25 150.25h5v5h-5zM70.25 145.25h5v5h-5zM70.25 140.25h5v5h-5z"/><path class="cls-3" d="M70.25 135.25h5v5h-5z"/><path d="M70.25 130.25h5v5h-5z"/><path class="cls-13" d="M70.25 125.25h5v5h-5z"/><path class="cls-11" d="M70.25 120.25h5v5h-5z"/><path class="cls-16" d="M70.25 115.25h5v5h-5z"/><path class="cls-5" d="M70.25 110.25h5v5h-5zM70.25 105.25h5v5h-5z"/><path class="cls-16" d="M70.25 100.25h5v5h-5z"/><path class="cls-5" d="M70.25 95.25h5v5h-5z"/><path d="M70.25 90.25h5v5h-5zM70.25 85.25h5v5h-5z"/><path class="cls-3" d="M70.25 80.25h5v5h-5z"/><path d="M70.25 75.25h5v5h-5z"/><path class="cls-7" d="M70.25 70.25h5v5h-5z"/><path class="cls-16" d="M70.25 65.25h5v5h-5z"/><path class="cls-11" d="M70.25 60.25h5v5h-5z"/><path class="cls-16" d="M70.25 55.25h5v5h-5z"/><path d="M70.25 50.25h5v5h-5zM70.25 45.25h5v5h-5zM70.25 40.25h5v5h-5zM70.25 35.25h5v5h-5zM70.25 30.25h5v5h-5zM70.25 25.25h5v5h-5zM70.25 20.25h5v5h-5zM70.25 15.25h5v5h-5zM70.25 10.25h5v5h-5z"/><path class="cls-16" d="M70.25 5.25h5v5h-5zM70.25.25h5v5h-5z"/><path class="cls-15" d="M65.25 155.25h5v5h-5zM65.25 150.25h5v5h-5z"/><path class="cls-1" d="M65.25 145.25h5v5h-5z"/><path class="cls-2" d="M65.25 140.25h5v5h-5z"/><path d="M65.25 135.25h5v5h-5zM65.25 130.25h5v5h-5zM65.25 125.25h5v5h-5zM65.25 120.25h5v5h-5z"/><path class="cls-16" d="M65.25 115.25h5v5h-5z"/><path class="cls-5" d="M65.25 110.25h5v5h-5zM65.25 105.25h5v5h-5zM65.25 100.25h5v5h-5zM65.25 95.25h5v5h-5z"/><path d="M65.25 90.25h5v5h-5z"/><path class="cls-3" d="M65.25 85.25h5v5h-5z"/><path class="cls-5" d="M65.25 80.25h5v5h-5z"/><path class="cls-7" d="M65.25 75.25h5v5h-5zM65.25 70.25h5v5h-5z"/><path class="cls-11" d="M65.25 65.25h5v5h-5zM65.25 60.25h5v5h-5z"/><path class="cls-16" d="M65.25 55.25h5v5h-5zM65.25 50.25h5v5h-5z"/><path d="M65.25 45.25h5v5h-5zM65.25 40.25h5v5h-5zM65.25 35.25h5v5h-5zM65.25 30.25h5v5h-5zM65.25 25.25h5v5h-5zM65.25 20.25h5v5h-5zM65.25 15.25h5v5h-5zM65.25 10.25h5v5h-5z"/><path class="cls-16" d="M65.25 5.25h5v5h-5zM65.25.25h5v5h-5z"/><path d="M60.25 155.25h5v5h-5zM60.25 150.25h5v5h-5z"/><path class="cls-1" d="M60.25 145.25h5v5h-5zM60.25 140.25h5v5h-5z"/><path class="cls-15" d="M60.25 135.25h5v5h-5z"/><path class="cls-2" d="M60.25 130.25h5v5h-5zM60.25 125.25h5v5h-5z"/><path class="cls-12" d="M60.25 120.25h5v5h-5z"/><path class="cls-16" d="M60.25 115.25h5v5h-5z"/><path class="cls-7" d="M60.25 110.25h5v5h-5z"/><path class="cls-5" d="M60.25 105.25h5v5h-5zM60.25 100.25h5v5h-5zM60.25 95.25h5v5h-5z"/><path d="M60.25 90.25h5v5h-5zM60.25 85.25h5v5h-5z"/><path class="cls-16" d="M60.25 80.25h5v5h-5zM60.25 75.25h5v5h-5z"/><path class="cls-6" d="M60.25 70.25h5v5h-5z"/><path d="M60.25 65.25h5v5h-5z"/><path class="cls-11" d="M60.25 60.25h5v5h-5zM60.25 55.25h5v5h-5z"/><path d="M60.25 50.25h5v5h-5zM60.25 45.25h5v5h-5z"/><path class="cls-16" d="M60.25 40.25h5v5h-5z"/><path d="M60.25 35.25h5v5h-5zM60.25 30.25h5v5h-5zM60.25 25.25h5v5h-5zM60.25 20.25h5v5h-5z"/><path class="cls-16" d="M60.25 15.25h5v5h-5zM60.25 10.25h5v5h-5zM60.25 5.25h5v5h-5z"/><path class="cls-12" d="M55.25 155.25h5v5h-5zM55.25 150.25h5v5h-5z"/><path d="M55.25 145.25h5v5h-5z"/><path class="cls-2" d="M55.25 140.25h5v5h-5z"/><path class="cls-15" d="M55.25 135.25h5v5h-5z"/><path d="M55.25 130.25h5v5h-5z"/><path class="cls-15" d="M55.25 125.25h5v5h-5z"/><path d="M55.25 120.25h5v5h-5zM55.25 115.25h5v5h-5z"/><path class="cls-11" d="M55.25 110.25h5v5h-5z"/><path class="cls-7" d="M55.25 105.25h5v5h-5z"/><path class="cls-5" d="M55.25 100.25h5v5h-5zM55.25 95.25h5v5h-5z"/><path d="M55.25 90.25h5v5h-5z"/><path class="cls-3" d="M55.25 85.25h5v5h-5z"/><path class="cls-5" d="M55.25 80.25h5v5h-5zM55.25 75.25h5v5h-5z"/><path class="cls-7" d="M55.25 70.25h5v5h-5z"/><path d="M55.25 65.25h5v5h-5z"/><path class="cls-16" d="M55.25 60.25h5v5h-5zM55.25 55.25h5v5h-5zM55.25 50.25h5v5h-5zM55.25 45.25h5v5h-5z"/><path d="M55.25 40.25h5v5h-5zM55.25 35.25h5v5h-5zM55.25 30.25h5v5h-5zM55.25 25.25h5v5h-5z"/><path class="cls-16" d="M55.25 20.25h5v5h-5zM55.25 15.25h5v5h-5zM55.25 10.25h5v5h-5z"/><path class="cls-15" d="M50.25 155.25h5v5h-5z"/><path class="cls-1" d="M50.25 150.25h5v5h-5zM50.25 145.25h5v5h-5z"/><path d="M50.25 140.25h5v5h-5zM50.25 135.25h5v5h-5z"/><path class="cls-15" d="M50.25 130.25h5v5h-5z"/><path d="M50.25 125.25h5v5h-5z"/><path class="cls-12" d="M50.25 120.25h5v5h-5zM50.25 115.25h5v5h-5z"/><path class="cls-16" d="M50.25 110.25h5v5h-5z"/><path class="cls-7" d="M50.25 105.25h5v5h-5zM50.25 100.25h5v5h-5z"/><path class="cls-6" d="M50.25 95.25h5v5h-5z"/><path d="M50.25 90.25h5v5h-5zM50.25 85.25h5v5h-5z"/><path class="cls-3" d="M50.25 80.25h5v5h-5z"/><path class="cls-13" d="M50.25 75.25h5v5h-5z"/><path class="cls-11" d="M50.25 70.25h5v5h-5zM50.25 65.25h5v5h-5z"/><path class="cls-16" d="M50.25 60.25h5v5h-5z"/><path d="M50.25 55.25h5v5h-5zM50.25 50.25h5v5h-5zM50.25 45.25h5v5h-5zM50.25 40.25h5v5h-5zM50.25 35.25h5v5h-5zM50.25 30.25h5v5h-5zM50.25 25.25h5v5h-5zM50.25 20.25h5v5h-5zM50.25 15.25h5v5h-5z"/><path class="cls-16" d="M50.25 10.25h5v5h-5z"/><path d="M45.25 155.25h5v5h-5zM45.25 150.25h5v5h-5zM45.25 145.25h5v5h-5z"/><path class="cls-15" d="M45.25 140.25h5v5h-5zM45.25 135.25h5v5h-5zM45.25 130.25h5v5h-5zM45.25 125.25h5v5h-5z"/><path class="cls-12" d="M45.25 120.25h5v5h-5z"/><path d="M45.25 115.25h5v5h-5z"/><path class="cls-16" d="M45.25 105.25h5v5h-5z"/><path class="cls-7" d="M45.25 100.25h5v5h-5zM45.25 95.25h5v5h-5z"/><path class="cls-6" d="M45.25 90.25h5v5h-5z"/><path d="M45.25 85.25h5v5h-5z"/><path class="cls-16" d="M45.25 80.25h5v5h-5zM45.25 75.25h5v5h-5zM45.25 70.25h5v5h-5zM45.25 65.25h5v5h-5zM45.25 60.25h5v5h-5zM45.25 55.25h5v5h-5z"/><path d="M45.25 50.25h5v5h-5zM45.25 45.25h5v5h-5zM45.25 40.25h5v5h-5zM45.25 35.25h5v5h-5zM45.25 30.25h5v5h-5zM45.25 25.25h5v5h-5zM45.25 20.25h5v5h-5zM45.25 15.25h5v5h-5z"/><path class="cls-16" d="M45.25 10.25h5v5h-5z"/><path class="cls-12" d="M40.25 155.25h5v5h-5zM40.25 150.25h5v5h-5zM40.25 145.25h5v5h-5z"/><path d="M40.25 140.25h5v5h-5zM40.25 135.25h5v5h-5zM40.25 130.25h5v5h-5z"/><path class="cls-2" d="M40.25 125.25h5v5h-5z"/><path d="M40.25 120.25h5v5h-5z"/><path class="cls-16" d="M40.25 100.25h5v5h-5zM40.25 95.25h5v5h-5z"/><path class="cls-7" d="M40.25 90.25h5v5h-5z"/><path class="cls-11" d="M40.25 85.25h5v5h-5zM40.25 80.25h5v5h-5z"/><path class="cls-16" d="M40.25 75.25h5v5h-5zM40.25 70.25h5v5h-5zM40.25 65.25h5v5h-5z"/><path d="M40.25 60.25h5v5h-5zM40.25 55.25h5v5h-5zM40.25 50.25h5v5h-5zM40.25 45.25h5v5h-5zM40.25 40.25h5v5h-5zM40.25 35.25h5v5h-5zM40.25 30.25h5v5h-5zM40.25 25.25h5v5h-5zM40.25 20.25h5v5h-5z"/><path class="cls-16" d="M40.25 15.25h5v5h-5z"/><path class="cls-12" d="M35.25 155.25h5v5h-5z"/><path class="cls-1" d="M35.25 150.25h5v5h-5zM35.25 145.25h5v5h-5z"/><path class="cls-15" d="M35.25 140.25h5v5h-5z"/><path class="cls-2" d="M35.25 135.25h5v5h-5z"/><path class="cls-10" d="M35.25 130.25h5v5h-5z"/><path d="M35.25 125.25h5v5h-5zM35.25 95.25h5v5h-5z"/><path class="cls-16" d="M35.25 90.25h5v5h-5zM35.25 85.25h5v5h-5z"/><path d="M35.25 80.25h5v5h-5z"/><path class="cls-16" d="M35.25 75.25h5v5h-5zM35.25 70.25h5v5h-5z"/><path d="M35.25 65.25h5v5h-5zM35.25 60.25h5v5h-5zM35.25 55.25h5v5h-5zM35.25 50.25h5v5h-5zM35.25 45.25h5v5h-5zM35.25 40.25h5v5h-5zM35.25 35.25h5v5h-5zM35.25 30.25h5v5h-5zM35.25 25.25h5v5h-5zM35.25 20.25h5v5h-5z"/><path class="cls-16" d="M35.25 15.25h5v5h-5z"/><path d="M30.25 155.25h5v5h-5zM30.25 150.25h5v5h-5zM30.25 145.25h5v5h-5zM30.25 140.25h5v5h-5zM30.25 135.25h5v5h-5zM30.25 130.25h5v5h-5z"/><path class="cls-16" d="M30.25 90.25h5v5h-5z"/><path class="cls-7" d="M30.25 85.25h5v5h-5z"/><path class="cls-16" d="M30.25 80.25h5v5h-5z"/><path d="M30.25 75.25h5v5h-5zM30.25 70.25h5v5h-5zM30.25 65.25h5v5h-5zM30.25 60.25h5v5h-5zM30.25 55.25h5v5h-5zM30.25 50.25h5v5h-5zM30.25 45.25h5v5h-5zM30.25 40.25h5v5h-5z"/><path class="cls-16" d="M30.25 35.25h5v5h-5z"/><path d="M30.25 30.25h5v5h-5zM30.25 25.25h5v5h-5z"/><path class="cls-16" d="M30.25 20.25h5v5h-5zM30.25 15.25h5v5h-5z"/><path d="M30.25 10.25h5v5h-5z"/><path class="cls-16" d="M25.25 90.25h5v5h-5zM25.25 85.25h5v5h-5zM25.25 80.25h5v5h-5z"/><path d="M25.25 75.25h5v5h-5zM25.25 70.25h5v5h-5z"/><path class="cls-16" d="M25.25 65.25h5v5h-5zM25.25 60.25h5v5h-5z"/><path d="M25.25 55.25h5v5h-5zM25.25 50.25h5v5h-5zM25.25 45.25h5v5h-5zM25.25 40.25h5v5h-5z"/><path class="cls-16" d="M25.25 35.25h5v5h-5zM25.25 30.25h5v5h-5zM25.25 25.25h5v5h-5zM25.25 20.25h5v5h-5z"/><path d="M25.25 10.25h5v5h-5z"/><path class="cls-16" d="M20.25 75.25h5v5h-5zM20.25 70.25h5v5h-5zM20.25 65.25h5v5h-5zM20.25 60.25h5v5h-5zM20.25 55.25h5v5h-5zM20.25 50.25h5v5h-5zM20.25 45.25h5v5h-5zM20.25 40.25h5v5h-5z"/><path d="M20.25 35.25h5v5h-5zM20.25 30.25h5v5h-5z"/><path class="cls-16" d="M15.25 75.25h5v5h-5zM15.25 70.25h5v5h-5zM15.25 55.25h5v5h-5zM15.25 40.25h5v5h-5zM15.25 35.25h5v5h-5z"/><path d="M10.25 35.25h5v5h-5z"/></g></svg>