<svg xmlns="http://www.w3.org/2000/svg" viewBox="0 0 160 160" style="enable-background:new 0 0 160 160" xml:space="preserve"><style>.st25{fill:#fff}.st26{fill:#231815}.st27{fill:#e5c08f}.st28{fill:#e2a040}.st29{fill:#eaa259}.st30{fill:#e8ab69}.st31{fill:#e5b780}.st32{fill:#cc954c}.st33{fill:#b58b5d}.st34{fill:#ffe5c5}.st35{fill:#e2cfa6}.st36{fill:#e2e2e2}.st37{fill:#fff1d0}.st38{fill:#e2b68a}.st39{fill:#eddacc}.st40{fill:#eacdb9}</style><g id="grid"><g id="XMLID_00000057867120184621107650000014422333229789750453_"><path class="st25" d="M85 135h5v5h-5z"/><path class="st26" d="M140 65h5v5h-5zM140 60h5v5h-5z"/><path d="M140 30h5v5h-5z"/><path class="st26" d="M135 80h5v5h-5zM135 75h5v5h-5zM135 70h5v5h-5zM135 65h5v5h-5zM135 60h5v5h-5z"/><path d="M135 35h5v5h-5z"/><path class="st26" d="M130 90h5v5h-5zM130 85h5v5h-5zM130 80h5v5h-5zM130 75h5v5h-5zM130 70h5v5h-5z"/><path d="M130 65h5v5h-5z"/><path class="st26" d="M130 60h5v5h-5zM130 55h5v5h-5zM130 50h5v5h-5zM130 45h5v5h-5zM130 35h5v5h-5zM130 30h5v5h-5z"/><path d="M125 155h5v5h-5zM125 150h5v5h-5zM125 145h5v5h-5zM125 140h5v5h-5zM125 135h5v5h-5zM125 130h5v5h-5z"/><path class="st26" d="M125 90h5v5h-5z"/><path class="st27" d="M125 85h5v5h-5z"/><path class="st26" d="M125 80h5v5h-5z"/><path d="M125 75h5v5h-5zM125 70h5v5h-5zM125 65h5v5h-5zM125 60h5v5h-5z"/><path class="st26" d="M125 55h5v5h-5z"/><path d="M125 50h5v5h-5z"/><path class="st26" d="M125 45h5v5h-5zM125 40h5v5h-5zM125 35h5v5h-5zM125 30h5v5h-5z"/><path d="M125 25h5v5h-5zM125 20h5v5h-5z"/><path class="st28" d="M120 155h5v5h-5zM120 150h5v5h-5z"/><path class="st29" d="M120 145h5v5h-5zM120 140h5v5h-5z"/><path class="st30" d="M120 135h5v5h-5z"/><path class="st31" d="M120 130h5v5h-5z"/><path d="M120 125h5v5h-5zM120 95h5v5h-5z"/><path class="st26" d="M120 90h5v5h-5zM120 85h5v5h-5zM120 80h5v5h-5z"/><path d="M120 75h5v5h-5zM120 70h5v5h-5zM120 65h5v5h-5zM120 60h5v5h-5zM120 55h5v5h-5zM120 50h5v5h-5z"/><path class="st26" d="M120 45h5v5h-5zM120 40h5v5h-5zM120 35h5v5h-5zM120 30h5v5h-5zM120 25h5v5h-5z"/><path d="M120 20h5v5h-5zM120 15h5v5h-5z"/><path class="st32" d="M115 155h5v5h-5zM115 150h5v5h-5zM115 145h5v5h-5z"/><path d="M115 140h5v5h-5zM115 135h5v5h-5zM115 130h5v5h-5z"/><path class="st30" d="M115 125h5v5h-5z"/><path d="M115 120h5v5h-5z"/><path class="st26" d="M115 100h5v5h-5zM115 95h5v5h-5z"/><path class="st33" d="M115 90h5v5h-5z"/><path d="M115 85h5v5h-5z"/><path class="st26" d="M115 80h5v5h-5zM115 75h5v5h-5zM115 70h5v5h-5zM115 65h5v5h-5zM115 60h5v5h-5z"/><path d="M115 55h5v5h-5zM115 50h5v5h-5zM115 45h5v5h-5zM115 40h5v5h-5z"/><path class="st26" d="M115 35h5v5h-5zM115 30h5v5h-5zM115 25h5v5h-5zM115 20h5v5h-5z"/><path d="M115 15h5v5h-5zM115 5h5v5h-5zM110 155h5v5h-5zM110 150h5v5h-5zM110 145h5v5h-5z"/><path class="st28" d="M110 140h5v5h-5zM110 135h5v5h-5zM110 130h5v5h-5zM110 125h5v5h-5zM110 120h5v5h-5z"/><path d="M110 115h5v5h-5z"/><path class="st26" d="M110 105h5v5h-5z"/><path class="st27" d="M110 100h5v5h-5zM110 95h5v5h-5zM110 90h5v5h-5z"/><path class="st33" d="M110 85h5v5h-5z"/><path class="st26" d="M110 80h5v5h-5zM110 75h5v5h-5z"/><path class="st33" d="M110 70h5v5h-5zM110 65h5v5h-5z"/><path class="st26" d="M110 60h5v5h-5zM110 55h5v5h-5z"/><path d="M110 50h5v5h-5zM110 45h5v5h-5zM110 40h5v5h-5zM110 35h5v5h-5z"/><path class="st26" d="M110 30h5v5h-5zM110 25h5v5h-5zM110 20h5v5h-5zM110 15h5v5h-5zM110 10h5v5h-5z"/><path d="M110 5h5v5h-5z"/><path class="st29" d="M105 155h5v5h-5zM105 150h5v5h-5zM105 145h5v5h-5z"/><path d="M105 140h5v5h-5zM105 135h5v5h-5z"/><path class="st28" d="M105 130h5v5h-5z"/><path d="M105 125h5v5h-5z"/><path class="st32" d="M105 120h5v5h-5zM105 115h5v5h-5z"/><path class="st26" d="M105 110h5v5h-5z"/><path class="st33" d="M105 105h5v5h-5z"/><path class="st27" d="M105 100h5v5h-5z"/><path class="st34" d="M105 95h5v5h-5zM105 90h5v5h-5z"/><path class="st27" d="M105 85h5v5h-5zM105 80h5v5h-5z"/><path class="st26" d="M105 75h5v5h-5z"/><path class="st27" d="M105 70h5v5h-5z"/><path class="st26" d="M105 65h5v5h-5z"/><path d="M105 60h5v5h-5z"/><path class="st26" d="M105 55h5v5h-5zM105 50h5v5h-5z"/><path d="M105 45h5v5h-5zM105 40h5v5h-5zM105 35h5v5h-5zM105 30h5v5h-5zM105 25h5v5h-5zM105 20h5v5h-5zM105 15h5v5h-5z"/><path class="st26" d="M105 10h5v5h-5z"/><path class="st32" d="M100 155h5v5h-5zM100 150h5v5h-5z"/><path d="M100 145h5v5h-5z"/><path class="st30" d="M100 140h5v5h-5zM100 135h5v5h-5z"/><path d="M100 130h5v5h-5z"/><path class="st28" d="M100 125h5v5h-5z"/><path d="M100 120h5v5h-5zM100 115h5v5h-5z"/><path class="st33" d="M100 110h5v5h-5z"/><path class="st27" d="M100 105h5v5h-5z"/><path class="st34" d="M100 100h5v5h-5zM100 95h5v5h-5zM100 90h5v5h-5zM100 85h5v5h-5zM100 80h5v5h-5z"/><path class="st27" d="M100 75h5v5h-5zM100 70h5v5h-5z"/><path class="st26" d="M100 65h5v5h-5z"/><path d="M100 60h5v5h-5zM100 55h5v5h-5zM100 50h5v5h-5zM100 45h5v5h-5zM100 40h5v5h-5zM100 35h5v5h-5zM100 30h5v5h-5zM100 25h5v5h-5zM100 20h5v5h-5zM100 15h5v5h-5z"/><path class="st26" d="M100 10h5v5h-5z"/><path d="M95 155h5v5h-5zM95 150h5v5h-5z"/><path class="st28" d="M95 145h5v5h-5zM95 140h5v5h-5zM95 135h5v5h-5zM95 130h5v5h-5zM95 125h5v5h-5z"/><path class="st32" d="M95 120h5v5h-5z"/><path class="st26" d="M95 115h5v5h-5z"/><path class="st27" d="M95 110h5v5h-5z"/><path class="st34" d="M95 105h5v5h-5zM95 100h5v5h-5zM95 95h5v5h-5zM95 90h5v5h-5z"/><path d="M95 85h5v5h-5z"/><path class="st26" d="M95 80h5v5h-5zM95 75h5v5h-5z"/><path class="st34" d="M95 70h5v5h-5z"/><path class="st26" d="M95 65h5v5h-5zM95 60h5v5h-5zM95 55h5v5h-5zM95 50h5v5h-5zM95 45h5v5h-5zM95 40h5v5h-5z"/><path d="M95 35h5v5h-5zM95 30h5v5h-5zM95 25h5v5h-5zM95 20h5v5h-5zM95 15h5v5h-5z"/><path class="st26" d="M95 10h5v5h-5zM95 5h5v5h-5z"/><path class="st28" d="M90 155h5v5h-5zM90 150h5v5h-5zM90 145h5v5h-5z"/><path class="st30" d="M90 140h5v5h-5z"/><path d="M90 135h5v5h-5zM90 130h5v5h-5zM90 125h5v5h-5zM90 120h5v5h-5z"/><path class="st26" d="M90 115h5v5h-5z"/><path class="st35" d="M90 110h5v5h-5z"/><path class="st34" d="M90 105h5v5h-5zM90 100h5v5h-5zM90 95h5v5h-5zM90 90h5v5h-5zM90 85h5v5h-5zM90 80h5v5h-5zM90 75h5v5h-5zM90 70h5v5h-5z"/><path class="st27" d="M90 65h5v5h-5z"/><path class="st26" d="M90 60h5v5h-5zM90 55h5v5h-5zM90 50h5v5h-5zM90 45h5v5h-5z"/><path d="M90 40h5v5h-5zM90 35h5v5h-5zM90 30h5v5h-5zM90 25h5v5h-5zM90 20h5v5h-5zM90 15h5v5h-5z"/><path class="st26" d="M90 10h5v5h-5zM90 5h5v5h-5z"/><path d="M85 155h5v5h-5zM85 150h5v5h-5zM85 145h5v5h-5zM85 140h5v5h-5zM85 130h5v5h-5z"/><path class="st35" d="M85 125h5v5h-5z"/><path class="st33" d="M85 120h5v5h-5z"/><path class="st26" d="M85 115h5v5h-5z"/><path class="st34" d="M85 110h5v5h-5zM85 105h5v5h-5z"/><path class="st26" d="M85 100h5v5h-5z"/><path class="st34" d="M85 95h5v5h-5zM85 90h5v5h-5zM85 85h5v5h-5zM85 80h5v5h-5zM85 75h5v5h-5z"/><path class="st27" d="M85 70h5v5h-5z"/><path class="st26" d="M85 65h5v5h-5zM85 60h5v5h-5z"/><path d="M85 55h5v5h-5zM85 50h5v5h-5zM85 45h5v5h-5zM85 40h5v5h-5zM85 35h5v5h-5zM85 30h5v5h-5zM85 25h5v5h-5zM85 20h5v5h-5zM85 15h5v5h-5z"/><path class="st26" d="M85 10h5v5h-5zM85 5h5v5h-5z"/><path class="st25" d="M80 155h5v5h-5zM80 150h5v5h-5z"/><path class="st36" d="M80 145h5v5h-5z"/><path class="st25" d="M80 140h5v5h-5zM80 135h5v5h-5z"/><path d="M80 130h5v5h-5z"/><path class="st37" d="M80 125h5v5h-5z"/><path class="st38" d="M80 120h5v5h-5z"/><path class="st26" d="M80 115h5v5h-5z"/><path class="st34" d="M80 110h5v5h-5z"/><path class="st39" d="M80 105h5v5h-5z"/><path class="st26" d="M80 100h5v5h-5z"/><path class="st34" d="M80 95h5v5h-5zM80 90h5v5h-5zM80 85h5v5h-5zM80 80h5v5h-5zM80 75h5v5h-5z"/><path class="st27" d="M80 70h5v5h-5z"/><path class="st26" d="M80 65h5v5h-5zM80 60h5v5h-5z"/><path d="M80 55h5v5h-5zM80 50h5v5h-5zM80 45h5v5h-5zM80 40h5v5h-5zM80 35h5v5h-5zM80 30h5v5h-5zM80 25h5v5h-5zM80 20h5v5h-5zM80 15h5v5h-5z"/><path class="st26" d="M80 10h5v5h-5z"/><path class="st36" d="M75 155h5v5h-5zM75 150h5v5h-5z"/><path class="st25" d="M75 145h5v5h-5zM75 140h5v5h-5zM75 135h5v5h-5z"/><path d="M75 130h5v5h-5z"/><path class="st37" d="M75 125h5v5h-5z"/><path class="st38" d="M75 120h5v5h-5z"/><path class="st26" d="M75 115h5v5h-5z"/><path class="st34" d="M75 110h5v5h-5z"/><path class="st39" d="M75 105h5v5h-5z"/><path class="st26" d="M75 100h5v5h-5z"/><path class="st34" d="M75 95h5v5h-5zM75 90h5v5h-5zM75 85h5v5h-5zM75 80h5v5h-5z"/><path class="st27" d="M75 75h5v5h-5z"/><path class="st26" d="M75 70h5v5h-5zM75 65h5v5h-5zM75 60h5v5h-5zM75 55h5v5h-5zM75 50h5v5h-5zM75 45h5v5h-5zM75 40h5v5h-5z"/><path d="M75 35h5v5h-5zM75 30h5v5h-5zM75 25h5v5h-5zM75 20h5v5h-5zM75 15h5v5h-5z"/><path class="st26" d="M75 10h5v5h-5zM75 5h5v5h-5z"/><path d="M70 155h5v5h-5zM70 150h5v5h-5zM70 145h5v5h-5zM70 140h5v5h-5z"/><path class="st25" d="M70 135h5v5h-5z"/><path d="M70 130h5v5h-5z"/><path class="st35" d="M70 125h5v5h-5z"/><path class="st33" d="M70 120h5v5h-5z"/><path class="st26" d="M70 115h5v5h-5z"/><path class="st34" d="M70 110h5v5h-5zM70 105h5v5h-5z"/><path class="st26" d="M70 100h5v5h-5z"/><path class="st34" d="M70 95h5v5h-5zM70 90h5v5h-5zM70 85h5v5h-5zM70 80h5v5h-5zM70 75h5v5h-5z"/><path class="st27" d="M70 70h5v5h-5z"/><path class="st26" d="M70 65h5v5h-5z"/><path class="st33" d="M70 60h5v5h-5z"/><path class="st26" d="M70 55h5v5h-5z"/><path d="M70 50h5v5h-5zM70 45h5v5h-5zM70 40h5v5h-5zM70 35h5v5h-5zM70 30h5v5h-5zM70 25h5v5h-5zM70 20h5v5h-5zM70 15h5v5h-5zM70 10h5v5h-5z"/><path class="st26" d="M70 5h5v5h-5zM70 0h5v5h-5z"/><path class="st28" d="M65 155h5v5h-5zM65 150h5v5h-5z"/><path class="st29" d="M65 145h5v5h-5z"/><path class="st30" d="M65 140h5v5h-5z"/><path d="M65 135h5v5h-5zM65 130h5v5h-5zM65 125h5v5h-5zM65 120h5v5h-5z"/><path class="st26" d="M65 115h5v5h-5z"/><path class="st34" d="M65 110h5v5h-5zM65 105h5v5h-5zM65 100h5v5h-5zM65 95h5v5h-5zM65 90h5v5h-5zM65 85h5v5h-5zM65 80h5v5h-5z"/><path class="st27" d="M65 75h5v5h-5zM65 70h5v5h-5z"/><path class="st33" d="M65 65h5v5h-5zM65 60h5v5h-5z"/><path class="st26" d="M65 55h5v5h-5zM65 50h5v5h-5z"/><path d="M65 45h5v5h-5zM65 40h5v5h-5zM65 35h5v5h-5zM65 30h5v5h-5zM65 25h5v5h-5zM65 20h5v5h-5zM65 15h5v5h-5zM65 10h5v5h-5z"/><path class="st26" d="M65 5h5v5h-5zM65 0h5v5h-5z"/><path d="M60 155h5v5h-5zM60 150h5v5h-5z"/><path class="st29" d="M60 145h5v5h-5zM60 140h5v5h-5z"/><path class="st28" d="M60 135h5v5h-5z"/><path class="st30" d="M60 130h5v5h-5zM60 125h5v5h-5z"/><path class="st32" d="M60 120h5v5h-5z"/><path class="st26" d="M60 115h5v5h-5z"/><path class="st27" d="M60 110h5v5h-5z"/><path class="st34" d="M60 105h5v5h-5zM60 100h5v5h-5zM60 95h5v5h-5zM60 90h5v5h-5z"/><path d="M60 85h5v5h-5z"/><path class="st26" d="M60 80h5v5h-5zM60 75h5v5h-5z"/><path class="st40" d="M60 70h5v5h-5z"/><path d="M60 65h5v5h-5z"/><path class="st33" d="M60 60h5v5h-5zM60 55h5v5h-5z"/><path d="M60 50h5v5h-5zM60 45h5v5h-5z"/><path class="st26" d="M60 40h5v5h-5z"/><path d="M60 35h5v5h-5zM60 30h5v5h-5zM60 25h5v5h-5zM60 20h5v5h-5z"/><path class="st26" d="M60 15h5v5h-5zM60 10h5v5h-5zM60 5h5v5h-5z"/><path class="st32" d="M55 155h5v5h-5zM55 150h5v5h-5z"/><path d="M55 145h5v5h-5z"/><path class="st30" d="M55 140h5v5h-5z"/><path class="st28" d="M55 135h5v5h-5z"/><path d="M55 130h5v5h-5z"/><path class="st28" d="M55 125h5v5h-5z"/><path d="M55 120h5v5h-5zM55 115h5v5h-5z"/><path class="st33" d="M55 110h5v5h-5z"/><path class="st27" d="M55 105h5v5h-5z"/><path class="st34" d="M55 100h5v5h-5zM55 95h5v5h-5zM55 90h5v5h-5zM55 85h5v5h-5zM55 80h5v5h-5zM55 75h5v5h-5z"/><path class="st27" d="M55 70h5v5h-5z"/><path d="M55 65h5v5h-5z"/><path class="st26" d="M55 60h5v5h-5zM55 55h5v5h-5zM55 50h5v5h-5zM55 45h5v5h-5z"/><path d="M55 40h5v5h-5zM55 35h5v5h-5zM55 30h5v5h-5zM55 25h5v5h-5z"/><path class="st26" d="M55 20h5v5h-5zM55 15h5v5h-5zM55 10h5v5h-5z"/><path class="st28" d="M50 155h5v5h-5z"/><path class="st29" d="M50 150h5v5h-5zM50 145h5v5h-5z"/><path d="M50 140h5v5h-5zM50 135h5v5h-5z"/><path class="st28" d="M50 130h5v5h-5z"/><path d="M50 125h5v5h-5z"/><path class="st32" d="M50 120h5v5h-5zM50 115h5v5h-5z"/><path class="st26" d="M50 110h5v5h-5z"/><path class="st27" d="M50 105h5v5h-5zM50 100h5v5h-5z"/><path class="st40" d="M50 95h5v5h-5z"/><path class="st34" d="M50 90h5v5h-5zM50 85h5v5h-5zM50 80h5v5h-5z"/><path class="st35" d="M50 75h5v5h-5z"/><path class="st33" d="M50 70h5v5h-5zM50 65h5v5h-5z"/><path class="st26" d="M50 60h5v5h-5z"/><path d="M50 55h5v5h-5zM50 50h5v5h-5zM50 45h5v5h-5zM50 40h5v5h-5zM50 35h5v5h-5zM50 30h5v5h-5zM50 25h5v5h-5zM50 20h5v5h-5z"/><path class="st26" d="M50 15h5v5h-5zM50 10h5v5h-5z"/><path d="M45 155h5v5h-5zM45 150h5v5h-5zM45 145h5v5h-5z"/><path class="st28" d="M45 140h5v5h-5zM45 135h5v5h-5zM45 130h5v5h-5zM45 125h5v5h-5z"/><path class="st32" d="M45 120h5v5h-5z"/><path d="M45 115h5v5h-5z"/><path class="st26" d="M45 105h5v5h-5z"/><path class="st27" d="M45 100h5v5h-5zM45 95h5v5h-5z"/><path class="st40" d="M45 90h5v5h-5zM45 85h5v5h-5z"/><path class="st26" d="M45 80h5v5h-5zM45 75h5v5h-5zM45 70h5v5h-5zM45 65h5v5h-5zM45 60h5v5h-5zM45 55h5v5h-5z"/><path d="M45 50h5v5h-5zM45 45h5v5h-5zM45 40h5v5h-5zM45 35h5v5h-5zM45 30h5v5h-5zM45 25h5v5h-5zM45 20h5v5h-5z"/><path class="st26" d="M45 15h5v5h-5zM45 10h5v5h-5z"/><path class="st32" d="M40 155h5v5h-5zM40 150h5v5h-5zM40 145h5v5h-5z"/><path d="M40 140h5v5h-5zM40 135h5v5h-5zM40 130h5v5h-5z"/><path class="st30" d="M40 125h5v5h-5z"/><path d="M40 120h5v5h-5z"/><path class="st26" d="M40 100h5v5h-5zM40 95h5v5h-5z"/><path class="st27" d="M40 90h5v5h-5z"/><path class="st33" d="M40 85h5v5h-5zM40 80h5v5h-5z"/><path class="st26" d="M40 75h5v5h-5zM40 70h5v5h-5zM40 65h5v5h-5zM40 60h5v5h-5zM40 55h5v5h-5z"/><path d="M40 50h5v5h-5zM40 45h5v5h-5zM40 40h5v5h-5zM40 35h5v5h-5zM40 30h5v5h-5zM40 25h5v5h-5zM40 20h5v5h-5z"/><path class="st26" d="M40 15h5v5h-5z"/><path class="st32" d="M35 155h5v5h-5z"/><path class="st29" d="M35 150h5v5h-5zM35 145h5v5h-5z"/><path class="st28" d="M35 140h5v5h-5z"/><path class="st30" d="M35 135h5v5h-5z"/><path class="st31" d="M35 130h5v5h-5z"/><path d="M35 125h5v5h-5zM35 95h5v5h-5z"/><path class="st26" d="M35 90h5v5h-5zM35 85h5v5h-5zM35 80h5v5h-5zM35 75h5v5h-5zM35 70h5v5h-5z"/><path d="M35 65h5v5h-5zM35 60h5v5h-5zM35 55h5v5h-5zM35 50h5v5h-5zM35 45h5v5h-5zM35 40h5v5h-5zM35 35h5v5h-5zM35 30h5v5h-5zM35 25h5v5h-5zM35 20h5v5h-5z"/><path class="st26" d="M35 15h5v5h-5z"/><path d="M30 155h5v5h-5zM30 150h5v5h-5zM30 145h5v5h-5zM30 140h5v5h-5zM30 135h5v5h-5zM30 130h5v5h-5z"/><path class="st26" d="M30 90h5v5h-5z"/><path class="st27" d="M30 85h5v5h-5z"/><path class="st26" d="M30 80h5v5h-5z"/><path d="M30 75h5v5h-5zM30 70h5v5h-5zM30 65h5v5h-5zM30 60h5v5h-5zM30 55h5v5h-5zM30 50h5v5h-5zM30 45h5v5h-5zM30 40h5v5h-5z"/><path class="st26" d="M30 35h5v5h-5z"/><path d="M30 30h5v5h-5zM30 25h5v5h-5z"/><path class="st26" d="M30 20h5v5h-5zM30 15h5v5h-5z"/><path d="M30 10h5v5h-5z"/><path class="st26" d="M25 90h5v5h-5zM25 85h5v5h-5zM25 80h5v5h-5z"/><path d="M25 75h5v5h-5zM25 70h5v5h-5z"/><path class="st26" d="M25 65h5v5h-5zM25 60h5v5h-5z"/><path d="M25 55h5v5h-5zM25 50h5v5h-5zM25 45h5v5h-5zM25 40h5v5h-5z"/><path class="st26" d="M25 35h5v5h-5zM25 30h5v5h-5zM25 25h5v5h-5zM25 20h5v5h-5z"/><path d="M25 10h5v5h-5z"/><path class="st26" d="M20 75h5v5h-5zM20 70h5v5h-5zM20 65h5v5h-5zM20 60h5v5h-5zM20 55h5v5h-5zM20 50h5v5h-5zM20 45h5v5h-5zM20 40h5v5h-5z"/><path d="M20 35h5v5h-5zM20 30h5v5h-5z"/><path class="st26" d="M15 75h5v5h-5zM15 70h5v5h-5zM15 55h5v5h-5zM15 40h5v5h-5zM15 35h5v5h-5z"/><path d="M10 35h5v5h-5zM10 30h5v5h-5z"/></g></g></svg>