<svg xmlns="http://www.w3.org/2000/svg" viewBox="0 0 3840 2160" style="enable-background:new 0 0 3840 2160" xml:space="preserve"><style>.st2{fill:#1d1d1d}.st3{fill:#060606}.st4{fill:#121212}.st5{fill:#212121}.st6{fill:#0a0a0a}.st7{fill:#191919}.st8{fill:#111}.st9{fill:#363636}.st10{fill:#113149}.st11{fill:#4c2d25}.st12{fill:#417389}.st13{fill:#172b13}.st14{fill:#562b4d}.st15{fill:#1f1f1f}.st16{fill:#303030}.st17{fill:#1c1c1c}.st18{fill:#5f6042}.st19{fill:#030303}.st20{fill:#0f0f0f}.st21{fill:#292929}</style><g id="back-gray"><g id="XMLID_00000100380384397808740160000013541737120205152435_"><path class="st2" d="M3840 1743.16V2158l-535.06-190.01v-351.15zM3840 1328.33v414.83l-535.06-126.32v-351.13zM3840 83.81v414.84l-535.06 64.77V212.28z"/><path class="st2" d="M3840-331.02V83.81l-535.06 128.47v-351.14zM3304.94 1616.84v351.15l-392.62-139.43v-304.41z"/><path class="st2" d="M3304.94 1265.71v351.13l-392.62-92.69v-304.39zM3304.94 212.28v351.14l-392.62 47.53v-304.4z"/><path class="st2" d="M3304.94-138.85v351.13l-392.62 94.27V2.15zM2912.32 915.35v304.41l-300.38-35.16V915.96z"/><path class="st2" d="M2912.32 610.95v304.4l-300.38.61V647.31zM2912.32-302.25V2.15l-300.38 107.88v-268.64z"/><path class="st2" d="M2912.32-606.65v304.4l-300.38 143.64v-268.64zM2611.94 915.96v268.64l-237.22-27.76V916.43z"/><path class="st2" d="M2611.94 647.32v268.64l-237.22.47v-240.4zM2611.94-158.61v268.64l-237.22 85.2v-240.4zM2611.94-427.25v268.64L2374.72-45.17v-240.41zM2374.72 1397.24v240.4l-192.09-68.22v-217.53z"/><path class="st2" d="M2374.72 1156.84v240.4l-192.09-45.35v-217.53zM2374.72 435.63v240.4l-192.09 23.26V481.75z"/><path class="st2" d="M2374.72 195.23v240.4l-192.09 46.12V264.22zM2182.63 1351.89v217.53l-158.72-56.36v-198.64zM2182.63 1134.36v217.53l-158.72-37.47v-198.64zM2182.63 481.75v217.54l-158.72 19.21V519.86z"/><path class="st2" d="M2182.63 264.22v217.53l-158.72 38.11V321.22zM2023.91 917.14v198.64l-133.36-15.6V917.41z"/><path class="st2" d="M2023.91 718.5v198.64l-133.36.27V734.64zM2023.91 122.58v198.64l-133.36 47.9V186.35z"/><path class="st2" d="M2023.91-76.06v198.64l-133.36 63.77V3.59zM1890.55 186.35v.01l-113.61 54.32V71.44l113.61-67.85zM1890.55 917.41v182.76l-113.61-13.29V917.64z"/><path class="st2" d="M1890.55 734.64v182.77l-113.61.23V748.4zM1890.55 186.36v182.76l-113.61 40.8V240.68zM1776.94 1256.11v169.24l-97.96-34.78v-157.58z"/><path class="st2" d="M1776.94 1086.88v169.23l-97.96-23.12v-157.58zM1776.94 579.16V748.4l-97.96 11.86V602.68z"/><path class="st2" d="M1776.94 409.92v169.24l-97.96 23.52V445.1zM1678.98 1232.99v157.58l-85.33-30.31v-147.42z"/><path class="st2" d="M1678.98 1075.41v157.58l-85.33-20.15v-147.41zM1678.98 602.68v157.58l-85.33 10.33V623.17z"/><path class="st2" d="M1678.98 445.1v157.58l-85.33 20.49V475.75zM1593.65 918v147.43l-74.99-8.78v-138.5zM1593.65 770.59V918l-74.99.15V779.66zM1593.65 328.33v147.42l-74.99 26.93V364.19z"/><path class="st2" d="M1593.65 180.91v147.42l-74.99 35.86V225.7zM1518.66 918.15v138.5l-66.43-7.77V918.29z"/><path class="st2" d="M1518.66 779.66v138.49l-66.43.14V787.71zM1518.66 364.19v138.49l-66.43 23.86V395.96z"/><path class="st2" d="M1518.66 225.7v138.49l-66.43 31.77V265.37zM1452.23 657.12v.01l-59.25 14.22V547.82l59.25-21.28zM1452.23 1179.45v130.59l-59.25-21.04v-123.53z"/><path class="st2" d="M1452.23 1048.88v130.57l-59.25-13.98v-123.53zM1452.23 657.13v130.58l-59.25 7.17V671.35zM1392.98 1165.47V1289l-53.18-18.89v-117.2z"/><path class="st2" d="M1392.98 1041.94v123.53l-53.18-12.56v-117.19zM1392.98 671.35v123.53l-53.18 6.44v-117.2z"/><path class="st2" d="M1392.98 547.82v123.53l-53.18 12.77v-117.2zM1339.8 918.51v117.21l-47.99-5.62V918.61z"/><path class="st2" d="M1339.8 801.32v117.19l-47.99.1V807.13zM1339.8 449.72v117.2l-47.99 17.23V472.67zM1339.8 332.52v117.2l-47.99 22.95V361.18zM1291.81 918.61v111.49l-43.54-5.09V918.7z"/><path class="st2" d="M1291.81 807.13v111.48l-43.54.09V812.4zM1291.81 472.67v111.48l-43.54 15.64v-106.3z"/><path class="st2" d="M1291.81 361.18v111.49l-43.54 20.82V387.18zM1248.27 1131.3v106.31l-39.66-14.08v-101.59z"/><path class="st2" d="M1248.27 1025.01v106.29l-39.66-9.36v-101.58zM1248.27 706.1v106.3l-39.66 4.8V715.62z"/><path class="st2" d="M1248.27 599.79V706.1l-39.66 9.52V614.03zM1208.61 1121.94v101.59l-36.29-12.89v-97.27z"/><path class="st2" d="M1208.61 1020.36v101.58l-36.29-8.57v-97.25zM1208.61 715.62V817.2l-36.29 4.39v-97.26z"/><path class="st2" d="M1208.61 614.03v101.59l-36.29 8.71v-97.26zM1172.32 918.85v97.27l-33.33-3.9v-93.3z"/><path class="st2" d="M1172.32 821.59v97.26l-33.33.07v-93.29zM1172.32 529.81v97.26l-33.33 11.97v-93.29z"/><path class="st2" d="M1172.32 432.55v97.26l-33.33 15.94v-93.3zM1138.99 918.92v93.3l-30.72-3.6v-89.64z"/><path class="st2" d="M1138.99 825.63v93.29l-30.72.06v-89.64zM1138.99 545.75v93.29l-30.72 11.03v-89.63z"/><path class="st2" d="M1138.99 452.45v93.3l-30.72 14.69V470.8zM1108.27 829.34v.01l-28.4 3.43v-86.25l28.4-6.82zM1108.27 1098.25v89.64l-28.4-10.08v-86.26zM1108.27 1008.62v89.63l-28.4-6.7v-86.25z"/><path class="st2" d="M1108.27 650.07v89.64l-28.4 6.82v-86.26zM1079.87 1091.55v86.26l-26.34-9.36v-83.12z"/><path class="st2" d="M1079.87 1005.3v86.25l-26.34-6.22v-83.12zM1079.87 746.53v86.25l-26.34 3.19v-83.12z"/><path class="st2" d="M1079.87 660.27v86.26l-26.34 6.32v-83.12zM1053.53 919.09v83.12l-24.48-2.86v-80.21z"/><path class="st2" d="M1053.53 835.97v83.12l-24.48.05V838.93zM1053.53 586.61v83.12l-24.48 8.79v-80.2z"/><path class="st2" d="M1053.53 503.49v83.12l-24.48 11.71v-80.21zM1029.05 919.14v80.21l-22.83-2.67v-77.5z"/><path class="st2" d="M1029.05 838.94v80.2l-22.83.04V841.7zM1029.05 598.32v80.2l-22.83 8.2v-77.48zM1029.05 518.11v80.21l-22.83 10.92v-77.5zM1006.22 1074.16v77.49l-21.33-7.57v-74.96zM1006.22 996.68v77.48l-21.33-5.04v-74.94z"/><path class="st2" d="M1006.22 764.21v77.49l-21.33 2.58v-74.95z"/><path class="st2" d="M1006.22 686.72v77.49l-21.33 5.12v-74.95zM984.89 769.33v.01l-19.98 4.79v-72.57l19.98-7.18zM984.89 1069.12v74.96l-19.98-7.1v-72.57zM984.89 994.18v74.94l-19.98-4.71v-72.57z"/><path class="st2" d="M984.89 769.34v74.94l-19.98 2.42v-72.57zM964.91 919.27v72.57l-18.75-2.19V919.3z"/><path class="st2" d="M964.91 846.7v72.57l-18.75.03v-70.33zM964.91 628.99v72.57l-18.75 6.73v-70.33z"/><path class="st2" d="M964.91 556.42v72.57l-18.75 8.97V567.61zM946.16 919.3v70.35l-17.63-2.07v-68.24z"/><path class="st2" d="M946.16 848.97v70.33l-17.63.04V851.1zM946.16 637.96v70.33l-17.63 6.33v-68.23zM946.16 567.62v70.34l-17.63 8.43v-68.25zM928.53 1055.82v68.24l-16.61-5.9v-66.26z"/><path class="st2" d="M928.53 987.58v68.24l-16.61-3.92v-66.26zM928.53 782.87v68.23l-16.61 2.01v-66.26z"/><path class="st2" d="M928.53 714.62v68.25l-16.61 3.98v-66.26zM911.92 786.85v.01l-15.68 3.76v-64.4l15.68-5.63zM911.92 1051.9v66.26l-15.68-5.56v-64.4z"/><path class="st2" d="M911.92 985.64v66.26l-15.68-3.7v-64.39zM911.92 786.86v66.25l-15.68 1.9v-64.39zM896.24 919.4v64.41l-14.81-1.74v-62.64z"/><path class="st2" d="M896.24 855.01v64.39l-14.81.03v-62.62zM896.24 661.83v64.39l-14.81 5.32v-62.63zM896.24 597.43v64.4l-14.81 7.08v-62.64zM881.43 919.43v62.64l-14.03-1.64v-60.97z"/><path class="st2" d="M881.43 856.81v62.62l-14.03.03V858.5zM881.43 668.91v62.63l-14.03 5.04v-60.96z"/><path class="st2" d="M881.43 606.28v62.63l-14.03 6.71v-60.97zM867.4 797.54v.01l-13.29 3.19v-59.39l13.29-4.77zM867.4 1041.39v60.96l-13.29-4.72v-59.38zM867.4 980.43v60.96l-13.29-3.14v-59.38z"/><path class="st2" d="M867.4 797.55v60.95l-13.29 1.61v-59.37zM854.11 1038.25v59.38l-12.63-4.48v-57.88z"/><path class="st2" d="M854.11 978.87v59.38l-12.63-2.98V977.4zM854.11 800.74v59.37l-12.63 1.53v-57.87z"/><path class="st2" d="M854.11 741.35v59.39l-12.63 3.03v-57.88zM841.48 688.01v.01l-12 5.73V637.3l12-7.16zM841.48 919.51v57.89l-12-1.41v-56.45z"/><path class="st2" d="M841.48 861.64v57.87l-12 .03v-56.45zM841.48 688.02v57.87l-12 4.31v-56.45zM829.48 919.54v56.45l-11.42-1.33v-55.1z"/><path class="st2" d="M829.48 863.09v56.45l-11.42.02v-55.08zM829.48 693.75v56.45l-11.42 4.1v-55.09z"/><path class="st2" d="M829.48 637.3v56.45l-11.42 5.46v-55.09zM818.06 1029.74v55.09l-10.88-3.86v-53.8z"/><path class="st2" d="M818.06 974.66v55.08l-10.88-2.57v-53.79zM818.06 809.39v55.09l-10.88 1.31V812z"/><path class="st2" d="M818.06 754.3v55.09L807.18 812v-53.79zM807.18 1027.17v53.8l-10.39-3.69v-52.56z"/><path class="st2" d="M807.18 973.38v53.79l-10.39-2.45v-52.55zM807.18 812v53.79l-10.39 1.26V814.5z"/><path class="st2" d="M807.18 758.21V812l-10.39 2.5v-52.56zM796.79 709.38v.01l-9.92 4.74v-51.38l9.92-5.92zM796.79 919.6v52.57l-9.92-1.16v-51.39zM796.79 867.05v52.55l-9.92.02v-51.37z"/><path class="st2" d="M796.79 709.39v52.55l-9.92 3.56v-51.37zM786.87 919.62V971l-9.48-1.1v-50.26z"/><path class="st2" d="M786.87 868.25v51.37l-9.48.02V869.4zM786.87 714.13v51.37l-9.48 3.4v-50.24z"/><path class="st2" d="M786.87 662.75v51.38l-9.48 4.53v-50.25zM777.39 1020.14v50.25l-9.07-3.22V1018z"/><path class="st2" d="M777.39 969.9v50.24l-9.07-2.14v-49.17zM777.39 819.16v50.24l-9.07 1.1V821.33zM777.39 768.91v50.25l-9.07 2.17v-49.17z"/><path class="st2" d="M768.32 821.33v.01l-8.7 2.08v-48.13l8.7-3.13zM768.32 1018v49.17l-8.7-3.09v-48.14zM768.32 968.83V1018l-8.7-2.06v-48.12z"/><path class="st2" d="M768.32 821.34v49.16l-8.7 1.05v-48.13zM759.62 919.68v48.14l-8.33-.98V919.7zM759.62 871.55v48.13l-8.33.02v-47.14zM759.62 727.16v48.13l-8.33 2.99v-47.14z"/><path class="st2" d="M759.62 679.03v48.13l-8.33 3.98V684zM751.29 919.7v47.14l-8-.93v-46.2zM751.29 872.56v47.14l-8 .01v-46.18zM751.29 731.14v47.14l-8 2.87v-46.18z"/><path class="st2" d="M751.29 684v47.14l-8 3.83v-46.19zM743.29 827.34v.01l-7.68 1.84v-45.28l7.68-2.76zM743.29 1012.09v46.19l-7.68-2.73v-45.28zM743.29 965.91v46.18l-7.68-1.82v-45.26z"/><path class="st2" d="M743.29 827.35v46.18l-7.68.93v-45.27zM735.61 1010.27v45.28l-7.38-2.62v-44.4zM735.61 965.01v45.26l-7.38-1.74v-44.39zM735.61 829.19v45.27l-7.38.89v-44.39zM735.61 783.91v45.28l-7.38 1.77v-44.4zM728.23 919.74v44.4l-7.1-.83v-43.55z"/><path class="st2" d="M728.23 875.35v44.39l-7.1.02v-43.55zM728.23 742.17v44.39l-7.1 2.55v-43.55z"/><path class="st2" d="M728.23 697.77v44.4l-7.1 3.39v-43.55zM721.13 745.56v.01l-6.84 3.27V706.1l6.84-4.09zM721.13 919.76v43.55l-6.84-.8v-42.74z"/><path class="st2" d="M721.13 876.21v43.55l-6.84.01v-42.73zM721.13 745.57v43.54l-6.84 2.46v-42.73zM714.29 1005.24v42.74l-6.58-2.34v-41.95z"/><path class="st2" d="M714.29 962.51v42.73l-6.58-1.55v-41.95zM714.29 834.31v42.73l-6.58.8v-41.95z"/><path class="st2" d="M714.29 791.57v42.74l-6.58 1.58v-41.96zM707.71 1003.69v41.95l-6.35-2.25v-41.2z"/><path class="st2" d="M707.71 961.74v41.95l-6.35-1.5V961zM707.71 835.89v41.95l-6.35.76v-41.19zM707.71 793.93v41.96l-6.35 1.52v-41.2z"/></g></g><g id="main"><g id="XMLID_00000149367675294473217340000007250242657289951165_"><path class="st3" d="M2026.67 1351.85h23.7v23.71h-23.7z"/><path class="st3" d="M2026.67 1328.15h23.7v23.7h-23.7zM2026.67 1304.44h23.7v23.71h-23.7zM2026.67 1280.74h23.7v23.7h-23.7zM2026.67 1257.04h23.7v23.7h-23.7zM2026.67 1233.33h23.7v23.71h-23.7z"/><path class="st3" d="M2026.67 1209.63h23.7v23.7h-23.7zM2026.67 1185.93h23.7v23.7h-23.7zM2026.67 1162.22h23.7v23.71h-23.7zM2026.67 1138.52h23.7v23.7h-23.7z"/><path class="st4" d="M2026.67 1114.81h23.7v23.71h-23.7z"/><path class="st3" d="M2026.67 1091.11h23.7v23.7h-23.7z"/><path class="st5" d="M2026.67 1067.41h23.7v23.7h-23.7z"/><path class="st3" d="M2026.67 1043.7h23.7v23.71h-23.7zM2026.67 1020h23.7v23.7h-23.7zM2026.67 996.3h23.7v23.7h-23.7z"/><path class="st3" d="M2026.67 972.59h23.7v23.71h-23.7z"/><path class="st4" d="M2026.67 948.89h23.7v23.7h-23.7z"/><path class="st5" d="M2026.67 925.19h23.7v23.7h-23.7z"/><path class="st3" d="M2026.67 901.48h23.7v23.71h-23.7zM2026.67 877.78h23.7v23.7h-23.7z"/><path class="st3" d="M2026.67 854.07h23.7v23.71h-23.7z"/><path class="st4" d="M2026.67 830.37h23.7v23.7h-23.7z"/><path class="st3" d="M2026.67 806.67h23.7v23.7h-23.7z"/><path class="st5" d="M2026.67 782.96h23.7v23.71h-23.7z"/><path class="st3" d="M2026.67 759.26h23.7v23.7h-23.7zM2026.67 735.56h23.7v23.7h-23.7z"/><path class="st3" d="M2026.67 711.85h23.7v23.71h-23.7z"/><path class="st5" d="M2026.67 688.15h23.7v23.7h-23.7z"/><path class="st3" d="M2026.67 664.44h23.7v23.71h-23.7zM2026.67 640.74h23.7v23.7h-23.7zM2026.67 617.04h23.7v23.7h-23.7z"/><path class="st3" d="M2026.67 593.33h23.7v23.71h-23.7zM2026.67 569.63h23.7v23.7h-23.7zM2026.67 545.93h23.7v23.7h-23.7z"/><path class="st3" d="M2026.67 522.22h23.7v23.71h-23.7zM2026.67 498.52h23.7v23.7h-23.7zM2026.67 474.81h23.7v23.71h-23.7zM2026.67 451.11h23.7v23.7h-23.7z"/><path class="st6" d="M2002.96 1399.26h23.71v23.7h-23.71z"/><path class="st3" d="M2002.96 1375.56h23.71v23.7h-23.71zM2002.96 1351.85h23.71v23.71h-23.71z"/><path class="st3" d="M2002.96 1328.15h23.71v23.7h-23.71zM2002.96 1304.44h23.71v23.71h-23.71zM2002.96 1280.74h23.71v23.7h-23.71zM2002.96 1257.04h23.71v23.7h-23.71zM2002.96 1233.33h23.71v23.71h-23.71z"/><path class="st3" d="M2002.96 1209.63h23.71v23.7h-23.71zM2002.96 1185.93h23.71v23.7h-23.71zM2002.96 1162.22h23.71v23.71h-23.71zM2002.96 1138.52h23.71v23.7h-23.71zM2002.96 1114.81h23.71v23.71h-23.71zM2002.96 1091.11h23.71v23.7h-23.71z"/><path class="st3" d="M2002.96 1067.41h23.71v23.7h-23.71zM2002.96 1043.7h23.71v23.71h-23.71zM2002.96 1020h23.71v23.7h-23.71zM2002.96 996.3h23.71v23.7h-23.71z"/><path class="st3" d="M2002.96 972.59h23.71v23.71h-23.71zM2002.96 948.89h23.71v23.7h-23.71z"/><path class="st3" d="M2002.96 925.19h23.71v23.7h-23.71zM2002.96 901.48h23.71v23.71h-23.71zM2002.96 877.78h23.71v23.7h-23.71z"/><path class="st3" d="M2002.96 854.07h23.71v23.71h-23.71zM2002.96 830.37h23.71v23.7h-23.71zM2002.96 806.67h23.71v23.7h-23.71z"/><path class="st5" d="M2002.96 782.96h23.71v23.71h-23.71z"/><path class="st3" d="M2002.96 759.26h23.71v23.7h-23.71zM2002.96 735.56h23.71v23.7h-23.71z"/><path class="st3" d="M2002.96 711.85h23.71v23.71h-23.71zM2002.96 688.15h23.71v23.7h-23.71z"/><path class="st5" d="M2002.96 664.44h23.71v23.71h-23.71z"/><path class="st3" d="M2002.96 640.74h23.71v23.7h-23.71zM2002.96 617.04h23.71v23.7h-23.71z"/><path class="st3" d="M2002.96 593.33h23.71v23.71h-23.71zM2002.96 569.63h23.71v23.7h-23.71zM2002.96 545.93h23.71v23.7h-23.71z"/><path class="st3" d="M2002.96 522.22h23.71v23.71h-23.71zM2002.96 498.52h23.71v23.7h-23.71zM2002.96 474.81h23.71v23.71h-23.71zM2002.96 451.11h23.71v23.7h-23.71zM2002.96 427.41h23.71v23.7h-23.71z"/><path class="st6" d="M2002.96 403.7h23.71v23.71h-23.71zM1979.26 1422.96h23.7v23.71h-23.7zM1979.26 1399.26h23.7v23.7h-23.7zM1979.26 1375.56h23.7v23.7h-23.7zM1979.26 1351.85h23.7v23.71h-23.7z"/><path class="st6" d="M1979.26 1328.15h23.7v23.7h-23.7zM1979.26 1304.44h23.7v23.71h-23.7zM1979.26 1280.74h23.7v23.7h-23.7zM1979.26 1257.04h23.7v23.7h-23.7zM1979.26 1233.33h23.7v23.71h-23.7z"/><path class="st6" d="M1979.26 1209.63h23.7v23.7h-23.7zM1979.26 1185.93h23.7v23.7h-23.7zM1979.26 1162.22h23.7v23.71h-23.7zM1979.26 1138.52h23.7v23.7h-23.7zM1979.26 1114.81h23.7v23.71h-23.7zM1979.26 1091.11h23.7v23.7h-23.7z"/><path class="st6" d="M1979.26 1067.41h23.7v23.7h-23.7zM1979.26 1043.7h23.7v23.71h-23.7zM1979.26 1020h23.7v23.7h-23.7zM1979.26 996.3h23.7v23.7h-23.7z"/><path class="st6" d="M1979.26 972.59h23.7v23.71h-23.7zM1979.26 948.89h23.7v23.7h-23.7z"/><path class="st6" d="M1979.26 925.19h23.7v23.7h-23.7zM1979.26 901.48h23.7v23.71h-23.7zM1979.26 877.78h23.7v23.7h-23.7z"/><path class="st6" d="M1979.26 854.07h23.7v23.71h-23.7zM1979.26 830.37h23.7v23.7h-23.7zM1979.26 806.67h23.7v23.7h-23.7z"/><path class="st6" d="M1979.26 782.96h23.7v23.71h-23.7zM1979.26 759.26h23.7v23.7h-23.7zM1979.26 735.56h23.7v23.7h-23.7z"/><path class="st6" d="M1979.26 711.85h23.7v23.71h-23.7zM1979.26 688.15h23.7v23.7h-23.7z"/><path class="st6" d="M1979.26 664.44h23.7v23.71h-23.7zM1979.26 640.74h23.7v23.7h-23.7zM1979.26 617.04h23.7v23.7h-23.7z"/><path class="st6" d="M1979.26 593.33h23.7v23.71h-23.7zM1979.26 569.63h23.7v23.7h-23.7zM1979.26 545.93h23.7v23.7h-23.7z"/><path class="st6" d="M1979.26 522.22h23.7v23.71h-23.7zM1979.26 498.52h23.7v23.7h-23.7zM1979.26 474.81h23.7v23.71h-23.7zM1979.26 451.11h23.7v23.7h-23.7zM1979.26 427.41h23.7v23.7h-23.7zM1979.26 403.7h23.7v23.71h-23.7zM1979.26 380h23.7v23.7h-23.7zM1955.56 1422.96h23.7v23.71h-23.7zM1955.56 1399.26h23.7v23.7h-23.7zM1955.56 1375.56h23.7v23.7h-23.7zM1955.56 1351.85h23.7v23.71h-23.7z"/><path class="st6" d="M1955.56 1328.15h23.7v23.7h-23.7zM1955.56 1304.44h23.7v23.71h-23.7zM1955.56 1280.74h23.7v23.7h-23.7zM1955.56 1257.04h23.7v23.7h-23.7zM1955.56 1233.33h23.7v23.71h-23.7z"/><path class="st6" d="M1955.56 1209.63h23.7v23.7h-23.7zM1955.56 1185.93h23.7v23.7h-23.7zM1955.56 1162.22h23.7v23.71h-23.7zM1955.56 1138.52h23.7v23.7h-23.7zM1955.56 1114.81h23.7v23.71h-23.7zM1955.56 1091.11h23.7v23.7h-23.7z"/><path class="st6" d="M1955.56 1067.41h23.7v23.7h-23.7zM1955.56 1043.7h23.7v23.71h-23.7zM1955.56 1020h23.7v23.7h-23.7zM1955.56 996.3h23.7v23.7h-23.7z"/><path class="st6" d="M1955.56 972.59h23.7v23.71h-23.7zM1955.56 948.89h23.7v23.7h-23.7z"/><path class="st6" d="M1955.56 925.19h23.7v23.7h-23.7zM1955.56 901.48h23.7v23.71h-23.7zM1955.56 877.78h23.7v23.7h-23.7z"/><path class="st6" d="M1955.56 854.07h23.7v23.71h-23.7zM1955.56 830.37h23.7v23.7h-23.7zM1955.56 806.67h23.7v23.7h-23.7z"/><path class="st6" d="M1955.56 782.96h23.7v23.71h-23.7zM1955.56 759.26h23.7v23.7h-23.7zM1955.56 735.56h23.7v23.7h-23.7z"/><path class="st6" d="M1955.56 711.85h23.7v23.71h-23.7zM1955.56 688.15h23.7v23.7h-23.7z"/><path class="st6" d="M1955.56 664.44h23.7v23.71h-23.7zM1955.56 640.74h23.7v23.7h-23.7zM1955.56 617.04h23.7v23.7h-23.7z"/><path class="st6" d="M1955.56 593.33h23.7v23.71h-23.7zM1955.56 569.63h23.7v23.7h-23.7zM1955.56 545.93h23.7v23.7h-23.7z"/><path class="st6" d="M1955.56 522.22h23.7v23.71h-23.7zM1955.56 498.52h23.7v23.7h-23.7zM1955.56 474.81h23.7v23.71h-23.7zM1955.56 451.11h23.7v23.7h-23.7zM1955.56 427.41h23.7v23.7h-23.7zM1955.56 403.7h23.7v23.71h-23.7z"/><path class="st7" d="M1955.56 380h23.7v23.7h-23.7z"/><path class="st6" d="M1931.85 1422.96h23.71v23.71h-23.71zM1931.85 1399.26h23.71v23.7h-23.71z"/><path class="st8" d="M1931.85 1375.56h23.71v23.7h-23.71zM1931.85 1351.85h23.71v23.71h-23.71z"/><path class="st9" d="M1931.85 1328.15h23.71v23.7h-23.71zM1931.85 1304.44h23.71v23.71h-23.71zM1931.85 1280.74h23.71v23.7h-23.71zM1931.85 1257.04h23.71v23.7h-23.71zM1931.85 1233.33h23.71v23.71h-23.71z"/><path class="st9" d="M1931.85 1209.63h23.71v23.7h-23.71zM1931.85 1185.93h23.71v23.7h-23.71zM1931.85 1162.22h23.71v23.71h-23.71zM1931.85 1138.52h23.71v23.7h-23.71zM1931.85 1114.81h23.71v23.71h-23.71zM1931.85 1091.11h23.71v23.7h-23.71z"/><path class="st9" d="M1931.85 1067.41h23.71v23.7h-23.71zM1931.85 1043.7h23.71v23.71h-23.71zM1931.85 1020h23.71v23.7h-23.71zM1931.85 996.3h23.71v23.7h-23.71z"/><path class="st9" d="M1931.85 972.59h23.71v23.71h-23.71zM1931.85 948.89h23.71v23.7h-23.71z"/><path class="st9" d="M1931.85 925.19h23.71v23.7h-23.71zM1931.85 901.48h23.71v23.71h-23.71zM1931.85 877.78h23.71v23.7h-23.71z"/><path class="st9" d="M1931.85 854.07h23.71v23.71h-23.71zM1931.85 830.37h23.71v23.7h-23.71zM1931.85 806.67h23.71v23.7h-23.71z"/><path class="st9" d="M1931.85 782.96h23.71v23.71h-23.71zM1931.85 759.26h23.71v23.7h-23.71zM1931.85 735.56h23.71v23.7h-23.71z"/><path class="st9" d="M1931.85 711.85h23.71v23.71h-23.71zM1931.85 688.15h23.71v23.7h-23.71z"/><path class="st9" d="M1931.85 664.44h23.71v23.71h-23.71zM1931.85 640.74h23.71v23.7h-23.71zM1931.85 617.04h23.71v23.7h-23.71z"/><path class="st9" d="M1931.85 593.33h23.71v23.71h-23.71zM1931.85 569.63h23.71v23.7h-23.71zM1931.85 545.93h23.71v23.7h-23.71z"/><path class="st9" d="M1931.85 522.22h23.71v23.71h-23.71zM1931.85 498.52h23.71v23.7h-23.71zM1931.85 474.81h23.71v23.71h-23.71zM1931.85 451.11h23.71v23.7h-23.71zM1931.85 427.41h23.71v23.7h-23.71z"/><path class="st6" d="M1931.85 403.7h23.71v23.71h-23.71z"/><path class="st7" d="M1931.85 380h23.71v23.7h-23.71z"/><path class="st6" d="M1908.15 1399.26h23.7v23.7h-23.7z"/><path class="st8" d="M1908.15 1375.56h23.7v23.7h-23.7zM1908.15 1351.85h23.7v23.71h-23.7z"/><path class="st9" d="M1908.15 1328.15h23.7v23.7h-23.7zM1908.15 1304.44h23.7v23.71h-23.7zM1908.15 1280.74h23.7v23.7h-23.7zM1908.15 1257.04h23.7v23.7h-23.7zM1908.15 1233.33h23.7v23.71h-23.7z"/><path class="st9" d="M1908.15 1209.63h23.7v23.7h-23.7zM1908.15 1185.93h23.7v23.7h-23.7zM1908.15 1162.22h23.7v23.71h-23.7zM1908.15 1138.52h23.7v23.7h-23.7zM1908.15 1114.81h23.7v23.71h-23.7zM1908.15 1091.11h23.7v23.7h-23.7z"/><path class="st9" d="M1908.15 1067.41h23.7v23.7h-23.7zM1908.15 1043.7h23.7v23.71h-23.7zM1908.15 1020h23.7v23.7h-23.7zM1908.15 996.3h23.7v23.7h-23.7z"/><path class="st9" d="M1908.15 972.59h23.7v23.71h-23.7zM1908.15 948.89h23.7v23.7h-23.7z"/><path class="st9" d="M1908.15 925.19h23.7v23.7h-23.7zM1908.15 901.48h23.7v23.71h-23.7zM1908.15 877.78h23.7v23.7h-23.7z"/><path class="st9" d="M1908.15 854.07h23.7v23.71h-23.7zM1908.15 830.37h23.7v23.7h-23.7zM1908.15 806.67h23.7v23.7h-23.7z"/><path class="st9" d="M1908.15 782.96h23.7v23.71h-23.7zM1908.15 759.26h23.7v23.7h-23.7zM1908.15 735.56h23.7v23.7h-23.7z"/><path class="st9" d="M1908.15 711.85h23.7v23.71h-23.7zM1908.15 688.15h23.7v23.7h-23.7z"/><path class="st9" d="M1908.15 664.44h23.7v23.71h-23.7zM1908.15 640.74h23.7v23.7h-23.7zM1908.15 617.04h23.7v23.7h-23.7z"/><path class="st9" d="M1908.15 593.33h23.7v23.71h-23.7zM1908.15 569.63h23.7v23.7h-23.7zM1908.15 545.93h23.7v23.7h-23.7z"/><path class="st9" d="M1908.15 522.22h23.7v23.71h-23.7zM1908.15 498.52h23.7v23.7h-23.7zM1908.15 474.81h23.7v23.71h-23.7zM1908.15 451.11h23.7v23.7h-23.7zM1908.15 427.41h23.7v23.7h-23.7z"/><path class="st6" d="M1908.15 403.7h23.7v23.71h-23.7zM1884.44 1399.26h23.71v23.7h-23.71z"/><path class="st8" d="M1884.44 1375.56h23.71v23.7h-23.71zM1884.44 1351.85h23.71v23.71h-23.71z"/><path class="st9" d="M1884.44 1328.15h23.71v23.7h-23.71zM1884.44 1304.44h23.71v23.71h-23.71zM1884.44 1280.74h23.71v23.7h-23.71zM1884.44 1257.04h23.71v23.7h-23.71zM1884.44 1233.33h23.71v23.71h-23.71z"/><path class="st9" d="M1884.44 1209.63h23.71v23.7h-23.71zM1884.44 1185.93h23.71v23.7h-23.71zM1884.44 1162.22h23.71v23.71h-23.71zM1884.44 1138.52h23.71v23.7h-23.71zM1884.44 1114.81h23.71v23.71h-23.71zM1884.44 1091.11h23.71v23.7h-23.71z"/><path class="st9" d="M1884.44 1067.41h23.71v23.7h-23.71zM1884.44 1043.7h23.71v23.71h-23.71zM1884.44 1020h23.71v23.7h-23.71zM1884.44 996.3h23.71v23.7h-23.71z"/><path class="st9" d="M1884.44 972.59h23.71v23.71h-23.71zM1884.44 948.89h23.71v23.7h-23.71z"/><path class="st9" d="M1884.44 925.19h23.71v23.7h-23.71zM1884.44 901.48h23.71v23.71h-23.71zM1884.44 877.78h23.71v23.7h-23.71z"/><path class="st9" d="M1884.44 854.07h23.71v23.71h-23.71zM1884.44 830.37h23.71v23.7h-23.71zM1884.44 806.67h23.71v23.7h-23.71z"/><path class="st9" d="M1884.44 782.96h23.71v23.71h-23.71zM1884.44 759.26h23.71v23.7h-23.71zM1884.44 735.56h23.71v23.7h-23.71z"/><path class="st9" d="M1884.44 711.85h23.71v23.71h-23.71zM1884.44 688.15h23.71v23.7h-23.71z"/><path class="st9" d="M1884.44 664.44h23.71v23.71h-23.71zM1884.44 640.74h23.71v23.7h-23.71zM1884.44 617.04h23.71v23.7h-23.71z"/><path class="st9" d="M1884.44 593.33h23.71v23.71h-23.71zM1884.44 569.63h23.71v23.7h-23.71zM1884.44 545.93h23.71v23.7h-23.71z"/><path class="st9" d="M1884.44 522.22h23.71v23.71h-23.71zM1884.44 498.52h23.71v23.7h-23.71zM1884.44 474.81h23.71v23.71h-23.71zM1884.44 451.11h23.71v23.7h-23.71zM1884.44 427.41h23.71v23.7h-23.71z"/><path class="st6" d="M1884.44 403.7h23.71v23.71h-23.71zM1860.74 1399.26h23.7v23.7h-23.7z"/><path class="st8" d="M1860.74 1375.56h23.7v23.7h-23.7zM1860.74 1351.85h23.7v23.71h-23.7z"/><path class="st6" d="M1860.74 1328.15h23.7v23.7h-23.7zM1860.74 1304.44h23.7v23.71h-23.7zM1860.74 1280.74h23.7v23.7h-23.7zM1860.74 1257.04h23.7v23.7h-23.7zM1860.74 1233.33h23.7v23.71h-23.7z"/><path class="st6" d="M1860.74 1209.63h23.7v23.7h-23.7zM1860.74 1185.93h23.7v23.7h-23.7zM1860.74 1162.22h23.7v23.71h-23.7zM1860.74 1138.52h23.7v23.7h-23.7zM1860.74 1114.81h23.7v23.71h-23.7zM1860.74 1091.11h23.7v23.7h-23.7z"/><path class="st6" d="M1860.74 1067.41h23.7v23.7h-23.7zM1860.74 1043.7h23.7v23.71h-23.7zM1860.74 1020h23.7v23.7h-23.7zM1860.74 996.3h23.7v23.7h-23.7z"/><path class="st6" d="M1860.74 972.59h23.7v23.71h-23.7zM1860.74 948.89h23.7v23.7h-23.7z"/><path class="st6" d="M1860.74 925.19h23.7v23.7h-23.7zM1860.74 901.48h23.7v23.71h-23.7zM1860.74 877.78h23.7v23.7h-23.7z"/><path class="st6" d="M1860.74 854.07h23.7v23.71h-23.7zM1860.74 830.37h23.7v23.7h-23.7zM1860.74 806.67h23.7v23.7h-23.7z"/><path class="st6" d="M1860.74 782.96h23.7v23.71h-23.7zM1860.74 759.26h23.7v23.7h-23.7zM1860.74 735.56h23.7v23.7h-23.7z"/><path class="st6" d="M1860.74 711.85h23.7v23.71h-23.7zM1860.74 688.15h23.7v23.7h-23.7z"/><path class="st6" d="M1860.74 664.44h23.7v23.71h-23.7zM1860.74 640.74h23.7v23.7h-23.7zM1860.74 617.04h23.7v23.7h-23.7z"/><path class="st6" d="M1860.74 593.33h23.7v23.71h-23.7zM1860.74 569.63h23.7v23.7h-23.7zM1860.74 545.93h23.7v23.7h-23.7z"/><path class="st6" d="M1860.74 522.22h23.7v23.71h-23.7zM1860.74 498.52h23.7v23.7h-23.7z"/><path class="st7" d="M1860.74 474.81h23.7v23.71h-23.7z"/><path class="st9" d="M1860.74 451.11h23.7v23.7h-23.7zM1860.74 427.41h23.7v23.7h-23.7z"/><path class="st7" d="M1860.74 403.7h23.7v23.71h-23.7z"/><path class="st6" d="M1837.04 1375.56h23.7v23.7h-23.7z"/><path class="st8" d="M1837.04 1351.85h23.7v23.71h-23.7z"/><path class="st8" d="M1837.04 1328.15h23.7v23.7h-23.7z"/><path class="st6" d="M1837.04 1304.44h23.7v23.71h-23.7zM1837.04 1280.74h23.7v23.7h-23.7zM1837.04 1257.04h23.7v23.7h-23.7zM1837.04 1233.33h23.7v23.71h-23.7z"/><path class="st6" d="M1837.04 1209.63h23.7v23.7h-23.7zM1837.04 1185.93h23.7v23.7h-23.7zM1837.04 1162.22h23.7v23.71h-23.7zM1837.04 1138.52h23.7v23.7h-23.7zM1837.04 1114.81h23.7v23.71h-23.7zM1837.04 1091.11h23.7v23.7h-23.7z"/><path class="st6" d="M1837.04 1067.41h23.7v23.7h-23.7zM1837.04 1043.7h23.7v23.71h-23.7zM1837.04 1020h23.7v23.7h-23.7zM1837.04 996.3h23.7v23.7h-23.7z"/><path class="st10" d="M1837.04 972.59h23.7v23.71h-23.7z"/><path class="st6" d="M1837.04 948.89h23.7v23.7h-23.7z"/><path class="st6" d="M1837.04 925.19h23.7v23.7h-23.7zM1837.04 901.48h23.7v23.71h-23.7zM1837.04 877.78h23.7v23.7h-23.7z"/><path class="st6" d="M1837.04 854.07h23.7v23.71h-23.7zM1837.04 830.37h23.7v23.7h-23.7zM1837.04 806.67h23.7v23.7h-23.7z"/><path class="st6" d="M1837.04 782.96h23.7v23.71h-23.7zM1837.04 759.26h23.7v23.7h-23.7zM1837.04 735.56h23.7v23.7h-23.7z"/><path class="st6" d="M1837.04 711.85h23.7v23.71h-23.7zM1837.04 688.15h23.7v23.7h-23.7z"/><path class="st6" d="M1837.04 664.44h23.7v23.71h-23.7zM1837.04 640.74h23.7v23.7h-23.7zM1837.04 617.04h23.7v23.7h-23.7z"/><path class="st6" d="M1837.04 593.33h23.7v23.71h-23.7zM1837.04 569.63h23.7v23.7h-23.7zM1837.04 545.93h23.7v23.7h-23.7z"/><path class="st6" d="M1837.04 522.22h23.7v23.71h-23.7zM1837.04 498.52h23.7v23.7h-23.7z"/><path class="st7" d="M1837.04 474.81h23.7v23.71h-23.7z"/><path class="st9" d="M1837.04 451.11h23.7v23.7h-23.7z"/><path class="st6" d="M1837.04 427.41h23.7v23.7h-23.7zM1813.33 1375.56h23.71v23.7h-23.71z"/><path class="st8" d="M1813.33 1351.85h23.71v23.71h-23.71z"/><path class="st8" d="M1813.33 1328.15h23.71v23.7h-23.71z"/><path class="st6" d="M1813.33 1304.44h23.71v23.71h-23.71zM1813.33 1280.74h23.71v23.7h-23.71z"/><path class="st11" d="M1813.33 1257.04h23.71v23.7h-23.71z"/><path class="st6" d="M1813.33 1233.33h23.71v23.71h-23.71z"/><path class="st6" d="M1813.33 1209.63h23.71v23.7h-23.71zM1813.33 1185.93h23.71v23.7h-23.71zM1813.33 1162.22h23.71v23.71h-23.71zM1813.33 1138.52h23.71v23.7h-23.71zM1813.33 1114.81h23.71v23.71h-23.71z"/><path class="st12" d="M1813.33 1091.11h23.71v23.7h-23.71z"/><path class="st6" d="M1813.33 1067.41h23.71v23.7h-23.71zM1813.33 1043.7h23.71v23.71h-23.71zM1813.33 1020h23.71v23.7h-23.71zM1813.33 996.3h23.71v23.7h-23.71z"/><path class="st10" d="M1813.33 972.59h23.71v23.71h-23.71z"/><path class="st6" d="M1813.33 948.89h23.71v23.7h-23.71z"/><path class="st6" d="M1813.33 925.19h23.71v23.7h-23.71zM1813.33 901.48h23.71v23.71h-23.71zM1813.33 877.78h23.71v23.7h-23.71z"/><path class="st6" d="M1813.33 854.07h23.71v23.71h-23.71zM1813.33 830.37h23.71v23.7h-23.71zM1813.33 806.67h23.71v23.7h-23.71z"/><path class="st6" d="M1813.33 782.96h23.71v23.71h-23.71z"/><path class="st10" d="M1813.33 759.26h23.71v23.7h-23.71z"/><path class="st6" d="M1813.33 735.56h23.71v23.7h-23.71z"/><path class="st6" d="M1813.33 711.85h23.71v23.71h-23.71z"/><path class="st12" d="M1813.33 688.15h23.71v23.7h-23.71z"/><path class="st6" d="M1813.33 664.44h23.71v23.71h-23.71zM1813.33 640.74h23.71v23.7h-23.71z"/><path class="st12" d="M1813.33 617.04h23.71v23.7h-23.71z"/><path class="st6" d="M1813.33 593.33h23.71v23.71h-23.71zM1813.33 569.63h23.71v23.7h-23.71z"/><path class="st13" d="M1813.33 545.93h23.71v23.7h-23.71z"/><path class="st6" d="M1813.33 522.22h23.71v23.71h-23.71zM1813.33 498.52h23.71v23.7h-23.71z"/><path class="st7" d="M1813.33 474.81h23.71v23.71h-23.71z"/><path class="st9" d="M1813.33 451.11h23.71v23.7h-23.71z"/><path class="st6" d="M1813.33 427.41h23.71v23.7h-23.71zM1789.63 1375.56h23.7v23.7h-23.7z"/><path class="st8" d="M1789.63 1351.85h23.7v23.71h-23.7z"/><path class="st8" d="M1789.63 1328.15h23.7v23.7h-23.7z"/><path class="st6" d="M1789.63 1304.44h23.7v23.71h-23.7zM1789.63 1280.74h23.7v23.7h-23.7z"/><path class="st11" d="M1789.63 1257.04h23.7v23.7h-23.7z"/><path class="st6" d="M1789.63 1233.33h23.7v23.71h-23.7z"/><path class="st6" d="M1789.63 1209.63h23.7v23.7h-23.7zM1789.63 1185.93h23.7v23.7h-23.7zM1789.63 1162.22h23.7v23.71h-23.7zM1789.63 1138.52h23.7v23.7h-23.7zM1789.63 1114.81h23.7v23.71h-23.7z"/><path class="st12" d="M1789.63 1091.11h23.7v23.7h-23.7z"/><path class="st6" d="M1789.63 1067.41h23.7v23.7h-23.7zM1789.63 1043.7h23.7v23.71h-23.7zM1789.63 1020h23.7v23.7h-23.7zM1789.63 996.3h23.7v23.7h-23.7z"/><path class="st6" d="M1789.63 972.59h23.7v23.71h-23.7zM1789.63 948.89h23.7v23.7h-23.7z"/><path class="st6" d="M1789.63 925.19h23.7v23.7h-23.7zM1789.63 901.48h23.7v23.71h-23.7zM1789.63 877.78h23.7v23.7h-23.7z"/><path class="st6" d="M1789.63 854.07h23.7v23.71h-23.7zM1789.63 830.37h23.7v23.7h-23.7zM1789.63 806.67h23.7v23.7h-23.7z"/><path class="st6" d="M1789.63 782.96h23.7v23.71h-23.7z"/><path class="st10" d="M1789.63 759.26h23.7v23.7h-23.7z"/><path class="st6" d="M1789.63 735.56h23.7v23.7h-23.7z"/><path class="st6" d="M1789.63 711.85h23.7v23.71h-23.7z"/><path class="st12" d="M1789.63 688.15h23.7v23.7h-23.7z"/><path class="st6" d="M1789.63 664.44h23.7v23.71h-23.7zM1789.63 640.74h23.7v23.7h-23.7z"/><path class="st12" d="M1789.63 617.04h23.7v23.7h-23.7z"/><path class="st6" d="M1789.63 593.33h23.7v23.71h-23.7zM1789.63 569.63h23.7v23.7h-23.7z"/><path class="st13" d="M1789.63 545.93h23.7v23.7h-23.7z"/><path class="st6" d="M1789.63 522.22h23.7v23.71h-23.7z"/><path class="st7" d="M1789.63 498.52h23.7v23.7h-23.7z"/><path class="st9" d="M1789.63 474.81h23.7v23.71h-23.7zM1789.63 451.11h23.7v23.7h-23.7z"/><path class="st6" d="M1789.63 427.41h23.7v23.7h-23.7zM1765.93 1351.85h23.7v23.71h-23.7z"/><path class="st8" d="M1765.93 1328.15h23.7v23.7h-23.7z"/><path class="st6" d="M1765.93 1304.44h23.7v23.71h-23.7zM1765.93 1280.74h23.7v23.7h-23.7z"/><path class="st11" d="M1765.93 1257.04h23.7v23.7h-23.7z"/><path class="st6" d="M1765.93 1233.33h23.7v23.71h-23.7z"/><path class="st6" d="M1765.93 1209.63h23.7v23.7h-23.7zM1765.93 1185.93h23.7v23.7h-23.7zM1765.93 1162.22h23.7v23.71h-23.7zM1765.93 1138.52h23.7v23.7h-23.7zM1765.93 1114.81h23.7v23.71h-23.7z"/><path class="st12" d="M1765.93 1091.11h23.7v23.7h-23.7z"/><path class="st6" d="M1765.93 1067.41h23.7v23.7h-23.7zM1765.93 1043.7h23.7v23.71h-23.7zM1765.93 1020h23.7v23.7h-23.7zM1765.93 996.3h23.7v23.7h-23.7z"/><path class="st10" d="M1765.93 972.59h23.7v23.71h-23.7z"/><path class="st6" d="M1765.93 948.89h23.7v23.7h-23.7z"/><path class="st6" d="M1765.93 925.19h23.7v23.7h-23.7zM1765.93 901.48h23.7v23.71h-23.7zM1765.93 877.78h23.7v23.7h-23.7z"/><path class="st6" d="M1765.93 854.07h23.7v23.71h-23.7zM1765.93 830.37h23.7v23.7h-23.7zM1765.93 806.67h23.7v23.7h-23.7z"/><path class="st6" d="M1765.93 782.96h23.7v23.71h-23.7z"/><path class="st10" d="M1765.93 759.26h23.7v23.7h-23.7z"/><path class="st6" d="M1765.93 735.56h23.7v23.7h-23.7z"/><path class="st6" d="M1765.93 711.85h23.7v23.71h-23.7z"/><path class="st12" d="M1765.93 688.15h23.7v23.7h-23.7z"/><path class="st6" d="M1765.93 664.44h23.7v23.71h-23.7zM1765.93 640.74h23.7v23.7h-23.7z"/><path class="st12" d="M1765.93 617.04h23.7v23.7h-23.7z"/><path class="st6" d="M1765.93 593.33h23.7v23.71h-23.7zM1765.93 569.63h23.7v23.7h-23.7z"/><path class="st13" d="M1765.93 545.93h23.7v23.7h-23.7z"/><path class="st6" d="M1765.93 522.22h23.7v23.71h-23.7z"/><path class="st7" d="M1765.93 498.52h23.7v23.7h-23.7z"/><path class="st9" d="M1765.93 474.81h23.7v23.71h-23.7z"/><path class="st6" d="M1765.93 451.11h23.7v23.7h-23.7zM1742.22 1351.85h23.71v23.71h-23.71z"/><path class="st8" d="M1742.22 1328.15h23.71v23.7h-23.71z"/><path class="st6" d="M1742.22 1304.44h23.71v23.71h-23.71zM1742.22 1280.74h23.71v23.7h-23.71z"/><path class="st11" d="M1742.22 1257.04h23.71v23.7h-23.71z"/><path class="st6" d="M1742.22 1233.33h23.71v23.71h-23.71z"/><path class="st6" d="M1742.22 1209.63h23.71v23.7h-23.71z"/><path class="st13" d="M1742.22 1185.93h23.71v23.7h-23.71z"/><path class="st6" d="M1742.22 1162.22h23.71v23.71h-23.71zM1742.22 1138.52h23.71v23.7h-23.71zM1742.22 1114.81h23.71v23.71h-23.71zM1742.22 1091.11h23.71v23.7h-23.71z"/><path class="st14" d="M1742.22 1067.41h23.71v23.7h-23.71z"/><path class="st6" d="M1742.22 1043.7h23.71v23.71h-23.71zM1742.22 1020h23.71v23.7h-23.71zM1742.22 996.3h23.71v23.7h-23.71z"/><path class="st10" d="M1742.22 972.59h23.71v23.71h-23.71z"/><path class="st6" d="M1742.22 948.89h23.71v23.7h-23.71z"/><path class="st6" d="M1742.22 925.19h23.71v23.7h-23.71z"/><path class="st10" d="M1742.22 901.48h23.71v23.71h-23.71z"/><path class="st6" d="M1742.22 877.78h23.71v23.7h-23.71z"/><path class="st6" d="M1742.22 854.07h23.71v23.71h-23.71zM1742.22 830.37h23.71v23.7h-23.71zM1742.22 806.67h23.71v23.7h-23.71z"/><path class="st10" d="M1742.22 782.96h23.71v23.71h-23.71z"/><path class="st6" d="M1742.22 759.26h23.71v23.7h-23.71zM1742.22 735.56h23.71v23.7h-23.71z"/><path class="st12" d="M1742.22 711.85h23.71v23.71h-23.71z"/><path class="st6" d="M1742.22 688.15h23.71v23.7h-23.71z"/><path class="st6" d="M1742.22 664.44h23.71v23.71h-23.71zM1742.22 640.74h23.71v23.7h-23.71zM1742.22 617.04h23.71v23.7h-23.71z"/><path class="st6" d="M1742.22 593.33h23.71v23.71h-23.71z"/><path class="st13" d="M1742.22 569.63h23.71v23.7h-23.71z"/><path class="st6" d="M1742.22 545.93h23.71v23.7h-23.71z"/><path class="st6" d="M1742.22 522.22h23.71v23.71h-23.71z"/><path class="st7" d="M1742.22 498.52h23.71v23.7h-23.71z"/><path class="st9" d="M1742.22 474.81h23.71v23.71h-23.71z"/><path class="st6" d="M1742.22 451.11h23.71v23.7h-23.71zM1718.52 1351.85h23.7v23.71h-23.7z"/><path class="st8" d="M1718.52 1328.15h23.7v23.7h-23.7zM1718.52 1304.44h23.7v23.71h-23.7z"/><path class="st6" d="M1718.52 1280.74h23.7v23.7h-23.7zM1718.52 1257.04h23.7v23.7h-23.7z"/><path class="st11" d="M1718.52 1233.33h23.7v23.71h-23.7z"/><path class="st6" d="M1718.52 1209.63h23.7v23.7h-23.7z"/><path class="st13" d="M1718.52 1185.93h23.7v23.7h-23.7z"/><path class="st6" d="M1718.52 1162.22h23.7v23.71h-23.7zM1718.52 1138.52h23.7v23.7h-23.7zM1718.52 1114.81h23.7v23.71h-23.7zM1718.52 1091.11h23.7v23.7h-23.7z"/><path class="st14" d="M1718.52 1067.41h23.7v23.7h-23.7z"/><path class="st6" d="M1718.52 1043.7h23.7v23.71h-23.7zM1718.52 1020h23.7v23.7h-23.7zM1718.52 996.3h23.7v23.7h-23.7z"/><path class="st10" d="M1718.52 972.59h23.7v23.71h-23.7z"/><path class="st6" d="M1718.52 948.89h23.7v23.7h-23.7z"/><path class="st6" d="M1718.52 925.19h23.7v23.7h-23.7z"/><path class="st10" d="M1718.52 901.48h23.7v23.71h-23.7z"/><path class="st6" d="M1718.52 877.78h23.7v23.7h-23.7z"/><path class="st6" d="M1718.52 854.07h23.7v23.71h-23.7zM1718.52 830.37h23.7v23.7h-23.7zM1718.52 806.67h23.7v23.7h-23.7z"/><path class="st10" d="M1718.52 782.96h23.7v23.71h-23.7z"/><path class="st6" d="M1718.52 759.26h23.7v23.7h-23.7zM1718.52 735.56h23.7v23.7h-23.7z"/><path class="st12" d="M1718.52 711.85h23.7v23.71h-23.7z"/><path class="st6" d="M1718.52 688.15h23.7v23.7h-23.7z"/><path class="st6" d="M1718.52 664.44h23.7v23.71h-23.7zM1718.52 640.74h23.7v23.7h-23.7zM1718.52 617.04h23.7v23.7h-23.7z"/><path class="st6" d="M1718.52 593.33h23.7v23.71h-23.7z"/><path class="st13" d="M1718.52 569.63h23.7v23.7h-23.7z"/><path class="st6" d="M1718.52 545.93h23.7v23.7h-23.7z"/><path class="st7" d="M1718.52 522.22h23.7v23.71h-23.7z"/><path class="st9" d="M1718.52 498.52h23.7v23.7h-23.7zM1718.52 474.81h23.7v23.71h-23.7z"/><path class="st6" d="M1718.52 451.11h23.7v23.7h-23.7zM1694.81 1588.89h23.71v23.7h-23.71zM1694.81 1565.19h23.71v23.7h-23.71zM1694.81 1541.48h23.71v23.71h-23.71zM1694.81 1328.15h23.71v23.7h-23.71z"/><path class="st8" d="M1694.81 1304.44h23.71v23.71h-23.71z"/><path class="st6" d="M1694.81 1280.74h23.71v23.7h-23.71zM1694.81 1257.04h23.71v23.7h-23.71z"/><path class="st11" d="M1694.81 1233.33h23.71v23.71h-23.71z"/><path class="st6" d="M1694.81 1209.63h23.71v23.7h-23.71z"/><path class="st13" d="M1694.81 1185.93h23.71v23.7h-23.71z"/><path class="st6" d="M1694.81 1162.22h23.71v23.71h-23.71zM1694.81 1138.52h23.71v23.7h-23.71zM1694.81 1114.81h23.71v23.71h-23.71zM1694.81 1091.11h23.71v23.7h-23.71z"/><path class="st14" d="M1694.81 1067.41h23.71v23.7h-23.71z"/><path class="st6" d="M1694.81 1043.7h23.71v23.71h-23.71zM1694.81 1020h23.71v23.7h-23.71zM1694.81 996.3h23.71v23.7h-23.71z"/><path class="st14" d="M1694.81 972.59h23.71v23.71h-23.71z"/><path class="st6" d="M1694.81 948.89h23.71v23.7h-23.71z"/><path class="st6" d="M1694.81 925.19h23.71v23.7h-23.71z"/><path class="st10" d="M1694.81 901.48h23.71v23.71h-23.71z"/><path class="st6" d="M1694.81 877.78h23.71v23.7h-23.71z"/><path class="st6" d="M1694.81 854.07h23.71v23.71h-23.71zM1694.81 830.37h23.71v23.7h-23.71zM1694.81 806.67h23.71v23.7h-23.71z"/><path class="st10" d="M1694.81 782.96h23.71v23.71h-23.71z"/><path class="st6" d="M1694.81 759.26h23.71v23.7h-23.71zM1694.81 735.56h23.71v23.7h-23.71z"/><path class="st12" d="M1694.81 711.85h23.71v23.71h-23.71z"/><path class="st6" d="M1694.81 688.15h23.71v23.7h-23.71z"/><path class="st6" d="M1694.81 664.44h23.71v23.71h-23.71zM1694.81 640.74h23.71v23.7h-23.71zM1694.81 617.04h23.71v23.7h-23.71z"/><path class="st6" d="M1694.81 593.33h23.71v23.71h-23.71z"/><path class="st13" d="M1694.81 569.63h23.71v23.7h-23.71z"/><path class="st6" d="M1694.81 545.93h23.71v23.7h-23.71z"/><path class="st7" d="M1694.81 522.22h23.71v23.71h-23.71z"/><path class="st9" d="M1694.81 498.52h23.71v23.7h-23.71z"/><path class="st6" d="M1694.81 474.81h23.71v23.71h-23.71zM1671.11 1612.59h23.7v23.71h-23.7z"/><path class="st6" d="M1671.11 1588.89h23.7v23.7h-23.7z"/><path class="st15" d="M1671.11 1565.19h23.7v23.7h-23.7z"/><path class="st6" d="M1671.11 1541.48h23.7v23.71h-23.7zM1671.11 1517.78h23.7v23.7h-23.7zM1671.11 1494.07h23.7v23.71h-23.7zM1671.11 1470.37h23.7v23.7h-23.7z"/><path class="st3" d="M1671.11 1328.15h23.7v23.7h-23.7z"/><path class="st8" d="M1671.11 1304.44h23.7v23.71h-23.7z"/><path class="st6" d="M1671.11 1280.74h23.7v23.7h-23.7zM1671.11 1257.04h23.7v23.7h-23.7z"/><path class="st11" d="M1671.11 1233.33h23.7v23.71h-23.7z"/><path class="st6" d="M1671.11 1209.63h23.7v23.7h-23.7zM1671.11 1185.93h23.7v23.7h-23.7z"/><path class="st13" d="M1671.11 1162.22h23.7v23.71h-23.7z"/><path class="st6" d="M1671.11 1138.52h23.7v23.7h-23.7zM1671.11 1114.81h23.7v23.71h-23.7zM1671.11 1091.11h23.7v23.7h-23.7z"/><path class="st6" d="M1671.11 1067.41h23.7v23.7h-23.7z"/><path class="st14" d="M1671.11 1043.7h23.7v23.71h-23.7z"/><path class="st6" d="M1671.11 1020h23.7v23.7h-23.7zM1671.11 996.3h23.7v23.7h-23.7z"/><path class="st14" d="M1671.11 972.59h23.7v23.71h-23.7z"/><path class="st6" d="M1671.11 948.89h23.7v23.7h-23.7z"/><path class="st10" d="M1671.11 925.19h23.7v23.7h-23.7z"/><path class="st6" d="M1671.11 901.48h23.7v23.71h-23.7zM1671.11 877.78h23.7v23.7h-23.7z"/><path class="st6" d="M1671.11 854.07h23.7v23.71h-23.7zM1671.11 830.37h23.7v23.7h-23.7z"/><path class="st10" d="M1671.11 806.67h23.7v23.7h-23.7z"/><path class="st6" d="M1671.11 782.96h23.7v23.71h-23.7zM1671.11 759.26h23.7v23.7h-23.7z"/><path class="st12" d="M1671.11 735.56h23.7v23.7h-23.7z"/><path class="st6" d="M1671.11 711.85h23.7v23.71h-23.7zM1671.11 688.15h23.7v23.7h-23.7z"/><path class="st6" d="M1671.11 664.44h23.7v23.71h-23.7zM1671.11 640.74h23.7v23.7h-23.7zM1671.11 617.04h23.7v23.7h-23.7z"/><path class="st13" d="M1671.11 593.33h23.7v23.71h-23.7z"/><path class="st6" d="M1671.11 569.63h23.7v23.7h-23.7zM1671.11 545.93h23.7v23.7h-23.7z"/><path class="st7" d="M1671.11 522.22h23.7v23.71h-23.7z"/><path class="st9" d="M1671.11 498.52h23.7v23.7h-23.7z"/><path class="st6" d="M1671.11 474.81h23.7v23.71h-23.7zM1647.41 1612.59h23.7v23.71h-23.7z"/><path class="st16" d="M1647.41 1588.89h23.7v23.7h-23.7z"/><path class="st6" d="M1647.41 1565.19h23.7v23.7h-23.7zM1647.41 1541.48h23.7v23.71h-23.7zM1647.41 1517.78h23.7v23.7h-23.7zM1647.41 1494.07h23.7v23.71h-23.7zM1647.41 1470.37h23.7v23.7h-23.7z"/><path class="st6" d="M1647.41 1446.67h23.7v23.7h-23.7z"/><path class="st3" d="M1647.41 1328.15h23.7v23.7h-23.7z"/><path class="st8" d="M1647.41 1304.44h23.7v23.71h-23.7zM1647.41 1280.74h23.7v23.7h-23.7z"/><path class="st6" d="M1647.41 1257.04h23.7v23.7h-23.7zM1647.41 1233.33h23.7v23.71h-23.7z"/><path class="st6" d="M1647.41 1209.63h23.7v23.7h-23.7zM1647.41 1185.93h23.7v23.7h-23.7zM1647.41 1162.22h23.7v23.71h-23.7zM1647.41 1138.52h23.7v23.7h-23.7zM1647.41 1114.81h23.7v23.71h-23.7zM1647.41 1091.11h23.7v23.7h-23.7z"/><path class="st6" d="M1647.41 1067.41h23.7v23.7h-23.7zM1647.41 1043.7h23.7v23.71h-23.7zM1647.41 1020h23.7v23.7h-23.7zM1647.41 996.3h23.7v23.7h-23.7z"/><path class="st6" d="M1647.41 972.59h23.7v23.71h-23.7zM1647.41 948.89h23.7v23.7h-23.7z"/><path class="st6" d="M1647.41 925.19h23.7v23.7h-23.7zM1647.41 901.48h23.7v23.71h-23.7zM1647.41 877.78h23.7v23.7h-23.7z"/><path class="st6" d="M1647.41 854.07h23.7v23.71h-23.7zM1647.41 830.37h23.7v23.7h-23.7zM1647.41 806.67h23.7v23.7h-23.7z"/><path class="st6" d="M1647.41 782.96h23.7v23.71h-23.7zM1647.41 759.26h23.7v23.7h-23.7zM1647.41 735.56h23.7v23.7h-23.7z"/><path class="st6" d="M1647.41 711.85h23.7v23.71h-23.7zM1647.41 688.15h23.7v23.7h-23.7z"/><path class="st6" d="M1647.41 664.44h23.7v23.71h-23.7zM1647.41 640.74h23.7v23.7h-23.7zM1647.41 617.04h23.7v23.7h-23.7z"/><path class="st6" d="M1647.41 593.33h23.7v23.71h-23.7zM1647.41 569.63h23.7v23.7h-23.7z"/><path class="st7" d="M1647.41 545.93h23.7v23.7h-23.7z"/><path class="st9" d="M1647.41 522.22h23.7v23.71h-23.7zM1647.41 498.52h23.7v23.7h-23.7z"/><path class="st6" d="M1647.41 474.81h23.7v23.71h-23.7zM1623.7 1636.3h23.71v23.7h-23.71z"/><path class="st15" d="M1623.7 1612.59h23.71v23.71h-23.71z"/><path class="st16" d="M1623.7 1588.89h23.71v23.7h-23.71z"/><path class="st6" d="M1623.7 1565.19h23.71v23.7h-23.71zM1623.7 1541.48h23.71v23.71h-23.71zM1623.7 1517.78h23.71v23.7h-23.71zM1623.7 1494.07h23.71v23.71h-23.71zM1623.7 1470.37h23.71v23.7h-23.71z"/><path class="st6" d="M1623.7 1446.67h23.71v23.7h-23.71zM1623.7 1422.96h23.71v23.71h-23.71zM1623.7 1399.26h23.71v23.7h-23.71z"/><path class="st3" d="M1623.7 1304.44h23.71v23.71h-23.71z"/><path class="st8" d="M1623.7 1280.74h23.71v23.7h-23.71z"/><path class="st17" d="M1623.7 1257.04h23.71v23.7h-23.71zM1623.7 1233.33h23.71v23.71h-23.71z"/><path class="st17" d="M1623.7 1209.63h23.71v23.7h-23.71zM1623.7 1185.93h23.71v23.7h-23.71zM1623.7 1162.22h23.71v23.71h-23.71zM1623.7 1138.52h23.71v23.7h-23.71zM1623.7 1114.81h23.71v23.71h-23.71zM1623.7 1091.11h23.71v23.7h-23.71z"/><path class="st17" d="M1623.7 1067.41h23.71v23.7h-23.71zM1623.7 1043.7h23.71v23.71h-23.71zM1623.7 1020h23.71v23.7h-23.71zM1623.7 996.3h23.71v23.7h-23.71z"/><path class="st17" d="M1623.7 972.59h23.71v23.71h-23.71zM1623.7 948.89h23.71v23.7h-23.71z"/><path class="st17" d="M1623.7 925.19h23.71v23.7h-23.71zM1623.7 901.48h23.71v23.71h-23.71zM1623.7 877.78h23.71v23.7h-23.71z"/><path class="st17" d="M1623.7 854.07h23.71v23.71h-23.71zM1623.7 830.37h23.71v23.7h-23.71zM1623.7 806.67h23.71v23.7h-23.71z"/><path class="st17" d="M1623.7 782.96h23.71v23.71h-23.71zM1623.7 759.26h23.71v23.7h-23.71zM1623.7 735.56h23.71v23.7h-23.71z"/><path class="st17" d="M1623.7 711.85h23.71v23.71h-23.71zM1623.7 688.15h23.71v23.7h-23.71z"/><path class="st17" d="M1623.7 664.44h23.71v23.71h-23.71zM1623.7 640.74h23.71v23.7h-23.71zM1623.7 617.04h23.71v23.7h-23.71z"/><path class="st17" d="M1623.7 593.33h23.71v23.71h-23.71zM1623.7 569.63h23.71v23.7h-23.71z"/><path class="st7" d="M1623.7 545.93h23.71v23.7h-23.71z"/><path class="st9" d="M1623.7 522.22h23.71v23.71h-23.71z"/><path class="st6" d="M1623.7 498.52h23.71v23.7h-23.71zM1600 1636.3h23.7v23.7H1600z"/><path class="st15" d="M1600 1612.59h23.7v23.71H1600z"/><path class="st15" d="M1600 1588.89h23.7v23.7H1600z"/><path class="st16" d="M1600 1565.19h23.7v23.7H1600z"/><path class="st6" d="M1600 1541.48h23.7v23.71H1600zM1600 1517.78h23.7v23.7H1600zM1600 1494.07h23.7v23.71H1600zM1600 1470.37h23.7v23.7H1600z"/><path d="M1600 1446.67h23.7v23.7H1600zM1600 1422.96h23.7v23.71H1600z"/><path class="st6" d="M1600 1399.26h23.7v23.7H1600z"/><path d="M1600 1375.56h23.7v23.7H1600zM1600 1351.85h23.7v23.71H1600z"/><path d="M1600 1328.15h23.7v23.7H1600z"/><path class="st3" d="M1600 1304.44h23.7v23.71H1600z"/><path class="st8" d="M1600 1280.74h23.7v23.7H1600z"/><path class="st6" d="M1600 1257.04h23.7v23.7H1600zM1600 1233.33h23.7v23.71H1600z"/><path class="st6" d="M1600 1209.63h23.7v23.7H1600zM1600 1185.93h23.7v23.7H1600zM1600 1162.22h23.7v23.71H1600zM1600 1138.52h23.7v23.7H1600zM1600 1114.81h23.7v23.71H1600zM1600 1091.11h23.7v23.7H1600z"/><path class="st6" d="M1600 1067.41h23.7v23.7H1600zM1600 1043.7h23.7v23.71H1600zM1600 1020h23.7v23.7H1600zM1600 996.3h23.7v23.7H1600z"/><path class="st6" d="M1600 972.59h23.7v23.71H1600zM1600 948.89h23.7v23.7H1600z"/><path class="st6" d="M1600 925.19h23.7v23.7H1600zM1600 901.48h23.7v23.71H1600zM1600 877.78h23.7v23.7H1600z"/><path class="st6" d="M1600 854.07h23.7v23.71H1600zM1600 830.37h23.7v23.7H1600zM1600 806.67h23.7v23.7H1600z"/><path class="st6" d="M1600 782.96h23.7v23.71H1600zM1600 759.26h23.7v23.7H1600zM1600 735.56h23.7v23.7H1600z"/><path class="st6" d="M1600 711.85h23.7v23.71H1600zM1600 688.15h23.7v23.7H1600z"/><path class="st6" d="M1600 664.44h23.7v23.71H1600zM1600 640.74h23.7v23.7H1600zM1600 617.04h23.7v23.7H1600z"/><path class="st6" d="M1600 593.33h23.7v23.71H1600zM1600 569.63h23.7v23.7H1600z"/><path class="st7" d="M1600 545.93h23.7v23.7H1600z"/><path class="st9" d="M1600 522.22h23.7v23.71H1600z"/><path class="st6" d="M1600 498.52h23.7v23.7H1600zM1576.3 1636.3h23.7v23.7h-23.7zM1576.3 1612.59h23.7v23.71h-23.7z"/><path class="st15" d="M1576.3 1588.89h23.7v23.7h-23.7zM1576.3 1565.19h23.7v23.7h-23.7z"/><path class="st16" d="M1576.3 1541.48h23.7v23.71h-23.7z"/><path class="st6" d="M1576.3 1517.78h23.7v23.7h-23.7zM1576.3 1494.07h23.7v23.71h-23.7zM1576.3 1470.37h23.7v23.7h-23.7z"/><path d="M1576.3 1446.67h23.7v23.7h-23.7zM1576.3 1422.96h23.7v23.71h-23.7zM1576.3 1399.26h23.7v23.7h-23.7z"/><path class="st6" d="M1576.3 1375.56h23.7v23.7h-23.7z"/><path d="M1576.3 1351.85h23.7v23.71h-23.7z"/><path d="M1576.3 1328.15h23.7v23.7h-23.7z"/><path class="st3" d="M1576.3 1304.44h23.7v23.71h-23.7z"/><path class="st8" d="M1576.3 1280.74h23.7v23.7h-23.7zM1576.3 1257.04h23.7v23.7h-23.7z"/><path class="st6" d="M1576.3 1233.33h23.7v23.71h-23.7z"/><path class="st18" d="M1576.3 1209.63h23.7v23.7h-23.7z"/><path class="st6" d="M1576.3 1185.93h23.7v23.7h-23.7zM1576.3 1162.22h23.7v23.71h-23.7z"/><path class="st18" d="M1576.3 1138.52h23.7v23.7h-23.7z"/><path class="st6" d="M1576.3 1114.81h23.7v23.71h-23.7zM1576.3 1091.11h23.7v23.7h-23.7z"/><path class="st18" d="M1576.3 1067.41h23.7v23.7h-23.7z"/><path class="st6" d="M1576.3 1043.7h23.7v23.71h-23.7zM1576.3 1020h23.7v23.7h-23.7zM1576.3 996.3h23.7v23.7h-23.7z"/><path class="st6" d="M1576.3 972.59h23.7v23.71h-23.7z"/><path class="st11" d="M1576.3 948.89h23.7v23.7h-23.7z"/><path class="st6" d="M1576.3 925.19h23.7v23.7h-23.7zM1576.3 901.48h23.7v23.71h-23.7z"/><path class="st11" d="M1576.3 877.78h23.7v23.7h-23.7z"/><path class="st6" d="M1576.3 854.07h23.7v23.71h-23.7z"/><path class="st11" d="M1576.3 830.37h23.7v23.7h-23.7z"/><path class="st6" d="M1576.3 806.67h23.7v23.7h-23.7z"/><path class="st6" d="M1576.3 782.96h23.7v23.71h-23.7z"/><path class="st11" d="M1576.3 759.26h23.7v23.7h-23.7z"/><path class="st6" d="M1576.3 735.56h23.7v23.7h-23.7z"/><path class="st6" d="M1576.3 711.85h23.7v23.71h-23.7z"/><path class="st18" d="M1576.3 688.15h23.7v23.7h-23.7z"/><path class="st6" d="M1576.3 664.44h23.7v23.71h-23.7zM1576.3 640.74h23.7v23.7h-23.7z"/><path class="st12" d="M1576.3 617.04h23.7v23.7h-23.7z"/><path class="st6" d="M1576.3 593.33h23.7v23.71h-23.7z"/><path class="st7" d="M1576.3 569.63h23.7v23.7h-23.7z"/><path class="st9" d="M1576.3 545.93h23.7v23.7h-23.7z"/><path class="st9" d="M1576.3 522.22h23.7v23.71h-23.7z"/><path class="st6" d="M1576.3 498.52h23.7v23.7h-23.7zM1552.59 1612.59h23.71v23.71h-23.71z"/><path class="st6" d="M1552.59 1588.89h23.71v23.7h-23.71z"/><path class="st15" d="M1552.59 1565.19h23.71v23.7h-23.71zM1552.59 1541.48h23.71v23.71h-23.71z"/><path class="st16" d="M1552.59 1517.78h23.71v23.7h-23.71z"/><path class="st6" d="M1552.59 1494.07h23.71v23.71h-23.71zM1552.59 1470.37h23.71v23.7h-23.71z"/><path class="st6" d="M1552.59 1446.67h23.71v23.7h-23.71zM1552.59 1422.96h23.71v23.71h-23.71zM1552.59 1399.26h23.71v23.7h-23.71zM1552.59 1375.56h23.71v23.7h-23.71zM1552.59 1351.85h23.71v23.71h-23.71z"/><path class="st19" d="M1552.59 1328.15h23.71v23.7h-23.71zM1552.59 1304.44h23.71v23.71h-23.71z"/><path class="st3" d="M1552.59 1280.74h23.71v23.7h-23.71z"/><path class="st8" d="M1552.59 1257.04h23.71v23.7h-23.71z"/><path class="st6" d="M1552.59 1233.33h23.71v23.71h-23.71z"/><path class="st18" d="M1552.59 1209.63h23.71v23.7h-23.71z"/><path class="st6" d="M1552.59 1185.93h23.71v23.7h-23.71zM1552.59 1162.22h23.71v23.71h-23.71z"/><path class="st18" d="M1552.59 1138.52h23.71v23.7h-23.71z"/><path class="st6" d="M1552.59 1114.81h23.71v23.71h-23.71zM1552.59 1091.11h23.71v23.7h-23.71z"/><path class="st18" d="M1552.59 1067.41h23.71v23.7h-23.71z"/><path class="st6" d="M1552.59 1043.7h23.71v23.71h-23.71zM1552.59 1020h23.71v23.7h-23.71zM1552.59 996.3h23.71v23.7h-23.71z"/><path class="st6" d="M1552.59 972.59h23.71v23.71h-23.71z"/><path class="st11" d="M1552.59 948.89h23.71v23.7h-23.71z"/><path class="st6" d="M1552.59 925.19h23.71v23.7h-23.71zM1552.59 901.48h23.71v23.71h-23.71z"/><path class="st11" d="M1552.59 877.78h23.71v23.7h-23.71z"/><path class="st6" d="M1552.59 854.07h23.71v23.71h-23.71z"/><path class="st11" d="M1552.59 830.37h23.71v23.7h-23.71z"/><path class="st6" d="M1552.59 806.67h23.71v23.7h-23.71z"/><path class="st6" d="M1552.59 782.96h23.71v23.71h-23.71z"/><path class="st11" d="M1552.59 759.26h23.71v23.7h-23.71z"/><path class="st6" d="M1552.59 735.56h23.71v23.7h-23.71z"/><path class="st6" d="M1552.59 711.85h23.71v23.71h-23.71z"/><path class="st18" d="M1552.59 688.15h23.71v23.7h-23.71z"/><path class="st6" d="M1552.59 664.44h23.71v23.71h-23.71zM1552.59 640.74h23.71v23.7h-23.71z"/><path class="st12" d="M1552.59 617.04h23.71v23.7h-23.71z"/><path class="st6" d="M1552.59 593.33h23.71v23.71h-23.71z"/><path class="st7" d="M1552.59 569.63h23.71v23.7h-23.71z"/><path class="st9" d="M1552.59 545.93h23.71v23.7h-23.71z"/><path class="st6" d="M1552.59 522.22h23.71v23.71h-23.71zM1528.89 1588.89h23.7v23.7h-23.7zM1528.89 1565.19h23.7v23.7h-23.7z"/><path class="st15" d="M1528.89 1541.48h23.7v23.71h-23.7zM1528.89 1517.78h23.7v23.7h-23.7z"/><path class="st16" d="M1528.89 1494.07h23.7v23.71h-23.7z"/><path class="st15" d="M1528.89 1470.37h23.7v23.7h-23.7z"/><path class="st15" d="M1528.89 1446.67h23.7v23.7h-23.7z"/><path class="st6" d="M1528.89 1422.96h23.7v23.71h-23.7zM1528.89 1399.26h23.7v23.7h-23.7zM1528.89 1375.56h23.7v23.7h-23.7zM1528.89 1351.85h23.7v23.71h-23.7z"/><path class="st19" d="M1528.89 1328.15h23.7v23.7h-23.7zM1528.89 1304.44h23.7v23.71h-23.7z"/><path class="st3" d="M1528.89 1280.74h23.7v23.7h-23.7z"/><path class="st8" d="M1528.89 1257.04h23.7v23.7h-23.7z"/><path class="st6" d="M1528.89 1233.33h23.7v23.71h-23.7z"/><path class="st6" d="M1528.89 1209.63h23.7v23.7h-23.7z"/><path class="st11" d="M1528.89 1185.93h23.7v23.7h-23.7z"/><path class="st6" d="M1528.89 1162.22h23.7v23.71h-23.7zM1528.89 1138.52h23.7v23.7h-23.7z"/><path class="st18" d="M1528.89 1114.81h23.7v23.71h-23.7z"/><path class="st6" d="M1528.89 1091.11h23.7v23.7h-23.7z"/><path class="st6" d="M1528.89 1067.41h23.7v23.7h-23.7z"/><path class="st10" d="M1528.89 1043.7h23.7v23.71h-23.7z"/><path class="st6" d="M1528.89 1020h23.7v23.7h-23.7zM1528.89 996.3h23.7v23.7h-23.7z"/><path class="st6" d="M1528.89 972.59h23.7v23.71h-23.7z"/><path class="st18" d="M1528.89 948.89h23.7v23.7h-23.7z"/><path class="st6" d="M1528.89 925.19h23.7v23.7h-23.7z"/><path class="st11" d="M1528.89 901.48h23.7v23.71h-23.7z"/><path class="st6" d="M1528.89 877.78h23.7v23.7h-23.7z"/><path class="st11" d="M1528.89 854.07h23.7v23.71h-23.7z"/><path class="st6" d="M1528.89 830.37h23.7v23.7h-23.7zM1528.89 806.67h23.7v23.7h-23.7z"/><path class="st10" d="M1528.89 782.96h23.7v23.71h-23.7z"/><path class="st6" d="M1528.89 759.26h23.7v23.7h-23.7zM1528.89 735.56h23.7v23.7h-23.7z"/><path class="st6" d="M1528.89 711.85h23.7v23.71h-23.7zM1528.89 688.15h23.7v23.7h-23.7z"/><path class="st6" d="M1528.89 664.44h23.7v23.71h-23.7z"/><path class="st12" d="M1528.89 640.74h23.7v23.7h-23.7z"/><path class="st6" d="M1528.89 617.04h23.7v23.7h-23.7z"/><path class="st6" d="M1528.89 593.33h23.7v23.71h-23.7z"/><path class="st7" d="M1528.89 569.63h23.7v23.7h-23.7z"/><path class="st9" d="M1528.89 545.93h23.7v23.7h-23.7z"/><path class="st6" d="M1528.89 522.22h23.7v23.71h-23.7zM1505.19 1541.48h23.7v23.71h-23.7z"/><path class="st15" d="M1505.19 1517.78h23.7v23.7h-23.7zM1505.19 1494.07h23.7v23.71h-23.7zM1505.19 1470.37h23.7v23.7h-23.7z"/><path class="st15" d="M1505.19 1446.67h23.7v23.7h-23.7zM1505.19 1422.96h23.7v23.71h-23.7zM1505.19 1399.26h23.7v23.7h-23.7z"/><path class="st6" d="M1505.19 1375.56h23.7v23.7h-23.7zM1505.19 1351.85h23.7v23.71h-23.7z"/><path class="st6" d="M1505.19 1328.15h23.7v23.7h-23.7z"/><path class="st19" d="M1505.19 1304.44h23.7v23.71h-23.7z"/><path class="st3" d="M1505.19 1280.74h23.7v23.7h-23.7z"/><path class="st8" d="M1505.19 1257.04h23.7v23.7h-23.7z"/><path class="st6" d="M1505.19 1233.33h23.7v23.71h-23.7z"/><path class="st6" d="M1505.19 1209.63h23.7v23.7h-23.7z"/><path class="st11" d="M1505.19 1185.93h23.7v23.7h-23.7z"/><path class="st6" d="M1505.19 1162.22h23.7v23.71h-23.7zM1505.19 1138.52h23.7v23.7h-23.7z"/><path class="st12" d="M1505.19 1114.81h23.7v23.71h-23.7z"/><path class="st6" d="M1505.19 1091.11h23.7v23.7h-23.7z"/><path class="st6" d="M1505.19 1067.41h23.7v23.7h-23.7z"/><path class="st10" d="M1505.19 1043.7h23.7v23.71h-23.7z"/><path class="st6" d="M1505.19 1020h23.7v23.7h-23.7zM1505.19 996.3h23.7v23.7h-23.7z"/><path class="st6" d="M1505.19 972.59h23.7v23.71h-23.7z"/><path class="st12" d="M1505.19 948.89h23.7v23.7h-23.7z"/><path class="st6" d="M1505.19 925.19h23.7v23.7h-23.7zM1505.19 901.48h23.7v23.71h-23.7zM1505.19 877.78h23.7v23.7h-23.7z"/><path class="st6" d="M1505.19 854.07h23.7v23.71h-23.7zM1505.19 830.37h23.7v23.7h-23.7zM1505.19 806.67h23.7v23.7h-23.7z"/><path class="st10" d="M1505.19 782.96h23.7v23.71h-23.7z"/><path class="st6" d="M1505.19 759.26h23.7v23.7h-23.7zM1505.19 735.56h23.7v23.7h-23.7z"/><path class="st12" d="M1505.19 711.85h23.7v23.71h-23.7z"/><path class="st6" d="M1505.19 688.15h23.7v23.7h-23.7z"/><path class="st6" d="M1505.19 664.44h23.7v23.71h-23.7z"/><path class="st12" d="M1505.19 640.74h23.7v23.7h-23.7z"/><path class="st6" d="M1505.19 617.04h23.7v23.7h-23.7z"/><path class="st7" d="M1505.19 593.33h23.7v23.71h-23.7z"/><path class="st9" d="M1505.19 569.63h23.7v23.7h-23.7zM1505.19 545.93h23.7v23.7h-23.7z"/><path class="st6" d="M1505.19 522.22h23.7v23.71h-23.7zM1481.48 1517.78h23.71v23.7h-23.71zM1481.48 1494.07h23.71v23.71h-23.71zM1481.48 1470.37h23.71v23.7h-23.71z"/><path class="st15" d="M1481.48 1446.67h23.71v23.7h-23.71zM1481.48 1422.96h23.71v23.71h-23.71zM1481.48 1399.26h23.71v23.7h-23.71zM1481.48 1375.56h23.71v23.7h-23.71zM1481.48 1351.85h23.71v23.71h-23.71z"/><path class="st6" d="M1481.48 1328.15h23.71v23.7h-23.71z"/><path class="st19" d="M1481.48 1304.44h23.71v23.71h-23.71zM1481.48 1280.74h23.71v23.7h-23.71z"/><path class="st3" d="M1481.48 1257.04h23.71v23.7h-23.71z"/><path class="st8" d="M1481.48 1233.33h23.71v23.71h-23.71z"/><path class="st6" d="M1481.48 1209.63h23.71v23.7h-23.71zM1481.48 1185.93h23.71v23.7h-23.71z"/><path class="st12" d="M1481.48 1162.22h23.71v23.71h-23.71z"/><path class="st6" d="M1481.48 1138.52h23.71v23.7h-23.71zM1481.48 1114.81h23.71v23.71h-23.71z"/><path class="st12" d="M1481.48 1091.11h23.71v23.7h-23.71z"/><path class="st6" d="M1481.48 1067.41h23.71v23.7h-23.71zM1481.48 1043.7h23.71v23.71h-23.71z"/><path class="st10" d="M1481.48 1020h23.71v23.7h-23.71z"/><path class="st6" d="M1481.48 996.3h23.71v23.7h-23.71z"/><path class="st12" d="M1481.48 972.59h23.71v23.71h-23.71z"/><path class="st6" d="M1481.48 948.89h23.71v23.7h-23.71z"/><path class="st6" d="M1481.48 925.19h23.71v23.7h-23.71zM1481.48 901.48h23.71v23.71h-23.71zM1481.48 877.78h23.71v23.7h-23.71z"/><path class="st6" d="M1481.48 854.07h23.71v23.71h-23.71zM1481.48 830.37h23.71v23.7h-23.71z"/><path class="st10" d="M1481.48 806.67h23.71v23.7h-23.71z"/><path class="st6" d="M1481.48 782.96h23.71v23.71h-23.71zM1481.48 759.26h23.71v23.7h-23.71z"/><path class="st12" d="M1481.48 735.56h23.71v23.7h-23.71z"/><path class="st6" d="M1481.48 711.85h23.71v23.71h-23.71zM1481.48 688.15h23.71v23.7h-23.71z"/><path class="st12" d="M1481.48 664.44h23.71v23.71h-23.71z"/><path class="st6" d="M1481.48 640.74h23.71v23.7h-23.71zM1481.48 617.04h23.71v23.7h-23.71z"/><path class="st7" d="M1481.48 593.33h23.71v23.71h-23.71z"/><path class="st9" d="M1481.48 569.63h23.71v23.7h-23.71z"/><path class="st6" d="M1481.48 545.93h23.71v23.7h-23.71zM1457.78 1494.07h23.7v23.71h-23.7zM1457.78 1470.37h23.7v23.7h-23.7z"/><path class="st6" d="M1457.78 1446.67h23.7v23.7h-23.7z"/><path class="st15" d="M1457.78 1422.96h23.7v23.71h-23.7zM1457.78 1399.26h23.7v23.7h-23.7zM1457.78 1375.56h23.7v23.7h-23.7zM1457.78 1351.85h23.7v23.71h-23.7z"/><path class="st15" d="M1457.78 1328.15h23.7v23.7h-23.7z"/><path class="st6" d="M1457.78 1304.44h23.7v23.71h-23.7z"/><path class="st19" d="M1457.78 1280.74h23.7v23.7h-23.7z"/><path class="st3" d="M1457.78 1257.04h23.7v23.7h-23.7z"/><path class="st8" d="M1457.78 1233.33h23.7v23.71h-23.7z"/><path class="st6" d="M1457.78 1209.63h23.7v23.7h-23.7zM1457.78 1185.93h23.7v23.7h-23.7zM1457.78 1162.22h23.7v23.71h-23.7zM1457.78 1138.52h23.7v23.7h-23.7zM1457.78 1114.81h23.7v23.71h-23.7zM1457.78 1091.11h23.7v23.7h-23.7z"/><path class="st6" d="M1457.78 1067.41h23.7v23.7h-23.7zM1457.78 1043.7h23.7v23.71h-23.7zM1457.78 1020h23.7v23.7h-23.7zM1457.78 996.3h23.7v23.7h-23.7z"/><path class="st6" d="M1457.78 972.59h23.7v23.71h-23.7zM1457.78 948.89h23.7v23.7h-23.7z"/><path class="st6" d="M1457.78 925.19h23.7v23.7h-23.7zM1457.78 901.48h23.7v23.71h-23.7zM1457.78 877.78h23.7v23.7h-23.7z"/><path class="st6" d="M1457.78 854.07h23.7v23.71h-23.7zM1457.78 830.37h23.7v23.7h-23.7zM1457.78 806.67h23.7v23.7h-23.7z"/><path class="st6" d="M1457.78 782.96h23.7v23.71h-23.7zM1457.78 759.26h23.7v23.7h-23.7zM1457.78 735.56h23.7v23.7h-23.7z"/><path class="st6" d="M1457.78 711.85h23.7v23.71h-23.7zM1457.78 688.15h23.7v23.7h-23.7z"/><path class="st6" d="M1457.78 664.44h23.7v23.71h-23.7zM1457.78 640.74h23.7v23.7h-23.7zM1457.78 617.04h23.7v23.7h-23.7z"/><path class="st7" d="M1457.78 593.33h23.7v23.71h-23.7z"/><path class="st9" d="M1457.78 569.63h23.7v23.7h-23.7z"/><path class="st6" d="M1457.78 545.93h23.7v23.7h-23.7zM1434.07 1494.07h23.71v23.71h-23.71zM1434.07 1470.37h23.71v23.7h-23.71z"/><path class="st6" d="M1434.07 1446.67h23.71v23.7h-23.71z"/><path class="st15" d="M1434.07 1422.96h23.71v23.71h-23.71zM1434.07 1399.26h23.71v23.7h-23.71zM1434.07 1375.56h23.71v23.7h-23.71z"/><path class="st3" d="M1434.07 1257.04h23.71v23.7h-23.71z"/><path class="st8" d="M1434.07 1233.33h23.71v23.71h-23.71z"/><path class="st17" d="M1434.07 1209.63h23.71v23.7h-23.71zM1434.07 1185.93h23.71v23.7h-23.71zM1434.07 1162.22h23.71v23.71h-23.71zM1434.07 1138.52h23.71v23.7h-23.71zM1434.07 1114.81h23.71v23.71h-23.71zM1434.07 1091.11h23.71v23.7h-23.71z"/><path class="st17" d="M1434.07 1067.41h23.71v23.7h-23.71zM1434.07 1043.7h23.71v23.71h-23.71zM1434.07 1020h23.71v23.7h-23.71zM1434.07 996.3h23.71v23.7h-23.71z"/><path class="st17" d="M1434.07 972.59h23.71v23.71h-23.71zM1434.07 948.89h23.71v23.7h-23.71z"/><path class="st17" d="M1434.07 925.19h23.71v23.7h-23.71zM1434.07 901.48h23.71v23.71h-23.71zM1434.07 877.78h23.71v23.7h-23.71z"/><path class="st17" d="M1434.07 854.07h23.71v23.71h-23.71zM1434.07 830.37h23.71v23.7h-23.71zM1434.07 806.67h23.71v23.7h-23.71z"/><path class="st17" d="M1434.07 782.96h23.71v23.71h-23.71zM1434.07 759.26h23.71v23.7h-23.71zM1434.07 735.56h23.71v23.7h-23.71z"/><path class="st17" d="M1434.07 711.85h23.71v23.71h-23.71zM1434.07 688.15h23.71v23.7h-23.71z"/><path class="st17" d="M1434.07 664.44h23.71v23.71h-23.71zM1434.07 640.74h23.71v23.7h-23.71z"/><path class="st7" d="M1434.07 617.04h23.71v23.7h-23.71z"/><path class="st9" d="M1434.07 593.33h23.71v23.71h-23.71zM1434.07 569.63h23.71v23.7h-23.71z"/><path class="st6" d="M1434.07 545.93h23.71v23.7h-23.71zM1410.37 1470.37h23.7v23.7h-23.7z"/><path class="st6" d="M1410.37 1446.67h23.7v23.7h-23.7z"/><path class="st15" d="M1410.37 1422.96h23.7v23.71h-23.7z"/><path class="st6" d="M1410.37 1399.26h23.7v23.7h-23.7z"/><path class="st3" d="M1410.37 1233.33h23.7v23.71h-23.7z"/><path class="st8" d="M1410.37 1209.63h23.7v23.7h-23.7z"/><path class="st20" d="M1410.37 1185.93h23.7v23.7h-23.7zM1410.37 1162.22h23.7v23.71h-23.7zM1410.37 1138.52h23.7v23.7h-23.7zM1410.37 1114.81h23.7v23.71h-23.7zM1410.37 1091.11h23.7v23.7h-23.7z"/><path class="st20" d="M1410.37 1067.41h23.7v23.7h-23.7zM1410.37 1043.7h23.7v23.71h-23.7zM1410.37 1020h23.7v23.7h-23.7zM1410.37 996.3h23.7v23.7h-23.7z"/><path class="st20" d="M1410.37 972.59h23.7v23.71h-23.7zM1410.37 948.89h23.7v23.7h-23.7z"/><path class="st20" d="M1410.37 925.19h23.7v23.7h-23.7zM1410.37 901.48h23.7v23.71h-23.7zM1410.37 877.78h23.7v23.7h-23.7z"/><path class="st20" d="M1410.37 854.07h23.7v23.71h-23.7zM1410.37 830.37h23.7v23.7h-23.7zM1410.37 806.67h23.7v23.7h-23.7z"/><path class="st20" d="M1410.37 782.96h23.7v23.71h-23.7zM1410.37 759.26h23.7v23.7h-23.7zM1410.37 735.56h23.7v23.7h-23.7z"/><path class="st20" d="M1410.37 711.85h23.7v23.71h-23.7zM1410.37 688.15h23.7v23.7h-23.7z"/><path class="st20" d="M1410.37 664.44h23.7v23.71h-23.7zM1410.37 640.74h23.7v23.7h-23.7z"/><path class="st7" d="M1410.37 617.04h23.7v23.7h-23.7z"/><path class="st21" d="M1410.37 593.33h23.7v23.71h-23.7z"/><path class="st6" d="M1410.37 569.63h23.7v23.7h-23.7zM1386.67 1470.37h23.7v23.7h-23.7z"/><path class="st6" d="M1386.67 1446.67h23.7v23.7h-23.7z"/><path class="st15" d="M1386.67 1422.96h23.7v23.71h-23.7zM1386.67 1399.26h23.7v23.7h-23.7z"/><path class="st3" d="M1386.67 1233.33h23.7v23.71h-23.7z"/><path class="st8" d="M1386.67 1209.63h23.7v23.7h-23.7z"/><path class="st21" d="M1386.67 1185.93h23.7v23.7h-23.7z"/><path class="st20" d="M1386.67 1162.22h23.7v23.71h-23.7zM1386.67 1138.52h23.7v23.7h-23.7z"/><path class="st21" d="M1386.67 1114.81h23.7v23.71h-23.7z"/><path class="st20" d="M1386.67 1091.11h23.7v23.7h-23.7z"/><path class="st20" d="M1386.67 1067.41h23.7v23.7h-23.7z"/><path class="st21" d="M1386.67 1043.7h23.7v23.71h-23.7z"/><path class="st20" d="M1386.67 1020h23.7v23.7h-23.7zM1386.67 996.3h23.7v23.7h-23.7z"/><path class="st21" d="M1386.67 972.59h23.7v23.71h-23.7z"/><path class="st20" d="M1386.67 948.89h23.7v23.7h-23.7z"/><path class="st20" d="M1386.67 925.19h23.7v23.7h-23.7z"/><path class="st21" d="M1386.67 901.48h23.7v23.71h-23.7z"/><path class="st20" d="M1386.67 877.78h23.7v23.7h-23.7z"/><path class="st20" d="M1386.67 854.07h23.7v23.71h-23.7z"/><path class="st21" d="M1386.67 830.37h23.7v23.7h-23.7z"/><path class="st20" d="M1386.67 806.67h23.7v23.7h-23.7z"/><path class="st20" d="M1386.67 782.96h23.7v23.71h-23.7z"/><path class="st21" d="M1386.67 759.26h23.7v23.7h-23.7z"/><path class="st20" d="M1386.67 735.56h23.7v23.7h-23.7z"/><path class="st20" d="M1386.67 711.85h23.7v23.71h-23.7z"/><path class="st21" d="M1386.67 688.15h23.7v23.7h-23.7z"/><path class="st20" d="M1386.67 664.44h23.7v23.71h-23.7zM1386.67 640.74h23.7v23.7h-23.7z"/><path class="st7" d="M1386.67 617.04h23.7v23.7h-23.7z"/><path class="st21" d="M1386.67 593.33h23.7v23.71h-23.7z"/><path class="st6" d="M1386.67 569.63h23.7v23.7h-23.7zM1362.96 1470.37h23.71v23.7h-23.71z"/><path class="st6" d="M1362.96 1446.67h23.71v23.7h-23.71z"/><path class="st16" d="M1362.96 1422.96h23.71v23.71h-23.71z"/><path class="st15" d="M1362.96 1399.26h23.71v23.7h-23.71z"/><path class="st3" d="M1362.96 1233.33h23.71v23.71h-23.71z"/><path class="st8" d="M1362.96 1209.63h23.71v23.7h-23.71z"/><path class="st21" d="M1362.96 1185.93h23.71v23.7h-23.71z"/><path class="st20" d="M1362.96 1162.22h23.71v23.71h-23.71zM1362.96 1138.52h23.71v23.7h-23.71z"/><path class="st21" d="M1362.96 1114.81h23.71v23.71h-23.71z"/><path class="st20" d="M1362.96 1091.11h23.71v23.7h-23.71z"/><path class="st20" d="M1362.96 1067.41h23.71v23.7h-23.71zM1362.96 1043.7h23.71v23.71h-23.71z"/><path class="st21" d="M1362.96 1020h23.71v23.7h-23.71z"/><path class="st20" d="M1362.96 996.3h23.71v23.7h-23.71z"/><path class="st21" d="M1362.96 972.59h23.71v23.71h-23.71z"/><path class="st20" d="M1362.96 948.89h23.71v23.7h-23.71z"/><path class="st21" d="M1362.96 925.19h23.71v23.7h-23.71z"/><path class="st20" d="M1362.96 901.48h23.71v23.71h-23.71zM1362.96 877.78h23.71v23.7h-23.71z"/><path class="st20" d="M1362.96 854.07h23.71v23.71h-23.71z"/><path class="st21" d="M1362.96 830.37h23.71v23.7h-23.71z"/><path class="st20" d="M1362.96 806.67h23.71v23.7h-23.71z"/><path class="st20" d="M1362.96 782.96h23.71v23.71h-23.71z"/><path class="st21" d="M1362.96 759.26h23.71v23.7h-23.71z"/><path class="st20" d="M1362.96 735.56h23.71v23.7h-23.71z"/><path class="st20" d="M1362.96 711.85h23.71v23.71h-23.71z"/><path class="st21" d="M1362.96 688.15h23.71v23.7h-23.71z"/><path class="st20" d="M1362.96 664.44h23.71v23.71h-23.71z"/><path class="st7" d="M1362.96 640.74h23.71v23.7h-23.71z"/><path class="st21" d="M1362.96 617.04h23.71v23.7h-23.71z"/><path class="st21" d="M1362.96 593.33h23.71v23.71h-23.71z"/><path class="st6" d="M1362.96 569.63h23.71v23.7h-23.71zM1339.26 1470.37h23.7v23.7h-23.7z"/><path class="st6" d="M1339.26 1446.67h23.7v23.7h-23.7z"/><path class="st16" d="M1339.26 1422.96h23.7v23.71h-23.7z"/><path class="st15" d="M1339.26 1399.26h23.7v23.7h-23.7z"/><path class="st3" d="M1339.26 1209.63h23.7v23.7h-23.7z"/><path class="st8" d="M1339.26 1185.93h23.7v23.7h-23.7z"/><path class="st21" d="M1339.26 1162.22h23.7v23.71h-23.7z"/><path class="st20" d="M1339.26 1138.52h23.7v23.7h-23.7zM1339.26 1114.81h23.7v23.71h-23.7z"/><path class="st21" d="M1339.26 1091.11h23.7v23.7h-23.7z"/><path class="st20" d="M1339.26 1067.41h23.7v23.7h-23.7zM1339.26 1043.7h23.7v23.71h-23.7zM1339.26 1020h23.7v23.7h-23.7zM1339.26 996.3h23.7v23.7h-23.7z"/><path class="st20" d="M1339.26 972.59h23.7v23.71h-23.7zM1339.26 948.89h23.7v23.7h-23.7z"/><path class="st20" d="M1339.26 925.19h23.7v23.7h-23.7zM1339.26 901.48h23.7v23.71h-23.7zM1339.26 877.78h23.7v23.7h-23.7z"/><path class="st21" d="M1339.26 854.07h23.7v23.71h-23.7z"/><path class="st20" d="M1339.26 830.37h23.7v23.7h-23.7zM1339.26 806.67h23.7v23.7h-23.7z"/><path class="st21" d="M1339.26 782.96h23.7v23.71h-23.7z"/><path class="st20" d="M1339.26 759.26h23.7v23.7h-23.7zM1339.26 735.56h23.7v23.7h-23.7z"/><path class="st21" d="M1339.26 711.85h23.7v23.71h-23.7z"/><path class="st20" d="M1339.26 688.15h23.7v23.7h-23.7z"/><path class="st20" d="M1339.26 664.44h23.7v23.71h-23.7z"/><path class="st7" d="M1339.26 640.74h23.7v23.7h-23.7z"/><path class="st21" d="M1339.26 617.04h23.7v23.7h-23.7z"/><path class="st6" d="M1339.26 593.33h23.7v23.71h-23.7zM1315.56 1470.37h23.7v23.7h-23.7z"/><path class="st16" d="M1315.56 1446.67h23.7v23.7h-23.7z"/><path class="st15" d="M1315.56 1422.96h23.7v23.71h-23.7zM1315.56 1399.26h23.7v23.7h-23.7z"/><path class="st3" d="M1315.56 1209.63h23.7v23.7h-23.7z"/><path class="st8" d="M1315.56 1185.93h23.7v23.7h-23.7z"/><path class="st6" d="M1315.56 1162.22h23.7v23.71h-23.7zM1315.56 1138.52h23.7v23.7h-23.7zM1315.56 1114.81h23.7v23.71h-23.7zM1315.56 1091.11h23.7v23.7h-23.7z"/><path class="st6" d="M1315.56 1067.41h23.7v23.7h-23.7zM1315.56 1043.7h23.7v23.71h-23.7zM1315.56 1020h23.7v23.7h-23.7zM1315.56 996.3h23.7v23.7h-23.7z"/><path class="st6" d="M1315.56 972.59h23.7v23.71h-23.7zM1315.56 948.89h23.7v23.7h-23.7z"/><path class="st6" d="M1315.56 925.19h23.7v23.7h-23.7zM1315.56 901.48h23.7v23.71h-23.7zM1315.56 877.78h23.7v23.7h-23.7z"/><path class="st6" d="M1315.56 854.07h23.7v23.71h-23.7zM1315.56 830.37h23.7v23.7h-23.7zM1315.56 806.67h23.7v23.7h-23.7z"/><path class="st6" d="M1315.56 782.96h23.7v23.71h-23.7zM1315.56 759.26h23.7v23.7h-23.7zM1315.56 735.56h23.7v23.7h-23.7z"/><path class="st6" d="M1315.56 711.85h23.7v23.71h-23.7zM1315.56 688.15h23.7v23.7h-23.7z"/><path class="st7" d="M1315.56 664.44h23.7v23.71h-23.7zM1315.56 640.74h23.7v23.7h-23.7z"/><path class="st21" d="M1315.56 617.04h23.7v23.7h-23.7z"/><path class="st6" d="M1315.56 593.33h23.7v23.71h-23.7zM1291.85 1470.37h23.71v23.7h-23.71z"/><path class="st6" d="M1291.85 1446.67h23.71v23.7h-23.71z"/><path class="st16" d="M1291.85 1422.96h23.71v23.71h-23.71z"/><path class="st3" d="M1291.85 1209.63h23.71v23.7h-23.71z"/><path class="st8" d="M1291.85 1185.93h23.71v23.7h-23.71z"/><path class="st21" d="M1291.85 1162.22h23.71v23.71h-23.71zM1291.85 1138.52h23.71v23.7h-23.71zM1291.85 1114.81h23.71v23.71h-23.71zM1291.85 1091.11h23.71v23.7h-23.71z"/><path class="st21" d="M1291.85 1067.41h23.71v23.7h-23.71zM1291.85 1043.7h23.71v23.71h-23.71zM1291.85 1020h23.71v23.7h-23.71zM1291.85 996.3h23.71v23.7h-23.71z"/><path class="st21" d="M1291.85 972.59h23.71v23.71h-23.71zM1291.85 948.89h23.71v23.7h-23.71z"/><path class="st21" d="M1291.85 925.19h23.71v23.7h-23.71zM1291.85 901.48h23.71v23.71h-23.71zM1291.85 877.78h23.71v23.7h-23.71z"/><path class="st21" d="M1291.85 854.07h23.71v23.71h-23.71zM1291.85 830.37h23.71v23.7h-23.71zM1291.85 806.67h23.71v23.7h-23.71z"/><path class="st21" d="M1291.85 782.96h23.71v23.71h-23.71zM1291.85 759.26h23.71v23.7h-23.71zM1291.85 735.56h23.71v23.7h-23.71z"/><path class="st21" d="M1291.85 711.85h23.71v23.71h-23.71zM1291.85 688.15h23.71v23.7h-23.71z"/><path class="st21" d="M1291.85 664.44h23.71v23.71h-23.71zM1291.85 640.74h23.71v23.7h-23.71zM1291.85 617.04h23.71v23.7h-23.71z"/><path class="st7" d="M1291.85 593.33h23.71v23.71h-23.71z"/><path class="st15" d="M1268.15 1446.67h23.7v23.7h-23.7zM1268.15 1422.96h23.7v23.71h-23.7z"/><path class="st3" d="M1268.15 1185.93h23.7v23.7h-23.7z"/><path class="st8" d="M1268.15 1162.22h23.7v23.71h-23.7z"/><path class="st21" d="M1268.15 1138.52h23.7v23.7h-23.7zM1268.15 1114.81h23.7v23.71h-23.7zM1268.15 1091.11h23.7v23.7h-23.7z"/><path class="st21" d="M1268.15 1067.41h23.7v23.7h-23.7zM1268.15 1043.7h23.7v23.71h-23.7zM1268.15 1020h23.7v23.7h-23.7zM1268.15 996.3h23.7v23.7h-23.7z"/><path class="st21" d="M1268.15 972.59h23.7v23.71h-23.7zM1268.15 948.89h23.7v23.7h-23.7z"/><path class="st21" d="M1268.15 925.19h23.7v23.7h-23.7zM1268.15 901.48h23.7v23.71h-23.7zM1268.15 877.78h23.7v23.7h-23.7z"/><path class="st21" d="M1268.15 854.07h23.7v23.71h-23.7zM1268.15 830.37h23.7v23.7h-23.7zM1268.15 806.67h23.7v23.7h-23.7z"/><path class="st21" d="M1268.15 782.96h23.7v23.71h-23.7zM1268.15 759.26h23.7v23.7h-23.7zM1268.15 735.56h23.7v23.7h-23.7z"/><path class="st21" d="M1268.15 711.85h23.7v23.71h-23.7zM1268.15 688.15h23.7v23.7h-23.7z"/><path class="st21" d="M1268.15 664.44h23.7v23.71h-23.7zM1268.15 640.74h23.7v23.7h-23.7z"/><path class="st6" d="M1268.15 617.04h23.7v23.7h-23.7z"/><path class="st3" d="M1244.44 1185.93h23.71v23.7h-23.71z"/><path class="st8" d="M1244.44 1162.22h23.71v23.71h-23.71z"/><path class="st21" d="M1244.44 1138.52h23.71v23.7h-23.71zM1244.44 1114.81h23.71v23.71h-23.71zM1244.44 1091.11h23.71v23.7h-23.71z"/><path class="st21" d="M1244.44 1067.41h23.71v23.7h-23.71zM1244.44 1043.7h23.71v23.71h-23.71zM1244.44 1020h23.71v23.7h-23.71zM1244.44 996.3h23.71v23.7h-23.71z"/><path class="st21" d="M1244.44 972.59h23.71v23.71h-23.71zM1244.44 948.89h23.71v23.7h-23.71z"/><path class="st21" d="M1244.44 925.19h23.71v23.7h-23.71zM1244.44 901.48h23.71v23.71h-23.71zM1244.44 877.78h23.71v23.7h-23.71z"/><path class="st21" d="M1244.44 854.07h23.71v23.71h-23.71zM1244.44 830.37h23.71v23.7h-23.71zM1244.44 806.67h23.71v23.7h-23.71z"/><path class="st21" d="M1244.44 782.96h23.71v23.71h-23.71zM1244.44 759.26h23.71v23.7h-23.71zM1244.44 735.56h23.71v23.7h-23.71z"/><path class="st21" d="M1244.44 711.85h23.71v23.71h-23.71zM1244.44 688.15h23.71v23.7h-23.71z"/><path class="st21" d="M1244.44 664.44h23.71v23.71h-23.71zM1244.44 640.74h23.71v23.7h-23.71z"/><path class="st6" d="M1244.44 617.04h23.71v23.7h-23.71z"/><path class="st3" d="M1220.74 1185.93h23.7v23.7h-23.7z"/><path class="st8" d="M1220.74 1162.22h23.7v23.71h-23.7z"/><path class="st21" d="M1220.74 1138.52h23.7v23.7h-23.7zM1220.74 1114.81h23.7v23.71h-23.7zM1220.74 1091.11h23.7v23.7h-23.7z"/><path class="st21" d="M1220.74 1067.41h23.7v23.7h-23.7zM1220.74 1043.7h23.7v23.71h-23.7zM1220.74 1020h23.7v23.7h-23.7zM1220.74 996.3h23.7v23.7h-23.7z"/><path class="st21" d="M1220.74 972.59h23.7v23.71h-23.7zM1220.74 948.89h23.7v23.7h-23.7z"/><path class="st21" d="M1220.74 925.19h23.7v23.7h-23.7zM1220.74 901.48h23.7v23.71h-23.7zM1220.74 877.78h23.7v23.7h-23.7z"/><path class="st21" d="M1220.74 854.07h23.7v23.71h-23.7zM1220.74 830.37h23.7v23.7h-23.7zM1220.74 806.67h23.7v23.7h-23.7z"/><path class="st21" d="M1220.74 782.96h23.7v23.71h-23.7zM1220.74 759.26h23.7v23.7h-23.7zM1220.74 735.56h23.7v23.7h-23.7z"/><path class="st21" d="M1220.74 711.85h23.7v23.71h-23.7zM1220.74 688.15h23.7v23.7h-23.7z"/><path class="st21" d="M1220.74 664.44h23.7v23.71h-23.7zM1220.74 640.74h23.7v23.7h-23.7z"/><path class="st7" d="M1220.74 617.04h23.7v23.7h-23.7z"/><path class="st3" d="M1197.04 1162.22h23.7v23.71h-23.7z"/><path class="st8" d="M1197.04 1138.52h23.7v23.7h-23.7z"/><path class="st21" d="M1197.04 1114.81h23.7v23.71h-23.7zM1197.04 1091.11h23.7v23.7h-23.7z"/><path class="st21" d="M1197.04 1067.41h23.7v23.7h-23.7zM1197.04 1043.7h23.7v23.71h-23.7zM1197.04 1020h23.7v23.7h-23.7zM1197.04 996.3h23.7v23.7h-23.7z"/><path class="st21" d="M1197.04 972.59h23.7v23.71h-23.7zM1197.04 948.89h23.7v23.7h-23.7z"/><path class="st21" d="M1197.04 925.19h23.7v23.7h-23.7zM1197.04 901.48h23.7v23.71h-23.7zM1197.04 877.78h23.7v23.7h-23.7z"/><path class="st21" d="M1197.04 854.07h23.7v23.71h-23.7zM1197.04 830.37h23.7v23.7h-23.7zM1197.04 806.67h23.7v23.7h-23.7z"/><path class="st21" d="M1197.04 782.96h23.7v23.71h-23.7zM1197.04 759.26h23.7v23.7h-23.7zM1197.04 735.56h23.7v23.7h-23.7z"/><path class="st21" d="M1197.04 711.85h23.7v23.71h-23.7zM1197.04 688.15h23.7v23.7h-23.7z"/><path class="st21" d="M1197.04 664.44h23.7v23.71h-23.7z"/><path class="st6" d="M1197.04 640.74h23.7v23.7h-23.7z"/><path class="st3" d="M1173.33 1162.22h23.71v23.71h-23.71zM1173.33 1138.52h23.71v23.7h-23.71z"/><path class="st21" d="M1173.33 1114.81h23.71v23.71h-23.71zM1173.33 1091.11h23.71v23.7h-23.71z"/><path class="st21" d="M1173.33 1067.41h23.71v23.7h-23.71zM1173.33 1043.7h23.71v23.71h-23.71zM1173.33 1020h23.71v23.7h-23.71zM1173.33 996.3h23.71v23.7h-23.71z"/><path class="st21" d="M1173.33 972.59h23.71v23.71h-23.71zM1173.33 948.89h23.71v23.7h-23.71z"/><path class="st21" d="M1173.33 925.19h23.71v23.7h-23.71zM1173.33 901.48h23.71v23.71h-23.71zM1173.33 877.78h23.71v23.7h-23.71z"/><path class="st21" d="M1173.33 854.07h23.71v23.71h-23.71zM1173.33 830.37h23.71v23.7h-23.71zM1173.33 806.67h23.71v23.7h-23.71z"/><path class="st21" d="M1173.33 782.96h23.71v23.71h-23.71zM1173.33 759.26h23.71v23.7h-23.71zM1173.33 735.56h23.71v23.7h-23.71z"/><path class="st21" d="M1173.33 711.85h23.71v23.71h-23.71zM1173.33 688.15h23.71v23.7h-23.71z"/><path class="st6" d="M1173.33 664.44h23.71v23.71h-23.71z"/><path class="st7" d="M1173.33 640.74h23.71v23.7h-23.71z"/><path class="st3" d="M1149.63 1162.22h23.7v23.71h-23.7zM1149.63 1138.52h23.7v23.7h-23.7zM1149.63 1114.81h23.7v23.71h-23.7zM1149.63 1091.11h23.7v23.7h-23.7z"/><path class="st3" d="M1149.63 1067.41h23.7v23.7h-23.7zM1149.63 1043.7h23.7v23.71h-23.7zM1149.63 1020h23.7v23.7h-23.7zM1149.63 996.3h23.7v23.7h-23.7z"/><path class="st6" d="M1149.63 972.59h23.7v23.71h-23.7z"/><path class="st3" d="M1149.63 948.89h23.7v23.7h-23.7z"/><path class="st3" d="M1149.63 925.19h23.7v23.7h-23.7z"/><path class="st6" d="M1149.63 901.48h23.7v23.71h-23.7z"/><path class="st3" d="M1149.63 877.78h23.7v23.7h-23.7z"/><path class="st6" d="M1149.63 854.07h23.7v23.71h-23.7z"/><path class="st3" d="M1149.63 830.37h23.7v23.7h-23.7z"/><path class="st6" d="M1149.63 806.67h23.7v23.7h-23.7z"/><path class="st6" d="M1149.63 782.96h23.7v23.71h-23.7zM1149.63 759.26h23.7v23.7h-23.7zM1149.63 735.56h23.7v23.7h-23.7z"/><path class="st6" d="M1149.63 711.85h23.7v23.71h-23.7zM1149.63 688.15h23.7v23.7h-23.7z"/><path class="st3" d="M1149.63 664.44h23.7v23.71h-23.7z"/><path class="st7" d="M1149.63 640.74h23.7v23.7h-23.7z"/></g></g></svg>