<svg xmlns="http://www.w3.org/2000/svg" viewBox="0 0 480.5 340.5"><defs><style>.d{fill:#bfa0f0}</style></defs><g id="b"><g id="c"><path class="d" d="M460.25 20.25h20v20h-20zM440.25 20.25h20v20h-20zM.25 20.25h20v20h-20zM20.25 20.25h20v20h-20zM460.25 160.25h20v20h-20zM300.25 160.25h20v20h-20zM160.25 160.25h20v20h-20zM.25 160.25h20v20h-20zM460.25 100.25h20v20h-20zM360.25 100.25h20v20h-20zM100.25 100.25h20v20h-20zM.25 100.25h20v20h-20zM460.25 300.25h20v20h-20zM440.25 300.25h20v20h-20zM.25 300.25h20v20h-20zM20.25 300.25h20v20h-20zM460.25 220.25h20v20h-20zM.25 220.25h20v20h-20zM460.25 280.25h20v20h-20zM.25 280.25h20v20h-20zM460.25 40.25h20v20h-20zM420.25 40.25h20v20h-20zM.25 40.25h20v20h-20zM40.25 40.25h20v20h-20zM460.25 80.25h20v20h-20zM380.25 80.25h20v20h-20zM80.25 80.25h20v20h-20zM.25 80.25h20v20h-20zM380.25 320.25h20v20h-20zM340.25 320.25h20v20h-20zM360.25 320.25h20v20h-20zM440.25 320.25h20v20h-20zM400.25 320.25h20v20h-20zM420.25 320.25h20v20h-20zM240.25 320.25h20v20h-20zM260.25 320.25h20v20h-20zM220.25 320.25h20v20h-20zM300.25 320.25h20v20h-20zM320.25 320.25h20v20h-20zM280.25 320.25h20v20h-20zM100.25 320.25h20v20h-20zM80.25 320.25h20v20h-20zM120.25 320.25h20v20h-20zM160.25 320.25h20v20h-20zM140.25 320.25h20v20h-20zM200.25 320.25h20v20h-20zM180.25 320.25h20v20h-20zM40.25 320.25h20v20h-20zM20.25 320.25h20v20h-20zM60.25 320.25h20v20h-20zM460.25 200.25h20v20h-20zM240.25 200.25h20v20h-20zM260.25 200.25h20v20h-20zM220.25 200.25h20v20h-20zM200.25 200.25h20v20h-20zM.25 200.25h20v20h-20zM460.25 260.25h20v20h-20zM.25 260.25h20v20h-20zM460.25 140.25h20v20h-20zM320.25 140.25h20v20h-20zM140.25 140.25h20v20h-20zM.25 140.25h20v20h-20zM460.25 60.25h20v20h-20zM400.25 60.25h20v20h-20zM.25 60.25h20v20h-20zM60.25 60.25h20v20h-20zM460.25 240.25h20v20h-20zM.25 240.25h20v20h-20zM380.25.25h20v20h-20zM340.25.25h20v20h-20zM360.25.25h20v20h-20zM440.25.25h20v20h-20zM400.25.25h20v20h-20zM420.25.25h20v20h-20zM240.25.25h20v20h-20zM260.25.25h20v20h-20zM220.25.25h20v20h-20zM300.25.25h20v20h-20zM320.25.25h20v20h-20zM280.25.25h20v20h-20zM100.25.25h20v20h-20zM80.25.25h20v20h-20zM120.25.25h20v20h-20zM160.25.25h20v20h-20zM140.25.25h20v20h-20zM200.25.25h20v20h-20zM180.25.25h20v20h-20zM40.25.25h20v20h-20zM20.25.25h20v20h-20zM60.25.25h20v20h-20zM460.25 120.25h20v20h-20zM340.25 120.25h20v20h-20zM120.25 120.25h20v20h-20zM.25 120.25h20v20h-20zM460.25 180.25h20v20h-20zM280.25 180.25h20v20h-20zM180.25 180.25h20v20h-20zM.25 180.25h20v20h-20z"/></g></g></svg>