<svg xmlns="http://www.w3.org/2000/svg" viewBox="0 0 640 56" style="enable-background:new 0 0 640 56" xml:space="preserve"><style>.st2{fill:#f4543b}.st3{fill:#f42121}.st4{fill:#f4392c}.st5{fill:#f4a1ac}.st7{fill:#ffc4cf}.st10{fill:#e62121}.st11{fill:#ffcfa2}.st14{fill:#bc2121}.st17{fill:#ffb917}.st18{fill:#e92121}.st19{fill:#ff4a45}.st22{fill:#833021}.st24{fill:#fff}.st25{fill:#231815}.st26{fill:#e5c08f}.st27{fill:#e2a040}.st28{fill:#eaa259}.st29{fill:#e8ab69}.st30{fill:#e5b780}.st31{fill:#cc954c}.st32{fill:#b58b5d}.st33{fill:#ffe5c5}.st34{fill:#e2cfa6}.st35{fill:#e2e2e2}.st36{fill:#fff1d0}.st37{fill:#e2b68a}.st38{fill:#eddacc}.st39{fill:#eacdb9}.st40{fill:#9acfe2}.st41{fill:#61abd3}.st42{fill:#6093a5}.st43{fill:#5b9fbc}</style><g id="back"><path style="fill:#1a1a1a" d="M-358.1-52h80v80h-80z"/><path style="fill:#22ac38" d="M-239.7-52h160v160h-160z"/></g><g id="grid"><g id="XMLID_00000037691176550228073420000016872707266498535848_"><path class="st2" d="M-348.7 4.5h4.7v4.7h-4.7zM-348.7-.2h4.7v4.7h-4.7z"/><path class="st3" d="M-348.7-4.9h4.7v4.7h-4.7z"/><path class="st3" d="M-348.7-9.6h4.7v4.7h-4.7zM-348.7-14.4h4.7v4.7h-4.7z"/><path class="st4" d="M-344 9.2h4.7v4.7h-4.7zM-344 4.5h4.7v4.7h-4.7z"/><path class="st5" d="M-344-.2h4.7v4.7h-4.7z"/><path style="fill:#f4676a" d="M-344-4.9h4.7v4.7h-4.7z"/><path class="st7" d="M-344-9.6h4.7v4.7h-4.7z"/><path class="st2" d="M-344-14.4h4.7v4.7h-4.7z"/><path class="st3" d="M-344-19.1h4.7v4.7h-4.7z"/><path style="fill:#ffe8b1" d="M-339.3 13.9h4.7v4.7h-4.7z"/><path class="st3" d="M-339.3 9.2h4.7v4.7h-4.7z"/><path class="st4" d="M-339.3 4.5h4.7v4.7h-4.7zM-339.3-.2h4.7v4.7h-4.7zM-339.3-4.9h4.7v4.7h-4.7z"/><path style="fill:#f4abb8" d="M-339.3-9.6h4.7v4.7h-4.7z"/><path class="st7" d="M-339.3-14.4h4.7v4.7h-4.7z"/><path class="st2" d="M-339.3-19.1h4.7v4.7h-4.7z"/><path class="st10" d="M-339.3-23.8h4.7v4.7h-4.7z"/><path class="st11" d="M-334.6 18.6h4.7v4.7h-4.7z"/><path class="st3" d="M-334.6 13.9h4.7v4.7h-4.7zM-334.6 9.2h4.7v4.7h-4.7zM-334.6 4.5h4.7v4.7h-4.7zM-334.6-.2h4.7v4.7h-4.7zM-334.6-4.9h4.7v4.7h-4.7z"/><path class="st4" d="M-334.6-9.6h4.7v4.7h-4.7zM-334.6-14.4h4.7v4.7h-4.7zM-334.6-19.1h4.7v4.7h-4.7z"/><path class="st5" d="M-334.6-23.8h4.7v4.7h-4.7z"/><path class="st10" d="M-334.6-28.5h4.7v4.7h-4.7z"/><path class="st11" d="M-329.9 23.3h4.7V28h-4.7z"/><path class="st3" d="M-329.9 18.6h4.7v4.7h-4.7zM-329.9 13.9h4.7v4.7h-4.7zM-329.9 9.2h4.7v4.7h-4.7zM-329.9 4.5h4.7v4.7h-4.7zM-329.9-.2h4.7v4.7h-4.7zM-329.9-4.9h4.7v4.7h-4.7z"/><path class="st3" d="M-329.9-9.6h4.7v4.7h-4.7z"/><path class="st4" d="M-329.9-14.4h4.7v4.7h-4.7zM-329.9-19.1h4.7v4.7h-4.7z"/><path style="fill:#d72121" d="M-329.9-23.8h4.7v4.7h-4.7z"/><path class="st10" d="M-329.9-28.5h4.7v4.7h-4.7z"/><path style="fill:#86d621" d="M-329.9-47.3h4.7v4.7h-4.7z"/><path class="st11" d="M-325.2 23.3h4.7V28h-4.7z"/><path class="st3" d="M-325.2 18.6h4.7v4.7h-4.7zM-325.2 13.9h4.7v4.7h-4.7zM-325.2 9.2h4.7v4.7h-4.7zM-325.2 4.5h4.7v4.7h-4.7zM-325.2-.2h4.7v4.7h-4.7zM-325.2-4.9h4.7v4.7h-4.7z"/><path class="st3" d="M-325.2-9.6h4.7v4.7h-4.7zM-325.2-14.4h4.7v4.7h-4.7z"/><path class="st14" d="M-325.2-19.1h4.7v4.7h-4.7zM-325.2-23.8h4.7v4.7h-4.7z"/><path style="fill:#2c8621" d="M-325.2-42.6h4.7v4.7h-4.7z"/><path style="fill:#2cb721" d="M-325.2-47.3h4.7v4.7h-4.7z"/><path class="st17" d="M-320.5 23.3h4.7V28h-4.7z"/><path class="st18" d="M-320.5 18.6h4.7v4.7h-4.7zM-320.5 13.9h4.7v4.7h-4.7z"/><path class="st3" d="M-320.5 9.2h4.7v4.7h-4.7z"/><path class="st18" d="M-320.5 4.5h4.7v4.7h-4.7z"/><path class="st3" d="M-320.5-.2h4.7v4.7h-4.7zM-320.5-4.9h4.7v4.7h-4.7z"/><path class="st3" d="M-320.5-9.6h4.7v4.7h-4.7zM-320.5-14.4h4.7v4.7h-4.7z"/><path class="st19" d="M-320.5-19.1h4.7v4.7h-4.7z"/><path style="fill:#2c3e21" d="M-320.5-23.8h4.7v4.7h-4.7z"/><path style="fill:#653021" d="M-320.5-28.5h4.7v4.7h-4.7z"/><path class="st22" d="M-320.5-33.2h4.7v4.7h-4.7z"/><path style="fill:#2c6b21" d="M-320.5-42.6h4.7v4.7h-4.7z"/><path class="st17" d="M-315.8 23.3h4.7V28h-4.7z"/><path class="st18" d="M-315.8 18.6h4.7v4.7h-4.7zM-315.8 13.9h4.7v4.7h-4.7zM-315.8 9.2h4.7v4.7h-4.7zM-315.8 4.5h4.7v4.7h-4.7z"/><path class="st3" d="M-315.8-.2h4.7v4.7h-4.7zM-315.8-4.9h4.7v4.7h-4.7z"/><path class="st3" d="M-315.8-9.6h4.7v4.7h-4.7z"/><path class="st4" d="M-315.8-14.4h4.7v4.7h-4.7z"/><path class="st19" d="M-315.8-19.1h4.7v4.7h-4.7z"/><path class="st14" d="M-315.8-23.8h4.7v4.7h-4.7z"/><path class="st22" d="M-315.8-37.9h4.7v4.7h-4.7z"/><path class="st17" d="M-311.1 23.3h4.7V28h-4.7z"/><path class="st18" d="M-311.1 18.6h4.7v4.7h-4.7zM-311.1 13.9h4.7v4.7h-4.7zM-311.1 9.2h4.7v4.7h-4.7zM-311.1 4.5h4.7v4.7h-4.7z"/><path class="st3" d="M-311.1-.2h4.7v4.7h-4.7zM-311.1-4.9h4.7v4.7h-4.7z"/><path class="st3" d="M-311.1-9.6h4.7v4.7h-4.7z"/><path class="st4" d="M-311.1-14.4h4.7v4.7h-4.7z"/><path class="st3" d="M-311.1-19.1h4.7v4.7h-4.7zM-311.1-23.8h4.7v4.7h-4.7z"/><path class="st4" d="M-311.1-28.5h4.7v4.7h-4.7z"/><path class="st17" d="M-306.4 18.6h4.7v4.7h-4.7z"/><path class="st18" d="M-306.4 13.9h4.7v4.7h-4.7zM-306.4 9.2h4.7v4.7h-4.7zM-306.4 4.5h4.7v4.7h-4.7zM-306.4-.2h4.7v4.7h-4.7z"/><path class="st3" d="M-306.4-4.9h4.7v4.7h-4.7z"/><path class="st4" d="M-306.4-9.6h4.7v4.7h-4.7z"/><path class="st3" d="M-306.4-14.4h4.7v4.7h-4.7zM-306.4-19.1h4.7v4.7h-4.7zM-306.4-23.8h4.7v4.7h-4.7zM-306.4-28.5h4.7v4.7h-4.7z"/><path class="st18" d="M-301.7 13.9h4.7v4.7h-4.7zM-301.7 9.2h4.7v4.7h-4.7zM-301.7 4.5h4.7v4.7h-4.7zM-301.7-.2h4.7v4.7h-4.7zM-301.7-4.9h4.7v4.7h-4.7z"/><path class="st3" d="M-301.7-9.6h4.7v4.7h-4.7zM-301.7-14.4h4.7v4.7h-4.7zM-301.7-19.1h4.7v4.7h-4.7zM-301.7-23.8h4.7v4.7h-4.7z"/><path class="st18" d="M-297 9.2h4.7v4.7h-4.7zM-297 4.5h4.7v4.7h-4.7zM-297-.2h4.7v4.7h-4.7zM-297-4.9h4.7v4.7h-4.7z"/><path class="st3" d="M-297-9.6h4.7v4.7h-4.7zM-297-14.4h4.7v4.7h-4.7zM-297-19.1h4.7v4.7h-4.7z"/><path class="st18" d="M-292.3 4.5h4.7v4.7h-4.7zM-292.3-.2h4.7v4.7h-4.7zM-292.3-4.9h4.7v4.7h-4.7z"/><path class="st3" d="M-292.3-9.6h4.7v4.7h-4.7zM-292.3-14.4h4.7v4.7h-4.7z"/></g><g id="XMLID_00000057867120184621107650000014422333229789750453_"><path class="st24" d="M-154.7 83h5v5h-5z"/><path class="st25" d="M-99.7 13h5v5h-5zM-99.7 8h5v5h-5z"/><path d="M-99.7-22h5v5h-5z"/><path class="st25" d="M-104.7 28h5v5h-5zM-104.7 23h5v5h-5zM-104.7 18h5v5h-5zM-104.7 13h5v5h-5zM-104.7 8h5v5h-5z"/><path d="M-104.7-17h5v5h-5z"/><path class="st25" d="M-109.7 38h5v5h-5zM-109.7 33h5v5h-5zM-109.7 28h5v5h-5zM-109.7 23h5v5h-5zM-109.7 18h5v5h-5z"/><path d="M-109.7 13h5v5h-5z"/><path class="st25" d="M-109.7 8h5v5h-5zM-109.7 3h5v5h-5zM-109.7-2h5v5h-5zM-109.7-7h5v5h-5zM-109.7-17h5v5h-5zM-109.7-22h5v5h-5z"/><path d="M-114.7 103h5v5h-5zM-114.7 98h5v5h-5zM-114.7 93h5v5h-5zM-114.7 88h5v5h-5zM-114.7 83h5v5h-5zM-114.7 78h5v5h-5z"/><path class="st25" d="M-114.7 38h5v5h-5z"/><path class="st26" d="M-114.7 33h5v5h-5z"/><path class="st25" d="M-114.7 28h5v5h-5z"/><path d="M-114.7 23h5v5h-5zM-114.7 18h5v5h-5zM-114.7 13h5v5h-5zM-114.7 8h5v5h-5z"/><path class="st25" d="M-114.7 3h5v5h-5z"/><path d="M-114.7-2h5v5h-5z"/><path class="st25" d="M-114.7-7h5v5h-5zM-114.7-12h5v5h-5zM-114.7-17h5v5h-5zM-114.7-22h5v5h-5z"/><path d="M-114.7-27h5v5h-5zM-114.7-32h5v5h-5z"/><path class="st27" d="M-119.7 103h5v5h-5zM-119.7 98h5v5h-5z"/><path class="st28" d="M-119.7 93h5v5h-5zM-119.7 88h5v5h-5z"/><path class="st29" d="M-119.7 83h5v5h-5z"/><path class="st30" d="M-119.7 78h5v5h-5z"/><path d="M-119.7 73h5v5h-5zM-119.7 43h5v5h-5z"/><path class="st25" d="M-119.7 38h5v5h-5zM-119.7 33h5v5h-5zM-119.7 28h5v5h-5z"/><path d="M-119.7 23h5v5h-5zM-119.7 18h5v5h-5zM-119.7 13h5v5h-5zM-119.7 8h5v5h-5zM-119.7 3h5v5h-5zM-119.7-2h5v5h-5z"/><path class="st25" d="M-119.7-7h5v5h-5zM-119.7-12h5v5h-5zM-119.7-17h5v5h-5zM-119.7-22h5v5h-5zM-119.7-27h5v5h-5z"/><path d="M-119.7-32h5v5h-5zM-119.7-37h5v5h-5z"/><path class="st31" d="M-124.7 103h5v5h-5zM-124.7 98h5v5h-5zM-124.7 93h5v5h-5z"/><path d="M-124.7 88h5v5h-5zM-124.7 83h5v5h-5zM-124.7 78h5v5h-5z"/><path class="st29" d="M-124.7 73h5v5h-5z"/><path d="M-124.7 68h5v5h-5z"/><path class="st25" d="M-124.7 48h5v5h-5zM-124.7 43h5v5h-5z"/><path class="st32" d="M-124.7 38h5v5h-5z"/><path d="M-124.7 33h5v5h-5z"/><path class="st25" d="M-124.7 28h5v5h-5zM-124.7 23h5v5h-5zM-124.7 18h5v5h-5zM-124.7 13h5v5h-5zM-124.7 8h5v5h-5z"/><path d="M-124.7 3h5v5h-5zM-124.7-2h5v5h-5zM-124.7-7h5v5h-5zM-124.7-12h5v5h-5z"/><path class="st25" d="M-124.7-17h5v5h-5zM-124.7-22h5v5h-5zM-124.7-27h5v5h-5zM-124.7-32h5v5h-5z"/><path d="M-124.7-37h5v5h-5zM-124.7-47h5v5h-5zM-129.7 103h5v5h-5zM-129.7 98h5v5h-5zM-129.7 93h5v5h-5z"/><path class="st27" d="M-129.7 88h5v5h-5zM-129.7 83h5v5h-5zM-129.7 78h5v5h-5zM-129.7 73h5v5h-5zM-129.7 68h5v5h-5z"/><path d="M-129.7 63h5v5h-5z"/><path class="st25" d="M-129.7 53h5v5h-5z"/><path class="st26" d="M-129.7 48h5v5h-5zM-129.7 43h5v5h-5zM-129.7 38h5v5h-5z"/><path class="st32" d="M-129.7 33h5v5h-5z"/><path class="st25" d="M-129.7 28h5v5h-5zM-129.7 23h5v5h-5z"/><path class="st32" d="M-129.7 18h5v5h-5zM-129.7 13h5v5h-5z"/><path class="st25" d="M-129.7 8h5v5h-5zM-129.7 3h5v5h-5z"/><path d="M-129.7-2h5v5h-5zM-129.7-7h5v5h-5zM-129.7-12h5v5h-5zM-129.7-17h5v5h-5z"/><path class="st25" d="M-129.7-22h5v5h-5zM-129.7-27h5v5h-5zM-129.7-32h5v5h-5zM-129.7-37h5v5h-5zM-129.7-42h5v5h-5z"/><path d="M-129.7-47h5v5h-5z"/><path class="st28" d="M-134.7 103h5v5h-5zM-134.7 98h5v5h-5zM-134.7 93h5v5h-5z"/><path d="M-134.7 88h5v5h-5zM-134.7 83h5v5h-5z"/><path class="st27" d="M-134.7 78h5v5h-5z"/><path d="M-134.7 73h5v5h-5z"/><path class="st31" d="M-134.7 68h5v5h-5zM-134.7 63h5v5h-5z"/><path class="st25" d="M-134.7 58h5v5h-5z"/><path class="st32" d="M-134.7 53h5v5h-5z"/><path class="st26" d="M-134.7 48h5v5h-5z"/><path class="st33" d="M-134.7 43h5v5h-5zM-134.7 38h5v5h-5z"/><path class="st26" d="M-134.7 33h5v5h-5zM-134.7 28h5v5h-5z"/><path class="st25" d="M-134.7 23h5v5h-5z"/><path class="st26" d="M-134.7 18h5v5h-5z"/><path class="st25" d="M-134.7 13h5v5h-5z"/><path d="M-134.7 8h5v5h-5z"/><path class="st25" d="M-134.7 3h5v5h-5zM-134.7-2h5v5h-5z"/><path d="M-134.7-7h5v5h-5zM-134.7-12h5v5h-5zM-134.7-17h5v5h-5zM-134.7-22h5v5h-5zM-134.7-27h5v5h-5zM-134.7-32h5v5h-5zM-134.7-37h5v5h-5z"/><path class="st25" d="M-134.7-42h5v5h-5z"/><path class="st31" d="M-139.7 103h5v5h-5zM-139.7 98h5v5h-5z"/><path d="M-139.7 93h5v5h-5z"/><path class="st29" d="M-139.7 88h5v5h-5zM-139.7 83h5v5h-5z"/><path d="M-139.7 78h5v5h-5z"/><path class="st27" d="M-139.7 73h5v5h-5z"/><path d="M-139.7 68h5v5h-5zM-139.7 63h5v5h-5z"/><path class="st32" d="M-139.7 58h5v5h-5z"/><path class="st26" d="M-139.7 53h5v5h-5z"/><path class="st33" d="M-139.7 48h5v5h-5zM-139.7 43h5v5h-5zM-139.7 38h5v5h-5zM-139.7 33h5v5h-5zM-139.7 28h5v5h-5z"/><path class="st26" d="M-139.7 23h5v5h-5zM-139.7 18h5v5h-5z"/><path class="st25" d="M-139.7 13h5v5h-5z"/><path d="M-139.7 8h5v5h-5zM-139.7 3h5v5h-5zM-139.7-2h5v5h-5zM-139.7-7h5v5h-5zM-139.7-12h5v5h-5zM-139.7-17h5v5h-5zM-139.7-22h5v5h-5zM-139.7-27h5v5h-5zM-139.7-32h5v5h-5zM-139.7-37h5v5h-5z"/><path class="st25" d="M-139.7-42h5v5h-5z"/><path d="M-144.7 103h5v5h-5zM-144.7 98h5v5h-5z"/><path class="st27" d="M-144.7 93h5v5h-5zM-144.7 88h5v5h-5zM-144.7 83h5v5h-5zM-144.7 78h5v5h-5zM-144.7 73h5v5h-5z"/><path class="st31" d="M-144.7 68h5v5h-5z"/><path class="st25" d="M-144.7 63h5v5h-5z"/><path class="st26" d="M-144.7 58h5v5h-5z"/><path class="st33" d="M-144.7 53h5v5h-5zM-144.7 48h5v5h-5zM-144.7 43h5v5h-5zM-144.7 38h5v5h-5z"/><path d="M-144.7 33h5v5h-5z"/><path class="st25" d="M-144.7 28h5v5h-5zM-144.7 23h5v5h-5z"/><path class="st33" d="M-144.7 18h5v5h-5z"/><path class="st25" d="M-144.7 13h5v5h-5zM-144.7 8h5v5h-5zM-144.7 3h5v5h-5zM-144.7-2h5v5h-5zM-144.7-7h5v5h-5zM-144.7-12h5v5h-5z"/><path d="M-144.7-17h5v5h-5zM-144.7-22h5v5h-5zM-144.7-27h5v5h-5zM-144.7-32h5v5h-5zM-144.7-37h5v5h-5z"/><path class="st25" d="M-144.7-42h5v5h-5zM-144.7-47h5v5h-5z"/><path class="st27" d="M-149.7 103h5v5h-5zM-149.7 98h5v5h-5zM-149.7 93h5v5h-5z"/><path class="st29" d="M-149.7 88h5v5h-5z"/><path d="M-149.7 83h5v5h-5zM-149.7 78h5v5h-5zM-149.7 73h5v5h-5zM-149.7 68h5v5h-5z"/><path class="st25" d="M-149.7 63h5v5h-5z"/><path class="st34" d="M-149.7 58h5v5h-5z"/><path class="st33" d="M-149.7 53h5v5h-5zM-149.7 48h5v5h-5zM-149.7 43h5v5h-5zM-149.7 38h5v5h-5zM-149.7 33h5v5h-5zM-149.7 28h5v5h-5zM-149.7 23h5v5h-5zM-149.7 18h5v5h-5z"/><path class="st26" d="M-149.7 13h5v5h-5z"/><path class="st25" d="M-149.7 8h5v5h-5zM-149.7 3h5v5h-5zM-149.7-2h5v5h-5zM-149.7-7h5v5h-5z"/><path d="M-149.7-12h5v5h-5zM-149.7-17h5v5h-5zM-149.7-22h5v5h-5zM-149.7-27h5v5h-5zM-149.7-32h5v5h-5zM-149.7-37h5v5h-5z"/><path class="st25" d="M-149.7-42h5v5h-5zM-149.7-47h5v5h-5z"/><path d="M-154.7 103h5v5h-5zM-154.7 98h5v5h-5zM-154.7 93h5v5h-5zM-154.7 88h5v5h-5zM-154.7 78h5v5h-5z"/><path class="st34" d="M-154.7 73h5v5h-5z"/><path class="st32" d="M-154.7 68h5v5h-5z"/><path class="st25" d="M-154.7 63h5v5h-5z"/><path class="st33" d="M-154.7 58h5v5h-5zM-154.7 53h5v5h-5z"/><path class="st25" d="M-154.7 48h5v5h-5z"/><path class="st33" d="M-154.7 43h5v5h-5zM-154.7 38h5v5h-5zM-154.7 33h5v5h-5zM-154.7 28h5v5h-5zM-154.7 23h5v5h-5z"/><path class="st26" d="M-154.7 18h5v5h-5z"/><path class="st25" d="M-154.7 13h5v5h-5zM-154.7 8h5v5h-5z"/><path d="M-154.7 3h5v5h-5zM-154.7-2h5v5h-5zM-154.7-7h5v5h-5zM-154.7-12h5v5h-5zM-154.7-17h5v5h-5zM-154.7-22h5v5h-5zM-154.7-27h5v5h-5zM-154.7-32h5v5h-5zM-154.7-37h5v5h-5z"/><path class="st25" d="M-154.7-42h5v5h-5zM-154.7-47h5v5h-5z"/><path class="st24" d="M-159.7 103h5v5h-5zM-159.7 98h5v5h-5z"/><path class="st35" d="M-159.7 93h5v5h-5z"/><path class="st24" d="M-159.7 88h5v5h-5zM-159.7 83h5v5h-5z"/><path d="M-159.7 78h5v5h-5z"/><path class="st36" d="M-159.7 73h5v5h-5z"/><path class="st37" d="M-159.7 68h5v5h-5z"/><path class="st25" d="M-159.7 63h5v5h-5z"/><path class="st33" d="M-159.7 58h5v5h-5z"/><path class="st38" d="M-159.7 53h5v5h-5z"/><path class="st25" d="M-159.7 48h5v5h-5z"/><path class="st33" d="M-159.7 43h5v5h-5zM-159.7 38h5v5h-5zM-159.7 33h5v5h-5zM-159.7 28h5v5h-5zM-159.7 23h5v5h-5z"/><path class="st26" d="M-159.7 18h5v5h-5z"/><path class="st25" d="M-159.7 13h5v5h-5zM-159.7 8h5v5h-5z"/><path d="M-159.7 3h5v5h-5zM-159.7-2h5v5h-5zM-159.7-7h5v5h-5zM-159.7-12h5v5h-5zM-159.7-17h5v5h-5zM-159.7-22h5v5h-5zM-159.7-27h5v5h-5zM-159.7-32h5v5h-5zM-159.7-37h5v5h-5z"/><path class="st25" d="M-159.7-42h5v5h-5z"/><path class="st35" d="M-164.7 103h5v5h-5zM-164.7 98h5v5h-5z"/><path class="st24" d="M-164.7 93h5v5h-5zM-164.7 88h5v5h-5zM-164.7 83h5v5h-5z"/><path d="M-164.7 78h5v5h-5z"/><path class="st36" d="M-164.7 73h5v5h-5z"/><path class="st37" d="M-164.7 68h5v5h-5z"/><path class="st25" d="M-164.7 63h5v5h-5z"/><path class="st33" d="M-164.7 58h5v5h-5z"/><path class="st38" d="M-164.7 53h5v5h-5z"/><path class="st25" d="M-164.7 48h5v5h-5z"/><path class="st33" d="M-164.7 43h5v5h-5zM-164.7 38h5v5h-5zM-164.7 33h5v5h-5zM-164.7 28h5v5h-5z"/><path class="st26" d="M-164.7 23h5v5h-5z"/><path class="st25" d="M-164.7 18h5v5h-5zM-164.7 13h5v5h-5zM-164.7 8h5v5h-5zM-164.7 3h5v5h-5zM-164.7-2h5v5h-5zM-164.7-7h5v5h-5zM-164.7-12h5v5h-5z"/><path d="M-164.7-17h5v5h-5zM-164.7-22h5v5h-5zM-164.7-27h5v5h-5zM-164.7-32h5v5h-5zM-164.7-37h5v5h-5z"/><path class="st25" d="M-164.7-42h5v5h-5zM-164.7-47h5v5h-5z"/><path d="M-169.7 103h5v5h-5zM-169.7 98h5v5h-5zM-169.7 93h5v5h-5zM-169.7 88h5v5h-5z"/><path class="st24" d="M-169.7 83h5v5h-5z"/><path d="M-169.7 78h5v5h-5z"/><path class="st34" d="M-169.7 73h5v5h-5z"/><path class="st32" d="M-169.7 68h5v5h-5z"/><path class="st25" d="M-169.7 63h5v5h-5z"/><path class="st33" d="M-169.7 58h5v5h-5zM-169.7 53h5v5h-5z"/><path class="st25" d="M-169.7 48h5v5h-5z"/><path class="st33" d="M-169.7 43h5v5h-5zM-169.7 38h5v5h-5zM-169.7 33h5v5h-5zM-169.7 28h5v5h-5zM-169.7 23h5v5h-5z"/><path class="st26" d="M-169.7 18h5v5h-5z"/><path class="st25" d="M-169.7 13h5v5h-5z"/><path class="st32" d="M-169.7 8h5v5h-5z"/><path class="st25" d="M-169.7 3h5v5h-5z"/><path d="M-169.7-2h5v5h-5zM-169.7-7h5v5h-5zM-169.7-12h5v5h-5zM-169.7-17h5v5h-5zM-169.7-22h5v5h-5zM-169.7-27h5v5h-5zM-169.7-32h5v5h-5zM-169.7-37h5v5h-5zM-169.7-42h5v5h-5z"/><path class="st25" d="M-169.7-47h5v5h-5zM-169.7-52h5v5h-5z"/><path class="st27" d="M-174.7 103h5v5h-5zM-174.7 98h5v5h-5z"/><path class="st28" d="M-174.7 93h5v5h-5z"/><path class="st29" d="M-174.7 88h5v5h-5z"/><path d="M-174.7 83h5v5h-5zM-174.7 78h5v5h-5zM-174.7 73h5v5h-5zM-174.7 68h5v5h-5z"/><path class="st25" d="M-174.7 63h5v5h-5z"/><path class="st33" d="M-174.7 58h5v5h-5zM-174.7 53h5v5h-5zM-174.7 48h5v5h-5zM-174.7 43h5v5h-5zM-174.7 38h5v5h-5zM-174.7 33h5v5h-5zM-174.7 28h5v5h-5z"/><path class="st26" d="M-174.7 23h5v5h-5zM-174.7 18h5v5h-5z"/><path class="st32" d="M-174.7 13h5v5h-5zM-174.7 8h5v5h-5z"/><path class="st25" d="M-174.7 3h5v5h-5zM-174.7-2h5v5h-5z"/><path d="M-174.7-7h5v5h-5zM-174.7-12h5v5h-5zM-174.7-17h5v5h-5zM-174.7-22h5v5h-5zM-174.7-27h5v5h-5zM-174.7-32h5v5h-5zM-174.7-37h5v5h-5zM-174.7-42h5v5h-5z"/><path class="st25" d="M-174.7-47h5v5h-5zM-174.7-52h5v5h-5z"/><path d="M-179.7 103h5v5h-5zM-179.7 98h5v5h-5z"/><path class="st28" d="M-179.7 93h5v5h-5zM-179.7 88h5v5h-5z"/><path class="st27" d="M-179.7 83h5v5h-5z"/><path class="st29" d="M-179.7 78h5v5h-5zM-179.7 73h5v5h-5z"/><path class="st31" d="M-179.7 68h5v5h-5z"/><path class="st25" d="M-179.7 63h5v5h-5z"/><path class="st26" d="M-179.7 58h5v5h-5z"/><path class="st33" d="M-179.7 53h5v5h-5zM-179.7 48h5v5h-5zM-179.7 43h5v5h-5zM-179.7 38h5v5h-5z"/><path d="M-179.7 33h5v5h-5z"/><path class="st25" d="M-179.7 28h5v5h-5zM-179.7 23h5v5h-5z"/><path class="st39" d="M-179.7 18h5v5h-5z"/><path d="M-179.7 13h5v5h-5z"/><path class="st32" d="M-179.7 8h5v5h-5zM-179.7 3h5v5h-5z"/><path d="M-179.7-2h5v5h-5zM-179.7-7h5v5h-5z"/><path class="st25" d="M-179.7-12h5v5h-5z"/><path d="M-179.7-17h5v5h-5zM-179.7-22h5v5h-5zM-179.7-27h5v5h-5zM-179.7-32h5v5h-5z"/><path class="st25" d="M-179.7-37h5v5h-5zM-179.7-42h5v5h-5zM-179.7-47h5v5h-5z"/><path class="st31" d="M-184.7 103h5v5h-5zM-184.7 98h5v5h-5z"/><path d="M-184.7 93h5v5h-5z"/><path class="st29" d="M-184.7 88h5v5h-5z"/><path class="st27" d="M-184.7 83h5v5h-5z"/><path d="M-184.7 78h5v5h-5z"/><path class="st27" d="M-184.7 73h5v5h-5z"/><path d="M-184.7 68h5v5h-5zM-184.7 63h5v5h-5z"/><path class="st32" d="M-184.7 58h5v5h-5z"/><path class="st26" d="M-184.7 53h5v5h-5z"/><path class="st33" d="M-184.7 48h5v5h-5zM-184.7 43h5v5h-5zM-184.7 38h5v5h-5zM-184.7 33h5v5h-5zM-184.7 28h5v5h-5zM-184.7 23h5v5h-5z"/><path class="st26" d="M-184.7 18h5v5h-5z"/><path d="M-184.7 13h5v5h-5z"/><path class="st25" d="M-184.7 8h5v5h-5zM-184.7 3h5v5h-5zM-184.7-2h5v5h-5zM-184.7-7h5v5h-5z"/><path d="M-184.7-12h5v5h-5zM-184.7-17h5v5h-5zM-184.7-22h5v5h-5zM-184.7-27h5v5h-5z"/><path class="st25" d="M-184.7-32h5v5h-5zM-184.7-37h5v5h-5zM-184.7-42h5v5h-5z"/><path class="st27" d="M-189.7 103h5v5h-5z"/><path class="st28" d="M-189.7 98h5v5h-5zM-189.7 93h5v5h-5z"/><path d="M-189.7 88h5v5h-5zM-189.7 83h5v5h-5z"/><path class="st27" d="M-189.7 78h5v5h-5z"/><path d="M-189.7 73h5v5h-5z"/><path class="st31" d="M-189.7 68h5v5h-5zM-189.7 63h5v5h-5z"/><path class="st25" d="M-189.7 58h5v5h-5z"/><path class="st26" d="M-189.7 53h5v5h-5zM-189.7 48h5v5h-5z"/><path class="st39" d="M-189.7 43h5v5h-5z"/><path class="st33" d="M-189.7 38h5v5h-5zM-189.7 33h5v5h-5zM-189.7 28h5v5h-5z"/><path class="st34" d="M-189.7 23h5v5h-5z"/><path class="st32" d="M-189.7 18h5v5h-5zM-189.7 13h5v5h-5z"/><path class="st25" d="M-189.7 8h5v5h-5z"/><path d="M-189.7 3h5v5h-5zM-189.7-2h5v5h-5zM-189.7-7h5v5h-5zM-189.7-12h5v5h-5zM-189.7-17h5v5h-5zM-189.7-22h5v5h-5zM-189.7-27h5v5h-5zM-189.7-32h5v5h-5z"/><path class="st25" d="M-189.7-37h5v5h-5zM-189.7-42h5v5h-5z"/><path d="M-194.7 103h5v5h-5zM-194.7 98h5v5h-5zM-194.7 93h5v5h-5z"/><path class="st27" d="M-194.7 88h5v5h-5zM-194.7 83h5v5h-5zM-194.7 78h5v5h-5zM-194.7 73h5v5h-5z"/><path class="st31" d="M-194.7 68h5v5h-5z"/><path d="M-194.7 63h5v5h-5z"/><path class="st25" d="M-194.7 53h5v5h-5z"/><path class="st26" d="M-194.7 48h5v5h-5zM-194.7 43h5v5h-5z"/><path class="st39" d="M-194.7 38h5v5h-5zM-194.7 33h5v5h-5z"/><path class="st25" d="M-194.7 28h5v5h-5zM-194.7 23h5v5h-5zM-194.7 18h5v5h-5zM-194.7 13h5v5h-5zM-194.7 8h5v5h-5zM-194.7 3h5v5h-5z"/><path d="M-194.7-2h5v5h-5zM-194.7-7h5v5h-5zM-194.7-12h5v5h-5zM-194.7-17h5v5h-5zM-194.7-22h5v5h-5zM-194.7-27h5v5h-5zM-194.7-32h5v5h-5z"/><path class="st25" d="M-194.7-37h5v5h-5zM-194.7-42h5v5h-5z"/><path class="st31" d="M-199.7 103h5v5h-5zM-199.7 98h5v5h-5zM-199.7 93h5v5h-5z"/><path d="M-199.7 88h5v5h-5zM-199.7 83h5v5h-5zM-199.7 78h5v5h-5z"/><path class="st29" d="M-199.7 73h5v5h-5z"/><path d="M-199.7 68h5v5h-5z"/><path class="st25" d="M-199.7 48h5v5h-5zM-199.7 43h5v5h-5z"/><path class="st26" d="M-199.7 38h5v5h-5z"/><path class="st32" d="M-199.7 33h5v5h-5zM-199.7 28h5v5h-5z"/><path class="st25" d="M-199.7 23h5v5h-5zM-199.7 18h5v5h-5zM-199.7 13h5v5h-5zM-199.7 8h5v5h-5zM-199.7 3h5v5h-5z"/><path d="M-199.7-2h5v5h-5zM-199.7-7h5v5h-5zM-199.7-12h5v5h-5zM-199.7-17h5v5h-5zM-199.7-22h5v5h-5zM-199.7-27h5v5h-5zM-199.7-32h5v5h-5z"/><path class="st25" d="M-199.7-37h5v5h-5z"/><path class="st31" d="M-204.7 103h5v5h-5z"/><path class="st28" d="M-204.7 98h5v5h-5zM-204.7 93h5v5h-5z"/><path class="st27" d="M-204.7 88h5v5h-5z"/><path class="st29" d="M-204.7 83h5v5h-5z"/><path class="st30" d="M-204.7 78h5v5h-5z"/><path d="M-204.7 73h5v5h-5zM-204.7 43h5v5h-5z"/><path class="st25" d="M-204.7 38h5v5h-5zM-204.7 33h5v5h-5zM-204.7 28h5v5h-5zM-204.7 23h5v5h-5zM-204.7 18h5v5h-5z"/><path d="M-204.7 13h5v5h-5zM-204.7 8h5v5h-5zM-204.7 3h5v5h-5zM-204.7-2h5v5h-5zM-204.7-7h5v5h-5zM-204.7-12h5v5h-5zM-204.7-17h5v5h-5zM-204.7-22h5v5h-5zM-204.7-27h5v5h-5zM-204.7-32h5v5h-5z"/><path class="st25" d="M-204.7-37h5v5h-5z"/><path d="M-209.7 103h5v5h-5zM-209.7 98h5v5h-5zM-209.7 93h5v5h-5zM-209.7 88h5v5h-5zM-209.7 83h5v5h-5zM-209.7 78h5v5h-5z"/><path class="st25" d="M-209.7 38h5v5h-5z"/><path class="st26" d="M-209.7 33h5v5h-5z"/><path class="st25" d="M-209.7 28h5v5h-5z"/><path d="M-209.7 23h5v5h-5zM-209.7 18h5v5h-5zM-209.7 13h5v5h-5zM-209.7 8h5v5h-5zM-209.7 3h5v5h-5zM-209.7-2h5v5h-5zM-209.7-7h5v5h-5zM-209.7-12h5v5h-5z"/><path class="st25" d="M-209.7-17h5v5h-5z"/><path d="M-209.7-22h5v5h-5zM-209.7-27h5v5h-5z"/><path class="st25" d="M-209.7-32h5v5h-5zM-209.7-37h5v5h-5z"/><path d="M-209.7-42h5v5h-5z"/><path class="st25" d="M-214.7 38h5v5h-5zM-214.7 33h5v5h-5zM-214.7 28h5v5h-5z"/><path d="M-214.7 23h5v5h-5zM-214.7 18h5v5h-5z"/><path class="st25" d="M-214.7 13h5v5h-5zM-214.7 8h5v5h-5z"/><path d="M-214.7 3h5v5h-5zM-214.7-2h5v5h-5zM-214.7-7h5v5h-5zM-214.7-12h5v5h-5z"/><path class="st25" d="M-214.7-17h5v5h-5zM-214.7-22h5v5h-5zM-214.7-27h5v5h-5zM-214.7-32h5v5h-5z"/><path d="M-214.7-42h5v5h-5z"/><path class="st25" d="M-219.7 23h5v5h-5zM-219.7 18h5v5h-5zM-219.7 13h5v5h-5zM-219.7 8h5v5h-5zM-219.7 3h5v5h-5zM-219.7-2h5v5h-5zM-219.7-7h5v5h-5zM-219.7-12h5v5h-5z"/><path d="M-219.7-17h5v5h-5zM-219.7-22h5v5h-5z"/><path class="st25" d="M-224.7 23h5v5h-5zM-224.7 18h5v5h-5zM-224.7 3h5v5h-5zM-224.7-12h5v5h-5zM-224.7-17h5v5h-5z"/><path d="M-229.7-17h5v5h-5zM-229.7-22h5v5h-5z"/></g><g id="XMLID_00000069363928159893653330000007394586273049220788_"><path class="st40" d="M0 16h8v8H0zM0 24h8v8H0zM0 32h8v8H0zM8 8h8v8H8z"/><path class="st41" d="M8 16h8v8H8z"/><path class="st42" d="M8 24h8v8H8z"/><path class="st41" d="M8 32h8v8H8z"/><path class="st40" d="M8 40h8v8H8zM16 0h8v8h-8z"/><path class="st41" d="M16 8h8v8h-8z"/><path class="st42" d="M16 16h8v8h-8z"/><path class="st43" d="M16 24h8v8h-8zM16 32h8v8h-8z"/><path class="st41" d="M16 40h8v8h-8zM16 48h8v8h-8z"/><path class="st40" d="M24 0h8v8h-8z"/><path class="st42" d="M24 8h8v8h-8z"/><path class="st43" d="M24 16h8v8h-8z"/><path class="st40" d="M24 24h8v8h-8z"/><path class="st43" d="M24 32h8v8h-8zM24 40h8v8h-8z"/><path class="st41" d="M24 48h8v8h-8z"/><path class="st40" d="M32 0h8v8h-8z"/><path class="st41" d="M32 8h8v8h-8z"/><path class="st43" d="M32 16h8v8h-8zM32 24h8v8h-8zM32 32h8v8h-8z"/><path class="st41" d="M32 40h8v8h-8zM32 48h8v8h-8zM40 0h8v8h-8zM40 8h8v8h-8zM40 16h8v8h-8z"/><path class="st43" d="M40 24h8v8h-8z"/><path class="st41" d="M40 32h8v8h-8zM40 40h8v8h-8zM40 48h8v8h-8zM48 0h8v8h-8z"/><path class="st43" d="M48 8h8v8h-8z"/><path class="st41" d="M48 16h8v8h-8zM48 24h8v8h-8zM48 32h8v8h-8z"/><path class="st42" d="M48 40h8v8h-8z"/><path class="st41" d="M48 48h8v8h-8zM56 0h8v8h-8z"/><path class="st43" d="M56 8h8v8h-8zM56 16h8v8h-8zM56 24h8v8h-8z"/><path class="st42" d="M56 32h8v8h-8zM56 40h8v8h-8z"/><path class="st41" d="M56 48h8v8h-8zM64 0h8v8h-8z"/><path class="st43" d="M64 8h8v8h-8zM64 16h8v8h-8zM64 24h8v8h-8zM64 32h8v8h-8z"/><path class="st42" d="M64 40h8v8h-8z"/><path class="st41" d="M64 48h8v8h-8zM72 0h8v8h-8z"/><path class="st43" d="M72 8h8v8h-8zM72 16h8v8h-8zM72 24h8v8h-8zM72 32h8v8h-8z"/><path class="st42" d="M72 40h8v8h-8z"/><path class="st41" d="M72 48h8v8h-8zM80 0h8v8h-8z"/><path class="st43" d="M80 8h8v8h-8zM80 16h8v8h-8zM80 24h8v8h-8zM80 32h8v8h-8z"/><path class="st42" d="M80 40h8v8h-8z"/><path class="st41" d="M80 48h8v8h-8zM88 0h8v8h-8z"/><path class="st43" d="M88 8h8v8h-8zM88 16h8v8h-8zM88 24h8v8h-8zM88 32h8v8h-8z"/><path class="st42" d="M88 40h8v8h-8z"/><path class="st41" d="M88 48h8v8h-8zM96 0h8v8h-8z"/><path class="st43" d="M96 8h8v8h-8zM96 16h8v8h-8zM96 24h8v8h-8zM96 32h8v8h-8z"/><path class="st42" d="M96 40h8v8h-8z"/><path class="st41" d="M96 48h8v8h-8zM104 0h8v8h-8z"/><path class="st43" d="M104 8h8v8h-8zM104 16h8v8h-8zM104 24h8v8h-8zM104 32h8v8h-8z"/><path class="st42" d="M104 40h8v8h-8z"/><path class="st41" d="M104 48h8v8h-8zM112 0h8v8h-8z"/><path class="st43" d="M112 8h8v8h-8zM112 16h8v8h-8zM112 24h8v8h-8zM112 32h8v8h-8z"/><path class="st42" d="M112 40h8v8h-8z"/><path class="st41" d="M112 48h8v8h-8zM120 0h8v8h-8z"/><path class="st43" d="M120 8h8v8h-8zM120 16h8v8h-8zM120 24h8v8h-8zM120 32h8v8h-8z"/><path class="st42" d="M120 40h8v8h-8z"/><path class="st41" d="M120 48h8v8h-8zM128 0h8v8h-8z"/><path class="st43" d="M128 8h8v8h-8zM128 16h8v8h-8zM128 24h8v8h-8zM128 32h8v8h-8z"/><path class="st42" d="M128 40h8v8h-8z"/><path class="st41" d="M128 48h8v8h-8zM136 0h8v8h-8z"/><path class="st43" d="M136 8h8v8h-8zM136 16h8v8h-8zM136 24h8v8h-8zM136 32h8v8h-8z"/><path class="st42" d="M136 40h8v8h-8z"/><path class="st41" d="M136 48h8v8h-8zM144 0h8v8h-8z"/><path class="st43" d="M144 8h8v8h-8zM144 16h8v8h-8zM144 24h8v8h-8zM144 32h8v8h-8z"/><path class="st42" d="M144 40h8v8h-8z"/><path class="st41" d="M144 48h8v8h-8zM152 0h8v8h-8z"/><path class="st43" d="M152 8h8v8h-8zM152 16h8v8h-8zM152 24h8v8h-8zM152 32h8v8h-8z"/><path class="st42" d="M152 40h8v8h-8z"/><path class="st41" d="M152 48h8v8h-8zM160 0h8v8h-8z"/><path class="st43" d="M160 8h8v8h-8zM160 16h8v8h-8zM160 24h8v8h-8zM160 32h8v8h-8z"/><path class="st42" d="M160 40h8v8h-8z"/><path class="st41" d="M160 48h8v8h-8zM168 0h8v8h-8z"/><path class="st43" d="M168 8h8v8h-8zM168 16h8v8h-8zM168 24h8v8h-8zM168 32h8v8h-8z"/><path class="st42" d="M168 40h8v8h-8z"/><path class="st41" d="M168 48h8v8h-8zM176 0h8v8h-8z"/><path class="st43" d="M176 8h8v8h-8zM176 16h8v8h-8zM176 24h8v8h-8zM176 32h8v8h-8z"/><path class="st42" d="M176 40h8v8h-8z"/><path class="st41" d="M176 48h8v8h-8zM184 0h8v8h-8z"/><path class="st43" d="M184 8h8v8h-8zM184 16h8v8h-8zM184 24h8v8h-8zM184 32h8v8h-8z"/><path class="st42" d="M184 40h8v8h-8z"/><path class="st41" d="M184 48h8v8h-8zM192 0h8v8h-8z"/><path class="st43" d="M192 8h8v8h-8zM192 16h8v8h-8zM192 24h8v8h-8zM192 32h8v8h-8z"/><path class="st42" d="M192 40h8v8h-8z"/><path class="st41" d="M192 48h8v8h-8zM200 0h8v8h-8z"/><path class="st43" d="M200 8h8v8h-8zM200 16h8v8h-8zM200 24h8v8h-8zM200 32h8v8h-8z"/><path class="st42" d="M200 40h8v8h-8z"/><path class="st41" d="M200 48h8v8h-8zM208 0h8v8h-8z"/><path class="st43" d="M208 8h8v8h-8zM208 16h8v8h-8zM208 24h8v8h-8zM208 32h8v8h-8z"/><path class="st42" d="M208 40h8v8h-8z"/><path class="st41" d="M208 48h8v8h-8zM216 0h8v8h-8z"/><path class="st43" d="M216 8h8v8h-8zM216 16h8v8h-8zM216 24h8v8h-8zM216 32h8v8h-8z"/><path class="st42" d="M216 40h8v8h-8z"/><path class="st41" d="M216 48h8v8h-8zM224 0h8v8h-8z"/><path class="st43" d="M224 8h8v8h-8zM224 16h8v8h-8zM224 24h8v8h-8zM224 32h8v8h-8z"/><path class="st42" d="M224 40h8v8h-8z"/><path class="st41" d="M224 48h8v8h-8zM232 0h8v8h-8z"/><path class="st43" d="M232 8h8v8h-8zM232 16h8v8h-8zM232 24h8v8h-8zM232 32h8v8h-8z"/><path class="st42" d="M232 40h8v8h-8z"/><path class="st41" d="M232 48h8v8h-8zM240 0h8v8h-8z"/><path class="st43" d="M240 8h8v8h-8zM240 16h8v8h-8zM240 24h8v8h-8zM240 32h8v8h-8z"/><path class="st42" d="M240 40h8v8h-8z"/><path class="st41" d="M240 48h8v8h-8zM248 0h8v8h-8z"/><path class="st43" d="M248 8h8v8h-8zM248 16h8v8h-8zM248 24h8v8h-8zM248 32h8v8h-8z"/><path class="st42" d="M248 40h8v8h-8z"/><path class="st41" d="M248 48h8v8h-8zM256 0h8v8h-8z"/><path class="st43" d="M256 8h8v8h-8zM256 16h8v8h-8zM256 24h8v8h-8zM256 32h8v8h-8z"/><path class="st42" d="M256 40h8v8h-8z"/><path class="st41" d="M256 48h8v8h-8zM264 0h8v8h-8z"/><path class="st43" d="M264 8h8v8h-8zM264 16h8v8h-8zM264 24h8v8h-8zM264 32h8v8h-8z"/><path class="st42" d="M264 40h8v8h-8z"/><path class="st41" d="M264 48h8v8h-8zM272 0h8v8h-8z"/><path class="st43" d="M272 8h8v8h-8zM272 16h8v8h-8zM272 24h8v8h-8zM272 32h8v8h-8z"/><path class="st42" d="M272 40h8v8h-8z"/><path class="st41" d="M272 48h8v8h-8zM280 0h8v8h-8z"/><path class="st43" d="M280 8h8v8h-8zM280 16h8v8h-8zM280 24h8v8h-8zM280 32h8v8h-8z"/><path class="st42" d="M280 40h8v8h-8z"/><path class="st41" d="M280 48h8v8h-8zM288 0h8v8h-8z"/><path class="st43" d="M288 8h8v8h-8zM288 16h8v8h-8zM288 24h8v8h-8zM288 32h8v8h-8z"/><path class="st42" d="M288 40h8v8h-8z"/><path class="st41" d="M288 48h8v8h-8zM296 0h8v8h-8z"/><path class="st43" d="M296 8h8v8h-8zM296 16h8v8h-8zM296 24h8v8h-8zM296 32h8v8h-8z"/><path class="st42" d="M296 40h8v8h-8z"/><path class="st41" d="M296 48h8v8h-8zM304 0h8v8h-8z"/><path class="st43" d="M304 8h8v8h-8zM304 16h8v8h-8zM304 24h8v8h-8zM304 32h8v8h-8z"/><path class="st42" d="M304 40h8v8h-8z"/><path class="st41" d="M304 48h8v8h-8zM312 0h8v8h-8z"/><path class="st43" d="M312 8h8v8h-8zM312 16h8v8h-8zM312 24h8v8h-8zM312 32h8v8h-8z"/><path class="st42" d="M312 40h8v8h-8z"/><path class="st41" d="M312 48h8v8h-8zM320 0h8v8h-8z"/><path class="st43" d="M320 8h8v8h-8zM320 16h8v8h-8zM320 24h8v8h-8zM320 32h8v8h-8z"/><path class="st42" d="M320 40h8v8h-8z"/><path class="st41" d="M320 48h8v8h-8zM328 0h8v8h-8z"/><path class="st43" d="M328 8h8v8h-8zM328 16h8v8h-8zM328 24h8v8h-8zM328 32h8v8h-8z"/><path class="st42" d="M328 40h8v8h-8z"/><path class="st41" d="M328 48h8v8h-8zM336 0h8v8h-8z"/><path class="st43" d="M336 8h8v8h-8zM336 16h8v8h-8zM336 24h8v8h-8zM336 32h8v8h-8z"/><path class="st42" d="M336 40h8v8h-8z"/><path class="st41" d="M336 48h8v8h-8zM344 0h8v8h-8z"/><path class="st43" d="M344 8h8v8h-8zM344 16h8v8h-8zM344 24h8v8h-8zM344 32h8v8h-8z"/><path class="st42" d="M344 40h8v8h-8z"/><path class="st41" d="M344 48h8v8h-8zM352 0h8v8h-8z"/><path class="st43" d="M352 8h8v8h-8zM352 16h8v8h-8zM352 24h8v8h-8zM352 32h8v8h-8z"/><path class="st42" d="M352 40h8v8h-8z"/><path class="st41" d="M352 48h8v8h-8zM360 0h8v8h-8z"/><path class="st43" d="M360 8h8v8h-8zM360 16h8v8h-8zM360 24h8v8h-8zM360 32h8v8h-8z"/><path class="st42" d="M360 40h8v8h-8z"/><path class="st41" d="M360 48h8v8h-8zM368 0h8v8h-8z"/><path class="st43" d="M368 8h8v8h-8zM368 16h8v8h-8zM368 24h8v8h-8zM368 32h8v8h-8z"/><path class="st42" d="M368 40h8v8h-8z"/><path class="st41" d="M368 48h8v8h-8zM376 0h8v8h-8z"/><path class="st43" d="M376 8h8v8h-8zM376 16h8v8h-8zM376 24h8v8h-8zM376 32h8v8h-8z"/><path class="st42" d="M376 40h8v8h-8z"/><path class="st41" d="M376 48h8v8h-8zM384 0h8v8h-8z"/><path class="st43" d="M384 8h8v8h-8zM384 16h8v8h-8zM384 24h8v8h-8zM384 32h8v8h-8z"/><path class="st42" d="M384 40h8v8h-8z"/><path class="st41" d="M384 48h8v8h-8zM392 0h8v8h-8z"/><path class="st43" d="M392 8h8v8h-8zM392 16h8v8h-8zM392 24h8v8h-8zM392 32h8v8h-8z"/><path class="st42" d="M392 40h8v8h-8z"/><path class="st41" d="M392 48h8v8h-8zM400 0h8v8h-8z"/><path class="st43" d="M400 8h8v8h-8zM400 16h8v8h-8zM400 24h8v8h-8zM400 32h8v8h-8z"/><path class="st42" d="M400 40h8v8h-8z"/><path class="st41" d="M400 48h8v8h-8zM408 0h8v8h-8z"/><path class="st43" d="M408 8h8v8h-8zM408 16h8v8h-8zM408 24h8v8h-8zM408 32h8v8h-8z"/><path class="st42" d="M408 40h8v8h-8z"/><path class="st41" d="M408 48h8v8h-8zM416 0h8v8h-8z"/><path class="st43" d="M416 8h8v8h-8zM416 16h8v8h-8zM416 24h8v8h-8zM416 32h8v8h-8z"/><path class="st42" d="M416 40h8v8h-8z"/><path class="st41" d="M416 48h8v8h-8zM424 0h8v8h-8z"/><path class="st43" d="M424 8h8v8h-8zM424 16h8v8h-8zM424 24h8v8h-8zM424 32h8v8h-8z"/><path class="st42" d="M424 40h8v8h-8z"/><path class="st41" d="M424 48h8v8h-8zM432 0h8v8h-8z"/><path class="st43" d="M432 8h8v8h-8zM432 16h8v8h-8zM432 24h8v8h-8zM432 32h8v8h-8z"/><path class="st42" d="M432 40h8v8h-8z"/><path class="st41" d="M432 48h8v8h-8zM440 0h8v8h-8z"/><path class="st43" d="M440 8h8v8h-8zM440 16h8v8h-8zM440 24h8v8h-8zM440 32h8v8h-8z"/><path class="st42" d="M440 40h8v8h-8z"/><path class="st41" d="M440 48h8v8h-8zM448 0h8v8h-8z"/><path class="st43" d="M448 8h8v8h-8zM448 16h8v8h-8zM448 24h8v8h-8zM448 32h8v8h-8z"/><path class="st42" d="M448 40h8v8h-8z"/><path class="st41" d="M448 48h8v8h-8zM456 0h8v8h-8z"/><path class="st43" d="M456 8h8v8h-8zM456 16h8v8h-8zM456 24h8v8h-8zM456 32h8v8h-8z"/><path class="st42" d="M456 40h8v8h-8z"/><path class="st41" d="M456 48h8v8h-8zM464 0h8v8h-8z"/><path class="st43" d="M464 8h8v8h-8zM464 16h8v8h-8zM464 24h8v8h-8zM464 32h8v8h-8z"/><path class="st42" d="M464 40h8v8h-8z"/><path class="st41" d="M464 48h8v8h-8zM472 0h8v8h-8z"/><path class="st43" d="M472 8h8v8h-8zM472 16h8v8h-8zM472 24h8v8h-8zM472 32h8v8h-8z"/><path class="st42" d="M472 40h8v8h-8z"/><path class="st41" d="M472 48h8v8h-8zM480 0h8v8h-8z"/><path class="st43" d="M480 8h8v8h-8zM480 16h8v8h-8zM480 24h8v8h-8zM480 32h8v8h-8z"/><path class="st42" d="M480 40h8v8h-8z"/><path class="st41" d="M480 48h8v8h-8zM488 0h8v8h-8z"/><path class="st43" d="M488 8h8v8h-8zM488 16h8v8h-8zM488 24h8v8h-8zM488 32h8v8h-8z"/><path class="st42" d="M488 40h8v8h-8z"/><path class="st41" d="M488 48h8v8h-8zM496 0h8v8h-8z"/><path class="st43" d="M496 8h8v8h-8zM496 16h8v8h-8zM496 24h8v8h-8zM496 32h8v8h-8z"/><path class="st42" d="M496 40h8v8h-8z"/><path class="st41" d="M496 48h8v8h-8zM504 0h8v8h-8z"/><path class="st43" d="M504 8h8v8h-8zM504 16h8v8h-8zM504 24h8v8h-8zM504 32h8v8h-8z"/><path class="st42" d="M504 40h8v8h-8z"/><path class="st41" d="M504 48h8v8h-8zM512 0h8v8h-8z"/><path class="st43" d="M512 8h8v8h-8zM512 16h8v8h-8zM512 24h8v8h-8zM512 32h8v8h-8z"/><path class="st42" d="M512 40h8v8h-8z"/><path class="st41" d="M512 48h8v8h-8zM520 0h8v8h-8z"/><path class="st43" d="M520 8h8v8h-8zM520 16h8v8h-8zM520 24h8v8h-8zM520 32h8v8h-8z"/><path class="st42" d="M520 40h8v8h-8z"/><path class="st41" d="M520 48h8v8h-8zM528 0h8v8h-8z"/><path class="st43" d="M528 8h8v8h-8zM528 16h8v8h-8zM528 24h8v8h-8zM528 32h8v8h-8z"/><path class="st42" d="M528 40h8v8h-8z"/><path class="st41" d="M528 48h8v8h-8zM536 0h8v8h-8z"/><path class="st43" d="M536 8h8v8h-8zM536 16h8v8h-8zM536 24h8v8h-8zM536 32h8v8h-8z"/><path class="st42" d="M536 40h8v8h-8z"/><path class="st41" d="M536 48h8v8h-8zM544 0h8v8h-8z"/><path class="st43" d="M544 8h8v8h-8zM544 16h8v8h-8zM544 24h8v8h-8zM544 32h8v8h-8z"/><path class="st42" d="M544 40h8v8h-8z"/><path class="st41" d="M544 48h8v8h-8zM552 0h8v8h-8z"/><path class="st43" d="M552 8h8v8h-8zM552 16h8v8h-8zM552 24h8v8h-8zM552 32h8v8h-8z"/><path class="st42" d="M552 40h8v8h-8z"/><path class="st41" d="M552 48h8v8h-8zM560 0h8v8h-8z"/><path class="st43" d="M560 8h8v8h-8zM560 16h8v8h-8zM560 24h8v8h-8zM560 32h8v8h-8z"/><path class="st42" d="M560 40h8v8h-8z"/><path class="st41" d="M560 48h8v8h-8zM568 0h8v8h-8z"/><path class="st43" d="M568 8h8v8h-8zM568 16h8v8h-8zM568 24h8v8h-8zM568 32h8v8h-8z"/><path class="st42" d="M568 40h8v8h-8z"/><path class="st41" d="M568 48h8v8h-8zM576 0h8v8h-8z"/><path class="st43" d="M576 8h8v8h-8zM576 16h8v8h-8zM576 24h8v8h-8zM576 32h8v8h-8z"/><path class="st42" d="M576 40h8v8h-8z"/><path class="st41" d="M576 48h8v8h-8zM584 0h8v8h-8z"/><path class="st43" d="M584 8h8v8h-8zM584 16h8v8h-8zM584 24h8v8h-8zM584 32h8v8h-8z"/><path class="st42" d="M584 40h8v8h-8z"/><path class="st41" d="M584 48h8v8h-8zM592 0h8v8h-8z"/><path class="st43" d="M592 8h8v8h-8zM592 16h8v8h-8zM592 24h8v8h-8zM592 32h8v8h-8z"/><path class="st42" d="M592 40h8v8h-8z"/><path class="st41" d="M592 48h8v8h-8zM600 0h8v8h-8z"/><path class="st43" d="M600 8h8v8h-8zM600 16h8v8h-8zM600 24h8v8h-8zM600 32h8v8h-8z"/><path class="st42" d="M600 40h8v8h-8z"/><path class="st41" d="M600 48h8v8h-8zM608 0h8v8h-8z"/><path class="st43" d="M608 8h8v8h-8zM608 16h8v8h-8zM608 24h8v8h-8zM608 32h8v8h-8z"/><path class="st42" d="M608 40h8v8h-8z"/><path class="st41" d="M608 48h8v8h-8z"/><path class="st40" d="M616 0h8v8h-8z"/><path class="st41" d="M616 8h8v8h-8z"/><path class="st43" d="M616 16h8v8h-8zM616 24h8v8h-8zM616 32h8v8h-8z"/><path class="st41" d="M616 40h8v8h-8z"/><path class="st40" d="M616 48h8v8h-8z"/><path class="st41" d="M624 8h8v8h-8zM624 16h8v8h-8z"/><path class="st43" d="M624 24h8v8h-8z"/><path class="st41" d="M624 32h8v8h-8z"/><path class="st40" d="M624 40h8v8h-8z"/><path class="st41" d="M632 16h8v8h-8zM632 24h8v8h-8z"/><path class="st40" d="M632 32h8v8h-8z"/></g></g></svg>