<svg id="_イヤー_2" xmlns="http://www.w3.org/2000/svg" viewBox="0 0 24.5 56.5"><defs><style>.cls-1{fill:#9acfe2}.cls-2{fill:#5b9fbc}.cls-3{fill:#61abd3}</style></defs><g id="grid"><path class="cls-2" d="M.25 32.25h8v8h-8z"/><path class="cls-3" d="M8.25 32.25h8v8h-8z"/><path class="cls-1" d="M16.25 32.25h8v8h-8zM.25.25h8v8h-8z"/><path class="cls-3" d="M.25 40.25h8v8h-8z"/><path class="cls-1" d="M8.25 40.25h8v8h-8zM.25 48.25h8v8h-8z"/><path class="cls-3" d="M16.25 16.25h8v8h-8zM8.25 16.25h8v8h-8z"/><path class="cls-2" d="M.25 16.25h8v8h-8zM.25 24.25h8v8h-8zM8.25 24.25h8v8h-8z"/><path class="cls-3" d="M16.25 24.25h8v8h-8zM8.25 8.25h8v8h-8zM.25 8.25h8v8h-8z"/></g></svg>