<svg xmlns="http://www.w3.org/2000/svg" viewBox="0 0 64 56" style="enable-background:new 0 0 64 56" xml:space="preserve"><style>.st40{fill:#9acfe2}.st41{fill:#61abd3}.st42{fill:#5b9fbc}.st43{fill:#549ab2}</style><g id="grid"><g id="XMLID_00000110446756708687683850000006831911672110313879_"><path class="st41" d="M56 48h8v8h-8z"/><path class="st43" d="M56 40h8v8h-8zM56 32h8v8h-8z"/><path class="st42" d="M56 24h8v8h-8zM56 16h8v8h-8zM56 8h8v8h-8z"/><path class="st41" d="M56 0h8v8h-8zM48 48h8v8h-8z"/><path class="st43" d="M48 40h8v8h-8z"/><path class="st41" d="M48 32h8v8h-8zM48 24h8v8h-8zM48 16h8v8h-8z"/><path class="st42" d="M48 8h8v8h-8z"/><path class="st41" d="M48 0h8v8h-8zM40 48h8v8h-8zM40 40h8v8h-8zM40 32h8v8h-8z"/><path class="st42" d="M40 24h8v8h-8z"/><path class="st41" d="M40 16h8v8h-8zM40 8h8v8h-8zM40 0h8v8h-8zM32 48h8v8h-8zM32 40h8v8h-8z"/><path class="st42" d="M32 32h8v8h-8zM32 24h8v8h-8zM32 16h8v8h-8z"/><path class="st41" d="M32 8h8v8h-8z"/><path class="st40" d="M32 0h8v8h-8z"/><path class="st41" d="M24 48h8v8h-8z"/><path class="st42" d="M24 40h8v8h-8zM24 32h8v8h-8z"/><path class="st40" d="M24 24h8v8h-8z"/><path class="st42" d="M24 16h8v8h-8z"/><path class="st43" d="M24 8h8v8h-8z"/><path class="st40" d="M24 0h8v8h-8z"/><path class="st41" d="M16 48h8v8h-8zM16 40h8v8h-8z"/><path class="st42" d="M16 32h8v8h-8zM16 24h8v8h-8z"/><path class="st43" d="M16 16h8v8h-8z"/><path class="st41" d="M16 8h8v8h-8z"/><path class="st40" d="M16 0h8v8h-8zM8 40h8v8H8z"/><path class="st41" d="M8 32h8v8H8z"/><path class="st43" d="M8 24h8v8H8z"/><path class="st41" d="M8 16h8v8H8z"/><path class="st40" d="M8 8h8v8H8zM0 32h8v8H0zM0 24h8v8H0zM0 16h8v8H0z"/></g></g></svg>