<svg xmlns="http://www.w3.org/2000/svg" viewBox="0 0 552 56" style="enable-background:new 0 0 552 56" xml:space="preserve"><style>.st41{fill:#61abd3}.st42{fill:#5b9fbc}.st43{fill:#549ab2}</style><g id="grid"><g id="XMLID_00000110446756708687683850000006831911672110313879_"><path class="st41" d="M544 0h8v8h-8z"/><path class="st42" d="M544 8h8v8h-8zM544 16h8v8h-8zM544 24h8v8h-8zM544 32h8v8h-8z"/><path class="st43" d="M544 40h8v8h-8z"/><path class="st41" d="M544 48h8v8h-8zM536 0h8v8h-8z"/><path class="st42" d="M536 8h8v8h-8zM536 16h8v8h-8zM536 24h8v8h-8zM536 32h8v8h-8z"/><path class="st43" d="M536 40h8v8h-8z"/><path class="st41" d="M536 48h8v8h-8zM528 0h8v8h-8z"/><path class="st42" d="M528 8h8v8h-8zM528 16h8v8h-8zM528 24h8v8h-8zM528 32h8v8h-8z"/><path class="st43" d="M528 40h8v8h-8z"/><path class="st41" d="M528 48h8v8h-8zM520 0h8v8h-8z"/><path class="st42" d="M520 8h8v8h-8zM520 16h8v8h-8zM520 24h8v8h-8zM520 32h8v8h-8z"/><path class="st43" d="M520 40h8v8h-8z"/><path class="st41" d="M520 48h8v8h-8zM512 0h8v8h-8z"/><path class="st42" d="M512 8h8v8h-8zM512 16h8v8h-8zM512 24h8v8h-8zM512 32h8v8h-8z"/><path class="st43" d="M512 40h8v8h-8z"/><path class="st41" d="M512 48h8v8h-8zM504 0h8v8h-8z"/><path class="st42" d="M504 8h8v8h-8zM504 16h8v8h-8zM504 24h8v8h-8zM504 32h8v8h-8z"/><path class="st43" d="M504 40h8v8h-8z"/><path class="st41" d="M504 48h8v8h-8zM496 0h8v8h-8z"/><path class="st42" d="M496 8h8v8h-8zM496 16h8v8h-8zM496 24h8v8h-8zM496 32h8v8h-8z"/><path class="st43" d="M496 40h8v8h-8z"/><path class="st41" d="M496 48h8v8h-8zM488 0h8v8h-8z"/><path class="st42" d="M488 8h8v8h-8zM488 16h8v8h-8zM488 24h8v8h-8zM488 32h8v8h-8z"/><path class="st43" d="M488 40h8v8h-8z"/><path class="st41" d="M488 48h8v8h-8zM480 0h8v8h-8z"/><path class="st42" d="M480 8h8v8h-8zM480 16h8v8h-8zM480 24h8v8h-8zM480 32h8v8h-8z"/><path class="st43" d="M480 40h8v8h-8z"/><path class="st41" d="M480 48h8v8h-8zM472 0h8v8h-8z"/><path class="st42" d="M472 8h8v8h-8zM472 16h8v8h-8zM472 24h8v8h-8zM472 32h8v8h-8z"/><path class="st43" d="M472 40h8v8h-8z"/><path class="st41" d="M472 48h8v8h-8zM464 0h8v8h-8z"/><path class="st42" d="M464 8h8v8h-8zM464 16h8v8h-8zM464 24h8v8h-8zM464 32h8v8h-8z"/><path class="st43" d="M464 40h8v8h-8z"/><path class="st41" d="M464 48h8v8h-8zM456 0h8v8h-8z"/><path class="st42" d="M456 8h8v8h-8zM456 16h8v8h-8zM456 24h8v8h-8zM456 32h8v8h-8z"/><path class="st43" d="M456 40h8v8h-8z"/><path class="st41" d="M456 48h8v8h-8zM448 0h8v8h-8z"/><path class="st42" d="M448 8h8v8h-8zM448 16h8v8h-8zM448 24h8v8h-8zM448 32h8v8h-8z"/><path class="st43" d="M448 40h8v8h-8z"/><path class="st41" d="M448 48h8v8h-8zM440 0h8v8h-8z"/><path class="st42" d="M440 8h8v8h-8zM440 16h8v8h-8zM440 24h8v8h-8zM440 32h8v8h-8z"/><path class="st43" d="M440 40h8v8h-8z"/><path class="st41" d="M440 48h8v8h-8zM432 0h8v8h-8z"/><path class="st42" d="M432 8h8v8h-8zM432 16h8v8h-8zM432 24h8v8h-8zM432 32h8v8h-8z"/><path class="st43" d="M432 40h8v8h-8z"/><path class="st41" d="M432 48h8v8h-8zM424 0h8v8h-8z"/><path class="st42" d="M424 8h8v8h-8zM424 16h8v8h-8zM424 24h8v8h-8zM424 32h8v8h-8z"/><path class="st43" d="M424 40h8v8h-8z"/><path class="st41" d="M424 48h8v8h-8zM416 0h8v8h-8z"/><path class="st42" d="M416 8h8v8h-8zM416 16h8v8h-8zM416 24h8v8h-8zM416 32h8v8h-8z"/><path class="st43" d="M416 40h8v8h-8z"/><path class="st41" d="M416 48h8v8h-8zM408 0h8v8h-8z"/><path class="st42" d="M408 8h8v8h-8zM408 16h8v8h-8zM408 24h8v8h-8zM408 32h8v8h-8z"/><path class="st43" d="M408 40h8v8h-8z"/><path class="st41" d="M408 48h8v8h-8zM400 0h8v8h-8z"/><path class="st42" d="M400 8h8v8h-8zM400 16h8v8h-8zM400 24h8v8h-8zM400 32h8v8h-8z"/><path class="st43" d="M400 40h8v8h-8z"/><path class="st41" d="M400 48h8v8h-8zM392 0h8v8h-8z"/><path class="st42" d="M392 8h8v8h-8zM392 16h8v8h-8zM392 24h8v8h-8zM392 32h8v8h-8z"/><path class="st43" d="M392 40h8v8h-8z"/><path class="st41" d="M392 48h8v8h-8zM384 0h8v8h-8z"/><path class="st42" d="M384 8h8v8h-8zM384 16h8v8h-8zM384 24h8v8h-8zM384 32h8v8h-8z"/><path class="st43" d="M384 40h8v8h-8z"/><path class="st41" d="M384 48h8v8h-8zM376 0h8v8h-8z"/><path class="st42" d="M376 8h8v8h-8zM376 16h8v8h-8zM376 24h8v8h-8zM376 32h8v8h-8z"/><path class="st43" d="M376 40h8v8h-8z"/><path class="st41" d="M376 48h8v8h-8zM368 0h8v8h-8z"/><path class="st42" d="M368 8h8v8h-8zM368 16h8v8h-8zM368 24h8v8h-8zM368 32h8v8h-8z"/><path class="st43" d="M368 40h8v8h-8z"/><path class="st41" d="M368 48h8v8h-8zM360 0h8v8h-8z"/><path class="st42" d="M360 8h8v8h-8zM360 16h8v8h-8zM360 24h8v8h-8zM360 32h8v8h-8z"/><path class="st43" d="M360 40h8v8h-8z"/><path class="st41" d="M360 48h8v8h-8zM352 0h8v8h-8z"/><path class="st42" d="M352 8h8v8h-8zM352 16h8v8h-8zM352 24h8v8h-8zM352 32h8v8h-8z"/><path class="st43" d="M352 40h8v8h-8z"/><path class="st41" d="M352 48h8v8h-8zM344 0h8v8h-8z"/><path class="st42" d="M344 8h8v8h-8zM344 16h8v8h-8zM344 24h8v8h-8zM344 32h8v8h-8z"/><path class="st43" d="M344 40h8v8h-8z"/><path class="st41" d="M344 48h8v8h-8zM336 0h8v8h-8z"/><path class="st42" d="M336 8h8v8h-8zM336 16h8v8h-8zM336 24h8v8h-8zM336 32h8v8h-8z"/><path class="st43" d="M336 40h8v8h-8z"/><path class="st41" d="M336 48h8v8h-8zM328 0h8v8h-8z"/><path class="st42" d="M328 8h8v8h-8zM328 16h8v8h-8zM328 24h8v8h-8zM328 32h8v8h-8z"/><path class="st43" d="M328 40h8v8h-8z"/><path class="st41" d="M328 48h8v8h-8zM320 0h8v8h-8z"/><path class="st42" d="M320 8h8v8h-8zM320 16h8v8h-8zM320 24h8v8h-8zM320 32h8v8h-8z"/><path class="st43" d="M320 40h8v8h-8z"/><path class="st41" d="M320 48h8v8h-8zM312 0h8v8h-8z"/><path class="st42" d="M312 8h8v8h-8zM312 16h8v8h-8zM312 24h8v8h-8zM312 32h8v8h-8z"/><path class="st43" d="M312 40h8v8h-8z"/><path class="st41" d="M312 48h8v8h-8zM304 0h8v8h-8z"/><path class="st42" d="M304 8h8v8h-8zM304 16h8v8h-8zM304 24h8v8h-8zM304 32h8v8h-8z"/><path class="st43" d="M304 40h8v8h-8z"/><path class="st41" d="M304 48h8v8h-8zM296 0h8v8h-8z"/><path class="st42" d="M296 8h8v8h-8zM296 16h8v8h-8zM296 24h8v8h-8zM296 32h8v8h-8z"/><path class="st43" d="M296 40h8v8h-8z"/><path class="st41" d="M296 48h8v8h-8zM288 0h8v8h-8z"/><path class="st42" d="M288 8h8v8h-8zM288 16h8v8h-8zM288 24h8v8h-8zM288 32h8v8h-8z"/><path class="st43" d="M288 40h8v8h-8z"/><path class="st41" d="M288 48h8v8h-8zM280 0h8v8h-8z"/><path class="st42" d="M280 8h8v8h-8zM280 16h8v8h-8zM280 24h8v8h-8zM280 32h8v8h-8z"/><path class="st43" d="M280 40h8v8h-8z"/><path class="st41" d="M280 48h8v8h-8zM272 0h8v8h-8z"/><path class="st42" d="M272 8h8v8h-8zM272 16h8v8h-8zM272 24h8v8h-8zM272 32h8v8h-8z"/><path class="st43" d="M272 40h8v8h-8z"/><path class="st41" d="M272 48h8v8h-8zM264 0h8v8h-8z"/><path class="st42" d="M264 8h8v8h-8zM264 16h8v8h-8zM264 24h8v8h-8zM264 32h8v8h-8z"/><path class="st43" d="M264 40h8v8h-8z"/><path class="st41" d="M264 48h8v8h-8zM256 0h8v8h-8z"/><path class="st42" d="M256 8h8v8h-8zM256 16h8v8h-8zM256 24h8v8h-8zM256 32h8v8h-8z"/><path class="st43" d="M256 40h8v8h-8z"/><path class="st41" d="M256 48h8v8h-8zM248 0h8v8h-8z"/><path class="st42" d="M248 8h8v8h-8zM248 16h8v8h-8zM248 24h8v8h-8zM248 32h8v8h-8z"/><path class="st43" d="M248 40h8v8h-8z"/><path class="st41" d="M248 48h8v8h-8zM240 0h8v8h-8z"/><path class="st42" d="M240 8h8v8h-8zM240 16h8v8h-8zM240 24h8v8h-8zM240 32h8v8h-8z"/><path class="st43" d="M240 40h8v8h-8z"/><path class="st41" d="M240 48h8v8h-8zM232 0h8v8h-8z"/><path class="st42" d="M232 8h8v8h-8zM232 16h8v8h-8zM232 24h8v8h-8zM232 32h8v8h-8z"/><path class="st43" d="M232 40h8v8h-8z"/><path class="st41" d="M232 48h8v8h-8zM224 0h8v8h-8z"/><path class="st42" d="M224 8h8v8h-8zM224 16h8v8h-8zM224 24h8v8h-8zM224 32h8v8h-8z"/><path class="st43" d="M224 40h8v8h-8z"/><path class="st41" d="M224 48h8v8h-8zM216 0h8v8h-8z"/><path class="st42" d="M216 8h8v8h-8zM216 16h8v8h-8zM216 24h8v8h-8zM216 32h8v8h-8z"/><path class="st43" d="M216 40h8v8h-8z"/><path class="st41" d="M216 48h8v8h-8zM208 0h8v8h-8z"/><path class="st42" d="M208 8h8v8h-8zM208 16h8v8h-8zM208 24h8v8h-8zM208 32h8v8h-8z"/><path class="st43" d="M208 40h8v8h-8z"/><path class="st41" d="M208 48h8v8h-8zM200 0h8v8h-8z"/><path class="st42" d="M200 8h8v8h-8zM200 16h8v8h-8zM200 24h8v8h-8zM200 32h8v8h-8z"/><path class="st43" d="M200 40h8v8h-8z"/><path class="st41" d="M200 48h8v8h-8zM192 0h8v8h-8z"/><path class="st42" d="M192 8h8v8h-8zM192 16h8v8h-8zM192 24h8v8h-8zM192 32h8v8h-8z"/><path class="st43" d="M192 40h8v8h-8z"/><path class="st41" d="M192 48h8v8h-8zM184 0h8v8h-8z"/><path class="st42" d="M184 8h8v8h-8zM184 16h8v8h-8zM184 24h8v8h-8zM184 32h8v8h-8z"/><path class="st43" d="M184 40h8v8h-8z"/><path class="st41" d="M184 48h8v8h-8zM176 0h8v8h-8z"/><path class="st42" d="M176 8h8v8h-8zM176 16h8v8h-8zM176 24h8v8h-8zM176 32h8v8h-8z"/><path class="st43" d="M176 40h8v8h-8z"/><path class="st41" d="M176 48h8v8h-8zM168 0h8v8h-8z"/><path class="st42" d="M168 8h8v8h-8zM168 16h8v8h-8zM168 24h8v8h-8zM168 32h8v8h-8z"/><path class="st43" d="M168 40h8v8h-8z"/><path class="st41" d="M168 48h8v8h-8zM160 0h8v8h-8z"/><path class="st42" d="M160 8h8v8h-8zM160 16h8v8h-8zM160 24h8v8h-8zM160 32h8v8h-8z"/><path class="st43" d="M160 40h8v8h-8z"/><path class="st41" d="M160 48h8v8h-8zM152 0h8v8h-8z"/><path class="st42" d="M152 8h8v8h-8zM152 16h8v8h-8zM152 24h8v8h-8zM152 32h8v8h-8z"/><path class="st43" d="M152 40h8v8h-8z"/><path class="st41" d="M152 48h8v8h-8zM144 0h8v8h-8z"/><path class="st42" d="M144 8h8v8h-8zM144 16h8v8h-8zM144 24h8v8h-8zM144 32h8v8h-8z"/><path class="st43" d="M144 40h8v8h-8z"/><path class="st41" d="M144 48h8v8h-8zM136 0h8v8h-8z"/><path class="st42" d="M136 8h8v8h-8zM136 16h8v8h-8zM136 24h8v8h-8zM136 32h8v8h-8z"/><path class="st43" d="M136 40h8v8h-8z"/><path class="st41" d="M136 48h8v8h-8zM128 0h8v8h-8z"/><path class="st42" d="M128 8h8v8h-8zM128 16h8v8h-8zM128 24h8v8h-8zM128 32h8v8h-8z"/><path class="st43" d="M128 40h8v8h-8z"/><path class="st41" d="M128 48h8v8h-8zM120 0h8v8h-8z"/><path class="st42" d="M120 8h8v8h-8zM120 16h8v8h-8zM120 24h8v8h-8zM120 32h8v8h-8z"/><path class="st43" d="M120 40h8v8h-8z"/><path class="st41" d="M120 48h8v8h-8zM112 0h8v8h-8z"/><path class="st42" d="M112 8h8v8h-8zM112 16h8v8h-8zM112 24h8v8h-8zM112 32h8v8h-8z"/><path class="st43" d="M112 40h8v8h-8z"/><path class="st41" d="M112 48h8v8h-8zM104 0h8v8h-8z"/><path class="st42" d="M104 8h8v8h-8zM104 16h8v8h-8zM104 24h8v8h-8zM104 32h8v8h-8z"/><path class="st43" d="M104 40h8v8h-8z"/><path class="st41" d="M104 48h8v8h-8zM96 0h8v8h-8z"/><path class="st42" d="M96 8h8v8h-8zM96 16h8v8h-8zM96 24h8v8h-8zM96 32h8v8h-8z"/><path class="st43" d="M96 40h8v8h-8z"/><path class="st41" d="M96 48h8v8h-8zM88 0h8v8h-8z"/><path class="st42" d="M88 8h8v8h-8zM88 16h8v8h-8zM88 24h8v8h-8zM88 32h8v8h-8z"/><path class="st43" d="M88 40h8v8h-8z"/><path class="st41" d="M88 48h8v8h-8zM80 0h8v8h-8z"/><path class="st42" d="M80 8h8v8h-8zM80 16h8v8h-8zM80 24h8v8h-8zM80 32h8v8h-8z"/><path class="st43" d="M80 40h8v8h-8z"/><path class="st41" d="M80 48h8v8h-8zM72 0h8v8h-8z"/><path class="st42" d="M72 8h8v8h-8zM72 16h8v8h-8zM72 24h8v8h-8zM72 32h8v8h-8z"/><path class="st43" d="M72 40h8v8h-8z"/><path class="st41" d="M72 48h8v8h-8zM64 0h8v8h-8z"/><path class="st42" d="M64 8h8v8h-8zM64 16h8v8h-8zM64 24h8v8h-8zM64 32h8v8h-8z"/><path class="st43" d="M64 40h8v8h-8z"/><path class="st41" d="M64 48h8v8h-8zM56 0h8v8h-8z"/><path class="st42" d="M56 8h8v8h-8zM56 16h8v8h-8zM56 24h8v8h-8zM56 32h8v8h-8z"/><path class="st43" d="M56 40h8v8h-8z"/><path class="st41" d="M56 48h8v8h-8zM48 0h8v8h-8z"/><path class="st42" d="M48 8h8v8h-8zM48 16h8v8h-8zM48 24h8v8h-8zM48 32h8v8h-8z"/><path class="st43" d="M48 40h8v8h-8z"/><path class="st41" d="M48 48h8v8h-8zM40 0h8v8h-8z"/><path class="st42" d="M40 8h8v8h-8zM40 16h8v8h-8zM40 24h8v8h-8zM40 32h8v8h-8z"/><path class="st43" d="M40 40h8v8h-8z"/><path class="st41" d="M40 48h8v8h-8zM32 0h8v8h-8z"/><path class="st42" d="M32 8h8v8h-8zM32 16h8v8h-8zM32 24h8v8h-8zM32 32h8v8h-8z"/><path class="st43" d="M32 40h8v8h-8z"/><path class="st41" d="M32 48h8v8h-8zM24 0h8v8h-8z"/><path class="st42" d="M24 8h8v8h-8zM24 16h8v8h-8zM24 24h8v8h-8zM24 32h8v8h-8z"/><path class="st43" d="M24 40h8v8h-8z"/><path class="st41" d="M24 48h8v8h-8zM16 48h8v8h-8z"/><path class="st43" d="M16 40h8v8h-8z"/><path class="st42" d="M16 32h8v8h-8zM16 24h8v8h-8zM16 16h8v8h-8zM16 8h8v8h-8z"/><path class="st41" d="M16 0h8v8h-8zM8 48h8v8H8z"/><path class="st43" d="M8 40h8v8H8z"/><path class="st42" d="M8 32h8v8H8zM8 24h8v8H8zM8 16h8v8H8zM8 8h8v8H8z"/><path class="st41" d="M8 0h8v8H8zM0 48h8v8H0z"/><path class="st43" d="M0 40h8v8H0z"/><path class="st42" d="M0 32h8v8H0zM0 24h8v8H0zM0 16h8v8H0zM0 8h8v8H0z"/><path class="st41" d="M0 0h8v8H0z"/></g></g></svg>