<svg id="grid" xmlns="http://www.w3.org/2000/svg" viewBox="0 0 300 80"><defs><style>.cls-1{fill:#fff}</style></defs><path class="cls-1" d="M35.14 51.64H11.85v15.55h23.28V51.64Zm-4.07 11.48H15.93v-7.4h15.13v7.4ZM101.79 51.64H78.51v15.55h23.28V51.64Zm-4.07 11.48H82.59v-7.4h15.13v7.4ZM171.64 36.18v31.01h23.28V36.18h-23.28Zm19.21 26.94h-15.13V40.26h15.13v22.86ZM241.49 36.18h-23.28v31.01h23.28V36.18Zm-4.07 26.94h-15.13V40.26h15.13v22.86Z"/><path class="cls-1" d="M295.88 32.11h-3.75v-7.82H260.7v7.82h-7.31V1h-15.97v23.28h-23.28v7.82h-15.13v-7.82h-31.43v7.82h-15.14v-7.82h-31.43v7.82h-15.13v-7.82H74.45v23.28h-7.73v15.55h-3.93V1h-23.7v15.97h7.82V32.1h-7.68v-7.82H7.78v23.28H.05v23.7h7.73v7.73H70.5v-7.73h3.93v7.73h39.26v-7.73H121v7.73h31.43v-7.73h15.14v7.73H199v-7.73h15.13v7.73h39.26v-7.73h7.31v7.73h31.43v-7.73h7.82V32.11h-4.07ZM42.96 74.93H11.85V67.2H4.12V51.65h7.73v-7.73h23.28v-7.73H11.85v-7.82h23.28v7.82h7.82v38.74Zm23.46 0H50.96V12.9h-7.82V5.07h15.55v62.12h7.73v7.73Zm43.19 0H78.5V67.2h-7.73V51.65h7.73v-7.73h23.28v-7.73H78.5v-7.82h23.28v7.82h7.82v38.74Zm46.57-7.73h-7.82v7.73h-23.28V67.2h-7.73V36.19h7.73v-7.82h23.28v7.82h7.82v7.73h-7.82v-7.73h-23.28V67.2h23.28v-7.73h7.82v7.73Zm0-11.81h-11.9v7.73h-15.13V40.26h15.13v7.73h15.55v7.4h-3.65Zm46.57 11.81h-7.82v7.73h-23.28V67.2h-7.73V36.19h7.73v-7.82h23.28v7.82h7.82V67.2Zm46.57 7.73h-31.11V67.2h-7.73V36.19h7.73v-7.82h23.28V5.07h7.82v69.86Zm46.57-23.28h-31.11V67.2h23.28v-7.73h7.82v7.73h-7.82v7.73h-23.28V67.2h-7.73V36.19h7.73v-7.82h23.28v7.82h7.82v15.46Zm-11.9 4.07v7.4h-15.13v-7.4h15.13Z"/><path class="cls-1" d="M264.77 36.18h23.28v7.73h-23.28z"/></svg>