<svg id="grid" xmlns="http://www.w3.org/2000/svg" viewBox="0 0 300 80"><defs><style>.cls-1{fill:#b4ff9f}</style></defs><path class="cls-1" d="M11.85 36.18v-7.82h23.28v7.82h7.82v38.74h-31.1v-7.73h23.28V51.64H11.85v15.55H4.12V51.64h7.73v-7.73h23.28v-7.73H11.85ZM43.14 12.9V5.07h15.55v62.12h7.73v7.73H50.96V12.9h-7.82ZM78.5 36.18v-7.82h23.28v7.82h7.82v38.74H78.49v-7.73h23.28V51.64H78.49v15.55h-7.73V51.64h7.73v-7.73h23.28v-7.73H78.49ZM125.07 67.19h-7.73V36.18h7.73v31.01Zm23.28-31.01h-23.28v-7.82h23.28v7.82Zm0 38.74h-23.28v-7.73h23.28v7.73Zm0-38.74h7.82v7.73h-7.82v-7.73Zm0 31.01v-7.73h7.82v7.73h-7.82ZM171.64 67.19h-7.73V36.18h7.73v31.01Zm23.28-31.01h-23.28v-7.82h23.28v7.82Zm0 38.74h-23.28v-7.73h23.28v7.73Zm0-7.73V36.18h7.82v31.01h-7.82ZM249.31 74.93H218.2V67.2h23.28V36.19H218.2V67.2h-7.73V36.19h7.73v-7.82h23.28V5.07h7.82v69.86ZM264.77 67.19h-7.73V36.18h7.73v7.73h23.28v-7.73h7.82v15.46h-31.11v15.55Zm23.28-31.01h-23.28v-7.82h23.28v7.82Zm0 38.74h-23.28v-7.73h23.28v7.73Zm0-7.73v-7.73h7.82v7.73h-7.82Z"/></svg>